<svg width="495" height="56" viewBox="0 0 495 56" fill="none" xmlns="http://www.w3.org/2000/svg">
<path d="M39 9H31V21H23V35H31V47H39V56H17V44H9V33H0V23H9V12H17V0H39V9Z" fill="#1866B1"/>
<path d="M71 12H79V23H88V33H79V44H71V56H49V47H57V35H65V21H57V9H49V0H71V12Z" fill="#3D6A54"/>
<path d="M138 9H130V21H122V35H130V47H138V56H116V44H108V33H99V23H108V12H116V0H138V9Z" fill="#A4CD39"/>
<path d="M170 12H178V23H187V33H178V44H170V56H148V47H156V35H164V21H156V9H148V0H170V12Z" fill="#DD3C37"/>
<path d="M237 9H229V21H221V35H229V47H237V56H215V44H207V33H198V23H207V12H215V0H237V9Z" fill="#754D2B"/>
<path d="M269 12H277V23H286V33H277V44H269V56H247V47H255V35H263V21H255V9H247V0H269V12Z" fill="#FAAF1C"/>
<path d="M336 9H328V21H320V35H328V47H336V56H314V44H306V33H297V23H306V12H314V0H336V9Z" fill="#DA7229"/>
<path d="M368 12H376V23H385V33H376V44H368V56H346V47H354V35H362V21H354V9H346V0H368V12Z" fill="#064A74"/>
<path d="M435 9H427V21H419V35H427V47H435V56H413V44H405V33H396V23H405V12H413V0H435V9Z" fill="#4CB649"/>
<path d="M467 12H475V23H484V33H475V44H467V56H445V47H453V35H461V21H453V9H445V0H467V12Z" fill="#901836"/>
</svg>
