<svg width="1270" height="400" viewBox="0 0 1270 400" fill="none" xmlns="http://www.w3.org/2000/svg">
<rect width="1270" height="400" fill="white"/>
<g clip-path="url(#clip0_210_31)">
<mask id="mask0_210_31" style="mask-type:luminance" maskUnits="userSpaceOnUse" x="50" y="50" width="462" height="300">
<path d="M512 50H50V350H512V50Z" fill="white"/>
</mask>
<g mask="url(#mask0_210_31)">
<path d="M512 50H50V350H512V50Z" fill="#003399"/>
<path d="M281 83.333L275.712 99.184L283.849 101.759L281 83.333Z" fill="#FFCC00"/>
<path d="M281 83.333L286.287 99.184L278.151 101.759L281 83.333Z" fill="#FFCC00"/>
<path d="M297.274 94.8496H280.162V103.183L297.274 94.8496Z" fill="#FFCC00"/>
<path d="M297.274 94.8496L283.43 104.646L278.401 97.9042L297.274 94.8496Z" fill="#FFCC00"/>
<path d="M291.058 113.484L285.77 97.6328L277.634 100.208L291.058 113.484Z" fill="#FFCC00"/>
<path d="M291.058 113.484L277.215 103.687L282.243 96.9453L291.058 113.484Z" fill="#FFCC00"/>
<path d="M264.726 94.8496H281.838V103.183L264.726 94.8496Z" fill="#FFCC00"/>
<path d="M264.726 94.8496L278.57 104.646L283.599 97.9042L264.726 94.8496Z" fill="#FFCC00"/>
<path d="M270.942 113.484L276.23 97.6328L284.366 100.208L270.942 113.484Z" fill="#FFCC00"/>
<path d="M270.942 113.484L284.785 103.687L279.756 96.9453L270.942 113.484Z" fill="#FFCC00"/>
<path d="M281 283.333L275.712 299.184L283.849 301.759L281 283.333Z" fill="#FFCC00"/>
<path d="M281 283.333L286.287 299.184L278.151 301.759L281 283.333Z" fill="#FFCC00"/>
<path d="M297.274 294.85H280.162V303.183L297.274 294.85Z" fill="#FFCC00"/>
<path d="M297.274 294.85L283.43 304.646L278.401 297.904L297.274 294.85Z" fill="#FFCC00"/>
<path d="M291.058 313.484L285.77 297.633L277.634 300.208L291.058 313.484Z" fill="#FFCC00"/>
<path d="M291.058 313.484L277.215 303.688L282.243 296.946L291.058 313.484Z" fill="#FFCC00"/>
<path d="M264.726 294.85H281.838V303.183L264.726 294.85Z" fill="#FFCC00"/>
<path d="M264.726 294.85L278.57 304.646L283.599 297.904L264.726 294.85Z" fill="#FFCC00"/>
<path d="M270.942 313.484L276.23 297.633L284.366 300.208L270.942 313.484Z" fill="#FFCC00"/>
<path d="M270.942 313.484L284.785 303.688L279.756 296.946L270.942 313.484Z" fill="#FFCC00"/>
<path d="M178.333 183.333L173.046 199.184L181.182 201.759L178.333 183.333Z" fill="#FFCC00"/>
<path d="M178.334 183.333L183.621 199.184L175.484 201.759L178.334 183.333Z" fill="#FFCC00"/>
<path d="M194.607 194.85H177.496V203.183L194.607 194.85Z" fill="#FFCC00"/>
<path d="M194.607 194.85L180.764 204.646L175.735 197.904L194.607 194.85Z" fill="#FFCC00"/>
<path d="M188.391 213.484L183.104 197.632L174.966 200.208L188.391 213.484Z" fill="#FFCC00"/>
<path d="M188.391 213.484L174.548 203.687L179.577 196.945L188.391 213.484Z" fill="#FFCC00"/>
<path d="M162.06 194.85H179.171V203.183L162.06 194.85Z" fill="#FFCC00"/>
<path d="M162.06 194.85L175.903 204.646L180.932 197.904L162.06 194.85Z" fill="#FFCC00"/>
<path d="M168.276 213.484L173.563 197.632L181.7 200.208L168.276 213.484Z" fill="#FFCC00"/>
<path d="M168.276 213.484L182.119 203.687L177.09 196.945L168.276 213.484Z" fill="#FFCC00"/>
<path d="M219.609 126.881L233.452 117.085L228.424 110.343L219.609 126.881Z" fill="#FFCC00"/>
<path d="M219.609 126.881L224.897 111.03L233.034 113.605L219.609 126.881Z" fill="#FFCC00"/>
<path d="M213.393 108.248L227.236 118.044L232.265 111.302L213.393 108.248Z" fill="#FFCC00"/>
<path d="M213.393 108.248H230.504V116.581L213.393 108.248Z" fill="#FFCC00"/>
<path d="M229.666 96.731L224.379 112.582L232.516 115.157L229.666 96.731Z" fill="#FFCC00"/>
<path d="M229.666 96.731L234.955 112.582L226.817 115.157L229.666 96.731Z" fill="#FFCC00"/>
<path d="M239.724 126.881L225.881 117.085L230.91 110.343L239.724 126.881Z" fill="#FFCC00"/>
<path d="M239.724 126.881L234.437 111.03L226.3 113.605L239.724 126.881Z" fill="#FFCC00"/>
<path d="M245.94 108.247L232.097 118.043L227.068 111.302L245.94 108.247Z" fill="#FFCC00"/>
<path d="M245.94 108.247H228.829V116.58L245.94 108.247Z" fill="#FFCC00"/>
<path d="M202.146 163.483L196.858 147.633L188.722 150.208L202.146 163.483Z" fill="#FFCC00"/>
<path d="M202.146 163.483L188.303 153.687L193.332 146.945L202.146 163.483Z" fill="#FFCC00"/>
<path d="M182.03 163.484L195.873 153.688L190.844 146.946L182.03 163.484Z" fill="#FFCC00"/>
<path d="M182.03 163.484L187.318 147.633L195.455 150.208L182.03 163.484Z" fill="#FFCC00"/>
<path d="M175.814 144.85L189.657 154.646L194.686 147.904L175.814 144.85Z" fill="#FFCC00"/>
<path d="M175.814 144.85H192.925V153.183L175.814 144.85Z" fill="#FFCC00"/>
<path d="M208.362 144.85L194.519 154.646L189.49 147.904L208.362 144.85Z" fill="#FFCC00"/>
<path d="M208.362 144.85H191.251V153.183L208.362 144.85Z" fill="#FFCC00"/>
<path d="M192.088 133.333L197.376 149.184L189.239 151.759L192.088 133.333Z" fill="#FFCC00"/>
<path d="M192.088 133.333L186.801 149.184L194.937 151.759L192.088 133.333Z" fill="#FFCC00"/>
<path d="M208.362 244.85H191.25V253.183L208.362 244.85Z" fill="#FFCC00"/>
<path d="M208.362 244.85L194.518 254.646L189.489 247.904L208.362 244.85Z" fill="#FFCC00"/>
<path d="M202.146 263.484L196.858 247.632L188.722 250.208L202.146 263.484Z" fill="#FFCC00"/>
<path d="M202.146 263.484L188.303 253.687L193.332 246.945L202.146 263.484Z" fill="#FFCC00"/>
<path d="M182.03 263.484L195.873 253.687L190.844 246.945L182.03 263.484Z" fill="#FFCC00"/>
<path d="M182.03 263.484L187.318 247.632L195.455 250.208L182.03 263.484Z" fill="#FFCC00"/>
<path d="M192.088 233.334L197.376 249.184L189.239 251.76L192.088 233.334Z" fill="#FFCC00"/>
<path d="M192.088 233.334L186.801 249.184L194.937 251.76L192.088 233.334Z" fill="#FFCC00"/>
<path d="M175.815 244.85H192.926V253.183L175.815 244.85Z" fill="#FFCC00"/>
<path d="M175.815 244.85L189.658 254.646L194.687 247.904L175.815 244.85Z" fill="#FFCC00"/>
<path d="M245.94 281.452H228.829V289.785L245.94 281.452Z" fill="#FFCC00"/>
<path d="M245.94 281.452L232.097 291.249L227.068 284.507L245.94 281.452Z" fill="#FFCC00"/>
<path d="M239.725 300.086L234.437 284.235L226.3 286.81L239.725 300.086Z" fill="#FFCC00"/>
<path d="M239.725 300.086L225.881 290.29L230.91 283.548L239.725 300.086Z" fill="#FFCC00"/>
<path d="M219.609 300.086L233.452 290.29L228.424 283.548L219.609 300.086Z" fill="#FFCC00"/>
<path d="M219.609 300.086L224.897 284.235L233.034 286.81L219.609 300.086Z" fill="#FFCC00"/>
<path d="M229.666 269.936L234.954 285.787L226.817 288.362L229.666 269.936Z" fill="#FFCC00"/>
<path d="M229.666 269.936L224.379 285.787L232.516 288.362L229.666 269.936Z" fill="#FFCC00"/>
<path d="M213.393 281.452H230.504V289.785L213.393 281.452Z" fill="#FFCC00"/>
<path d="M213.393 281.452L227.236 291.249L232.265 284.507L213.393 281.452Z" fill="#FFCC00"/>
<path d="M383.666 183.333L388.954 199.184L380.817 201.759L383.666 183.333Z" fill="#FFCC00"/>
<path d="M383.666 183.333L378.379 199.184L386.516 201.759L383.666 183.333Z" fill="#FFCC00"/>
<path d="M367.393 194.85H384.504V203.183L367.393 194.85Z" fill="#FFCC00"/>
<path d="M367.393 194.85L381.236 204.646L386.265 197.904L367.393 194.85Z" fill="#FFCC00"/>
<path d="M373.609 213.484L378.897 197.632L387.034 200.208L373.609 213.484Z" fill="#FFCC00"/>
<path d="M373.609 213.484L387.452 203.687L382.424 196.945L373.609 213.484Z" fill="#FFCC00"/>
<path d="M399.94 194.85H382.829V203.183L399.94 194.85Z" fill="#FFCC00"/>
<path d="M399.94 194.85L386.097 204.646L381.068 197.904L399.94 194.85Z" fill="#FFCC00"/>
<path d="M393.724 213.484L388.437 197.632L380.3 200.208L393.724 213.484Z" fill="#FFCC00"/>
<path d="M393.724 213.484L379.881 203.687L384.91 196.945L393.724 213.484Z" fill="#FFCC00"/>
<path d="M342.391 126.881L328.547 117.085L333.576 110.343L342.391 126.881Z" fill="#FFCC00"/>
<path d="M342.391 126.881L337.103 111.03L328.966 113.605L342.391 126.881Z" fill="#FFCC00"/>
<path d="M348.607 108.248L334.764 118.044L329.735 111.302L348.607 108.248Z" fill="#FFCC00"/>
<path d="M348.607 108.248H331.496V116.581L348.607 108.248Z" fill="#FFCC00"/>
<path d="M332.334 96.731L337.621 112.582L329.484 115.157L332.334 96.731Z" fill="#FFCC00"/>
<path d="M332.334 96.731L327.045 112.582L335.183 115.157L332.334 96.731Z" fill="#FFCC00"/>
<path d="M322.276 126.881L336.119 117.085L331.09 110.343L322.276 126.881Z" fill="#FFCC00"/>
<path d="M322.276 126.881L327.563 111.03L335.7 113.605L322.276 126.881Z" fill="#FFCC00"/>
<path d="M316.06 108.247L329.903 118.043L334.931 111.302L316.06 108.247Z" fill="#FFCC00"/>
<path d="M316.06 108.247H333.17V116.58L316.06 108.247Z" fill="#FFCC00"/>
<path d="M359.854 163.483L365.142 147.633L373.278 150.208L359.854 163.483Z" fill="#FFCC00"/>
<path d="M359.854 163.483L373.697 153.687L368.668 146.945L359.854 163.483Z" fill="#FFCC00"/>
<path d="M379.97 163.484L366.126 153.688L371.155 146.946L379.97 163.484Z" fill="#FFCC00"/>
<path d="M379.97 163.484L374.682 147.633L366.545 150.208L379.97 163.484Z" fill="#FFCC00"/>
<path d="M386.186 144.85L372.343 154.646L367.314 147.904L386.186 144.85Z" fill="#FFCC00"/>
<path d="M386.186 144.85H369.075V153.183L386.186 144.85Z" fill="#FFCC00"/>
<path d="M353.638 144.85L367.481 154.646L372.51 147.904L353.638 144.85Z" fill="#FFCC00"/>
<path d="M353.638 144.85H370.749V153.183L353.638 144.85Z" fill="#FFCC00"/>
<path d="M369.912 133.333L364.624 149.184L372.761 151.759L369.912 133.333Z" fill="#FFCC00"/>
<path d="M369.912 133.333L375.2 149.184L367.063 151.759L369.912 133.333Z" fill="#FFCC00"/>
<path d="M353.638 244.85H370.75V253.183L353.638 244.85Z" fill="#FFCC00"/>
<path d="M353.638 244.85L367.482 254.646L372.511 247.904L353.638 244.85Z" fill="#FFCC00"/>
<path d="M359.854 263.484L365.142 247.632L373.278 250.208L359.854 263.484Z" fill="#FFCC00"/>
<path d="M359.854 263.484L373.697 253.687L368.668 246.945L359.854 263.484Z" fill="#FFCC00"/>
<path d="M379.97 263.484L366.126 253.687L371.155 246.945L379.97 263.484Z" fill="#FFCC00"/>
<path d="M379.97 263.484L374.682 247.632L366.545 250.208L379.97 263.484Z" fill="#FFCC00"/>
<path d="M369.912 233.334L364.624 249.184L372.761 251.76L369.912 233.334Z" fill="#FFCC00"/>
<path d="M369.912 233.334L375.2 249.184L367.063 251.76L369.912 233.334Z" fill="#FFCC00"/>
<path d="M386.185 244.85H369.074V253.183L386.185 244.85Z" fill="#FFCC00"/>
<path d="M386.185 244.85L372.342 254.646L367.313 247.904L386.185 244.85Z" fill="#FFCC00"/>
<path d="M316.06 281.452H333.17V289.785L316.06 281.452Z" fill="#FFCC00"/>
<path d="M316.06 281.452L329.903 291.249L334.931 284.507L316.06 281.452Z" fill="#FFCC00"/>
<path d="M322.275 300.086L327.563 284.235L335.7 286.81L322.275 300.086Z" fill="#FFCC00"/>
<path d="M322.275 300.086L336.119 290.29L331.09 283.548L322.275 300.086Z" fill="#FFCC00"/>
<path d="M342.39 300.086L328.547 290.29L333.576 283.548L342.39 300.086Z" fill="#FFCC00"/>
<path d="M342.39 300.086L337.103 284.235L328.966 286.81L342.39 300.086Z" fill="#FFCC00"/>
<path d="M332.333 269.936L327.046 285.787L335.183 288.362L332.333 269.936Z" fill="#FFCC00"/>
<path d="M332.334 269.936L337.621 285.787L329.484 288.362L332.334 269.936Z" fill="#FFCC00"/>
<path d="M348.607 281.452H331.496V289.785L348.607 281.452Z" fill="#FFCC00"/>
<path d="M348.607 281.452L334.764 291.249L329.735 284.507L348.607 281.452Z" fill="#FFCC00"/>
</g>
</g>
<path d="M609.123 141.365L610.031 154.871H609.123C607.912 150.828 606.184 147.918 603.938 146.141C601.691 144.363 598.996 143.475 595.852 143.475C593.215 143.475 590.832 144.148 588.703 145.496C586.574 146.824 584.895 148.953 583.664 151.883C582.453 154.812 581.848 158.455 581.848 162.811C581.848 166.404 582.424 169.52 583.576 172.156C584.729 174.793 586.457 176.814 588.762 178.221C591.086 179.627 593.732 180.33 596.701 180.33C599.279 180.33 601.555 179.783 603.527 178.689C605.5 177.576 607.668 175.379 610.031 172.098L610.939 172.684C608.947 176.219 606.623 178.807 603.967 180.447C601.311 182.088 598.156 182.908 594.504 182.908C587.922 182.908 582.824 180.467 579.211 175.584C576.516 171.951 575.168 167.674 575.168 162.752C575.168 158.787 576.057 155.145 577.834 151.824C579.611 148.504 582.053 145.936 585.158 144.119C588.283 142.283 591.691 141.365 595.383 141.365C598.254 141.365 601.086 142.068 603.879 143.475C604.699 143.904 605.285 144.119 605.637 144.119C606.164 144.119 606.623 143.934 607.014 143.562C607.521 143.035 607.883 142.303 608.098 141.365H609.123ZM634.963 141.365C640.119 141.365 644.582 143.328 648.352 147.254C652.141 151.16 654.035 156.043 654.035 161.902C654.035 167.938 652.131 172.947 648.322 176.932C644.514 180.916 639.904 182.908 634.494 182.908C629.025 182.908 624.426 180.965 620.695 177.078C616.984 173.191 615.129 168.162 615.129 161.99C615.129 155.682 617.277 150.535 621.574 146.551C625.305 143.094 629.768 141.365 634.963 141.365ZM634.406 143.504C630.852 143.504 628 144.822 625.852 147.459C623.176 150.74 621.838 155.545 621.838 161.873C621.838 168.357 623.225 173.348 625.998 176.844C628.127 179.5 630.939 180.828 634.436 180.828C638.166 180.828 641.242 179.373 643.664 176.463C646.105 173.553 647.326 168.963 647.326 162.693C647.326 155.896 645.988 150.828 643.312 147.488C641.164 144.832 638.195 143.504 634.406 143.504ZM668.654 144.441V160.057H675.891C677.551 160.057 678.762 159.695 679.523 158.973C680.305 158.23 680.822 156.775 681.076 154.607H682.16V168.055H681.076C681.057 166.512 680.852 165.379 680.461 164.656C680.09 163.934 679.562 163.396 678.879 163.045C678.215 162.674 677.219 162.488 675.891 162.488H668.654V174.969C668.654 176.98 668.781 178.309 669.035 178.953C669.23 179.441 669.641 179.861 670.266 180.213C671.125 180.682 672.023 180.916 672.961 180.916H674.396V182H657.346V180.916H658.752C660.393 180.916 661.584 180.438 662.326 179.48C662.795 178.855 663.029 177.352 663.029 174.969V149.305C663.029 147.293 662.902 145.965 662.648 145.32C662.453 144.832 662.053 144.412 661.447 144.061C660.607 143.592 659.709 143.357 658.752 143.357H657.346V142.273H686.906L687.287 151.004H686.262C685.754 149.148 685.158 147.791 684.475 146.932C683.811 146.053 682.98 145.418 681.984 145.027C681.008 144.637 679.484 144.441 677.414 144.441H668.654ZM708.293 180.916V182H691.271V180.916H692.678C694.318 180.916 695.51 180.438 696.252 179.48C696.721 178.855 696.955 177.352 696.955 174.969V149.305C696.955 147.293 696.828 145.965 696.574 145.32C696.379 144.832 695.979 144.412 695.373 144.061C694.514 143.592 693.615 143.357 692.678 143.357H691.271V142.273H708.293V143.357H706.857C705.236 143.357 704.055 143.836 703.312 144.793C702.824 145.418 702.58 146.922 702.58 149.305V174.969C702.58 176.98 702.707 178.309 702.961 178.953C703.156 179.441 703.566 179.861 704.191 180.213C705.031 180.682 705.92 180.916 706.857 180.916H708.293ZM708.967 142.273H719.748L744.035 172.068V149.158C744.035 146.717 743.762 145.193 743.215 144.588C742.492 143.768 741.35 143.357 739.787 143.357H738.41V142.273H752.238V143.357H750.832C749.152 143.357 747.961 143.865 747.258 144.881C746.828 145.506 746.613 146.932 746.613 149.158V182.645H745.559L719.367 150.652V175.115C719.367 177.557 719.631 179.08 720.158 179.686C720.9 180.506 722.043 180.916 723.586 180.916H724.992V182H711.164V180.916H712.541C714.24 180.916 715.441 180.408 716.145 179.393C716.574 178.768 716.789 177.342 716.789 175.115V147.488C715.637 146.141 714.758 145.252 714.152 144.822C713.566 144.393 712.697 143.992 711.545 143.621C710.979 143.445 710.119 143.357 708.967 143.357V142.273ZM780.568 168.699H765.188L762.492 174.969C761.828 176.512 761.496 177.664 761.496 178.426C761.496 179.031 761.779 179.568 762.346 180.037C762.932 180.486 764.182 180.779 766.096 180.916V182H753.586V180.916C755.246 180.623 756.32 180.242 756.809 179.773C757.805 178.836 758.908 176.932 760.119 174.061L774.094 141.365H775.119L788.947 174.412C790.061 177.068 791.066 178.797 791.965 179.598C792.883 180.379 794.152 180.818 795.773 180.916V182H780.1V180.916C781.682 180.838 782.746 180.574 783.293 180.125C783.859 179.676 784.143 179.129 784.143 178.484C784.143 177.625 783.752 176.268 782.971 174.412L780.568 168.699ZM779.748 166.531L773.01 150.477L766.096 166.531H779.748ZM795.686 142.273H806.467L830.754 172.068V149.158C830.754 146.717 830.48 145.193 829.934 144.588C829.211 143.768 828.068 143.357 826.506 143.357H825.129V142.273H838.957V143.357H837.551C835.871 143.357 834.68 143.865 833.977 144.881C833.547 145.506 833.332 146.932 833.332 149.158V182.645H832.277L806.086 150.652V175.115C806.086 177.557 806.35 179.08 806.877 179.686C807.619 180.506 808.762 180.916 810.305 180.916H811.711V182H797.883V180.916H799.26C800.959 180.916 802.16 180.408 802.863 179.393C803.293 178.768 803.508 177.342 803.508 175.115V147.488C802.355 146.141 801.477 145.252 800.871 144.822C800.285 144.393 799.416 143.992 798.264 143.621C797.697 143.445 796.838 143.357 795.686 143.357V142.273ZM874.553 142.273L874.992 151.59H873.879C873.664 149.949 873.371 148.777 873 148.074C872.395 146.941 871.584 146.111 870.568 145.584C869.572 145.037 868.254 144.764 866.613 144.764H861.018V175.115C861.018 177.557 861.281 179.08 861.809 179.686C862.551 180.506 863.693 180.916 865.236 180.916H866.613V182H849.768V180.916H851.174C852.854 180.916 854.045 180.408 854.748 179.393C855.178 178.768 855.393 177.342 855.393 175.115V144.764H850.617C848.762 144.764 847.443 144.9 846.662 145.174C845.646 145.545 844.777 146.258 844.055 147.312C843.332 148.367 842.902 149.793 842.766 151.59H841.652L842.121 142.273H874.553ZM854.777 195.535V194.48C855.695 194.48 856.555 194.275 857.355 193.865C858.156 193.455 858.771 192.908 859.201 192.225C859.631 191.541 859.846 190.896 859.846 190.291C859.846 189.939 859.787 189.686 859.67 189.529C859.533 189.373 859.387 189.295 859.23 189.295C859.094 189.295 858.85 189.383 858.498 189.559C858.01 189.832 857.59 189.969 857.238 189.969C856.496 189.969 855.9 189.744 855.451 189.295C855.002 188.846 854.777 188.221 854.777 187.42C854.777 186.6 855.061 185.926 855.627 185.398C856.193 184.871 856.936 184.607 857.854 184.607C858.928 184.607 859.846 185.027 860.607 185.867C861.369 186.707 861.75 187.859 861.75 189.324C861.75 191.492 860.93 193.191 859.289 194.422C858.41 195.105 856.906 195.477 854.777 195.535ZM903.967 168.699H888.586L885.891 174.969C885.227 176.512 884.895 177.664 884.895 178.426C884.895 179.031 885.178 179.568 885.744 180.037C886.33 180.486 887.58 180.779 889.494 180.916V182H876.984V180.916C878.645 180.623 879.719 180.242 880.207 179.773C881.203 178.836 882.307 176.932 883.518 174.061L897.492 141.365H898.518L912.346 174.412C913.459 177.068 914.465 178.797 915.363 179.598C916.281 180.379 917.551 180.818 919.172 180.916V182H903.498V180.916C905.08 180.838 906.145 180.574 906.691 180.125C907.258 179.676 907.541 179.129 907.541 178.484C907.541 177.625 907.15 176.268 906.369 174.412L903.967 168.699ZM903.146 166.531L896.408 150.477L889.494 166.531H903.146ZM947.912 142.273L948.352 151.59H947.238C947.023 149.949 946.73 148.777 946.359 148.074C945.754 146.941 944.943 146.111 943.928 145.584C942.932 145.037 941.613 144.764 939.973 144.764H934.377V175.115C934.377 177.557 934.641 179.08 935.168 179.686C935.91 180.506 937.053 180.916 938.596 180.916H939.973V182H923.127V180.916H924.533C926.213 180.916 927.404 180.408 928.107 179.393C928.537 178.768 928.752 177.342 928.752 175.115V144.764H923.977C922.121 144.764 920.803 144.9 920.021 145.174C919.006 145.545 918.137 146.258 917.414 147.312C916.691 148.367 916.262 149.793 916.125 151.59H915.012L915.48 142.273H947.912ZM964.787 182V180.916H966.281C967.961 180.916 969.152 180.379 969.855 179.305C970.285 178.66 970.5 177.215 970.5 174.969V149.305C970.5 146.824 970.227 145.271 969.68 144.646C968.918 143.787 967.785 143.357 966.281 143.357H964.787V142.273H980.959C986.896 142.273 991.408 142.947 994.494 144.295C997.6 145.643 1000.09 147.889 1001.96 151.033C1003.86 154.178 1004.81 157.811 1004.81 161.932C1004.81 167.459 1003.13 172.078 999.768 175.789C995.998 179.93 990.256 182 982.541 182H964.787ZM976.125 179.129C978.605 179.676 980.686 179.949 982.365 179.949C986.896 179.949 990.656 178.357 993.645 175.174C996.633 171.99 998.127 167.674 998.127 162.225C998.127 156.736 996.633 152.41 993.645 149.246C990.656 146.082 986.818 144.5 982.131 144.5C980.373 144.5 978.371 144.783 976.125 145.35V179.129ZM1019.66 144.441V160.145H1028.39C1030.66 160.145 1032.17 159.803 1032.93 159.119C1033.95 158.221 1034.51 156.639 1034.63 154.373H1035.71V168.201H1034.63C1034.36 166.268 1034.08 165.027 1033.81 164.48C1033.46 163.797 1032.88 163.26 1032.08 162.869C1031.28 162.479 1030.05 162.283 1028.39 162.283H1019.66V175.379C1019.66 177.137 1019.74 178.211 1019.89 178.602C1020.05 178.973 1020.32 179.275 1020.71 179.51C1021.11 179.725 1021.85 179.832 1022.94 179.832H1029.68C1031.93 179.832 1033.56 179.676 1034.57 179.363C1035.59 179.051 1036.56 178.436 1037.5 177.518C1038.71 176.307 1039.95 174.48 1041.22 172.039H1042.39L1038.97 182H1008.35V180.916H1009.76C1010.7 180.916 1011.58 180.691 1012.42 180.242C1013.05 179.93 1013.47 179.461 1013.68 178.836C1013.92 178.211 1014.04 176.932 1014.04 174.998V149.188C1014.04 146.668 1013.78 145.115 1013.27 144.529C1012.57 143.748 1011.4 143.357 1009.76 143.357H1008.35V142.273H1038.97L1039.41 150.975H1038.26C1037.85 148.885 1037.39 147.449 1036.89 146.668C1036.4 145.887 1035.67 145.291 1034.69 144.881C1033.91 144.588 1032.53 144.441 1030.56 144.441H1019.66ZM601.623 212.357V211.273H615.686V212.357H614.191C612.629 212.357 611.428 213.012 610.588 214.32C610.178 214.926 609.973 216.332 609.973 218.539V234.652C609.973 238.637 609.572 241.732 608.771 243.939C607.99 246.127 606.438 248.012 604.113 249.594C601.809 251.156 598.664 251.938 594.68 251.938C590.344 251.938 587.053 251.186 584.807 249.682C582.561 248.178 580.969 246.156 580.031 243.617C579.406 241.879 579.094 238.617 579.094 233.832V218.305C579.094 215.863 578.752 214.262 578.068 213.5C577.404 212.738 576.32 212.357 574.816 212.357H573.322V211.273H590.49V212.357H588.967C587.326 212.357 586.154 212.875 585.451 213.91C584.963 214.613 584.719 216.078 584.719 218.305V235.619C584.719 237.162 584.855 238.93 585.129 240.922C585.422 242.914 585.939 244.467 586.682 245.58C587.424 246.693 588.488 247.611 589.875 248.334C591.281 249.057 593 249.418 595.031 249.418C597.629 249.418 599.953 248.852 602.004 247.719C604.055 246.586 605.451 245.141 606.193 243.383C606.955 241.605 607.336 238.607 607.336 234.389V218.305C607.336 215.824 607.062 214.271 606.516 213.646C605.754 212.787 604.621 212.357 603.117 212.357H601.623ZM615.568 211.273H626.35L650.637 241.068V218.158C650.637 215.717 650.363 214.193 649.816 213.588C649.094 212.768 647.951 212.357 646.389 212.357H645.012V211.273H658.84V212.357H657.434C655.754 212.357 654.562 212.865 653.859 213.881C653.43 214.506 653.215 215.932 653.215 218.158V251.645H652.16L625.969 219.652V244.115C625.969 246.557 626.232 248.08 626.76 248.686C627.502 249.506 628.645 249.916 630.188 249.916H631.594V251H617.766V249.916H619.143C620.842 249.916 622.043 249.408 622.746 248.393C623.176 247.768 623.391 246.342 623.391 244.115V216.488C622.238 215.141 621.359 214.252 620.754 213.822C620.168 213.393 619.299 212.992 618.146 212.621C617.58 212.445 616.721 212.357 615.568 212.357V211.273ZM678.234 249.916V251H661.213V249.916H662.619C664.26 249.916 665.451 249.438 666.193 248.48C666.662 247.855 666.896 246.352 666.896 243.969V218.305C666.896 216.293 666.77 214.965 666.516 214.32C666.32 213.832 665.92 213.412 665.314 213.061C664.455 212.592 663.557 212.357 662.619 212.357H661.213V211.273H678.234V212.357H676.799C675.178 212.357 673.996 212.836 673.254 213.793C672.766 214.418 672.521 215.922 672.521 218.305V243.969C672.521 245.98 672.648 247.309 672.902 247.953C673.098 248.441 673.508 248.861 674.133 249.213C674.973 249.682 675.861 249.916 676.799 249.916H678.234ZM708.322 212.357V211.273H722.385V212.357H720.891C719.328 212.357 718.127 213.012 717.287 214.32C716.877 214.926 716.672 216.332 716.672 218.539V234.652C716.672 238.637 716.271 241.732 715.471 243.939C714.689 246.127 713.137 248.012 710.812 249.594C708.508 251.156 705.363 251.938 701.379 251.938C697.043 251.938 693.752 251.186 691.506 249.682C689.26 248.178 687.668 246.156 686.73 243.617C686.105 241.879 685.793 238.617 685.793 233.832V218.305C685.793 215.863 685.451 214.262 684.768 213.5C684.104 212.738 683.02 212.357 681.516 212.357H680.021V211.273H697.189V212.357H695.666C694.025 212.357 692.854 212.875 692.15 213.91C691.662 214.613 691.418 216.078 691.418 218.305V235.619C691.418 237.162 691.555 238.93 691.828 240.922C692.121 242.914 692.639 244.467 693.381 245.58C694.123 246.693 695.188 247.611 696.574 248.334C697.98 249.057 699.699 249.418 701.73 249.418C704.328 249.418 706.652 248.852 708.703 247.719C710.754 246.586 712.15 245.141 712.893 243.383C713.654 241.605 714.035 238.607 714.035 234.389V218.305C714.035 215.824 713.762 214.271 713.215 213.646C712.453 212.787 711.32 212.357 709.816 212.357H708.322ZM722.268 211.273H733.049L757.336 241.068V218.158C757.336 215.717 757.062 214.193 756.516 213.588C755.793 212.768 754.65 212.357 753.088 212.357H751.711V211.273H765.539V212.357H764.133C762.453 212.357 761.262 212.865 760.559 213.881C760.129 214.506 759.914 215.932 759.914 218.158V251.645H758.859L732.668 219.652V244.115C732.668 246.557 732.932 248.08 733.459 248.686C734.201 249.506 735.344 249.916 736.887 249.916H738.293V251H724.465V249.916H725.842C727.541 249.916 728.742 249.408 729.445 248.393C729.875 247.768 730.09 246.342 730.09 244.115V216.488C728.938 215.141 728.059 214.252 727.453 213.822C726.867 213.393 725.998 212.992 724.846 212.621C724.279 212.445 723.42 212.357 722.268 212.357V211.273ZM778.957 213.441V229.145H787.688C789.953 229.145 791.467 228.803 792.229 228.119C793.244 227.221 793.811 225.639 793.928 223.373H795.012V237.201H793.928C793.654 235.268 793.381 234.027 793.107 233.48C792.756 232.797 792.18 232.26 791.379 231.869C790.578 231.479 789.348 231.283 787.688 231.283H778.957V244.379C778.957 246.137 779.035 247.211 779.191 247.602C779.348 247.973 779.621 248.275 780.012 248.51C780.402 248.725 781.145 248.832 782.238 248.832H788.977C791.223 248.832 792.854 248.676 793.869 248.363C794.885 248.051 795.861 247.436 796.799 246.518C798.01 245.307 799.25 243.48 800.52 241.039H801.691L798.264 251H767.648V249.916H769.055C769.992 249.916 770.881 249.691 771.721 249.242C772.346 248.93 772.766 248.461 772.98 247.836C773.215 247.211 773.332 245.932 773.332 243.998V218.188C773.332 215.668 773.078 214.115 772.57 213.529C771.867 212.748 770.695 212.357 769.055 212.357H767.648V211.273H798.264L798.703 219.975H797.561C797.15 217.885 796.691 216.449 796.184 215.668C795.695 214.887 794.963 214.291 793.986 213.881C793.205 213.588 791.828 213.441 789.855 213.441H778.957ZM830.549 237.699H815.168L812.473 243.969C811.809 245.512 811.477 246.664 811.477 247.426C811.477 248.031 811.76 248.568 812.326 249.037C812.912 249.486 814.162 249.779 816.076 249.916V251H803.566V249.916C805.227 249.623 806.301 249.242 806.789 248.773C807.785 247.836 808.889 245.932 810.1 243.061L824.074 210.365H825.1L838.928 243.412C840.041 246.068 841.047 247.797 841.945 248.598C842.863 249.379 844.133 249.818 845.754 249.916V251H830.08V249.916C831.662 249.838 832.727 249.574 833.273 249.125C833.84 248.676 834.123 248.129 834.123 247.484C834.123 246.625 833.732 245.268 832.951 243.412L830.549 237.699ZM829.729 235.531L822.99 219.477L816.076 235.531H829.729ZM870.656 213.441V229.145H879.387C881.652 229.145 883.166 228.803 883.928 228.119C884.943 227.221 885.51 225.639 885.627 223.373H886.711V237.201H885.627C885.354 235.268 885.08 234.027 884.807 233.48C884.455 232.797 883.879 232.26 883.078 231.869C882.277 231.479 881.047 231.283 879.387 231.283H870.656V244.379C870.656 246.137 870.734 247.211 870.891 247.602C871.047 247.973 871.32 248.275 871.711 248.51C872.102 248.725 872.844 248.832 873.938 248.832H880.676C882.922 248.832 884.553 248.676 885.568 248.363C886.584 248.051 887.561 247.436 888.498 246.518C889.709 245.307 890.949 243.48 892.219 241.039H893.391L889.963 251H859.348V249.916H860.754C861.691 249.916 862.58 249.691 863.42 249.242C864.045 248.93 864.465 248.461 864.68 247.836C864.914 247.211 865.031 245.932 865.031 243.998V218.188C865.031 215.668 864.777 214.115 864.27 213.529C863.566 212.748 862.395 212.357 860.754 212.357H859.348V211.273H889.963L890.402 219.975H889.26C888.85 217.885 888.391 216.449 887.883 215.668C887.395 214.887 886.662 214.291 885.686 213.881C884.904 213.588 883.527 213.441 881.555 213.441H870.656ZM923.42 212.357V211.273H937.482V212.357H935.988C934.426 212.357 933.225 213.012 932.385 214.32C931.975 214.926 931.77 216.332 931.77 218.539V234.652C931.77 238.637 931.369 241.732 930.568 243.939C929.787 246.127 928.234 248.012 925.91 249.594C923.605 251.156 920.461 251.938 916.477 251.938C912.141 251.938 908.85 251.186 906.604 249.682C904.357 248.178 902.766 246.156 901.828 243.617C901.203 241.879 900.891 238.617 900.891 233.832V218.305C900.891 215.863 900.549 214.262 899.865 213.5C899.201 212.738 898.117 212.357 896.613 212.357H895.119V211.273H912.287V212.357H910.764C909.123 212.357 907.951 212.875 907.248 213.91C906.76 214.613 906.516 216.078 906.516 218.305V235.619C906.516 237.162 906.652 238.93 906.926 240.922C907.219 242.914 907.736 244.467 908.479 245.58C909.221 246.693 910.285 247.611 911.672 248.334C913.078 249.057 914.797 249.418 916.828 249.418C919.426 249.418 921.75 248.852 923.801 247.719C925.852 246.586 927.248 245.141 927.99 243.383C928.752 241.605 929.133 238.607 929.133 234.389V218.305C929.133 215.824 928.859 214.271 928.312 213.646C927.551 212.787 926.418 212.357 924.914 212.357H923.42ZM978.703 251H968.098L954.65 232.426C953.654 232.465 952.844 232.484 952.219 232.484C951.965 232.484 951.691 232.484 951.398 232.484C951.105 232.465 950.803 232.445 950.49 232.426V243.969C950.49 246.469 950.764 248.021 951.311 248.627C952.053 249.486 953.166 249.916 954.65 249.916H956.203V251H939.182V249.916H940.676C942.355 249.916 943.557 249.369 944.279 248.275C944.689 247.67 944.895 246.234 944.895 243.969V218.305C944.895 215.805 944.621 214.252 944.074 213.646C943.312 212.787 942.18 212.357 940.676 212.357H939.182V211.273H953.654C957.873 211.273 960.979 211.586 962.971 212.211C964.982 212.816 966.682 213.949 968.068 215.609C969.475 217.25 970.178 219.213 970.178 221.498C970.178 223.939 969.377 226.059 967.775 227.855C966.193 229.652 963.732 230.922 960.393 231.664L968.596 243.061C970.471 245.678 972.082 247.416 973.43 248.275C974.777 249.135 976.535 249.682 978.703 249.916V251ZM950.49 230.58C950.861 230.58 951.184 230.59 951.457 230.609C951.73 230.609 951.955 230.609 952.131 230.609C955.92 230.609 958.771 229.789 960.686 228.148C962.619 226.508 963.586 224.418 963.586 221.879C963.586 219.398 962.805 217.387 961.242 215.844C959.699 214.281 957.648 213.5 955.09 213.5C953.957 213.5 952.424 213.686 950.49 214.057V230.58ZM1000.12 210.365C1005.28 210.365 1009.74 212.328 1013.51 216.254C1017.3 220.16 1019.19 225.043 1019.19 230.902C1019.19 236.938 1017.29 241.947 1013.48 245.932C1009.67 249.916 1005.06 251.908 999.65 251.908C994.182 251.908 989.582 249.965 985.852 246.078C982.141 242.191 980.285 237.162 980.285 230.99C980.285 224.682 982.434 219.535 986.73 215.551C990.461 212.094 994.924 210.365 1000.12 210.365ZM999.562 212.504C996.008 212.504 993.156 213.822 991.008 216.459C988.332 219.74 986.994 224.545 986.994 230.873C986.994 237.357 988.381 242.348 991.154 245.844C993.283 248.5 996.096 249.828 999.592 249.828C1003.32 249.828 1006.4 248.373 1008.82 245.463C1011.26 242.553 1012.48 237.963 1012.48 231.693C1012.48 224.896 1011.14 219.828 1008.47 216.488C1006.32 213.832 1003.35 212.504 999.562 212.504ZM1033.84 232.396V243.969C1033.84 246.469 1034.11 248.021 1034.66 248.627C1035.4 249.486 1036.53 249.916 1038.03 249.916H1039.55V251H1022.53V249.916H1024.03C1025.71 249.916 1026.91 249.369 1027.63 248.275C1028.02 247.67 1028.21 246.234 1028.21 243.969V218.305C1028.21 215.805 1027.95 214.252 1027.42 213.646C1026.66 212.787 1025.53 212.357 1024.03 212.357H1022.53V211.273H1037.09C1040.65 211.273 1043.45 211.645 1045.5 212.387C1047.55 213.109 1049.28 214.34 1050.69 216.078C1052.09 217.816 1052.79 219.877 1052.79 222.26C1052.79 225.502 1051.72 228.139 1049.57 230.17C1047.44 232.201 1044.43 233.217 1040.52 233.217C1039.56 233.217 1038.53 233.148 1037.41 233.012C1036.3 232.875 1035.11 232.67 1033.84 232.396ZM1033.84 230.727C1034.88 230.922 1035.79 231.068 1036.59 231.166C1037.39 231.264 1038.08 231.312 1038.64 231.312C1040.68 231.312 1042.42 230.531 1043.89 228.969C1045.37 227.387 1046.12 225.346 1046.12 222.846C1046.12 221.127 1045.76 219.535 1045.06 218.07C1044.36 216.586 1043.36 215.482 1042.07 214.76C1040.78 214.018 1039.32 213.646 1037.68 213.646C1036.68 213.646 1035.4 213.832 1033.84 214.203V230.727ZM1067.47 213.441V229.145H1076.2C1078.47 229.145 1079.98 228.803 1080.74 228.119C1081.76 227.221 1082.33 225.639 1082.44 223.373H1083.53V237.201H1082.44C1082.17 235.268 1081.9 234.027 1081.62 233.48C1081.27 232.797 1080.7 232.26 1079.89 231.869C1079.09 231.479 1077.86 231.283 1076.2 231.283H1067.47V244.379C1067.47 246.137 1067.55 247.211 1067.71 247.602C1067.86 247.973 1068.14 248.275 1068.53 248.51C1068.92 248.725 1069.66 248.832 1070.75 248.832H1077.49C1079.74 248.832 1081.37 248.676 1082.38 248.363C1083.4 248.051 1084.38 247.436 1085.31 246.518C1086.53 245.307 1087.77 243.48 1089.04 241.039H1090.21L1086.78 251H1056.16V249.916H1057.57C1058.51 249.916 1059.4 249.691 1060.24 249.242C1060.86 248.93 1061.28 248.461 1061.5 247.836C1061.73 247.211 1061.85 245.932 1061.85 243.998V218.188C1061.85 215.668 1061.59 214.115 1061.09 213.529C1060.38 212.748 1059.21 212.357 1057.57 212.357H1056.16V211.273H1086.78L1087.22 219.975H1086.08C1085.67 217.885 1085.21 216.449 1084.7 215.668C1084.21 214.887 1083.48 214.291 1082.5 213.881C1081.72 213.588 1080.34 213.441 1078.37 213.441H1067.47ZM1119.06 237.699H1103.68L1100.99 243.969C1100.32 245.512 1099.99 246.664 1099.99 247.426C1099.99 248.031 1100.28 248.568 1100.84 249.037C1101.43 249.486 1102.68 249.779 1104.59 249.916V251H1092.08V249.916C1093.74 249.623 1094.82 249.242 1095.3 248.773C1096.3 247.836 1097.4 245.932 1098.62 243.061L1112.59 210.365H1113.62L1127.44 243.412C1128.56 246.068 1129.56 247.797 1130.46 248.598C1131.38 249.379 1132.65 249.818 1134.27 249.916V251H1118.6V249.916C1120.18 249.838 1121.24 249.574 1121.79 249.125C1122.36 248.676 1122.64 248.129 1122.64 247.484C1122.64 246.625 1122.25 245.268 1121.47 243.412L1119.06 237.699ZM1118.24 235.531L1111.51 219.477L1104.59 235.531H1118.24ZM1134.18 211.273H1144.96L1169.25 241.068V218.158C1169.25 215.717 1168.98 214.193 1168.43 213.588C1167.71 212.768 1166.56 212.357 1165 212.357H1163.62V211.273H1177.45V212.357H1176.05C1174.37 212.357 1173.18 212.865 1172.47 213.881C1172.04 214.506 1171.83 215.932 1171.83 218.158V251.645H1170.77L1144.58 219.652V244.115C1144.58 246.557 1144.85 248.08 1145.37 248.686C1146.12 249.506 1147.26 249.916 1148.8 249.916H1150.21V251H1136.38V249.916H1137.76C1139.46 249.916 1140.66 249.408 1141.36 248.393C1141.79 247.768 1142 246.342 1142 244.115V216.488C1140.85 215.141 1139.97 214.252 1139.37 213.822C1138.78 213.393 1137.91 212.992 1136.76 212.621C1136.19 212.445 1135.33 212.357 1134.18 212.357V211.273ZM1205.78 237.699H1190.4L1187.71 243.969C1187.04 245.512 1186.71 246.664 1186.71 247.426C1186.71 248.031 1186.99 248.568 1187.56 249.037C1188.15 249.486 1189.4 249.779 1191.31 249.916V251H1178.8V249.916C1180.46 249.623 1181.54 249.242 1182.02 248.773C1183.02 247.836 1184.12 245.932 1185.33 243.061L1199.31 210.365H1200.33L1214.16 243.412C1215.28 246.068 1216.28 247.797 1217.18 248.598C1218.1 249.379 1219.37 249.818 1220.99 249.916V251H1205.31V249.916C1206.9 249.838 1207.96 249.574 1208.51 249.125C1209.07 248.676 1209.36 248.129 1209.36 247.484C1209.36 246.625 1208.97 245.268 1208.19 243.412L1205.78 237.699ZM1204.96 235.531L1198.22 219.477L1191.31 235.531H1204.96ZM1191.52 199.467H1192.42C1193.07 200.658 1193.81 201.498 1194.65 201.986C1196.06 202.826 1197.82 203.246 1199.95 203.246C1202.08 203.246 1203.84 202.836 1205.23 202.016C1206.22 201.449 1206.92 200.6 1207.31 199.467H1208.27C1208.1 201.889 1207.2 203.861 1205.58 205.385C1203.98 206.908 1202.08 207.67 1199.89 207.67C1197.73 207.67 1195.84 206.918 1194.24 205.414C1192.64 203.891 1191.73 201.908 1191.52 199.467Z" fill="#124B8E"/>
<defs>
<clipPath id="clip0_210_31">
<rect x="50" y="50" width="462" height="300" rx="34" fill="white"/>
</clipPath>
</defs>
</svg>
