<svg width="1270" height="400" viewBox="0 0 1270 400" fill="none" xmlns="http://www.w3.org/2000/svg">
<rect width="1270" height="400" fill="white"/>
<rect x="51" y="76" width="380" height="254" fill="#003399"/>
<path d="M240.5 108L236.21 121.086L242.812 123.212L240.5 108Z" fill="#FFCC00"/>
<path d="M240.5 108L244.79 121.086L238.188 123.212L240.5 108Z" fill="#FFCC00"/>
<path d="M253.704 117.507H239.82V124.387L253.704 117.507Z" fill="#FFCC00"/>
<path d="M253.705 117.507L242.473 125.595L238.393 120.029L253.705 117.507Z" fill="#FFCC00"/>
<path d="M248.661 132.89L244.371 119.804L237.769 121.93L248.661 132.89Z" fill="#FFCC00"/>
<path d="M248.661 132.89L237.43 124.803L241.51 119.237L248.661 132.89Z" fill="#FFCC00"/>
<path d="M227.296 117.507H241.18V124.387L227.296 117.507Z" fill="#FFCC00"/>
<path d="M227.296 117.507L238.528 125.595L242.608 120.029L227.296 117.507Z" fill="#FFCC00"/>
<path d="M232.34 132.89L236.63 119.804L243.232 121.93L232.34 132.89Z" fill="#FFCC00"/>
<path d="M232.34 132.89L243.572 124.803L239.492 119.237L232.34 132.89Z" fill="#FFCC00"/>
<path d="M240.5 273.109L236.21 286.195L242.812 288.321L240.5 273.109Z" fill="#FFCC00"/>
<path d="M240.5 273.109L244.79 286.195L238.188 288.321L240.5 273.109Z" fill="#FFCC00"/>
<path d="M253.704 282.617H239.82V289.496L253.704 282.617Z" fill="#FFCC00"/>
<path d="M253.705 282.617L242.473 290.704L238.393 285.139L253.705 282.617Z" fill="#FFCC00"/>
<path d="M248.661 298L244.371 284.914L237.769 287.04L248.661 298Z" fill="#FFCC00"/>
<path d="M248.661 298L237.43 289.912L241.51 284.347L248.661 298Z" fill="#FFCC00"/>
<path d="M227.296 282.617H241.18V289.496L227.296 282.617Z" fill="#FFCC00"/>
<path d="M227.296 282.617L238.528 290.704L242.608 285.139L227.296 282.617Z" fill="#FFCC00"/>
<path d="M232.34 298L236.63 284.914L243.232 287.04L232.34 298Z" fill="#FFCC00"/>
<path d="M232.34 298L243.572 289.912L239.492 284.347L232.34 298Z" fill="#FFCC00"/>
<path d="M157.204 190.555L152.914 203.64L159.516 205.766L157.204 190.555Z" fill="#FFCC00"/>
<path d="M157.203 190.555L161.493 203.64L154.891 205.766L157.203 190.555Z" fill="#FFCC00"/>
<path d="M170.406 200.062H156.523V206.942L170.406 200.062Z" fill="#FFCC00"/>
<path d="M170.407 200.062L159.175 208.149L155.095 202.584L170.407 200.062Z" fill="#FFCC00"/>
<path d="M165.363 215.445L161.073 202.359L154.471 204.486L165.363 215.445Z" fill="#FFCC00"/>
<path d="M165.364 215.445L154.132 207.358L158.212 201.792L165.364 215.445Z" fill="#FFCC00"/>
<path d="M144 200.062H157.883V206.942L144 200.062Z" fill="#FFCC00"/>
<path d="M144 200.062L155.231 208.149L159.311 202.584L144 200.062Z" fill="#FFCC00"/>
<path d="M149.044 215.445L153.334 202.359L159.935 204.486L149.044 215.445Z" fill="#FFCC00"/>
<path d="M149.044 215.445L160.275 207.358L156.195 201.792L149.044 215.445Z" fill="#FFCC00"/>
<path d="M190.692 143.95L201.924 135.863L197.844 130.297L190.692 143.95Z" fill="#FFCC00"/>
<path d="M190.692 143.95L194.983 130.865L201.584 132.991L190.692 143.95Z" fill="#FFCC00"/>
<path d="M185.648 128.568L196.88 136.655L200.96 131.09L185.648 128.568Z" fill="#FFCC00"/>
<path d="M185.648 128.568H199.531V135.447L185.648 128.568Z" fill="#FFCC00"/>
<path d="M198.852 119.061L194.562 132.146L201.164 134.272L198.852 119.061Z" fill="#FFCC00"/>
<path d="M198.851 119.061L203.142 132.146L196.54 134.272L198.851 119.061Z" fill="#FFCC00"/>
<path d="M207.012 143.951L195.78 135.863L199.86 130.297L207.012 143.951Z" fill="#FFCC00"/>
<path d="M207.011 143.951L202.721 130.865L196.12 132.991L207.011 143.951Z" fill="#FFCC00"/>
<path d="M212.056 128.568L200.824 136.655L196.744 131.09L212.056 128.568Z" fill="#FFCC00"/>
<path d="M212.055 128.568H198.172V135.447L212.055 128.568Z" fill="#FFCC00"/>
<path d="M176.524 174.168L172.234 161.083L165.632 163.208L176.524 174.168Z" fill="#FFCC00"/>
<path d="M176.523 174.168L165.292 166.08L169.372 160.515L176.523 174.168Z" fill="#FFCC00"/>
<path d="M160.203 174.168L171.434 166.081L167.354 160.515L160.203 174.168Z" fill="#FFCC00"/>
<path d="M160.203 174.168L164.493 161.083L171.095 163.208L160.203 174.168Z" fill="#FFCC00"/>
<path d="M155.159 158.784L166.39 166.872L170.471 161.306L155.159 158.784Z" fill="#FFCC00"/>
<path d="M155.159 158.784H169.042V165.664L155.159 158.784Z" fill="#FFCC00"/>
<path d="M181.567 158.784L170.336 166.872L166.256 161.306L181.567 158.784Z" fill="#FFCC00"/>
<path d="M181.567 158.784H167.684V165.664L181.567 158.784Z" fill="#FFCC00"/>
<path d="M168.363 149.277L172.653 162.363L166.052 164.489L168.363 149.277Z" fill="#FFCC00"/>
<path d="M168.363 149.277L164.073 162.363L170.675 164.489L168.363 149.277Z" fill="#FFCC00"/>
<path d="M181.567 241.339H167.684V248.219L181.567 241.339Z" fill="#FFCC00"/>
<path d="M181.566 241.339L170.334 249.426L166.254 243.861L181.566 241.339Z" fill="#FFCC00"/>
<path d="M176.524 256.723L172.234 243.637L165.632 245.763L176.524 256.723Z" fill="#FFCC00"/>
<path d="M176.523 256.722L165.292 248.635L169.372 243.069L176.523 256.722Z" fill="#FFCC00"/>
<path d="M160.203 256.722L171.434 248.635L167.354 243.069L160.203 256.722Z" fill="#FFCC00"/>
<path d="M160.203 256.723L164.493 243.637L171.095 245.763L160.203 256.723Z" fill="#FFCC00"/>
<path d="M168.363 231.832L172.653 244.917L166.052 247.044L168.363 231.832Z" fill="#FFCC00"/>
<path d="M168.363 231.832L164.073 244.917L170.675 247.044L168.363 231.832Z" fill="#FFCC00"/>
<path d="M155.16 241.339H169.043V248.219L155.16 241.339Z" fill="#FFCC00"/>
<path d="M155.16 241.339L166.391 249.426L170.472 243.861L155.16 241.339Z" fill="#FFCC00"/>
<path d="M212.055 271.556H198.172V278.436L212.055 271.556Z" fill="#FFCC00"/>
<path d="M212.056 271.556L200.824 279.644L196.744 274.078L212.056 271.556Z" fill="#FFCC00"/>
<path d="M207.012 286.939L202.721 273.853L196.12 275.979L207.012 286.939Z" fill="#FFCC00"/>
<path d="M207.012 286.939L195.78 278.852L199.86 273.286L207.012 286.939Z" fill="#FFCC00"/>
<path d="M190.692 286.939L201.924 278.852L197.844 273.286L190.692 286.939Z" fill="#FFCC00"/>
<path d="M190.692 286.939L194.982 273.853L201.584 275.979L190.692 286.939Z" fill="#FFCC00"/>
<path d="M198.851 262.049L203.141 275.135L196.54 277.261L198.851 262.049Z" fill="#FFCC00"/>
<path d="M198.852 262.049L194.562 275.135L201.164 277.261L198.852 262.049Z" fill="#FFCC00"/>
<path d="M185.648 271.556H199.531V278.436L185.648 271.556Z" fill="#FFCC00"/>
<path d="M185.648 271.556L196.88 279.644L200.96 274.078L185.648 271.556Z" fill="#FFCC00"/>
<path d="M323.797 190.555L328.087 203.64L321.485 205.766L323.797 190.555Z" fill="#FFCC00"/>
<path d="M323.797 190.555L319.507 203.64L326.109 205.766L323.797 190.555Z" fill="#FFCC00"/>
<path d="M310.593 200.062H324.476V206.942L310.593 200.062Z" fill="#FFCC00"/>
<path d="M310.593 200.062L321.825 208.149L325.905 202.584L310.593 200.062Z" fill="#FFCC00"/>
<path d="M315.636 215.445L319.927 202.359L326.528 204.486L315.636 215.445Z" fill="#FFCC00"/>
<path d="M315.636 215.445L326.868 207.358L322.788 201.792L315.636 215.445Z" fill="#FFCC00"/>
<path d="M337 200.062H323.118V206.942L337 200.062Z" fill="#FFCC00"/>
<path d="M337 200.062L325.769 208.149L321.688 202.584L337 200.062Z" fill="#FFCC00"/>
<path d="M331.956 215.445L327.666 202.359L321.065 204.486L331.956 215.445Z" fill="#FFCC00"/>
<path d="M331.956 215.445L320.725 207.358L324.805 201.792L331.956 215.445Z" fill="#FFCC00"/>
<path d="M290.309 143.95L279.077 135.863L283.157 130.297L290.309 143.95Z" fill="#FFCC00"/>
<path d="M290.309 143.95L286.018 130.865L279.417 132.991L290.309 143.95Z" fill="#FFCC00"/>
<path d="M295.352 128.568L284.121 136.655L280.041 131.09L295.352 128.568Z" fill="#FFCC00"/>
<path d="M295.352 128.568H281.469V135.447L295.352 128.568Z" fill="#FFCC00"/>
<path d="M282.149 119.061L286.439 132.146L279.837 134.272L282.149 119.061Z" fill="#FFCC00"/>
<path d="M282.149 119.061L277.858 132.146L284.46 134.272L282.149 119.061Z" fill="#FFCC00"/>
<path d="M273.988 143.951L285.22 135.863L281.14 130.297L273.988 143.951Z" fill="#FFCC00"/>
<path d="M273.988 143.951L278.278 130.865L284.88 132.991L273.988 143.951Z" fill="#FFCC00"/>
<path d="M268.945 128.568L280.176 136.655L284.256 131.09L268.945 128.568Z" fill="#FFCC00"/>
<path d="M268.945 128.568H282.827V135.447L268.945 128.568Z" fill="#FFCC00"/>
<path d="M304.477 174.168L308.767 161.083L315.369 163.208L304.477 174.168Z" fill="#FFCC00"/>
<path d="M304.477 174.168L315.708 166.08L311.628 160.515L304.477 174.168Z" fill="#FFCC00"/>
<path d="M320.798 174.168L309.566 166.081L313.646 160.515L320.798 174.168Z" fill="#FFCC00"/>
<path d="M320.797 174.168L316.507 161.083L309.905 163.208L320.797 174.168Z" fill="#FFCC00"/>
<path d="M325.84 158.784L314.609 166.872L310.529 161.306L325.84 158.784Z" fill="#FFCC00"/>
<path d="M325.84 158.784H311.958V165.664L325.84 158.784Z" fill="#FFCC00"/>
<path d="M299.434 158.785L310.665 166.872L314.745 161.306L299.434 158.785Z" fill="#FFCC00"/>
<path d="M299.434 158.785H313.316V165.664L299.434 158.785Z" fill="#FFCC00"/>
<path d="M312.637 149.277L308.347 162.363L314.949 164.489L312.637 149.277Z" fill="#FFCC00"/>
<path d="M312.637 149.277L316.927 162.363L310.326 164.489L312.637 149.277Z" fill="#FFCC00"/>
<path d="M299.434 241.339H313.317V248.219L299.434 241.339Z" fill="#FFCC00"/>
<path d="M299.434 241.339L310.666 249.426L314.746 243.861L299.434 241.339Z" fill="#FFCC00"/>
<path d="M304.477 256.723L308.767 243.637L315.369 245.763L304.477 256.723Z" fill="#FFCC00"/>
<path d="M304.477 256.722L315.708 248.635L311.628 243.069L304.477 256.722Z" fill="#FFCC00"/>
<path d="M320.798 256.722L309.566 248.635L313.646 243.069L320.798 256.722Z" fill="#FFCC00"/>
<path d="M320.797 256.723L316.507 243.637L309.905 245.763L320.797 256.723Z" fill="#FFCC00"/>
<path d="M312.637 231.832L308.347 244.917L314.949 247.044L312.637 231.832Z" fill="#FFCC00"/>
<path d="M312.637 231.832L316.927 244.917L310.326 247.044L312.637 231.832Z" fill="#FFCC00"/>
<path d="M325.84 241.339H311.958V248.219L325.84 241.339Z" fill="#FFCC00"/>
<path d="M325.84 241.339L314.608 249.426L310.528 243.861L325.84 241.339Z" fill="#FFCC00"/>
<path d="M268.945 271.556H282.827V278.436L268.945 271.556Z" fill="#FFCC00"/>
<path d="M268.945 271.556L280.176 279.644L284.256 274.078L268.945 271.556Z" fill="#FFCC00"/>
<path d="M273.987 286.939L278.278 273.853L284.879 275.979L273.987 286.939Z" fill="#FFCC00"/>
<path d="M273.987 286.939L285.219 278.852L281.139 273.286L273.987 286.939Z" fill="#FFCC00"/>
<path d="M290.308 286.939L279.077 278.852L283.157 273.286L290.308 286.939Z" fill="#FFCC00"/>
<path d="M290.308 286.939L286.018 273.853L279.417 275.979L290.308 286.939Z" fill="#FFCC00"/>
<path d="M282.149 262.049L277.859 275.135L284.46 277.261L282.149 262.049Z" fill="#FFCC00"/>
<path d="M282.149 262.049L286.439 275.135L279.837 277.261L282.149 262.049Z" fill="#FFCC00"/>
<path d="M295.352 271.556H281.469V278.436L295.352 271.556Z" fill="#FFCC00"/>
<path d="M295.352 271.556L284.121 279.644L280.041 274.078L295.352 271.556Z" fill="#FFCC00"/>
<path d="M477.667 133V75.5455H514.474V84.2702H488.075V99.8683H511.949V108.593H488.075V133H477.667ZM548.272 114.877V89.9091H558.427V133H548.58V125.341H548.131C547.159 127.754 545.56 129.727 543.334 131.261C541.127 132.794 538.406 133.561 535.171 133.561C532.346 133.561 529.85 132.935 527.68 131.681C525.529 130.41 523.846 128.567 522.63 126.155C521.415 123.723 520.807 120.787 520.807 117.346V89.9091H530.962V115.775C530.962 118.505 531.711 120.675 533.207 122.283C534.703 123.892 536.667 124.696 539.098 124.696C540.594 124.696 542.044 124.331 543.446 123.602C544.849 122.873 545.999 121.788 546.897 120.348C547.814 118.889 548.272 117.065 548.272 114.877ZM579.026 107.751V133H568.87V89.9091H578.577V97.2312H579.082C580.073 94.8185 581.654 92.9015 583.823 91.4801C586.011 90.0587 588.714 89.348 591.931 89.348C594.904 89.348 597.495 89.9839 599.702 91.2557C601.927 92.5275 603.648 94.3697 604.864 96.7823C606.098 99.195 606.706 102.122 606.687 105.563V133H596.532V107.134C596.532 104.254 595.783 102 594.287 100.373C592.81 98.7461 590.762 97.9325 588.143 97.9325C586.367 97.9325 584.786 98.3253 583.402 99.1108C582.037 99.8776 580.962 100.99 580.176 102.449C579.409 103.908 579.026 105.675 579.026 107.751ZM633.002 133.757C629.617 133.757 626.587 132.888 623.912 131.148C621.238 129.409 619.124 126.884 617.572 123.574C616.02 120.263 615.244 116.242 615.244 111.511C615.244 106.723 616.029 102.683 617.6 99.3913C619.19 96.081 621.331 93.5842 624.025 91.9009C626.718 90.199 629.719 89.348 633.03 89.348C635.555 89.348 637.631 89.7782 639.258 90.6385C640.885 91.4801 642.175 92.4994 643.129 93.6964C644.083 94.8746 644.822 95.9875 645.346 97.0348H645.766V75.5455H655.95V133H645.963V126.211H645.346C644.822 127.258 644.064 128.371 643.073 129.549C642.082 130.709 640.773 131.7 639.146 132.523C637.518 133.346 635.471 133.757 633.002 133.757ZM635.835 125.425C637.986 125.425 639.819 124.846 641.334 123.686C642.849 122.508 643.999 120.871 644.784 118.777C645.57 116.682 645.963 114.241 645.963 111.455C645.963 108.668 645.57 106.246 644.784 104.189C644.018 102.131 642.877 100.532 641.362 99.3913C639.866 98.2505 638.023 97.68 635.835 97.68C633.572 97.68 631.683 98.2692 630.168 99.4474C628.653 100.626 627.513 102.253 626.746 104.329C625.979 106.405 625.596 108.78 625.596 111.455C625.596 114.148 625.979 116.551 626.746 118.664C627.531 120.759 628.681 122.414 630.196 123.63C631.73 124.827 633.61 125.425 635.835 125.425ZM685.848 133.842C681.528 133.842 677.797 132.944 674.655 131.148C671.532 129.334 669.128 126.772 667.445 123.462C665.762 120.133 664.92 116.214 664.92 111.707C664.92 107.275 665.762 103.384 667.445 100.037C669.147 96.6701 671.522 94.0517 674.571 92.1815C677.619 90.2925 681.201 89.348 685.315 89.348C687.971 89.348 690.477 89.7782 692.834 90.6385C695.209 91.4801 697.304 92.7893 699.118 94.5661C700.951 96.3428 702.391 98.6058 703.438 101.355C704.486 104.086 705.009 107.34 705.009 111.118V114.232H669.689V107.387H695.275C695.256 105.442 694.835 103.712 694.012 102.197C693.189 100.663 692.039 99.4568 690.562 98.5778C689.103 97.6987 687.401 97.2592 685.456 97.2592C683.38 97.2592 681.556 97.7642 679.985 98.7741C678.414 99.7654 677.189 101.075 676.31 102.702C675.45 104.31 675.01 106.078 674.992 108.004V113.979C674.992 116.486 675.45 118.636 676.366 120.432C677.283 122.209 678.564 123.574 680.21 124.528C681.855 125.463 683.782 125.93 685.989 125.93C687.466 125.93 688.803 125.725 690 125.313C691.197 124.883 692.235 124.257 693.114 123.434C693.993 122.611 694.657 121.591 695.106 120.376L704.589 121.442C703.99 123.948 702.849 126.136 701.166 128.006C699.501 129.858 697.369 131.298 694.77 132.327C692.17 133.337 689.196 133.842 685.848 133.842ZM729.592 133.757C726.206 133.757 723.177 132.888 720.502 131.148C717.828 129.409 715.714 126.884 714.162 123.574C712.61 120.263 711.833 116.242 711.833 111.511C711.833 106.723 712.619 102.683 714.19 99.3913C715.78 96.081 717.921 93.5842 720.614 91.9009C723.308 90.199 726.309 89.348 729.62 89.348C732.145 89.348 734.221 89.7782 735.848 90.6385C737.475 91.4801 738.765 92.4994 739.719 93.6964C740.673 94.8746 741.412 95.9875 741.935 97.0348H742.356V75.5455H752.54V133H742.553V126.211H741.935C741.412 127.258 740.654 128.371 739.663 129.549C738.672 130.709 737.363 131.7 735.735 132.523C734.108 133.346 732.06 133.757 729.592 133.757ZM732.425 125.425C734.576 125.425 736.409 124.846 737.924 123.686C739.439 122.508 740.589 120.871 741.374 118.777C742.16 116.682 742.553 114.241 742.553 111.455C742.553 108.668 742.16 106.246 741.374 104.189C740.607 102.131 739.467 100.532 737.952 99.3913C736.455 98.2505 734.613 97.68 732.425 97.68C730.162 97.68 728.273 98.2692 726.758 99.4474C725.243 100.626 724.102 102.253 723.336 104.329C722.569 106.405 722.185 108.78 722.185 111.455C722.185 114.148 722.569 116.551 723.336 118.664C724.121 120.759 725.271 122.414 726.786 123.63C728.32 124.827 730.199 125.425 732.425 125.425ZM783.406 133V75.5455H793.562V97.0348H793.983C794.506 95.9875 795.245 94.8746 796.199 93.6964C797.153 92.4994 798.443 91.4801 800.07 90.6385C801.697 89.7782 803.773 89.348 806.298 89.348C809.627 89.348 812.629 90.199 815.304 91.9009C817.997 93.5842 820.129 96.081 821.7 99.3913C823.29 102.683 824.084 106.723 824.084 111.511C824.084 116.242 823.308 120.263 821.756 123.574C820.204 126.884 818.09 129.409 815.416 131.148C812.741 132.888 809.711 133.757 806.326 133.757C803.858 133.757 801.81 133.346 800.182 132.523C798.555 131.7 797.246 130.709 796.255 129.549C795.282 128.371 794.525 127.258 793.983 126.211H793.393V133H783.406ZM793.365 111.455C793.365 114.241 793.758 116.682 794.544 118.777C795.348 120.871 796.498 122.508 797.994 123.686C799.509 124.846 801.342 125.425 803.493 125.425C805.737 125.425 807.617 124.827 809.132 123.63C810.647 122.414 811.787 120.759 812.554 118.664C813.34 116.551 813.733 114.148 813.733 111.455C813.733 108.78 813.349 106.405 812.582 104.329C811.815 102.253 810.675 100.626 809.16 99.4474C807.645 98.2692 805.756 97.68 803.493 97.68C801.323 97.68 799.481 98.2505 797.966 99.3913C796.451 100.532 795.301 102.131 794.516 104.189C793.749 106.246 793.365 108.668 793.365 111.455ZM837.564 149.159C836.18 149.159 834.899 149.047 833.721 148.822C832.561 148.617 831.636 148.374 830.944 148.093L833.3 140.182C834.778 140.612 836.096 140.818 837.256 140.799C838.415 140.78 839.435 140.416 840.314 139.705C841.211 139.013 841.969 137.853 842.586 136.226L843.456 133.898L827.83 89.9091H838.602L848.533 122.452H848.982L858.941 89.9091H869.742L852.489 138.218C851.685 140.5 850.619 142.454 849.291 144.081C847.963 145.727 846.336 146.98 844.41 147.841C842.502 148.72 840.22 149.159 837.564 149.159ZM498.735 185.909V193.764H473.964V185.909H498.735ZM480.08 175.585H490.235V216.039C490.235 217.404 490.441 218.452 490.852 219.181C491.282 219.892 491.844 220.378 492.536 220.64C493.228 220.902 493.994 221.033 494.836 221.033C495.472 221.033 496.052 220.986 496.575 220.892C497.118 220.799 497.529 220.715 497.81 220.64L499.521 228.579C498.979 228.766 498.202 228.972 497.192 229.196C496.201 229.421 494.986 229.552 493.545 229.589C491.002 229.664 488.711 229.281 486.672 228.439C484.634 227.579 483.016 226.251 481.819 224.455C480.641 222.66 480.061 220.415 480.08 217.722V175.585ZM518.31 203.751V229H508.155V171.545H518.086V193.231H518.591C519.601 190.8 521.162 188.883 523.276 187.48C525.408 186.059 528.12 185.348 531.411 185.348C534.404 185.348 537.013 185.975 539.238 187.228C541.464 188.481 543.185 190.314 544.4 192.726C545.635 195.139 546.252 198.085 546.252 201.563V229H536.096V203.134C536.096 200.235 535.348 197.982 533.852 196.373C532.374 194.746 530.299 193.933 527.624 193.933C525.829 193.933 524.22 194.325 522.799 195.111C521.396 195.878 520.293 196.99 519.488 198.449C518.703 199.908 518.31 201.675 518.31 203.751ZM575.68 229.842C571.36 229.842 567.629 228.944 564.487 227.148C561.364 225.334 558.96 222.772 557.277 219.462C555.594 216.133 554.752 212.214 554.752 207.707C554.752 203.275 555.594 199.384 557.277 196.037C558.979 192.67 561.354 190.052 564.403 188.181C567.451 186.292 571.033 185.348 575.147 185.348C577.803 185.348 580.309 185.778 582.666 186.638C585.041 187.48 587.136 188.789 588.95 190.566C590.783 192.343 592.223 194.606 593.27 197.355C594.318 200.086 594.841 203.34 594.841 207.118V210.232H559.521V203.387H585.107C585.088 201.442 584.667 199.712 583.844 198.197C583.021 196.663 581.871 195.457 580.394 194.578C578.935 193.699 577.233 193.259 575.288 193.259C573.212 193.259 571.388 193.764 569.817 194.774C568.246 195.765 567.021 197.075 566.142 198.702C565.282 200.31 564.842 202.078 564.824 204.004V209.979C564.824 212.486 565.282 214.636 566.198 216.432C567.115 218.209 568.396 219.574 570.042 220.528C571.687 221.463 573.614 221.93 575.821 221.93C577.298 221.93 578.636 221.725 579.832 221.313C581.029 220.883 582.067 220.257 582.946 219.434C583.825 218.611 584.489 217.591 584.938 216.376L594.421 217.442C593.822 219.948 592.681 222.136 590.998 224.006C589.333 225.858 587.201 227.298 584.602 228.327C582.002 229.337 579.028 229.842 575.68 229.842ZM623.477 229V171.545H660.845V180.27H633.885V195.868H658.91V204.593H633.885V220.275H661.07V229H623.477ZM698.48 210.877V185.909H708.635V229H698.788V221.341H698.339C697.367 223.754 695.768 225.727 693.542 227.261C691.335 228.794 688.614 229.561 685.379 229.561C682.554 229.561 680.058 228.935 677.888 227.681C675.737 226.41 674.054 224.567 672.838 222.155C671.623 219.723 671.015 216.787 671.015 213.346V185.909H681.17V211.775C681.17 214.505 681.919 216.675 683.415 218.283C684.911 219.892 686.875 220.696 689.306 220.696C690.802 220.696 692.252 220.331 693.654 219.602C695.057 218.873 696.207 217.788 697.105 216.348C698.022 214.889 698.48 213.065 698.48 210.877ZM719.078 229V185.909H728.925V193.091H729.374C730.16 190.603 731.506 188.686 733.414 187.34C735.34 185.975 737.538 185.292 740.007 185.292C740.568 185.292 741.194 185.32 741.886 185.376C742.597 185.413 743.186 185.479 743.654 185.572V194.914C743.224 194.765 742.541 194.634 741.606 194.522C740.689 194.391 739.801 194.325 738.941 194.325C737.089 194.325 735.425 194.727 733.947 195.532C732.488 196.317 731.338 197.411 730.496 198.814C729.655 200.217 729.234 201.834 729.234 203.667V229H719.078ZM767.422 229.842C763.214 229.842 759.567 228.916 756.481 227.064C753.395 225.213 751.001 222.622 749.3 219.293C747.616 215.964 746.775 212.074 746.775 207.623C746.775 203.172 747.616 199.272 749.3 195.924C751.001 192.577 753.395 189.977 756.481 188.125C759.567 186.274 763.214 185.348 767.422 185.348C771.631 185.348 775.278 186.274 778.363 188.125C781.449 189.977 783.834 192.577 785.517 195.924C787.219 199.272 788.07 203.172 788.07 207.623C788.07 212.074 787.219 215.964 785.517 219.293C783.834 222.622 781.449 225.213 778.363 227.064C775.278 228.916 771.631 229.842 767.422 229.842ZM767.479 221.706C769.76 221.706 771.668 221.079 773.202 219.826C774.735 218.555 775.876 216.853 776.624 214.721C777.391 212.588 777.774 210.213 777.774 207.595C777.774 204.958 777.391 202.573 776.624 200.441C775.876 198.29 774.735 196.579 773.202 195.307C771.668 194.035 769.76 193.4 767.479 193.4C765.141 193.4 763.196 194.035 761.643 195.307C760.11 196.579 758.959 198.29 758.193 200.441C757.445 202.573 757.07 204.958 757.07 207.595C757.07 210.213 757.445 212.588 758.193 214.721C758.959 216.853 760.11 218.555 761.643 219.826C763.196 221.079 765.141 221.706 767.479 221.706ZM796.69 245.159V185.909H806.677V193.035H807.266C807.79 191.987 808.528 190.875 809.482 189.696C810.436 188.499 811.727 187.48 813.354 186.638C814.981 185.778 817.057 185.348 819.582 185.348C822.911 185.348 825.913 186.199 828.587 187.901C831.28 189.584 833.412 192.081 834.983 195.391C836.573 198.683 837.368 202.723 837.368 207.511C837.368 212.242 836.592 216.263 835.04 219.574C833.487 222.884 831.374 225.409 828.699 227.148C826.025 228.888 822.995 229.757 819.61 229.757C817.141 229.757 815.093 229.346 813.466 228.523C811.839 227.7 810.53 226.709 809.538 225.549C808.566 224.371 807.808 223.258 807.266 222.211H806.845V245.159H796.69ZM806.649 207.455C806.649 210.241 807.042 212.682 807.827 214.777C808.631 216.871 809.782 218.508 811.278 219.686C812.793 220.846 814.626 221.425 816.776 221.425C819.021 221.425 820.9 220.827 822.415 219.63C823.93 218.414 825.071 216.759 825.838 214.664C826.623 212.551 827.016 210.148 827.016 207.455C827.016 204.78 826.633 202.405 825.866 200.329C825.099 198.253 823.958 196.626 822.443 195.447C820.928 194.269 819.039 193.68 816.776 193.68C814.607 193.68 812.765 194.25 811.25 195.391C809.735 196.532 808.585 198.131 807.799 200.189C807.032 202.246 806.649 204.668 806.649 207.455ZM865.141 229.842C860.821 229.842 857.09 228.944 853.948 227.148C850.825 225.334 848.421 222.772 846.738 219.462C845.055 216.133 844.213 212.214 844.213 207.707C844.213 203.275 845.055 199.384 846.738 196.037C848.44 192.67 850.815 190.052 853.864 188.181C856.912 186.292 860.494 185.348 864.608 185.348C867.264 185.348 869.77 185.778 872.127 186.638C874.502 187.48 876.597 188.789 878.411 190.566C880.244 192.343 881.684 194.606 882.731 197.355C883.779 200.086 884.302 203.34 884.302 207.118V210.232H848.982V203.387H874.568C874.549 201.442 874.128 199.712 873.305 198.197C872.482 196.663 871.332 195.457 869.854 194.578C868.396 193.699 866.694 193.259 864.749 193.259C862.673 193.259 860.849 193.764 859.278 194.774C857.707 195.765 856.482 197.075 855.603 198.702C854.743 200.31 854.303 202.078 854.285 204.004V209.979C854.285 212.486 854.743 214.636 855.659 216.432C856.576 218.209 857.857 219.574 859.503 220.528C861.148 221.463 863.075 221.93 865.282 221.93C866.759 221.93 868.096 221.725 869.293 221.313C870.49 220.883 871.528 220.257 872.407 219.434C873.286 218.611 873.95 217.591 874.399 216.376L883.881 217.442C883.283 219.948 882.142 222.136 880.459 224.006C878.794 225.858 876.662 227.298 874.063 228.327C871.463 229.337 868.489 229.842 865.141 229.842ZM905.294 229.87C902.563 229.87 900.104 229.383 897.915 228.411C895.746 227.42 894.025 225.961 892.754 224.034C891.5 222.108 890.874 219.733 890.874 216.909C890.874 214.477 891.323 212.467 892.221 210.877C893.118 209.287 894.343 208.016 895.896 207.062C897.448 206.108 899.197 205.388 901.142 204.902C903.105 204.397 905.135 204.032 907.229 203.808C909.754 203.546 911.802 203.312 913.373 203.106C914.944 202.882 916.085 202.545 916.796 202.096C917.525 201.629 917.89 200.909 917.89 199.936V199.768C917.89 197.654 917.263 196.018 916.01 194.858C914.757 193.699 912.952 193.119 910.596 193.119C908.108 193.119 906.135 193.661 904.676 194.746C903.236 195.831 902.264 197.112 901.759 198.589L892.277 197.243C893.025 194.625 894.259 192.436 895.98 190.678C897.7 188.902 899.804 187.574 902.292 186.695C904.779 185.797 907.529 185.348 910.54 185.348C912.616 185.348 914.682 185.591 916.74 186.077C918.797 186.564 920.677 187.368 922.379 188.49C924.08 189.594 925.446 191.099 926.474 193.007C927.522 194.914 928.045 197.299 928.045 200.161V229H918.283V223.081H917.946C917.329 224.278 916.459 225.4 915.337 226.447C914.234 227.476 912.84 228.308 911.157 228.944C909.492 229.561 907.538 229.87 905.294 229.87ZM907.931 222.407C909.969 222.407 911.737 222.005 913.233 221.201C914.729 220.378 915.879 219.293 916.684 217.947C917.507 216.6 917.918 215.132 917.918 213.542V208.464C917.6 208.726 917.058 208.969 916.291 209.194C915.543 209.418 914.701 209.615 913.766 209.783C912.831 209.951 911.905 210.101 910.989 210.232C910.072 210.363 909.277 210.475 908.604 210.569C907.089 210.774 905.733 211.111 904.536 211.578C903.339 212.046 902.395 212.701 901.703 213.542C901.011 214.365 900.665 215.431 900.665 216.74C900.665 218.611 901.347 220.023 902.713 220.977C904.078 221.93 905.817 222.407 907.931 222.407ZM948.413 203.751V229H938.257V185.909H947.964V193.231H948.469C949.46 190.819 951.04 188.902 953.21 187.48C955.398 186.059 958.101 185.348 961.317 185.348C964.291 185.348 966.882 185.984 969.088 187.256C971.314 188.527 973.035 190.37 974.25 192.782C975.485 195.195 976.093 198.122 976.074 201.563V229H965.918V203.134C965.918 200.254 965.17 198 963.674 196.373C962.196 194.746 960.149 193.933 957.53 193.933C955.753 193.933 954.173 194.325 952.789 195.111C951.424 195.878 950.348 196.99 949.563 198.449C948.796 199.908 948.413 201.675 948.413 203.751ZM1042.66 171.545H1053.07V209.082C1053.07 213.196 1052.1 216.815 1050.15 219.939C1048.22 223.062 1045.51 225.503 1042.01 227.261C1038.52 229 1034.43 229.87 1029.76 229.87C1025.06 229.87 1020.96 229 1017.47 227.261C1013.97 225.503 1011.26 223.062 1009.33 219.939C1007.41 216.815 1006.44 213.196 1006.44 209.082V171.545H1016.85V208.212C1016.85 210.606 1017.37 212.738 1018.42 214.608C1019.49 216.479 1020.98 217.947 1022.91 219.013C1024.84 220.06 1027.12 220.584 1029.76 220.584C1032.39 220.584 1034.67 220.06 1036.6 219.013C1038.55 217.947 1040.04 216.479 1041.09 214.608C1042.14 212.738 1042.66 210.606 1042.66 208.212V171.545ZM1074.09 203.751V229H1063.93V185.909H1073.64V193.231H1074.14C1075.13 190.819 1076.72 188.902 1078.88 187.48C1081.07 186.059 1083.78 185.348 1086.99 185.348C1089.97 185.348 1092.56 185.984 1094.76 187.256C1096.99 188.527 1098.71 190.37 1099.93 192.782C1101.16 195.195 1101.77 198.122 1101.75 201.563V229H1091.59V203.134C1091.59 200.254 1090.85 198 1089.35 196.373C1087.87 194.746 1085.82 193.933 1083.2 193.933C1081.43 193.933 1079.85 194.325 1078.46 195.111C1077.1 195.878 1076.02 196.99 1075.24 198.449C1074.47 199.908 1074.09 201.675 1074.09 203.751ZM1112.07 229V185.909H1122.23V229H1112.07ZM1117.18 179.793C1115.57 179.793 1114.19 179.26 1113.03 178.194C1111.87 177.109 1111.29 175.81 1111.29 174.295C1111.29 172.761 1111.87 171.461 1113.03 170.395C1114.19 169.31 1115.57 168.768 1117.18 168.768C1118.81 168.768 1120.19 169.31 1121.33 170.395C1122.49 171.461 1123.07 172.761 1123.07 174.295C1123.07 175.81 1122.49 177.109 1121.33 178.194C1120.19 179.26 1118.81 179.793 1117.18 179.793ZM1151.47 229.842C1147.26 229.842 1143.61 228.916 1140.53 227.064C1137.44 225.213 1135.05 222.622 1133.34 219.293C1131.66 215.964 1130.82 212.074 1130.82 207.623C1130.82 203.172 1131.66 199.272 1133.34 195.924C1135.05 192.577 1137.44 189.977 1140.53 188.125C1143.61 186.274 1147.26 185.348 1151.47 185.348C1155.68 185.348 1159.32 186.274 1162.41 188.125C1165.49 189.977 1167.88 192.577 1169.56 195.924C1171.26 199.272 1172.12 203.172 1172.12 207.623C1172.12 212.074 1171.26 215.964 1169.56 219.293C1167.88 222.622 1165.49 225.213 1162.41 227.064C1159.32 228.916 1155.68 229.842 1151.47 229.842ZM1151.52 221.706C1153.81 221.706 1155.71 221.079 1157.25 219.826C1158.78 218.555 1159.92 216.853 1160.67 214.721C1161.44 212.588 1161.82 210.213 1161.82 207.595C1161.82 204.958 1161.44 202.573 1160.67 200.441C1159.92 198.29 1158.78 196.579 1157.25 195.307C1155.71 194.035 1153.81 193.4 1151.52 193.4C1149.19 193.4 1147.24 194.035 1145.69 195.307C1144.15 196.579 1143 198.29 1142.24 200.441C1141.49 202.573 1141.12 204.958 1141.12 207.595C1141.12 210.213 1141.49 212.588 1142.24 214.721C1143 216.853 1144.15 218.555 1145.69 219.826C1147.24 221.079 1149.19 221.706 1151.52 221.706ZM1190.89 203.751V229H1180.73V185.909H1190.44V193.231H1190.95C1191.94 190.819 1193.52 188.902 1195.69 187.48C1197.88 186.059 1200.58 185.348 1203.8 185.348C1206.77 185.348 1209.36 185.984 1211.57 187.256C1213.79 188.527 1215.51 190.37 1216.73 192.782C1217.96 195.195 1218.57 198.122 1218.55 201.563V229H1208.4V203.134C1208.4 200.254 1207.65 198 1206.15 196.373C1204.67 194.746 1202.63 193.933 1200.01 193.933C1198.23 193.933 1196.65 194.325 1195.27 195.111C1193.9 195.878 1192.83 196.99 1192.04 198.449C1191.27 199.908 1190.89 201.675 1190.89 203.751Z" fill="#003399"/>
<path d="M514.682 283.455V330H508.227L484.568 295.864H484.136V330H477.114V283.455H483.614L507.295 317.636H507.727V283.455H514.682ZM539.426 330.705C535.987 330.705 533.025 329.97 530.54 328.5C528.07 327.015 526.161 324.932 524.812 322.25C523.479 319.553 522.812 316.394 522.812 312.773C522.812 309.197 523.479 306.045 524.812 303.318C526.161 300.591 528.04 298.462 530.449 296.932C532.873 295.402 535.706 294.636 538.949 294.636C540.919 294.636 542.828 294.962 544.676 295.614C546.525 296.265 548.184 297.288 549.653 298.682C551.123 300.076 552.282 301.886 553.131 304.114C553.979 306.326 554.403 309.015 554.403 312.182V314.591H526.653V309.5H547.744C547.744 307.712 547.381 306.129 546.653 304.75C545.926 303.356 544.903 302.258 543.585 301.455C542.282 300.652 540.752 300.25 538.994 300.25C537.085 300.25 535.419 300.72 533.994 301.659C532.585 302.583 531.494 303.795 530.722 305.295C529.964 306.78 529.585 308.394 529.585 310.136V314.114C529.585 316.447 529.994 318.432 530.812 320.068C531.646 321.705 532.805 322.955 534.29 323.818C535.775 324.667 537.509 325.091 539.494 325.091C540.782 325.091 541.956 324.909 543.017 324.545C544.078 324.167 544.994 323.606 545.767 322.864C546.54 322.121 547.131 321.205 547.54 320.114L553.972 321.273C553.456 323.167 552.532 324.826 551.199 326.25C549.881 327.659 548.222 328.758 546.222 329.545C544.237 330.318 541.972 330.705 539.426 330.705ZM566.494 295.091L574.199 308.682L581.972 295.091H589.403L578.517 312.545L589.494 330H582.062L574.199 316.955L566.358 330H558.903L569.767 312.545L559.04 295.091H566.494ZM612.676 295.091V300.545H593.608V295.091H612.676ZM598.722 286.727H605.517V319.75C605.517 321.068 605.714 322.061 606.108 322.727C606.502 323.379 607.009 323.826 607.631 324.068C608.267 324.295 608.956 324.409 609.699 324.409C610.244 324.409 610.722 324.371 611.131 324.295C611.54 324.22 611.858 324.159 612.085 324.114L613.312 329.727C612.919 329.879 612.358 330.03 611.631 330.182C610.903 330.348 609.994 330.439 608.903 330.455C607.116 330.485 605.449 330.167 603.903 329.5C602.358 328.833 601.108 327.803 600.153 326.409C599.199 325.015 598.722 323.265 598.722 321.159V286.727ZM652.239 298.159C651.799 296.78 651.208 295.545 650.466 294.455C649.739 293.348 648.867 292.409 647.852 291.636C646.837 290.848 645.678 290.25 644.375 289.841C643.087 289.432 641.67 289.227 640.125 289.227C637.504 289.227 635.14 289.902 633.034 291.25C630.928 292.598 629.261 294.576 628.034 297.182C626.822 299.773 626.216 302.947 626.216 306.705C626.216 310.477 626.83 313.667 628.057 316.273C629.284 318.879 630.966 320.856 633.102 322.205C635.239 323.553 637.67 324.227 640.398 324.227C642.928 324.227 645.133 323.712 647.011 322.682C648.905 321.652 650.367 320.197 651.398 318.318C652.443 316.424 652.966 314.197 652.966 311.636L654.784 311.977H641.466V306.182H659.761V311.477C659.761 315.386 658.928 318.78 657.261 321.659C655.61 324.523 653.322 326.735 650.398 328.295C647.489 329.856 644.155 330.636 640.398 330.636C636.186 330.636 632.489 329.667 629.307 327.727C626.14 325.788 623.67 323.038 621.898 319.477C620.125 315.902 619.239 311.659 619.239 306.75C619.239 303.038 619.754 299.705 620.784 296.75C621.814 293.795 623.261 291.288 625.125 289.227C627.004 287.152 629.208 285.568 631.739 284.477C634.284 283.371 637.064 282.818 640.08 282.818C642.595 282.818 644.936 283.189 647.102 283.932C649.284 284.674 651.223 285.727 652.92 287.091C654.633 288.455 656.049 290.076 657.17 291.955C658.292 293.818 659.049 295.886 659.443 298.159H652.239ZM683.176 330.705C679.737 330.705 676.775 329.97 674.29 328.5C671.82 327.015 669.911 324.932 668.562 322.25C667.229 319.553 666.562 316.394 666.562 312.773C666.562 309.197 667.229 306.045 668.562 303.318C669.911 300.591 671.79 298.462 674.199 296.932C676.623 295.402 679.456 294.636 682.699 294.636C684.669 294.636 686.578 294.962 688.426 295.614C690.275 296.265 691.934 297.288 693.403 298.682C694.873 300.076 696.032 301.886 696.881 304.114C697.729 306.326 698.153 309.015 698.153 312.182V314.591H670.403V309.5H691.494C691.494 307.712 691.131 306.129 690.403 304.75C689.676 303.356 688.653 302.258 687.335 301.455C686.032 300.652 684.502 300.25 682.744 300.25C680.835 300.25 679.169 300.72 677.744 301.659C676.335 302.583 675.244 303.795 674.472 305.295C673.714 306.78 673.335 308.394 673.335 310.136V314.114C673.335 316.447 673.744 318.432 674.562 320.068C675.396 321.705 676.555 322.955 678.04 323.818C679.525 324.667 681.259 325.091 683.244 325.091C684.532 325.091 685.706 324.909 686.767 324.545C687.828 324.167 688.744 323.606 689.517 322.864C690.29 322.121 690.881 321.205 691.29 320.114L697.722 321.273C697.206 323.167 696.282 324.826 694.949 326.25C693.631 327.659 691.972 328.758 689.972 329.545C687.987 330.318 685.722 330.705 683.176 330.705ZM712.489 309.273V330H705.693V295.091H712.216V300.773H712.648C713.451 298.924 714.708 297.439 716.42 296.318C718.148 295.197 720.322 294.636 722.943 294.636C725.322 294.636 727.405 295.136 729.193 296.136C730.981 297.121 732.367 298.591 733.352 300.545C734.337 302.5 734.83 304.917 734.83 307.795V330H728.034V308.614C728.034 306.083 727.375 304.106 726.057 302.682C724.739 301.242 722.928 300.523 720.625 300.523C719.049 300.523 717.648 300.864 716.42 301.545C715.208 302.227 714.246 303.227 713.534 304.545C712.837 305.848 712.489 307.424 712.489 309.273ZM758.989 330.705C755.549 330.705 752.587 329.97 750.102 328.5C747.633 327.015 745.723 324.932 744.375 322.25C743.042 319.553 742.375 316.394 742.375 312.773C742.375 309.197 743.042 306.045 744.375 303.318C745.723 300.591 747.602 298.462 750.011 296.932C752.436 295.402 755.269 294.636 758.511 294.636C760.481 294.636 762.39 294.962 764.239 295.614C766.087 296.265 767.746 297.288 769.216 298.682C770.686 300.076 771.845 301.886 772.693 304.114C773.542 306.326 773.966 309.015 773.966 312.182V314.591H746.216V309.5H767.307C767.307 307.712 766.943 306.129 766.216 304.75C765.489 303.356 764.466 302.258 763.148 301.455C761.845 300.652 760.314 300.25 758.557 300.25C756.648 300.25 754.981 300.72 753.557 301.659C752.148 302.583 751.057 303.795 750.284 305.295C749.527 306.78 749.148 308.394 749.148 310.136V314.114C749.148 316.447 749.557 318.432 750.375 320.068C751.208 321.705 752.367 322.955 753.852 323.818C755.337 324.667 757.072 325.091 759.057 325.091C760.345 325.091 761.519 324.909 762.58 324.545C763.64 324.167 764.557 323.606 765.33 322.864C766.102 322.121 766.693 321.205 767.102 320.114L773.534 321.273C773.019 323.167 772.095 324.826 770.761 326.25C769.443 327.659 767.784 328.758 765.784 329.545C763.799 330.318 761.534 330.705 758.989 330.705ZM781.506 330V295.091H788.074V300.636H788.438C789.074 298.758 790.195 297.28 791.801 296.205C793.422 295.114 795.256 294.568 797.301 294.568C797.725 294.568 798.225 294.583 798.801 294.614C799.392 294.644 799.854 294.682 800.188 294.727V301.227C799.915 301.152 799.43 301.068 798.733 300.977C798.036 300.871 797.339 300.818 796.642 300.818C795.036 300.818 793.604 301.159 792.347 301.841C791.104 302.508 790.119 303.439 789.392 304.636C788.665 305.818 788.301 307.167 788.301 308.682V330H781.506ZM815.915 330.773C813.703 330.773 811.703 330.364 809.915 329.545C808.127 328.712 806.71 327.508 805.665 325.932C804.634 324.356 804.119 322.424 804.119 320.136C804.119 318.167 804.498 316.545 805.256 315.273C806.013 314 807.036 312.992 808.324 312.25C809.612 311.508 811.051 310.947 812.642 310.568C814.233 310.189 815.854 309.902 817.506 309.705C819.597 309.462 821.294 309.265 822.597 309.114C823.9 308.947 824.847 308.682 825.438 308.318C826.028 307.955 826.324 307.364 826.324 306.545V306.386C826.324 304.402 825.763 302.864 824.642 301.773C823.536 300.682 821.884 300.136 819.688 300.136C817.4 300.136 815.597 300.644 814.278 301.659C812.975 302.659 812.074 303.773 811.574 305L805.188 303.545C805.945 301.424 807.051 299.712 808.506 298.409C809.975 297.091 811.665 296.136 813.574 295.545C815.483 294.939 817.491 294.636 819.597 294.636C820.991 294.636 822.468 294.803 824.028 295.136C825.604 295.455 827.074 296.045 828.438 296.909C829.816 297.773 830.945 299.008 831.824 300.614C832.703 302.205 833.142 304.273 833.142 306.818V330H826.506V325.227H826.233C825.794 326.106 825.134 326.97 824.256 327.818C823.377 328.667 822.248 329.371 820.869 329.932C819.491 330.492 817.839 330.773 815.915 330.773ZM817.392 325.318C819.271 325.318 820.877 324.947 822.21 324.205C823.559 323.462 824.581 322.492 825.278 321.295C825.991 320.083 826.347 318.788 826.347 317.409V312.909C826.104 313.152 825.634 313.379 824.938 313.591C824.256 313.788 823.475 313.962 822.597 314.114C821.718 314.25 820.862 314.379 820.028 314.5C819.195 314.606 818.498 314.697 817.938 314.773C816.619 314.939 815.415 315.22 814.324 315.614C813.248 316.008 812.384 316.576 811.733 317.318C811.097 318.045 810.778 319.015 810.778 320.227C810.778 321.909 811.4 323.182 812.642 324.045C813.884 324.894 815.468 325.318 817.392 325.318ZM858.489 295.091V300.545H839.42V295.091H858.489ZM844.534 286.727H851.33V319.75C851.33 321.068 851.527 322.061 851.92 322.727C852.314 323.379 852.822 323.826 853.443 324.068C854.08 324.295 854.769 324.409 855.511 324.409C856.057 324.409 856.534 324.371 856.943 324.295C857.352 324.22 857.67 324.159 857.898 324.114L859.125 329.727C858.731 329.879 858.17 330.03 857.443 330.182C856.716 330.348 855.807 330.439 854.716 330.455C852.928 330.485 851.261 330.167 849.716 329.5C848.17 328.833 846.92 327.803 845.966 326.409C845.011 325.015 844.534 323.265 844.534 321.159V286.727ZM866.006 330V295.091H872.801V330H866.006ZM869.438 289.705C868.256 289.705 867.241 289.311 866.392 288.523C865.559 287.72 865.142 286.765 865.142 285.659C865.142 284.538 865.559 283.583 866.392 282.795C867.241 281.992 868.256 281.591 869.438 281.591C870.619 281.591 871.627 281.992 872.46 282.795C873.309 283.583 873.733 284.538 873.733 285.659C873.733 286.765 873.309 287.72 872.46 288.523C871.627 289.311 870.619 289.705 869.438 289.705ZM896.648 330.705C893.375 330.705 890.519 329.955 888.08 328.455C885.64 326.955 883.746 324.856 882.398 322.159C881.049 319.462 880.375 316.311 880.375 312.705C880.375 309.083 881.049 305.917 882.398 303.205C883.746 300.492 885.64 298.386 888.08 296.886C890.519 295.386 893.375 294.636 896.648 294.636C899.92 294.636 902.777 295.386 905.216 296.886C907.655 298.386 909.549 300.492 910.898 303.205C912.246 305.917 912.92 309.083 912.92 312.705C912.92 316.311 912.246 319.462 910.898 322.159C909.549 324.856 907.655 326.955 905.216 328.455C902.777 329.955 899.92 330.705 896.648 330.705ZM896.67 325C898.792 325 900.549 324.439 901.943 323.318C903.337 322.197 904.367 320.705 905.034 318.841C905.716 316.977 906.057 314.924 906.057 312.682C906.057 310.455 905.716 308.409 905.034 306.545C904.367 304.667 903.337 303.159 901.943 302.023C900.549 300.886 898.792 300.318 896.67 300.318C894.534 300.318 892.761 300.886 891.352 302.023C889.958 303.159 888.92 304.667 888.239 306.545C887.572 308.409 887.239 310.455 887.239 312.682C887.239 314.924 887.572 316.977 888.239 318.841C888.92 320.705 889.958 322.197 891.352 323.318C892.761 324.439 894.534 325 896.67 325ZM927.301 309.273V330H920.506V295.091H927.028V300.773H927.46C928.263 298.924 929.521 297.439 931.233 296.318C932.96 295.197 935.134 294.636 937.756 294.636C940.134 294.636 942.218 295.136 944.006 296.136C945.794 297.121 947.18 298.591 948.165 300.545C949.15 302.5 949.642 304.917 949.642 307.795V330H942.847V308.614C942.847 306.083 942.188 304.106 940.869 302.682C939.551 301.242 937.741 300.523 935.438 300.523C933.862 300.523 932.46 300.864 931.233 301.545C930.021 302.227 929.059 303.227 928.347 304.545C927.65 305.848 927.301 307.424 927.301 309.273ZM959.301 330V283.455H988.483V289.5H966.324V303.682H986.96V309.705H966.324V323.955H988.756V330H959.301ZM1027.8 283.455H1034.84V314.068C1034.84 317.326 1034.08 320.212 1032.55 322.727C1031.02 325.227 1028.86 327.197 1026.09 328.636C1023.32 330.061 1020.07 330.773 1016.34 330.773C1012.63 330.773 1009.39 330.061 1006.61 328.636C1003.84 327.197 1001.69 325.227 1000.16 322.727C998.629 320.212 997.864 317.326 997.864 314.068V283.455H1004.89V313.5C1004.89 315.606 1005.35 317.477 1006.27 319.114C1007.21 320.75 1008.54 322.038 1010.25 322.977C1011.96 323.902 1013.99 324.364 1016.34 324.364C1018.7 324.364 1020.74 323.902 1022.45 322.977C1024.18 322.038 1025.5 320.75 1026.41 319.114C1027.33 317.477 1027.8 315.606 1027.8 313.5V283.455Z" fill="#58595B"/>
</svg>
