<svg width="911" height="400" viewBox="0 0 911 400" fill="none" xmlns="http://www.w3.org/2000/svg">
<rect width="911" height="400" fill="white"/>
<path d="M76.5508 186L61.1992 152.572V179.115C61.1992 181.557 61.4629 183.08 61.9902 183.686C62.7129 184.506 63.8555 184.916 65.418 184.916H66.8242V186H52.9961V184.916H54.4023C56.082 184.916 57.2734 184.408 57.9766 183.393C58.4062 182.768 58.6211 181.342 58.6211 179.115V153.158C58.6211 151.4 58.4258 150.131 58.0352 149.35C57.7617 148.783 57.2539 148.314 56.5117 147.943C55.7891 147.553 54.6172 147.357 52.9961 147.357V146.273H64.2461L78.6602 177.357L92.8398 146.273H104.09V147.357H102.713C101.014 147.357 99.8125 147.865 99.1094 148.881C98.6797 149.506 98.4648 150.932 98.4648 153.158V179.115C98.4648 181.557 98.7383 183.08 99.2852 183.686C100.008 184.506 101.15 184.916 102.713 184.916H104.09V186H87.2148V184.916H88.6211C90.3203 184.916 91.5117 184.408 92.1953 183.393C92.625 182.768 92.8398 181.342 92.8398 179.115V152.572L77.5176 186H76.5508ZM123.895 184.916V186H106.873V184.916H108.279C109.92 184.916 111.111 184.438 111.854 183.48C112.322 182.855 112.557 181.352 112.557 178.969V153.305C112.557 151.293 112.43 149.965 112.176 149.32C111.98 148.832 111.58 148.412 110.975 148.061C110.115 147.592 109.217 147.357 108.279 147.357H106.873V146.273H123.895V147.357H122.459C120.838 147.357 119.656 147.836 118.914 148.793C118.426 149.418 118.182 150.922 118.182 153.305V178.969C118.182 180.98 118.309 182.309 118.562 182.953C118.758 183.441 119.168 183.861 119.793 184.213C120.633 184.682 121.521 184.916 122.459 184.916H123.895ZM124.568 146.273H135.35L159.637 176.068V153.158C159.637 150.717 159.363 149.193 158.816 148.588C158.094 147.768 156.951 147.357 155.389 147.357H154.012V146.273H167.84V147.357H166.434C164.754 147.357 163.562 147.865 162.859 148.881C162.43 149.506 162.215 150.932 162.215 153.158V186.645H161.16L134.969 154.652V179.115C134.969 181.557 135.232 183.08 135.76 183.686C136.502 184.506 137.645 184.916 139.188 184.916H140.594V186H126.766V184.916H128.143C129.842 184.916 131.043 184.408 131.746 183.393C132.176 182.768 132.391 181.342 132.391 179.115V151.488C131.238 150.141 130.359 149.252 129.754 148.822C129.168 148.393 128.299 147.992 127.146 147.621C126.58 147.445 125.721 147.357 124.568 147.357V146.273ZM187.234 184.916V186H170.213V184.916H171.619C173.26 184.916 174.451 184.438 175.193 183.48C175.662 182.855 175.896 181.352 175.896 178.969V153.305C175.896 151.293 175.77 149.965 175.516 149.32C175.32 148.832 174.92 148.412 174.314 148.061C173.455 147.592 172.557 147.357 171.619 147.357H170.213V146.273H187.234V147.357H185.799C184.178 147.357 182.996 147.836 182.254 148.793C181.766 149.418 181.521 150.922 181.521 153.305V178.969C181.521 180.98 181.648 182.309 181.902 182.953C182.098 183.441 182.508 183.861 183.133 184.213C183.973 184.682 184.861 184.916 185.799 184.916H187.234ZM216.209 145.365V159.105H215.125C214.773 156.469 214.139 154.369 213.221 152.807C212.322 151.244 211.033 150.004 209.354 149.086C207.674 148.168 205.936 147.709 204.139 147.709C202.107 147.709 200.428 148.334 199.1 149.584C197.771 150.814 197.107 152.221 197.107 153.803C197.107 155.014 197.527 156.117 198.367 157.113C199.578 158.578 202.459 160.531 207.01 162.973C210.721 164.965 213.25 166.498 214.598 167.572C215.965 168.627 217.01 169.877 217.732 171.322C218.475 172.768 218.846 174.281 218.846 175.863C218.846 178.871 217.674 181.469 215.33 183.656C213.006 185.824 210.008 186.908 206.336 186.908C205.184 186.908 204.1 186.82 203.084 186.645C202.479 186.547 201.219 186.195 199.305 185.59C197.41 184.965 196.209 184.652 195.701 184.652C195.213 184.652 194.822 184.799 194.529 185.092C194.256 185.385 194.051 185.99 193.914 186.908H192.83V173.285H193.914C194.422 176.137 195.105 178.275 195.965 179.701C196.824 181.107 198.133 182.279 199.891 183.217C201.668 184.154 203.611 184.623 205.721 184.623C208.162 184.623 210.086 183.979 211.492 182.689C212.918 181.4 213.631 179.877 213.631 178.119C213.631 177.143 213.357 176.156 212.811 175.16C212.283 174.164 211.453 173.236 210.32 172.377C209.559 171.791 207.479 170.551 204.08 168.656C200.682 166.742 198.26 165.219 196.814 164.086C195.389 162.953 194.305 161.703 193.562 160.336C192.82 158.969 192.449 157.465 192.449 155.824C192.449 152.973 193.543 150.521 195.73 148.471C197.918 146.4 200.701 145.365 204.08 145.365C206.189 145.365 208.426 145.883 210.789 146.918C211.883 147.406 212.654 147.65 213.104 147.65C213.611 147.65 214.021 147.504 214.334 147.211C214.666 146.898 214.93 146.283 215.125 145.365H216.209ZM256.814 146.273L257.254 155.59H256.141C255.926 153.949 255.633 152.777 255.262 152.074C254.656 150.941 253.846 150.111 252.83 149.584C251.834 149.037 250.516 148.764 248.875 148.764H243.279V179.115C243.279 181.557 243.543 183.08 244.07 183.686C244.812 184.506 245.955 184.916 247.498 184.916H248.875V186H232.029V184.916H233.436C235.115 184.916 236.307 184.408 237.01 183.393C237.439 182.768 237.654 181.342 237.654 179.115V148.764H232.879C231.023 148.764 229.705 148.9 228.924 149.174C227.908 149.545 227.039 150.258 226.316 151.312C225.594 152.367 225.164 153.793 225.027 155.59H223.914L224.383 146.273H256.814ZM271.316 148.441V164.145H280.047C282.312 164.145 283.826 163.803 284.588 163.119C285.604 162.221 286.17 160.639 286.287 158.373H287.371V172.201H286.287C286.014 170.268 285.74 169.027 285.467 168.48C285.115 167.797 284.539 167.26 283.738 166.869C282.938 166.479 281.707 166.283 280.047 166.283H271.316V179.379C271.316 181.137 271.395 182.211 271.551 182.602C271.707 182.973 271.98 183.275 272.371 183.51C272.762 183.725 273.504 183.832 274.598 183.832H281.336C283.582 183.832 285.213 183.676 286.229 183.363C287.244 183.051 288.221 182.436 289.158 181.518C290.369 180.307 291.609 178.48 292.879 176.039H294.051L290.623 186H260.008V184.916H261.414C262.352 184.916 263.24 184.691 264.08 184.242C264.705 183.93 265.125 183.461 265.34 182.836C265.574 182.211 265.691 180.932 265.691 178.998V153.188C265.691 150.668 265.438 149.115 264.93 148.529C264.227 147.748 263.055 147.357 261.414 147.357H260.008V146.273H290.623L291.062 154.975H289.92C289.51 152.885 289.051 151.449 288.543 150.668C288.055 149.887 287.322 149.291 286.346 148.881C285.564 148.588 284.188 148.441 282.215 148.441H271.316ZM336.004 186H325.398L311.951 167.426C310.955 167.465 310.145 167.484 309.52 167.484C309.266 167.484 308.992 167.484 308.699 167.484C308.406 167.465 308.104 167.445 307.791 167.426V178.969C307.791 181.469 308.064 183.021 308.611 183.627C309.354 184.486 310.467 184.916 311.951 184.916H313.504V186H296.482V184.916H297.977C299.656 184.916 300.857 184.369 301.58 183.275C301.99 182.67 302.195 181.234 302.195 178.969V153.305C302.195 150.805 301.922 149.252 301.375 148.646C300.613 147.787 299.48 147.357 297.977 147.357H296.482V146.273H310.955C315.174 146.273 318.279 146.586 320.271 147.211C322.283 147.816 323.982 148.949 325.369 150.609C326.775 152.25 327.479 154.213 327.479 156.498C327.479 158.939 326.678 161.059 325.076 162.855C323.494 164.652 321.033 165.922 317.693 166.664L325.896 178.061C327.771 180.678 329.383 182.416 330.73 183.275C332.078 184.135 333.836 184.682 336.004 184.916V186ZM307.791 165.58C308.162 165.58 308.484 165.59 308.758 165.609C309.031 165.609 309.256 165.609 309.432 165.609C313.221 165.609 316.072 164.789 317.986 163.148C319.92 161.508 320.887 159.418 320.887 156.879C320.887 154.398 320.105 152.387 318.543 150.844C317 149.281 314.949 148.5 312.391 148.5C311.258 148.5 309.725 148.686 307.791 149.057V165.58ZM364.1 147.357V146.273H378.162V147.357H376.668C375.105 147.357 373.904 148.012 373.064 149.32C372.654 149.926 372.449 151.332 372.449 153.539V169.652C372.449 173.637 372.049 176.732 371.248 178.939C370.467 181.127 368.914 183.012 366.59 184.594C364.285 186.156 361.141 186.938 357.156 186.938C352.82 186.938 349.529 186.186 347.283 184.682C345.037 183.178 343.445 181.156 342.508 178.617C341.883 176.879 341.57 173.617 341.57 168.832V153.305C341.57 150.863 341.229 149.262 340.545 148.5C339.881 147.738 338.797 147.357 337.293 147.357H335.799V146.273H352.967V147.357H351.443C349.803 147.357 348.631 147.875 347.928 148.91C347.439 149.613 347.195 151.078 347.195 153.305V170.619C347.195 172.162 347.332 173.93 347.605 175.922C347.898 177.914 348.416 179.467 349.158 180.58C349.9 181.693 350.965 182.611 352.352 183.334C353.758 184.057 355.477 184.418 357.508 184.418C360.105 184.418 362.43 183.852 364.48 182.719C366.531 181.586 367.928 180.141 368.67 178.383C369.432 176.605 369.812 173.607 369.812 169.389V153.305C369.812 150.824 369.539 149.271 368.992 148.646C368.23 147.787 367.098 147.357 365.594 147.357H364.1ZM413.23 175.014L414.197 175.219L410.799 186H380.037V184.916H381.531C383.211 184.916 384.412 184.369 385.135 183.275C385.545 182.65 385.75 181.205 385.75 178.939V153.305C385.75 150.824 385.477 149.271 384.93 148.646C384.168 147.787 383.035 147.357 381.531 147.357H380.037V146.273H398.025V147.357C395.916 147.338 394.432 147.533 393.572 147.943C392.732 148.354 392.156 148.871 391.844 149.496C391.531 150.121 391.375 151.615 391.375 153.979V178.939C391.375 180.561 391.531 181.674 391.844 182.279C392.078 182.689 392.439 182.992 392.928 183.188C393.416 183.383 394.939 183.48 397.498 183.48H400.398C403.445 183.48 405.584 183.256 406.814 182.807C408.045 182.357 409.168 181.566 410.184 180.434C411.199 179.281 412.215 177.475 413.23 175.014ZM452.4 172.699H437.02L434.324 178.969C433.66 180.512 433.328 181.664 433.328 182.426C433.328 183.031 433.611 183.568 434.178 184.037C434.764 184.486 436.014 184.779 437.928 184.916V186H425.418V184.916C427.078 184.623 428.152 184.242 428.641 183.773C429.637 182.836 430.74 180.932 431.951 178.061L445.926 145.365H446.951L460.779 178.412C461.893 181.068 462.898 182.797 463.797 183.598C464.715 184.379 465.984 184.818 467.605 184.916V186H451.932V184.916C453.514 184.838 454.578 184.574 455.125 184.125C455.691 183.676 455.975 183.129 455.975 182.484C455.975 181.625 455.584 180.268 454.803 178.412L452.4 172.699ZM451.58 170.531L444.842 154.477L437.928 170.531H451.58ZM505.135 145.365L506.16 157.904H505.135C504.1 154.779 502.762 152.426 501.121 150.844C498.758 148.559 495.721 147.416 492.01 147.416C486.951 147.416 483.104 149.418 480.467 153.422C478.26 156.801 477.156 160.824 477.156 165.492C477.156 169.281 477.889 172.738 479.354 175.863C480.818 178.988 482.732 181.283 485.096 182.748C487.479 184.193 489.92 184.916 492.42 184.916C493.885 184.916 495.301 184.73 496.668 184.359C498.035 183.988 499.354 183.441 500.623 182.719V171.234C500.623 169.242 500.467 167.943 500.154 167.338C499.861 166.713 499.393 166.244 498.748 165.932C498.123 165.6 497.01 165.434 495.408 165.434V164.32H510.789V165.434H510.057C508.533 165.434 507.488 165.941 506.922 166.957C506.531 167.68 506.336 169.105 506.336 171.234V183.393C504.09 184.604 501.873 185.492 499.686 186.059C497.498 186.625 495.066 186.908 492.391 186.908C484.715 186.908 478.885 184.447 474.9 179.525C471.912 175.834 470.418 171.576 470.418 166.752C470.418 163.256 471.258 159.906 472.938 156.703C474.93 152.895 477.664 149.965 481.141 147.914C484.051 146.215 487.488 145.365 491.453 145.365C492.898 145.365 494.207 145.482 495.379 145.717C496.57 145.951 498.25 146.469 500.418 147.27C501.512 147.68 502.244 147.885 502.615 147.885C502.986 147.885 503.299 147.719 503.553 147.387C503.826 147.035 503.992 146.361 504.051 145.365H505.135ZM552.215 186H541.609L528.162 167.426C527.166 167.465 526.355 167.484 525.73 167.484C525.477 167.484 525.203 167.484 524.91 167.484C524.617 167.465 524.314 167.445 524.002 167.426V178.969C524.002 181.469 524.275 183.021 524.822 183.627C525.564 184.486 526.678 184.916 528.162 184.916H529.715V186H512.693V184.916H514.188C515.867 184.916 517.068 184.369 517.791 183.275C518.201 182.67 518.406 181.234 518.406 178.969V153.305C518.406 150.805 518.133 149.252 517.586 148.646C516.824 147.787 515.691 147.357 514.188 147.357H512.693V146.273H527.166C531.385 146.273 534.49 146.586 536.482 147.211C538.494 147.816 540.193 148.949 541.58 150.609C542.986 152.25 543.689 154.213 543.689 156.498C543.689 158.939 542.889 161.059 541.287 162.855C539.705 164.652 537.244 165.922 533.904 166.664L542.107 178.061C543.982 180.678 545.594 182.416 546.941 183.275C548.289 184.135 550.047 184.682 552.215 184.916V186ZM524.002 165.58C524.373 165.58 524.695 165.59 524.969 165.609C525.242 165.609 525.467 165.609 525.643 165.609C529.432 165.609 532.283 164.789 534.197 163.148C536.131 161.508 537.098 159.418 537.098 156.879C537.098 154.398 536.316 152.387 534.754 150.844C533.211 149.281 531.16 148.5 528.602 148.5C527.469 148.5 525.936 148.686 524.002 149.057V165.58ZM570.203 184.916V186H553.182V184.916H554.588C556.229 184.916 557.42 184.438 558.162 183.48C558.631 182.855 558.865 181.352 558.865 178.969V153.305C558.865 151.293 558.738 149.965 558.484 149.32C558.289 148.832 557.889 148.412 557.283 148.061C556.424 147.592 555.525 147.357 554.588 147.357H553.182V146.273H570.203V147.357H568.768C567.146 147.357 565.965 147.836 565.223 148.793C564.734 149.418 564.49 150.922 564.49 153.305V178.969C564.49 180.98 564.617 182.309 564.871 182.953C565.066 183.441 565.477 183.861 566.102 184.213C566.941 184.682 567.83 184.916 568.768 184.916H570.203ZM607.791 145.365L608.699 158.871H607.791C606.58 154.828 604.852 151.918 602.605 150.141C600.359 148.363 597.664 147.475 594.52 147.475C591.883 147.475 589.5 148.148 587.371 149.496C585.242 150.824 583.562 152.953 582.332 155.883C581.121 158.812 580.516 162.455 580.516 166.811C580.516 170.404 581.092 173.52 582.244 176.156C583.396 178.793 585.125 180.814 587.43 182.221C589.754 183.627 592.4 184.33 595.369 184.33C597.947 184.33 600.223 183.783 602.195 182.689C604.168 181.576 606.336 179.379 608.699 176.098L609.607 176.684C607.615 180.219 605.291 182.807 602.635 184.447C599.979 186.088 596.824 186.908 593.172 186.908C586.59 186.908 581.492 184.467 577.879 179.584C575.184 175.951 573.836 171.674 573.836 166.752C573.836 162.787 574.725 159.145 576.502 155.824C578.279 152.504 580.721 149.936 583.826 148.119C586.951 146.283 590.359 145.365 594.051 145.365C596.922 145.365 599.754 146.068 602.547 147.475C603.367 147.904 603.953 148.119 604.305 148.119C604.832 148.119 605.291 147.934 605.682 147.562C606.189 147.035 606.551 146.303 606.766 145.365H607.791ZM640.311 147.357V146.273H654.373V147.357H652.879C651.316 147.357 650.115 148.012 649.275 149.32C648.865 149.926 648.66 151.332 648.66 153.539V169.652C648.66 173.637 648.26 176.732 647.459 178.939C646.678 181.127 645.125 183.012 642.801 184.594C640.496 186.156 637.352 186.938 633.367 186.938C629.031 186.938 625.74 186.186 623.494 184.682C621.248 183.178 619.656 181.156 618.719 178.617C618.094 176.879 617.781 173.617 617.781 168.832V153.305C617.781 150.863 617.439 149.262 616.756 148.5C616.092 147.738 615.008 147.357 613.504 147.357H612.01V146.273H629.178V147.357H627.654C626.014 147.357 624.842 147.875 624.139 148.91C623.65 149.613 623.406 151.078 623.406 153.305V170.619C623.406 172.162 623.543 173.93 623.816 175.922C624.109 177.914 624.627 179.467 625.369 180.58C626.111 181.693 627.176 182.611 628.562 183.334C629.969 184.057 631.688 184.418 633.719 184.418C636.316 184.418 638.641 183.852 640.691 182.719C642.742 181.586 644.139 180.141 644.881 178.383C645.643 176.605 646.023 173.607 646.023 169.389V153.305C646.023 150.824 645.75 149.271 645.203 148.646C644.441 147.787 643.309 147.357 641.805 147.357H640.311ZM689.441 175.014L690.408 175.219L687.01 186H656.248V184.916H657.742C659.422 184.916 660.623 184.369 661.346 183.275C661.756 182.65 661.961 181.205 661.961 178.939V153.305C661.961 150.824 661.688 149.271 661.141 148.646C660.379 147.787 659.246 147.357 657.742 147.357H656.248V146.273H674.236V147.357C672.127 147.338 670.643 147.533 669.783 147.943C668.943 148.354 668.367 148.871 668.055 149.496C667.742 150.121 667.586 151.615 667.586 153.979V178.939C667.586 180.561 667.742 181.674 668.055 182.279C668.289 182.689 668.65 182.992 669.139 183.188C669.627 183.383 671.15 183.48 673.709 183.48H676.609C679.656 183.48 681.795 183.256 683.025 182.807C684.256 182.357 685.379 181.566 686.395 180.434C687.41 179.281 688.426 177.475 689.441 175.014ZM720.936 146.273L721.375 155.59H720.262C720.047 153.949 719.754 152.777 719.383 152.074C718.777 150.941 717.967 150.111 716.951 149.584C715.955 149.037 714.637 148.764 712.996 148.764H707.4V179.115C707.4 181.557 707.664 183.08 708.191 183.686C708.934 184.506 710.076 184.916 711.619 184.916H712.996V186H696.15V184.916H697.557C699.236 184.916 700.428 184.408 701.131 183.393C701.561 182.768 701.775 181.342 701.775 179.115V148.764H697C695.145 148.764 693.826 148.9 693.045 149.174C692.029 149.545 691.16 150.258 690.438 151.312C689.715 152.367 689.285 153.793 689.148 155.59H688.035L688.504 146.273H720.936ZM751.521 147.357V146.273H765.584V147.357H764.09C762.527 147.357 761.326 148.012 760.486 149.32C760.076 149.926 759.871 151.332 759.871 153.539V169.652C759.871 173.637 759.471 176.732 758.67 178.939C757.889 181.127 756.336 183.012 754.012 184.594C751.707 186.156 748.562 186.938 744.578 186.938C740.242 186.938 736.951 186.186 734.705 184.682C732.459 183.178 730.867 181.156 729.93 178.617C729.305 176.879 728.992 173.617 728.992 168.832V153.305C728.992 150.863 728.65 149.262 727.967 148.5C727.303 147.738 726.219 147.357 724.715 147.357H723.221V146.273H740.389V147.357H738.865C737.225 147.357 736.053 147.875 735.35 148.91C734.861 149.613 734.617 151.078 734.617 153.305V170.619C734.617 172.162 734.754 173.93 735.027 175.922C735.32 177.914 735.838 179.467 736.58 180.58C737.322 181.693 738.387 182.611 739.773 183.334C741.18 184.057 742.898 184.418 744.93 184.418C747.527 184.418 749.852 183.852 751.902 182.719C753.953 181.586 755.35 180.141 756.092 178.383C756.854 176.605 757.234 173.607 757.234 169.389V153.305C757.234 150.824 756.961 149.271 756.414 148.646C755.652 147.787 754.52 147.357 753.016 147.357H751.521ZM806.805 186H796.199L782.752 167.426C781.756 167.465 780.945 167.484 780.32 167.484C780.066 167.484 779.793 167.484 779.5 167.484C779.207 167.465 778.904 167.445 778.592 167.426V178.969C778.592 181.469 778.865 183.021 779.412 183.627C780.154 184.486 781.268 184.916 782.752 184.916H784.305V186H767.283V184.916H768.777C770.457 184.916 771.658 184.369 772.381 183.275C772.791 182.67 772.996 181.234 772.996 178.969V153.305C772.996 150.805 772.723 149.252 772.176 148.646C771.414 147.787 770.281 147.357 768.777 147.357H767.283V146.273H781.756C785.975 146.273 789.08 146.586 791.072 147.211C793.084 147.816 794.783 148.949 796.17 150.609C797.576 152.25 798.279 154.213 798.279 156.498C798.279 158.939 797.479 161.059 795.877 162.855C794.295 164.652 791.834 165.922 788.494 166.664L796.697 178.061C798.572 180.678 800.184 182.416 801.531 183.275C802.879 184.135 804.637 184.682 806.805 184.916V186ZM778.592 165.58C778.963 165.58 779.285 165.59 779.559 165.609C779.832 165.609 780.057 165.609 780.232 165.609C784.021 165.609 786.873 164.789 788.787 163.148C790.721 161.508 791.688 159.418 791.688 156.879C791.688 154.398 790.906 152.387 789.344 150.844C787.801 149.281 785.75 148.5 783.191 148.5C782.059 148.5 780.525 148.686 778.592 149.057V165.58ZM824.793 184.916V186H807.771V184.916H809.178C810.818 184.916 812.01 184.438 812.752 183.48C813.221 182.855 813.455 181.352 813.455 178.969V153.305C813.455 151.293 813.328 149.965 813.074 149.32C812.879 148.832 812.479 148.412 811.873 148.061C811.014 147.592 810.115 147.357 809.178 147.357H807.771V146.273H824.793V147.357H823.357C821.736 147.357 820.555 147.836 819.812 148.793C819.324 149.418 819.08 150.922 819.08 153.305V178.969C819.08 180.98 819.207 182.309 819.461 182.953C819.656 183.441 820.066 183.861 820.691 184.213C821.531 184.682 822.42 184.916 823.357 184.916H824.793ZM844.773 184.916V186H827.752V184.916H829.158C830.799 184.916 831.99 184.438 832.732 183.48C833.201 182.855 833.436 181.352 833.436 178.969V153.305C833.436 151.293 833.309 149.965 833.055 149.32C832.859 148.832 832.459 148.412 831.854 148.061C830.994 147.592 830.096 147.357 829.158 147.357H827.752V146.273H844.773V147.357H843.338C841.717 147.357 840.535 147.836 839.793 148.793C839.305 149.418 839.061 150.922 839.061 153.305V178.969C839.061 180.98 839.188 182.309 839.441 182.953C839.637 183.441 840.047 183.861 840.672 184.213C841.512 184.682 842.4 184.916 843.338 184.916H844.773ZM79.5098 214.365V228.105H78.4258C78.0742 225.469 77.4395 223.369 76.5215 221.807C75.623 220.244 74.334 219.004 72.6543 218.086C70.9746 217.168 69.2363 216.709 67.4395 216.709C65.4082 216.709 63.7285 217.334 62.4004 218.584C61.0723 219.814 60.4082 221.221 60.4082 222.803C60.4082 224.014 60.8281 225.117 61.668 226.113C62.8789 227.578 65.7598 229.531 70.3105 231.973C74.0215 233.965 76.5508 235.498 77.8984 236.572C79.2656 237.627 80.3105 238.877 81.0332 240.322C81.7754 241.768 82.1465 243.281 82.1465 244.863C82.1465 247.871 80.9746 250.469 78.6309 252.656C76.3066 254.824 73.3086 255.908 69.6367 255.908C68.4844 255.908 67.4004 255.82 66.3848 255.645C65.7793 255.547 64.5195 255.195 62.6055 254.59C60.7109 253.965 59.5098 253.652 59.002 253.652C58.5137 253.652 58.123 253.799 57.8301 254.092C57.5566 254.385 57.3516 254.99 57.2148 255.908H56.1309V242.285H57.2148C57.7227 245.137 58.4062 247.275 59.2656 248.701C60.125 250.107 61.4336 251.279 63.1914 252.217C64.9688 253.154 66.9121 253.623 69.0215 253.623C71.4629 253.623 73.3867 252.979 74.793 251.689C76.2188 250.4 76.9316 248.877 76.9316 247.119C76.9316 246.143 76.6582 245.156 76.1113 244.16C75.584 243.164 74.7539 242.236 73.6211 241.377C72.8594 240.791 70.7793 239.551 67.3809 237.656C63.9824 235.742 61.5605 234.219 60.1152 233.086C58.6895 231.953 57.6055 230.703 56.8633 229.336C56.1211 227.969 55.75 226.465 55.75 224.824C55.75 221.973 56.8438 219.521 59.0312 217.471C61.2188 215.4 64.002 214.365 67.3809 214.365C69.4902 214.365 71.7266 214.883 74.0898 215.918C75.1836 216.406 75.9551 216.65 76.4043 216.65C76.9121 216.65 77.3223 216.504 77.6348 216.211C77.9668 215.898 78.2305 215.283 78.4258 214.365H79.5098ZM65.916 268.594V267.393C67.3027 267.393 68.4941 266.973 69.4902 266.133C70.5059 265.293 71.0137 264.336 71.0137 263.262C71.0137 262.617 70.7988 262.295 70.3691 262.295C70.2324 262.295 69.9883 262.383 69.6367 262.559C69.1484 262.832 68.7383 262.969 68.4062 262.969C66.7461 262.969 65.916 262.119 65.916 260.42C65.916 259.482 66.2383 258.779 66.8828 258.311C67.5469 257.842 68.25 257.607 68.9922 257.607C70.0078 257.607 70.9062 258.008 71.6875 258.809C72.4883 259.629 72.8887 260.801 72.8887 262.324C72.8887 264.414 72.2441 265.967 70.9551 266.982C69.666 267.998 67.9863 268.535 65.916 268.594ZM103.914 253.916V255H86.8926V253.916H88.2988C89.9395 253.916 91.1309 253.438 91.873 252.48C92.3418 251.855 92.5762 250.352 92.5762 247.969V222.305C92.5762 220.293 92.4492 218.965 92.1953 218.32C92 217.832 91.5996 217.412 90.9941 217.061C90.1348 216.592 89.2363 216.357 88.2988 216.357H86.8926V215.273H103.914V216.357H102.479C100.857 216.357 99.6758 216.836 98.9336 217.793C98.4453 218.418 98.2012 219.922 98.2012 222.305V247.969C98.2012 249.98 98.3281 251.309 98.582 251.953C98.7773 252.441 99.1875 252.861 99.8125 253.213C100.652 253.682 101.541 253.916 102.479 253.916H103.914ZM121.404 255V253.916H122.898C124.578 253.916 125.77 253.379 126.473 252.305C126.902 251.66 127.117 250.215 127.117 247.969V222.305C127.117 219.824 126.844 218.271 126.297 217.646C125.535 216.787 124.402 216.357 122.898 216.357H121.404V215.273H137.576C143.514 215.273 148.025 215.947 151.111 217.295C154.217 218.643 156.707 220.889 158.582 224.033C160.477 227.178 161.424 230.811 161.424 234.932C161.424 240.459 159.744 245.078 156.385 248.789C152.615 252.93 146.873 255 139.158 255H121.404ZM132.742 252.129C135.223 252.676 137.303 252.949 138.982 252.949C143.514 252.949 147.273 251.357 150.262 248.174C153.25 244.99 154.744 240.674 154.744 235.225C154.744 229.736 153.25 225.41 150.262 222.246C147.273 219.082 143.436 217.5 138.748 217.5C136.99 217.5 134.988 217.783 132.742 218.35V252.129ZM176.277 217.441V233.145H185.008C187.273 233.145 188.787 232.803 189.549 232.119C190.564 231.221 191.131 229.639 191.248 227.373H192.332V241.201H191.248C190.975 239.268 190.701 238.027 190.428 237.48C190.076 236.797 189.5 236.26 188.699 235.869C187.898 235.479 186.668 235.283 185.008 235.283H176.277V248.379C176.277 250.137 176.355 251.211 176.512 251.602C176.668 251.973 176.941 252.275 177.332 252.51C177.723 252.725 178.465 252.832 179.559 252.832H186.297C188.543 252.832 190.174 252.676 191.189 252.363C192.205 252.051 193.182 251.436 194.119 250.518C195.33 249.307 196.57 247.48 197.84 245.039H199.012L195.584 255H164.969V253.916H166.375C167.312 253.916 168.201 253.691 169.041 253.242C169.666 252.93 170.086 252.461 170.301 251.836C170.535 251.211 170.652 249.932 170.652 247.998V222.188C170.652 219.668 170.398 218.115 169.891 217.529C169.188 216.748 168.016 216.357 166.375 216.357H164.969V215.273H195.584L196.023 223.975H194.881C194.471 221.885 194.012 220.449 193.504 219.668C193.016 218.887 192.283 218.291 191.307 217.881C190.525 217.588 189.148 217.441 187.176 217.441H176.277ZM234.93 215.273L208.826 252.598H225.115C227.615 252.598 229.529 252.051 230.857 250.957C232.205 249.863 233.396 247.646 234.432 244.307L235.398 244.482L233.523 255H201.18V253.916L226.668 217.646H213.953C211.844 217.646 210.311 217.881 209.354 218.35C208.416 218.799 207.693 219.463 207.186 220.342C206.697 221.201 206.248 222.822 205.838 225.205H204.725L205.545 215.273H234.93ZM279.695 215.273V216.357C278.289 216.611 277.225 217.061 276.502 217.705C275.467 218.662 274.549 220.127 273.748 222.1L259.891 255.908H258.807L243.924 221.66C243.162 219.902 242.625 218.828 242.312 218.438C241.824 217.832 241.219 217.363 240.496 217.031C239.793 216.68 238.836 216.455 237.625 216.357V215.273H253.855V216.357C252.02 216.533 250.828 216.846 250.281 217.295C249.734 217.744 249.461 218.32 249.461 219.023C249.461 220 249.91 221.523 250.809 223.594L260.916 246.885L270.291 223.887C271.209 221.621 271.668 220.049 271.668 219.17C271.668 218.604 271.385 218.066 270.818 217.559C270.252 217.031 269.295 216.66 267.947 216.445C267.85 216.426 267.684 216.396 267.449 216.357V215.273H279.695ZM302.4 214.365C307.557 214.365 312.02 216.328 315.789 220.254C319.578 224.16 321.473 229.043 321.473 234.902C321.473 240.938 319.568 245.947 315.76 249.932C311.951 253.916 307.342 255.908 301.932 255.908C296.463 255.908 291.863 253.965 288.133 250.078C284.422 246.191 282.566 241.162 282.566 234.99C282.566 228.682 284.715 223.535 289.012 219.551C292.742 216.094 297.205 214.365 302.4 214.365ZM301.844 216.504C298.289 216.504 295.438 217.822 293.289 220.459C290.613 223.74 289.275 228.545 289.275 234.873C289.275 241.357 290.662 246.348 293.436 249.844C295.564 252.5 298.377 253.828 301.873 253.828C305.604 253.828 308.68 252.373 311.102 249.463C313.543 246.553 314.764 241.963 314.764 235.693C314.764 228.896 313.426 223.828 310.75 220.488C308.602 217.832 305.633 216.504 301.844 216.504ZM358.211 244.014L359.178 244.219L355.779 255H325.018V253.916H326.512C328.191 253.916 329.393 253.369 330.115 252.275C330.525 251.65 330.73 250.205 330.73 247.939V222.305C330.73 219.824 330.457 218.271 329.91 217.646C329.148 216.787 328.016 216.357 326.512 216.357H325.018V215.273H343.006V216.357C340.896 216.338 339.412 216.533 338.553 216.943C337.713 217.354 337.137 217.871 336.824 218.496C336.512 219.121 336.355 220.615 336.355 222.979V247.939C336.355 249.561 336.512 250.674 336.824 251.279C337.059 251.689 337.42 251.992 337.908 252.188C338.396 252.383 339.92 252.48 342.479 252.48H345.379C348.426 252.48 350.564 252.256 351.795 251.807C353.025 251.357 354.148 250.566 355.164 249.434C356.18 248.281 357.195 246.475 358.211 244.014ZM389.705 215.273L390.145 224.59H389.031C388.816 222.949 388.523 221.777 388.152 221.074C387.547 219.941 386.736 219.111 385.721 218.584C384.725 218.037 383.406 217.764 381.766 217.764H376.17V248.115C376.17 250.557 376.434 252.08 376.961 252.686C377.703 253.506 378.846 253.916 380.389 253.916H381.766V255H364.92V253.916H366.326C368.006 253.916 369.197 253.408 369.9 252.393C370.33 251.768 370.545 250.342 370.545 248.115V217.764H365.77C363.914 217.764 362.596 217.9 361.814 218.174C360.799 218.545 359.93 219.258 359.207 220.312C358.484 221.367 358.055 222.793 357.918 224.59H356.805L357.273 215.273H389.705ZM419.119 241.699H403.738L401.043 247.969C400.379 249.512 400.047 250.664 400.047 251.426C400.047 252.031 400.33 252.568 400.896 253.037C401.482 253.486 402.732 253.779 404.646 253.916V255H392.137V253.916C393.797 253.623 394.871 253.242 395.359 252.773C396.355 251.836 397.459 249.932 398.67 247.061L412.645 214.365H413.67L427.498 247.412C428.611 250.068 429.617 251.797 430.516 252.598C431.434 253.379 432.703 253.818 434.324 253.916V255H418.65V253.916C420.232 253.838 421.297 253.574 421.844 253.125C422.41 252.676 422.693 252.129 422.693 251.484C422.693 250.625 422.303 249.268 421.521 247.412L419.119 241.699ZM418.299 239.531L411.561 223.477L404.646 239.531H418.299ZM404.852 203.467H405.76C406.404 204.658 407.146 205.498 407.986 205.986C409.393 206.826 411.16 207.246 413.289 207.246C415.418 207.246 417.176 206.836 418.562 206.016C419.559 205.449 420.252 204.6 420.643 203.467H421.609C421.434 205.889 420.535 207.861 418.914 209.385C417.312 210.908 415.418 211.67 413.23 211.67C411.062 211.67 409.178 210.918 407.576 209.414C405.975 207.891 405.066 205.908 404.852 203.467ZM475.574 255H464.969L451.521 236.426C450.525 236.465 449.715 236.484 449.09 236.484C448.836 236.484 448.562 236.484 448.27 236.484C447.977 236.465 447.674 236.445 447.361 236.426V247.969C447.361 250.469 447.635 252.021 448.182 252.627C448.924 253.486 450.037 253.916 451.521 253.916H453.074V255H436.053V253.916H437.547C439.227 253.916 440.428 253.369 441.15 252.275C441.561 251.67 441.766 250.234 441.766 247.969V222.305C441.766 219.805 441.492 218.252 440.945 217.646C440.184 216.787 439.051 216.357 437.547 216.357H436.053V215.273H450.525C454.744 215.273 457.85 215.586 459.842 216.211C461.854 216.816 463.553 217.949 464.939 219.609C466.346 221.25 467.049 223.213 467.049 225.498C467.049 227.939 466.248 230.059 464.646 231.855C463.064 233.652 460.604 234.922 457.264 235.664L465.467 247.061C467.342 249.678 468.953 251.416 470.301 252.275C471.648 253.135 473.406 253.682 475.574 253.916V255ZM447.361 234.58C447.732 234.58 448.055 234.59 448.328 234.609C448.602 234.609 448.826 234.609 449.002 234.609C452.791 234.609 455.643 233.789 457.557 232.148C459.49 230.508 460.457 228.418 460.457 225.879C460.457 223.398 459.676 221.387 458.113 219.844C456.57 218.281 454.52 217.5 451.961 217.5C450.828 217.5 449.295 217.686 447.361 218.057V234.58ZM493.562 253.916V255H476.541V253.916H477.947C479.588 253.916 480.779 253.438 481.521 252.48C481.99 251.855 482.225 250.352 482.225 247.969V222.305C482.225 220.293 482.098 218.965 481.844 218.32C481.648 217.832 481.248 217.412 480.643 217.061C479.783 216.592 478.885 216.357 477.947 216.357H476.541V215.273H493.562V216.357H492.127C490.506 216.357 489.324 216.836 488.582 217.793C488.094 218.418 487.85 219.922 487.85 222.305V247.969C487.85 249.98 487.977 251.309 488.23 251.953C488.426 252.441 488.836 252.861 489.461 253.213C490.301 253.682 491.189 253.916 492.127 253.916H493.562ZM513.543 253.916V255H496.521V253.916H497.928C499.568 253.916 500.76 253.438 501.502 252.48C501.971 251.855 502.205 250.352 502.205 247.969V222.305C502.205 220.293 502.078 218.965 501.824 218.32C501.629 217.832 501.229 217.412 500.623 217.061C499.764 216.592 498.865 216.357 497.928 216.357H496.521V215.273H513.543V216.357H512.107C510.486 216.357 509.305 216.836 508.562 217.793C508.074 218.418 507.83 219.922 507.83 222.305V247.969C507.83 249.98 507.957 251.309 508.211 251.953C508.406 252.441 508.816 252.861 509.441 253.213C510.281 253.682 511.17 253.916 512.107 253.916H513.543ZM570.555 255H559.949L546.502 236.426C545.506 236.465 544.695 236.484 544.07 236.484C543.816 236.484 543.543 236.484 543.25 236.484C542.957 236.465 542.654 236.445 542.342 236.426V247.969C542.342 250.469 542.615 252.021 543.162 252.627C543.904 253.486 545.018 253.916 546.502 253.916H548.055V255H531.033V253.916H532.527C534.207 253.916 535.408 253.369 536.131 252.275C536.541 251.67 536.746 250.234 536.746 247.969V222.305C536.746 219.805 536.473 218.252 535.926 217.646C535.164 216.787 534.031 216.357 532.527 216.357H531.033V215.273H545.506C549.725 215.273 552.83 215.586 554.822 216.211C556.834 216.816 558.533 217.949 559.92 219.609C561.326 221.25 562.029 223.213 562.029 225.498C562.029 227.939 561.229 230.059 559.627 231.855C558.045 233.652 555.584 234.922 552.244 235.664L560.447 247.061C562.322 249.678 563.934 251.416 565.281 252.275C566.629 253.135 568.387 253.682 570.555 253.916V255ZM542.342 234.58C542.713 234.58 543.035 234.59 543.309 234.609C543.582 234.609 543.807 234.609 543.982 234.609C547.771 234.609 550.623 233.789 552.537 232.148C554.471 230.508 555.438 228.418 555.438 225.879C555.438 223.398 554.656 221.387 553.094 219.844C551.551 218.281 549.5 217.5 546.941 217.5C545.809 217.5 544.275 217.686 542.342 218.057V234.58ZM598.65 216.357V215.273H612.713V216.357H611.219C609.656 216.357 608.455 217.012 607.615 218.32C607.205 218.926 607 220.332 607 222.539V238.652C607 242.637 606.6 245.732 605.799 247.939C605.018 250.127 603.465 252.012 601.141 253.594C598.836 255.156 595.691 255.938 591.707 255.938C587.371 255.938 584.08 255.186 581.834 253.682C579.588 252.178 577.996 250.156 577.059 247.617C576.434 245.879 576.121 242.617 576.121 237.832V222.305C576.121 219.863 575.779 218.262 575.096 217.5C574.432 216.738 573.348 216.357 571.844 216.357H570.35V215.273H587.518V216.357H585.994C584.354 216.357 583.182 216.875 582.479 217.91C581.99 218.613 581.746 220.078 581.746 222.305V239.619C581.746 241.162 581.883 242.93 582.156 244.922C582.449 246.914 582.967 248.467 583.709 249.58C584.451 250.693 585.516 251.611 586.902 252.334C588.309 253.057 590.027 253.418 592.059 253.418C594.656 253.418 596.98 252.852 599.031 251.719C601.082 250.586 602.479 249.141 603.221 247.383C603.982 245.605 604.363 242.607 604.363 238.389V222.305C604.363 219.824 604.09 218.271 603.543 217.646C602.781 216.787 601.648 216.357 600.145 216.357H598.65ZM653.934 255H643.328L629.881 236.426C628.885 236.465 628.074 236.484 627.449 236.484C627.195 236.484 626.922 236.484 626.629 236.484C626.336 236.465 626.033 236.445 625.721 236.426V247.969C625.721 250.469 625.994 252.021 626.541 252.627C627.283 253.486 628.396 253.916 629.881 253.916H631.434V255H614.412V253.916H615.906C617.586 253.916 618.787 253.369 619.51 252.275C619.92 251.67 620.125 250.234 620.125 247.969V222.305C620.125 219.805 619.852 218.252 619.305 217.646C618.543 216.787 617.41 216.357 615.906 216.357H614.412V215.273H628.885C633.104 215.273 636.209 215.586 638.201 216.211C640.213 216.816 641.912 217.949 643.299 219.609C644.705 221.25 645.408 223.213 645.408 225.498C645.408 227.939 644.607 230.059 643.006 231.855C641.424 233.652 638.963 234.922 635.623 235.664L643.826 247.061C645.701 249.678 647.312 251.416 648.66 252.275C650.008 253.135 651.766 253.682 653.934 253.916V255ZM625.721 234.58C626.092 234.58 626.414 234.59 626.688 234.609C626.961 234.609 627.186 234.609 627.361 234.609C631.15 234.609 634.002 233.789 635.916 232.148C637.85 230.508 638.816 228.418 638.816 225.879C638.816 223.398 638.035 221.387 636.473 219.844C634.93 218.281 632.879 217.5 630.32 217.5C629.188 217.5 627.654 217.686 625.721 218.057V234.58ZM680.857 241.699H665.477L662.781 247.969C662.117 249.512 661.785 250.664 661.785 251.426C661.785 252.031 662.068 252.568 662.635 253.037C663.221 253.486 664.471 253.779 666.385 253.916V255H653.875V253.916C655.535 253.623 656.609 253.242 657.098 252.773C658.094 251.836 659.197 249.932 660.408 247.061L674.383 214.365H675.408L689.236 247.412C690.35 250.068 691.355 251.797 692.254 252.598C693.172 253.379 694.441 253.818 696.062 253.916V255H680.389V253.916C681.971 253.838 683.035 253.574 683.582 253.125C684.148 252.676 684.432 252.129 684.432 251.484C684.432 250.625 684.041 249.268 683.26 247.412L680.857 241.699ZM680.037 239.531L673.299 223.477L666.385 239.531H680.037ZM731.16 244.014L732.127 244.219L728.729 255H697.967V253.916H699.461C701.141 253.916 702.342 253.369 703.064 252.275C703.475 251.65 703.68 250.205 703.68 247.939V222.305C703.68 219.824 703.406 218.271 702.859 217.646C702.098 216.787 700.965 216.357 699.461 216.357H697.967V215.273H715.955V216.357C713.846 216.338 712.361 216.533 711.502 216.943C710.662 217.354 710.086 217.871 709.773 218.496C709.461 219.121 709.305 220.615 709.305 222.979V247.939C709.305 249.561 709.461 250.674 709.773 251.279C710.008 251.689 710.369 251.992 710.857 252.188C711.346 252.383 712.869 252.48 715.428 252.48H718.328C721.375 252.48 723.514 252.256 724.744 251.807C725.975 251.357 727.098 250.566 728.113 249.434C729.129 248.281 730.145 246.475 731.16 244.014ZM745.984 217.441V233.145H754.715C756.98 233.145 758.494 232.803 759.256 232.119C760.271 231.221 760.838 229.639 760.955 227.373H762.039V241.201H760.955C760.682 239.268 760.408 238.027 760.135 237.48C759.783 236.797 759.207 236.26 758.406 235.869C757.605 235.479 756.375 235.283 754.715 235.283H745.984V248.379C745.984 250.137 746.062 251.211 746.219 251.602C746.375 251.973 746.648 252.275 747.039 252.51C747.43 252.725 748.172 252.832 749.266 252.832H756.004C758.25 252.832 759.881 252.676 760.896 252.363C761.912 252.051 762.889 251.436 763.826 250.518C765.037 249.307 766.277 247.48 767.547 245.039H768.719L765.291 255H734.676V253.916H736.082C737.02 253.916 737.908 253.691 738.748 253.242C739.373 252.93 739.793 252.461 740.008 251.836C740.242 251.211 740.359 249.932 740.359 247.998V222.188C740.359 219.668 740.105 218.115 739.598 217.529C738.895 216.748 737.723 216.357 736.082 216.357H734.676V215.273H765.291L765.73 223.975H764.588C764.178 221.885 763.719 220.449 763.211 219.668C762.723 218.887 761.99 218.291 761.014 217.881C760.232 217.588 758.855 217.441 756.883 217.441H745.984Z" fill="#124B8E"/>
</svg>
