<svg width="1270" height="400" viewBox="0 0 1270 400" fill="none" xmlns="http://www.w3.org/2000/svg">
<rect width="1270" height="400" fill="white"/>
<path d="M391.551 186L376.199 152.572V179.115C376.199 181.557 376.463 183.08 376.99 183.686C377.713 184.506 378.855 184.916 380.418 184.916H381.824V186H367.996V184.916H369.402C371.082 184.916 372.273 184.408 372.977 183.393C373.406 182.768 373.621 181.342 373.621 179.115V153.158C373.621 151.4 373.426 150.131 373.035 149.35C372.762 148.783 372.254 148.314 371.512 147.943C370.789 147.553 369.617 147.357 367.996 147.357V146.273H379.246L393.66 177.357L407.84 146.273H419.09V147.357H417.713C416.014 147.357 414.812 147.865 414.109 148.881C413.68 149.506 413.465 150.932 413.465 153.158V179.115C413.465 181.557 413.738 183.08 414.285 183.686C415.008 184.506 416.15 184.916 417.713 184.916H419.09V186H402.215V184.916H403.621C405.32 184.916 406.512 184.408 407.195 183.393C407.625 182.768 407.84 181.342 407.84 179.115V152.572L392.518 186H391.551ZM438.895 184.916V186H421.873V184.916H423.279C424.92 184.916 426.111 184.438 426.854 183.48C427.322 182.855 427.557 181.352 427.557 178.969V153.305C427.557 151.293 427.43 149.965 427.176 149.32C426.98 148.832 426.58 148.412 425.975 148.061C425.115 147.592 424.217 147.357 423.279 147.357H421.873V146.273H438.895V147.357H437.459C435.838 147.357 434.656 147.836 433.914 148.793C433.426 149.418 433.182 150.922 433.182 153.305V178.969C433.182 180.98 433.309 182.309 433.562 182.953C433.758 183.441 434.168 183.861 434.793 184.213C435.633 184.682 436.521 184.916 437.459 184.916H438.895ZM439.568 146.273H450.35L474.637 176.068V153.158C474.637 150.717 474.363 149.193 473.816 148.588C473.094 147.768 471.951 147.357 470.389 147.357H469.012V146.273H482.84V147.357H481.434C479.754 147.357 478.562 147.865 477.859 148.881C477.43 149.506 477.215 150.932 477.215 153.158V186.645H476.16L449.969 154.652V179.115C449.969 181.557 450.232 183.08 450.76 183.686C451.502 184.506 452.645 184.916 454.188 184.916H455.594V186H441.766V184.916H443.143C444.842 184.916 446.043 184.408 446.746 183.393C447.176 182.768 447.391 181.342 447.391 179.115V151.488C446.238 150.141 445.359 149.252 444.754 148.822C444.168 148.393 443.299 147.992 442.146 147.621C441.58 147.445 440.721 147.357 439.568 147.357V146.273ZM502.234 184.916V186H485.213V184.916H486.619C488.26 184.916 489.451 184.438 490.193 183.48C490.662 182.855 490.896 181.352 490.896 178.969V153.305C490.896 151.293 490.77 149.965 490.516 149.32C490.32 148.832 489.92 148.412 489.314 148.061C488.455 147.592 487.557 147.357 486.619 147.357H485.213V146.273H502.234V147.357H500.799C499.178 147.357 497.996 147.836 497.254 148.793C496.766 149.418 496.521 150.922 496.521 153.305V178.969C496.521 180.98 496.648 182.309 496.902 182.953C497.098 183.441 497.508 183.861 498.133 184.213C498.973 184.682 499.861 184.916 500.799 184.916H502.234ZM531.209 145.365V159.105H530.125C529.773 156.469 529.139 154.369 528.221 152.807C527.322 151.244 526.033 150.004 524.354 149.086C522.674 148.168 520.936 147.709 519.139 147.709C517.107 147.709 515.428 148.334 514.1 149.584C512.771 150.814 512.107 152.221 512.107 153.803C512.107 155.014 512.527 156.117 513.367 157.113C514.578 158.578 517.459 160.531 522.01 162.973C525.721 164.965 528.25 166.498 529.598 167.572C530.965 168.627 532.01 169.877 532.732 171.322C533.475 172.768 533.846 174.281 533.846 175.863C533.846 178.871 532.674 181.469 530.33 183.656C528.006 185.824 525.008 186.908 521.336 186.908C520.184 186.908 519.1 186.82 518.084 186.645C517.479 186.547 516.219 186.195 514.305 185.59C512.41 184.965 511.209 184.652 510.701 184.652C510.213 184.652 509.822 184.799 509.529 185.092C509.256 185.385 509.051 185.99 508.914 186.908H507.83V173.285H508.914C509.422 176.137 510.105 178.275 510.965 179.701C511.824 181.107 513.133 182.279 514.891 183.217C516.668 184.154 518.611 184.623 520.721 184.623C523.162 184.623 525.086 183.979 526.492 182.689C527.918 181.4 528.631 179.877 528.631 178.119C528.631 177.143 528.357 176.156 527.811 175.16C527.283 174.164 526.453 173.236 525.32 172.377C524.559 171.791 522.479 170.551 519.08 168.656C515.682 166.742 513.26 165.219 511.814 164.086C510.389 162.953 509.305 161.703 508.562 160.336C507.82 158.969 507.449 157.465 507.449 155.824C507.449 152.973 508.543 150.521 510.73 148.471C512.918 146.4 515.701 145.365 519.08 145.365C521.189 145.365 523.426 145.883 525.789 146.918C526.883 147.406 527.654 147.65 528.104 147.65C528.611 147.65 529.021 147.504 529.334 147.211C529.666 146.898 529.93 146.283 530.125 145.365H531.209ZM571.814 146.273L572.254 155.59H571.141C570.926 153.949 570.633 152.777 570.262 152.074C569.656 150.941 568.846 150.111 567.83 149.584C566.834 149.037 565.516 148.764 563.875 148.764H558.279V179.115C558.279 181.557 558.543 183.08 559.07 183.686C559.812 184.506 560.955 184.916 562.498 184.916H563.875V186H547.029V184.916H548.436C550.115 184.916 551.307 184.408 552.01 183.393C552.439 182.768 552.654 181.342 552.654 179.115V148.764H547.879C546.023 148.764 544.705 148.9 543.924 149.174C542.908 149.545 542.039 150.258 541.316 151.312C540.594 152.367 540.164 153.793 540.027 155.59H538.914L539.383 146.273H571.814ZM586.316 148.441V164.145H595.047C597.312 164.145 598.826 163.803 599.588 163.119C600.604 162.221 601.17 160.639 601.287 158.373H602.371V172.201H601.287C601.014 170.268 600.74 169.027 600.467 168.48C600.115 167.797 599.539 167.26 598.738 166.869C597.938 166.479 596.707 166.283 595.047 166.283H586.316V179.379C586.316 181.137 586.395 182.211 586.551 182.602C586.707 182.973 586.98 183.275 587.371 183.51C587.762 183.725 588.504 183.832 589.598 183.832H596.336C598.582 183.832 600.213 183.676 601.229 183.363C602.244 183.051 603.221 182.436 604.158 181.518C605.369 180.307 606.609 178.48 607.879 176.039H609.051L605.623 186H575.008V184.916H576.414C577.352 184.916 578.24 184.691 579.08 184.242C579.705 183.93 580.125 183.461 580.34 182.836C580.574 182.211 580.691 180.932 580.691 178.998V153.188C580.691 150.668 580.438 149.115 579.93 148.529C579.227 147.748 578.055 147.357 576.414 147.357H575.008V146.273H605.623L606.062 154.975H604.92C604.51 152.885 604.051 151.449 603.543 150.668C603.055 149.887 602.322 149.291 601.346 148.881C600.564 148.588 599.188 148.441 597.215 148.441H586.316ZM651.004 186H640.398L626.951 167.426C625.955 167.465 625.145 167.484 624.52 167.484C624.266 167.484 623.992 167.484 623.699 167.484C623.406 167.465 623.104 167.445 622.791 167.426V178.969C622.791 181.469 623.064 183.021 623.611 183.627C624.354 184.486 625.467 184.916 626.951 184.916H628.504V186H611.482V184.916H612.977C614.656 184.916 615.857 184.369 616.58 183.275C616.99 182.67 617.195 181.234 617.195 178.969V153.305C617.195 150.805 616.922 149.252 616.375 148.646C615.613 147.787 614.48 147.357 612.977 147.357H611.482V146.273H625.955C630.174 146.273 633.279 146.586 635.271 147.211C637.283 147.816 638.982 148.949 640.369 150.609C641.775 152.25 642.479 154.213 642.479 156.498C642.479 158.939 641.678 161.059 640.076 162.855C638.494 164.652 636.033 165.922 632.693 166.664L640.896 178.061C642.771 180.678 644.383 182.416 645.73 183.275C647.078 184.135 648.836 184.682 651.004 184.916V186ZM622.791 165.58C623.162 165.58 623.484 165.59 623.758 165.609C624.031 165.609 624.256 165.609 624.432 165.609C628.221 165.609 631.072 164.789 632.986 163.148C634.92 161.508 635.887 159.418 635.887 156.879C635.887 154.398 635.105 152.387 633.543 150.844C632 149.281 629.949 148.5 627.391 148.5C626.258 148.5 624.725 148.686 622.791 149.057V165.58ZM679.1 147.357V146.273H693.162V147.357H691.668C690.105 147.357 688.904 148.012 688.064 149.32C687.654 149.926 687.449 151.332 687.449 153.539V169.652C687.449 173.637 687.049 176.732 686.248 178.939C685.467 181.127 683.914 183.012 681.59 184.594C679.285 186.156 676.141 186.938 672.156 186.938C667.82 186.938 664.529 186.186 662.283 184.682C660.037 183.178 658.445 181.156 657.508 178.617C656.883 176.879 656.57 173.617 656.57 168.832V153.305C656.57 150.863 656.229 149.262 655.545 148.5C654.881 147.738 653.797 147.357 652.293 147.357H650.799V146.273H667.967V147.357H666.443C664.803 147.357 663.631 147.875 662.928 148.91C662.439 149.613 662.195 151.078 662.195 153.305V170.619C662.195 172.162 662.332 173.93 662.605 175.922C662.898 177.914 663.416 179.467 664.158 180.58C664.9 181.693 665.965 182.611 667.352 183.334C668.758 184.057 670.477 184.418 672.508 184.418C675.105 184.418 677.43 183.852 679.48 182.719C681.531 181.586 682.928 180.141 683.67 178.383C684.432 176.605 684.812 173.607 684.812 169.389V153.305C684.812 150.824 684.539 149.271 683.992 148.646C683.23 147.787 682.098 147.357 680.594 147.357H679.1ZM728.23 175.014L729.197 175.219L725.799 186H695.037V184.916H696.531C698.211 184.916 699.412 184.369 700.135 183.275C700.545 182.65 700.75 181.205 700.75 178.939V153.305C700.75 150.824 700.477 149.271 699.93 148.646C699.168 147.787 698.035 147.357 696.531 147.357H695.037V146.273H713.025V147.357C710.916 147.338 709.432 147.533 708.572 147.943C707.732 148.354 707.156 148.871 706.844 149.496C706.531 150.121 706.375 151.615 706.375 153.979V178.939C706.375 180.561 706.531 181.674 706.844 182.279C707.078 182.689 707.439 182.992 707.928 183.188C708.416 183.383 709.939 183.48 712.498 183.48H715.398C718.445 183.48 720.584 183.256 721.814 182.807C723.045 182.357 724.168 181.566 725.184 180.434C726.199 179.281 727.215 177.475 728.23 175.014ZM767.4 172.699H752.02L749.324 178.969C748.66 180.512 748.328 181.664 748.328 182.426C748.328 183.031 748.611 183.568 749.178 184.037C749.764 184.486 751.014 184.779 752.928 184.916V186H740.418V184.916C742.078 184.623 743.152 184.242 743.641 183.773C744.637 182.836 745.74 180.932 746.951 178.061L760.926 145.365H761.951L775.779 178.412C776.893 181.068 777.898 182.797 778.797 183.598C779.715 184.379 780.984 184.818 782.605 184.916V186H766.932V184.916C768.514 184.838 769.578 184.574 770.125 184.125C770.691 183.676 770.975 183.129 770.975 182.484C770.975 181.625 770.584 180.268 769.803 178.412L767.4 172.699ZM766.58 170.531L759.842 154.477L752.928 170.531H766.58ZM820.135 145.365L821.16 157.904H820.135C819.1 154.779 817.762 152.426 816.121 150.844C813.758 148.559 810.721 147.416 807.01 147.416C801.951 147.416 798.104 149.418 795.467 153.422C793.26 156.801 792.156 160.824 792.156 165.492C792.156 169.281 792.889 172.738 794.354 175.863C795.818 178.988 797.732 181.283 800.096 182.748C802.479 184.193 804.92 184.916 807.42 184.916C808.885 184.916 810.301 184.73 811.668 184.359C813.035 183.988 814.354 183.441 815.623 182.719V171.234C815.623 169.242 815.467 167.943 815.154 167.338C814.861 166.713 814.393 166.244 813.748 165.932C813.123 165.6 812.01 165.434 810.408 165.434V164.32H825.789V165.434H825.057C823.533 165.434 822.488 165.941 821.922 166.957C821.531 167.68 821.336 169.105 821.336 171.234V183.393C819.09 184.604 816.873 185.492 814.686 186.059C812.498 186.625 810.066 186.908 807.391 186.908C799.715 186.908 793.885 184.447 789.9 179.525C786.912 175.834 785.418 171.576 785.418 166.752C785.418 163.256 786.258 159.906 787.938 156.703C789.93 152.895 792.664 149.965 796.141 147.914C799.051 146.215 802.488 145.365 806.453 145.365C807.898 145.365 809.207 145.482 810.379 145.717C811.57 145.951 813.25 146.469 815.418 147.27C816.512 147.68 817.244 147.885 817.615 147.885C817.986 147.885 818.299 147.719 818.553 147.387C818.826 147.035 818.992 146.361 819.051 145.365H820.135ZM867.215 186H856.609L843.162 167.426C842.166 167.465 841.355 167.484 840.73 167.484C840.477 167.484 840.203 167.484 839.91 167.484C839.617 167.465 839.314 167.445 839.002 167.426V178.969C839.002 181.469 839.275 183.021 839.822 183.627C840.564 184.486 841.678 184.916 843.162 184.916H844.715V186H827.693V184.916H829.188C830.867 184.916 832.068 184.369 832.791 183.275C833.201 182.67 833.406 181.234 833.406 178.969V153.305C833.406 150.805 833.133 149.252 832.586 148.646C831.824 147.787 830.691 147.357 829.188 147.357H827.693V146.273H842.166C846.385 146.273 849.49 146.586 851.482 147.211C853.494 147.816 855.193 148.949 856.58 150.609C857.986 152.25 858.689 154.213 858.689 156.498C858.689 158.939 857.889 161.059 856.287 162.855C854.705 164.652 852.244 165.922 848.904 166.664L857.107 178.061C858.982 180.678 860.594 182.416 861.941 183.275C863.289 184.135 865.047 184.682 867.215 184.916V186ZM839.002 165.58C839.373 165.58 839.695 165.59 839.969 165.609C840.242 165.609 840.467 165.609 840.643 165.609C844.432 165.609 847.283 164.789 849.197 163.148C851.131 161.508 852.098 159.418 852.098 156.879C852.098 154.398 851.316 152.387 849.754 150.844C848.211 149.281 846.16 148.5 843.602 148.5C842.469 148.5 840.936 148.686 839.002 149.057V165.58ZM885.203 184.916V186H868.182V184.916H869.588C871.229 184.916 872.42 184.438 873.162 183.48C873.631 182.855 873.865 181.352 873.865 178.969V153.305C873.865 151.293 873.738 149.965 873.484 149.32C873.289 148.832 872.889 148.412 872.283 148.061C871.424 147.592 870.525 147.357 869.588 147.357H868.182V146.273H885.203V147.357H883.768C882.146 147.357 880.965 147.836 880.223 148.793C879.734 149.418 879.49 150.922 879.49 153.305V178.969C879.49 180.98 879.617 182.309 879.871 182.953C880.066 183.441 880.477 183.861 881.102 184.213C881.941 184.682 882.83 184.916 883.768 184.916H885.203ZM922.791 145.365L923.699 158.871H922.791C921.58 154.828 919.852 151.918 917.605 150.141C915.359 148.363 912.664 147.475 909.52 147.475C906.883 147.475 904.5 148.148 902.371 149.496C900.242 150.824 898.562 152.953 897.332 155.883C896.121 158.812 895.516 162.455 895.516 166.811C895.516 170.404 896.092 173.52 897.244 176.156C898.396 178.793 900.125 180.814 902.43 182.221C904.754 183.627 907.4 184.33 910.369 184.33C912.947 184.33 915.223 183.783 917.195 182.689C919.168 181.576 921.336 179.379 923.699 176.098L924.607 176.684C922.615 180.219 920.291 182.807 917.635 184.447C914.979 186.088 911.824 186.908 908.172 186.908C901.59 186.908 896.492 184.467 892.879 179.584C890.184 175.951 888.836 171.674 888.836 166.752C888.836 162.787 889.725 159.145 891.502 155.824C893.279 152.504 895.721 149.936 898.826 148.119C901.951 146.283 905.359 145.365 909.051 145.365C911.922 145.365 914.754 146.068 917.547 147.475C918.367 147.904 918.953 148.119 919.305 148.119C919.832 148.119 920.291 147.934 920.682 147.562C921.189 147.035 921.551 146.303 921.766 145.365H922.791ZM955.311 147.357V146.273H969.373V147.357H967.879C966.316 147.357 965.115 148.012 964.275 149.32C963.865 149.926 963.66 151.332 963.66 153.539V169.652C963.66 173.637 963.26 176.732 962.459 178.939C961.678 181.127 960.125 183.012 957.801 184.594C955.496 186.156 952.352 186.938 948.367 186.938C944.031 186.938 940.74 186.186 938.494 184.682C936.248 183.178 934.656 181.156 933.719 178.617C933.094 176.879 932.781 173.617 932.781 168.832V153.305C932.781 150.863 932.439 149.262 931.756 148.5C931.092 147.738 930.008 147.357 928.504 147.357H927.01V146.273H944.178V147.357H942.654C941.014 147.357 939.842 147.875 939.139 148.91C938.65 149.613 938.406 151.078 938.406 153.305V170.619C938.406 172.162 938.543 173.93 938.816 175.922C939.109 177.914 939.627 179.467 940.369 180.58C941.111 181.693 942.176 182.611 943.562 183.334C944.969 184.057 946.688 184.418 948.719 184.418C951.316 184.418 953.641 183.852 955.691 182.719C957.742 181.586 959.139 180.141 959.881 178.383C960.643 176.605 961.023 173.607 961.023 169.389V153.305C961.023 150.824 960.75 149.271 960.203 148.646C959.441 147.787 958.309 147.357 956.805 147.357H955.311ZM1004.44 175.014L1005.41 175.219L1002.01 186H971.248V184.916H972.742C974.422 184.916 975.623 184.369 976.346 183.275C976.756 182.65 976.961 181.205 976.961 178.939V153.305C976.961 150.824 976.688 149.271 976.141 148.646C975.379 147.787 974.246 147.357 972.742 147.357H971.248V146.273H989.236V147.357C987.127 147.338 985.643 147.533 984.783 147.943C983.943 148.354 983.367 148.871 983.055 149.496C982.742 150.121 982.586 151.615 982.586 153.979V178.939C982.586 180.561 982.742 181.674 983.055 182.279C983.289 182.689 983.65 182.992 984.139 183.188C984.627 183.383 986.15 183.48 988.709 183.48H991.609C994.656 183.48 996.795 183.256 998.025 182.807C999.256 182.357 1000.38 181.566 1001.39 180.434C1002.41 179.281 1003.43 177.475 1004.44 175.014ZM1035.94 146.273L1036.38 155.59H1035.26C1035.05 153.949 1034.75 152.777 1034.38 152.074C1033.78 150.941 1032.97 150.111 1031.95 149.584C1030.96 149.037 1029.64 148.764 1028 148.764H1022.4V179.115C1022.4 181.557 1022.66 183.08 1023.19 183.686C1023.93 184.506 1025.08 184.916 1026.62 184.916H1028V186H1011.15V184.916H1012.56C1014.24 184.916 1015.43 184.408 1016.13 183.393C1016.56 182.768 1016.78 181.342 1016.78 179.115V148.764H1012C1010.14 148.764 1008.83 148.9 1008.04 149.174C1007.03 149.545 1006.16 150.258 1005.44 151.312C1004.71 152.367 1004.29 153.793 1004.15 155.59H1003.04L1003.5 146.273H1035.94ZM1066.52 147.357V146.273H1080.58V147.357H1079.09C1077.53 147.357 1076.33 148.012 1075.49 149.32C1075.08 149.926 1074.87 151.332 1074.87 153.539V169.652C1074.87 173.637 1074.47 176.732 1073.67 178.939C1072.89 181.127 1071.34 183.012 1069.01 184.594C1066.71 186.156 1063.56 186.938 1059.58 186.938C1055.24 186.938 1051.95 186.186 1049.71 184.682C1047.46 183.178 1045.87 181.156 1044.93 178.617C1044.3 176.879 1043.99 173.617 1043.99 168.832V153.305C1043.99 150.863 1043.65 149.262 1042.97 148.5C1042.3 147.738 1041.22 147.357 1039.71 147.357H1038.22V146.273H1055.39V147.357H1053.87C1052.22 147.357 1051.05 147.875 1050.35 148.91C1049.86 149.613 1049.62 151.078 1049.62 153.305V170.619C1049.62 172.162 1049.75 173.93 1050.03 175.922C1050.32 177.914 1050.84 179.467 1051.58 180.58C1052.32 181.693 1053.39 182.611 1054.77 183.334C1056.18 184.057 1057.9 184.418 1059.93 184.418C1062.53 184.418 1064.85 183.852 1066.9 182.719C1068.95 181.586 1070.35 180.141 1071.09 178.383C1071.85 176.605 1072.23 173.607 1072.23 169.389V153.305C1072.23 150.824 1071.96 149.271 1071.41 148.646C1070.65 147.787 1069.52 147.357 1068.02 147.357H1066.52ZM1121.8 186H1111.2L1097.75 167.426C1096.76 167.465 1095.95 167.484 1095.32 167.484C1095.07 167.484 1094.79 167.484 1094.5 167.484C1094.21 167.465 1093.9 167.445 1093.59 167.426V178.969C1093.59 181.469 1093.87 183.021 1094.41 183.627C1095.15 184.486 1096.27 184.916 1097.75 184.916H1099.3V186H1082.28V184.916H1083.78C1085.46 184.916 1086.66 184.369 1087.38 183.275C1087.79 182.67 1088 181.234 1088 178.969V153.305C1088 150.805 1087.72 149.252 1087.18 148.646C1086.41 147.787 1085.28 147.357 1083.78 147.357H1082.28V146.273H1096.76C1100.97 146.273 1104.08 146.586 1106.07 147.211C1108.08 147.816 1109.78 148.949 1111.17 150.609C1112.58 152.25 1113.28 154.213 1113.28 156.498C1113.28 158.939 1112.48 161.059 1110.88 162.855C1109.29 164.652 1106.83 165.922 1103.49 166.664L1111.7 178.061C1113.57 180.678 1115.18 182.416 1116.53 183.275C1117.88 184.135 1119.64 184.682 1121.8 184.916V186ZM1093.59 165.58C1093.96 165.58 1094.29 165.59 1094.56 165.609C1094.83 165.609 1095.06 165.609 1095.23 165.609C1099.02 165.609 1101.87 164.789 1103.79 163.148C1105.72 161.508 1106.69 159.418 1106.69 156.879C1106.69 154.398 1105.91 152.387 1104.34 150.844C1102.8 149.281 1100.75 148.5 1098.19 148.5C1097.06 148.5 1095.53 148.686 1093.59 149.057V165.58ZM1139.79 184.916V186H1122.77V184.916H1124.18C1125.82 184.916 1127.01 184.438 1127.75 183.48C1128.22 182.855 1128.46 181.352 1128.46 178.969V153.305C1128.46 151.293 1128.33 149.965 1128.07 149.32C1127.88 148.832 1127.48 148.412 1126.87 148.061C1126.01 147.592 1125.12 147.357 1124.18 147.357H1122.77V146.273H1139.79V147.357H1138.36C1136.74 147.357 1135.55 147.836 1134.81 148.793C1134.32 149.418 1134.08 150.922 1134.08 153.305V178.969C1134.08 180.98 1134.21 182.309 1134.46 182.953C1134.66 183.441 1135.07 183.861 1135.69 184.213C1136.53 184.682 1137.42 184.916 1138.36 184.916H1139.79ZM1159.77 184.916V186H1142.75V184.916H1144.16C1145.8 184.916 1146.99 184.438 1147.73 183.48C1148.2 182.855 1148.44 181.352 1148.44 178.969V153.305C1148.44 151.293 1148.31 149.965 1148.05 149.32C1147.86 148.832 1147.46 148.412 1146.85 148.061C1145.99 147.592 1145.1 147.357 1144.16 147.357H1142.75V146.273H1159.77V147.357H1158.34C1156.72 147.357 1155.54 147.836 1154.79 148.793C1154.3 149.418 1154.06 150.922 1154.06 153.305V178.969C1154.06 180.98 1154.19 182.309 1154.44 182.953C1154.64 183.441 1155.05 183.861 1155.67 184.213C1156.51 184.682 1157.4 184.916 1158.34 184.916H1159.77ZM394.51 214.365V228.105H393.426C393.074 225.469 392.439 223.369 391.521 221.807C390.623 220.244 389.334 219.004 387.654 218.086C385.975 217.168 384.236 216.709 382.439 216.709C380.408 216.709 378.729 217.334 377.4 218.584C376.072 219.814 375.408 221.221 375.408 222.803C375.408 224.014 375.828 225.117 376.668 226.113C377.879 227.578 380.76 229.531 385.311 231.973C389.021 233.965 391.551 235.498 392.898 236.572C394.266 237.627 395.311 238.877 396.033 240.322C396.775 241.768 397.146 243.281 397.146 244.863C397.146 247.871 395.975 250.469 393.631 252.656C391.307 254.824 388.309 255.908 384.637 255.908C383.484 255.908 382.4 255.82 381.385 255.645C380.779 255.547 379.52 255.195 377.605 254.59C375.711 253.965 374.51 253.652 374.002 253.652C373.514 253.652 373.123 253.799 372.83 254.092C372.557 254.385 372.352 254.99 372.215 255.908H371.131V242.285H372.215C372.723 245.137 373.406 247.275 374.266 248.701C375.125 250.107 376.434 251.279 378.191 252.217C379.969 253.154 381.912 253.623 384.021 253.623C386.463 253.623 388.387 252.979 389.793 251.689C391.219 250.4 391.932 248.877 391.932 247.119C391.932 246.143 391.658 245.156 391.111 244.16C390.584 243.164 389.754 242.236 388.621 241.377C387.859 240.791 385.779 239.551 382.381 237.656C378.982 235.742 376.561 234.219 375.115 233.086C373.689 231.953 372.605 230.703 371.863 229.336C371.121 227.969 370.75 226.465 370.75 224.824C370.75 221.973 371.844 219.521 374.031 217.471C376.219 215.4 379.002 214.365 382.381 214.365C384.49 214.365 386.727 214.883 389.09 215.918C390.184 216.406 390.955 216.65 391.404 216.65C391.912 216.65 392.322 216.504 392.635 216.211C392.967 215.898 393.23 215.283 393.426 214.365H394.51ZM380.916 268.594V267.393C382.303 267.393 383.494 266.973 384.49 266.133C385.506 265.293 386.014 264.336 386.014 263.262C386.014 262.617 385.799 262.295 385.369 262.295C385.232 262.295 384.988 262.383 384.637 262.559C384.148 262.832 383.738 262.969 383.406 262.969C381.746 262.969 380.916 262.119 380.916 260.42C380.916 259.482 381.238 258.779 381.883 258.311C382.547 257.842 383.25 257.607 383.992 257.607C385.008 257.607 385.906 258.008 386.688 258.809C387.488 259.629 387.889 260.801 387.889 262.324C387.889 264.414 387.244 265.967 385.955 266.982C384.666 267.998 382.986 268.535 380.916 268.594ZM418.914 253.916V255H401.893V253.916H403.299C404.939 253.916 406.131 253.438 406.873 252.48C407.342 251.855 407.576 250.352 407.576 247.969V222.305C407.576 220.293 407.449 218.965 407.195 218.32C407 217.832 406.6 217.412 405.994 217.061C405.135 216.592 404.236 216.357 403.299 216.357H401.893V215.273H418.914V216.357H417.479C415.857 216.357 414.676 216.836 413.934 217.793C413.445 218.418 413.201 219.922 413.201 222.305V247.969C413.201 249.98 413.328 251.309 413.582 251.953C413.777 252.441 414.188 252.861 414.812 253.213C415.652 253.682 416.541 253.916 417.479 253.916H418.914ZM436.404 255V253.916H437.898C439.578 253.916 440.77 253.379 441.473 252.305C441.902 251.66 442.117 250.215 442.117 247.969V222.305C442.117 219.824 441.844 218.271 441.297 217.646C440.535 216.787 439.402 216.357 437.898 216.357H436.404V215.273H452.576C458.514 215.273 463.025 215.947 466.111 217.295C469.217 218.643 471.707 220.889 473.582 224.033C475.477 227.178 476.424 230.811 476.424 234.932C476.424 240.459 474.744 245.078 471.385 248.789C467.615 252.93 461.873 255 454.158 255H436.404ZM447.742 252.129C450.223 252.676 452.303 252.949 453.982 252.949C458.514 252.949 462.273 251.357 465.262 248.174C468.25 244.99 469.744 240.674 469.744 235.225C469.744 229.736 468.25 225.41 465.262 222.246C462.273 219.082 458.436 217.5 453.748 217.5C451.99 217.5 449.988 217.783 447.742 218.35V252.129ZM491.277 217.441V233.145H500.008C502.273 233.145 503.787 232.803 504.549 232.119C505.564 231.221 506.131 229.639 506.248 227.373H507.332V241.201H506.248C505.975 239.268 505.701 238.027 505.428 237.48C505.076 236.797 504.5 236.26 503.699 235.869C502.898 235.479 501.668 235.283 500.008 235.283H491.277V248.379C491.277 250.137 491.355 251.211 491.512 251.602C491.668 251.973 491.941 252.275 492.332 252.51C492.723 252.725 493.465 252.832 494.559 252.832H501.297C503.543 252.832 505.174 252.676 506.189 252.363C507.205 252.051 508.182 251.436 509.119 250.518C510.33 249.307 511.57 247.48 512.84 245.039H514.012L510.584 255H479.969V253.916H481.375C482.312 253.916 483.201 253.691 484.041 253.242C484.666 252.93 485.086 252.461 485.301 251.836C485.535 251.211 485.652 249.932 485.652 247.998V222.188C485.652 219.668 485.398 218.115 484.891 217.529C484.188 216.748 483.016 216.357 481.375 216.357H479.969V215.273H510.584L511.023 223.975H509.881C509.471 221.885 509.012 220.449 508.504 219.668C508.016 218.887 507.283 218.291 506.307 217.881C505.525 217.588 504.148 217.441 502.176 217.441H491.277ZM549.93 215.273L523.826 252.598H540.115C542.615 252.598 544.529 252.051 545.857 250.957C547.205 249.863 548.396 247.646 549.432 244.307L550.398 244.482L548.523 255H516.18V253.916L541.668 217.646H528.953C526.844 217.646 525.311 217.881 524.354 218.35C523.416 218.799 522.693 219.463 522.186 220.342C521.697 221.201 521.248 222.822 520.838 225.205H519.725L520.545 215.273H549.93ZM594.695 215.273V216.357C593.289 216.611 592.225 217.061 591.502 217.705C590.467 218.662 589.549 220.127 588.748 222.1L574.891 255.908H573.807L558.924 221.66C558.162 219.902 557.625 218.828 557.312 218.438C556.824 217.832 556.219 217.363 555.496 217.031C554.793 216.68 553.836 216.455 552.625 216.357V215.273H568.855V216.357C567.02 216.533 565.828 216.846 565.281 217.295C564.734 217.744 564.461 218.32 564.461 219.023C564.461 220 564.91 221.523 565.809 223.594L575.916 246.885L585.291 223.887C586.209 221.621 586.668 220.049 586.668 219.17C586.668 218.604 586.385 218.066 585.818 217.559C585.252 217.031 584.295 216.66 582.947 216.445C582.85 216.426 582.684 216.396 582.449 216.357V215.273H594.695ZM617.4 214.365C622.557 214.365 627.02 216.328 630.789 220.254C634.578 224.16 636.473 229.043 636.473 234.902C636.473 240.938 634.568 245.947 630.76 249.932C626.951 253.916 622.342 255.908 616.932 255.908C611.463 255.908 606.863 253.965 603.133 250.078C599.422 246.191 597.566 241.162 597.566 234.99C597.566 228.682 599.715 223.535 604.012 219.551C607.742 216.094 612.205 214.365 617.4 214.365ZM616.844 216.504C613.289 216.504 610.438 217.822 608.289 220.459C605.613 223.74 604.275 228.545 604.275 234.873C604.275 241.357 605.662 246.348 608.436 249.844C610.564 252.5 613.377 253.828 616.873 253.828C620.604 253.828 623.68 252.373 626.102 249.463C628.543 246.553 629.764 241.963 629.764 235.693C629.764 228.896 628.426 223.828 625.75 220.488C623.602 217.832 620.633 216.504 616.844 216.504ZM673.211 244.014L674.178 244.219L670.779 255H640.018V253.916H641.512C643.191 253.916 644.393 253.369 645.115 252.275C645.525 251.65 645.73 250.205 645.73 247.939V222.305C645.73 219.824 645.457 218.271 644.91 217.646C644.148 216.787 643.016 216.357 641.512 216.357H640.018V215.273H658.006V216.357C655.896 216.338 654.412 216.533 653.553 216.943C652.713 217.354 652.137 217.871 651.824 218.496C651.512 219.121 651.355 220.615 651.355 222.979V247.939C651.355 249.561 651.512 250.674 651.824 251.279C652.059 251.689 652.42 251.992 652.908 252.188C653.396 252.383 654.92 252.48 657.479 252.48H660.379C663.426 252.48 665.564 252.256 666.795 251.807C668.025 251.357 669.148 250.566 670.164 249.434C671.18 248.281 672.195 246.475 673.211 244.014ZM704.705 215.273L705.145 224.59H704.031C703.816 222.949 703.523 221.777 703.152 221.074C702.547 219.941 701.736 219.111 700.721 218.584C699.725 218.037 698.406 217.764 696.766 217.764H691.17V248.115C691.17 250.557 691.434 252.08 691.961 252.686C692.703 253.506 693.846 253.916 695.389 253.916H696.766V255H679.92V253.916H681.326C683.006 253.916 684.197 253.408 684.9 252.393C685.33 251.768 685.545 250.342 685.545 248.115V217.764H680.77C678.914 217.764 677.596 217.9 676.814 218.174C675.799 218.545 674.93 219.258 674.207 220.312C673.484 221.367 673.055 222.793 672.918 224.59H671.805L672.273 215.273H704.705ZM734.119 241.699H718.738L716.043 247.969C715.379 249.512 715.047 250.664 715.047 251.426C715.047 252.031 715.33 252.568 715.896 253.037C716.482 253.486 717.732 253.779 719.646 253.916V255H707.137V253.916C708.797 253.623 709.871 253.242 710.359 252.773C711.355 251.836 712.459 249.932 713.67 247.061L727.645 214.365H728.67L742.498 247.412C743.611 250.068 744.617 251.797 745.516 252.598C746.434 253.379 747.703 253.818 749.324 253.916V255H733.65V253.916C735.232 253.838 736.297 253.574 736.844 253.125C737.41 252.676 737.693 252.129 737.693 251.484C737.693 250.625 737.303 249.268 736.521 247.412L734.119 241.699ZM733.299 239.531L726.561 223.477L719.646 239.531H733.299ZM719.852 203.467H720.76C721.404 204.658 722.146 205.498 722.986 205.986C724.393 206.826 726.16 207.246 728.289 207.246C730.418 207.246 732.176 206.836 733.562 206.016C734.559 205.449 735.252 204.6 735.643 203.467H736.609C736.434 205.889 735.535 207.861 733.914 209.385C732.312 210.908 730.418 211.67 728.23 211.67C726.062 211.67 724.178 210.918 722.576 209.414C720.975 207.891 720.066 205.908 719.852 203.467ZM790.574 255H779.969L766.521 236.426C765.525 236.465 764.715 236.484 764.09 236.484C763.836 236.484 763.562 236.484 763.27 236.484C762.977 236.465 762.674 236.445 762.361 236.426V247.969C762.361 250.469 762.635 252.021 763.182 252.627C763.924 253.486 765.037 253.916 766.521 253.916H768.074V255H751.053V253.916H752.547C754.227 253.916 755.428 253.369 756.15 252.275C756.561 251.67 756.766 250.234 756.766 247.969V222.305C756.766 219.805 756.492 218.252 755.945 217.646C755.184 216.787 754.051 216.357 752.547 216.357H751.053V215.273H765.525C769.744 215.273 772.85 215.586 774.842 216.211C776.854 216.816 778.553 217.949 779.939 219.609C781.346 221.25 782.049 223.213 782.049 225.498C782.049 227.939 781.248 230.059 779.646 231.855C778.064 233.652 775.604 234.922 772.264 235.664L780.467 247.061C782.342 249.678 783.953 251.416 785.301 252.275C786.648 253.135 788.406 253.682 790.574 253.916V255ZM762.361 234.58C762.732 234.58 763.055 234.59 763.328 234.609C763.602 234.609 763.826 234.609 764.002 234.609C767.791 234.609 770.643 233.789 772.557 232.148C774.49 230.508 775.457 228.418 775.457 225.879C775.457 223.398 774.676 221.387 773.113 219.844C771.57 218.281 769.52 217.5 766.961 217.5C765.828 217.5 764.295 217.686 762.361 218.057V234.58ZM808.562 253.916V255H791.541V253.916H792.947C794.588 253.916 795.779 253.438 796.521 252.48C796.99 251.855 797.225 250.352 797.225 247.969V222.305C797.225 220.293 797.098 218.965 796.844 218.32C796.648 217.832 796.248 217.412 795.643 217.061C794.783 216.592 793.885 216.357 792.947 216.357H791.541V215.273H808.562V216.357H807.127C805.506 216.357 804.324 216.836 803.582 217.793C803.094 218.418 802.85 219.922 802.85 222.305V247.969C802.85 249.98 802.977 251.309 803.23 251.953C803.426 252.441 803.836 252.861 804.461 253.213C805.301 253.682 806.189 253.916 807.127 253.916H808.562ZM828.543 253.916V255H811.521V253.916H812.928C814.568 253.916 815.76 253.438 816.502 252.48C816.971 251.855 817.205 250.352 817.205 247.969V222.305C817.205 220.293 817.078 218.965 816.824 218.32C816.629 217.832 816.229 217.412 815.623 217.061C814.764 216.592 813.865 216.357 812.928 216.357H811.521V215.273H828.543V216.357H827.107C825.486 216.357 824.305 216.836 823.562 217.793C823.074 218.418 822.83 219.922 822.83 222.305V247.969C822.83 249.98 822.957 251.309 823.211 251.953C823.406 252.441 823.816 252.861 824.441 253.213C825.281 253.682 826.17 253.916 827.107 253.916H828.543ZM885.555 255H874.949L861.502 236.426C860.506 236.465 859.695 236.484 859.07 236.484C858.816 236.484 858.543 236.484 858.25 236.484C857.957 236.465 857.654 236.445 857.342 236.426V247.969C857.342 250.469 857.615 252.021 858.162 252.627C858.904 253.486 860.018 253.916 861.502 253.916H863.055V255H846.033V253.916H847.527C849.207 253.916 850.408 253.369 851.131 252.275C851.541 251.67 851.746 250.234 851.746 247.969V222.305C851.746 219.805 851.473 218.252 850.926 217.646C850.164 216.787 849.031 216.357 847.527 216.357H846.033V215.273H860.506C864.725 215.273 867.83 215.586 869.822 216.211C871.834 216.816 873.533 217.949 874.92 219.609C876.326 221.25 877.029 223.213 877.029 225.498C877.029 227.939 876.229 230.059 874.627 231.855C873.045 233.652 870.584 234.922 867.244 235.664L875.447 247.061C877.322 249.678 878.934 251.416 880.281 252.275C881.629 253.135 883.387 253.682 885.555 253.916V255ZM857.342 234.58C857.713 234.58 858.035 234.59 858.309 234.609C858.582 234.609 858.807 234.609 858.982 234.609C862.771 234.609 865.623 233.789 867.537 232.148C869.471 230.508 870.438 228.418 870.438 225.879C870.438 223.398 869.656 221.387 868.094 219.844C866.551 218.281 864.5 217.5 861.941 217.5C860.809 217.5 859.275 217.686 857.342 218.057V234.58ZM913.65 216.357V215.273H927.713V216.357H926.219C924.656 216.357 923.455 217.012 922.615 218.32C922.205 218.926 922 220.332 922 222.539V238.652C922 242.637 921.6 245.732 920.799 247.939C920.018 250.127 918.465 252.012 916.141 253.594C913.836 255.156 910.691 255.938 906.707 255.938C902.371 255.938 899.08 255.186 896.834 253.682C894.588 252.178 892.996 250.156 892.059 247.617C891.434 245.879 891.121 242.617 891.121 237.832V222.305C891.121 219.863 890.779 218.262 890.096 217.5C889.432 216.738 888.348 216.357 886.844 216.357H885.35V215.273H902.518V216.357H900.994C899.354 216.357 898.182 216.875 897.479 217.91C896.99 218.613 896.746 220.078 896.746 222.305V239.619C896.746 241.162 896.883 242.93 897.156 244.922C897.449 246.914 897.967 248.467 898.709 249.58C899.451 250.693 900.516 251.611 901.902 252.334C903.309 253.057 905.027 253.418 907.059 253.418C909.656 253.418 911.98 252.852 914.031 251.719C916.082 250.586 917.479 249.141 918.221 247.383C918.982 245.605 919.363 242.607 919.363 238.389V222.305C919.363 219.824 919.09 218.271 918.543 217.646C917.781 216.787 916.648 216.357 915.145 216.357H913.65ZM968.934 255H958.328L944.881 236.426C943.885 236.465 943.074 236.484 942.449 236.484C942.195 236.484 941.922 236.484 941.629 236.484C941.336 236.465 941.033 236.445 940.721 236.426V247.969C940.721 250.469 940.994 252.021 941.541 252.627C942.283 253.486 943.396 253.916 944.881 253.916H946.434V255H929.412V253.916H930.906C932.586 253.916 933.787 253.369 934.51 252.275C934.92 251.67 935.125 250.234 935.125 247.969V222.305C935.125 219.805 934.852 218.252 934.305 217.646C933.543 216.787 932.41 216.357 930.906 216.357H929.412V215.273H943.885C948.104 215.273 951.209 215.586 953.201 216.211C955.213 216.816 956.912 217.949 958.299 219.609C959.705 221.25 960.408 223.213 960.408 225.498C960.408 227.939 959.607 230.059 958.006 231.855C956.424 233.652 953.963 234.922 950.623 235.664L958.826 247.061C960.701 249.678 962.312 251.416 963.66 252.275C965.008 253.135 966.766 253.682 968.934 253.916V255ZM940.721 234.58C941.092 234.58 941.414 234.59 941.688 234.609C941.961 234.609 942.186 234.609 942.361 234.609C946.15 234.609 949.002 233.789 950.916 232.148C952.85 230.508 953.816 228.418 953.816 225.879C953.816 223.398 953.035 221.387 951.473 219.844C949.93 218.281 947.879 217.5 945.32 217.5C944.188 217.5 942.654 217.686 940.721 218.057V234.58ZM995.857 241.699H980.477L977.781 247.969C977.117 249.512 976.785 250.664 976.785 251.426C976.785 252.031 977.068 252.568 977.635 253.037C978.221 253.486 979.471 253.779 981.385 253.916V255H968.875V253.916C970.535 253.623 971.609 253.242 972.098 252.773C973.094 251.836 974.197 249.932 975.408 247.061L989.383 214.365H990.408L1004.24 247.412C1005.35 250.068 1006.36 251.797 1007.25 252.598C1008.17 253.379 1009.44 253.818 1011.06 253.916V255H995.389V253.916C996.971 253.838 998.035 253.574 998.582 253.125C999.148 252.676 999.432 252.129 999.432 251.484C999.432 250.625 999.041 249.268 998.26 247.412L995.857 241.699ZM995.037 239.531L988.299 223.477L981.385 239.531H995.037ZM1046.16 244.014L1047.13 244.219L1043.73 255H1012.97V253.916H1014.46C1016.14 253.916 1017.34 253.369 1018.06 252.275C1018.47 251.65 1018.68 250.205 1018.68 247.939V222.305C1018.68 219.824 1018.41 218.271 1017.86 217.646C1017.1 216.787 1015.96 216.357 1014.46 216.357H1012.97V215.273H1030.96V216.357C1028.85 216.338 1027.36 216.533 1026.5 216.943C1025.66 217.354 1025.09 217.871 1024.77 218.496C1024.46 219.121 1024.3 220.615 1024.3 222.979V247.939C1024.3 249.561 1024.46 250.674 1024.77 251.279C1025.01 251.689 1025.37 251.992 1025.86 252.188C1026.35 252.383 1027.87 252.48 1030.43 252.48H1033.33C1036.38 252.48 1038.51 252.256 1039.74 251.807C1040.97 251.357 1042.1 250.566 1043.11 249.434C1044.13 248.281 1045.14 246.475 1046.16 244.014ZM1060.98 217.441V233.145H1069.71C1071.98 233.145 1073.49 232.803 1074.26 232.119C1075.27 231.221 1075.84 229.639 1075.96 227.373H1077.04V241.201H1075.96C1075.68 239.268 1075.41 238.027 1075.13 237.48C1074.78 236.797 1074.21 236.26 1073.41 235.869C1072.61 235.479 1071.38 235.283 1069.71 235.283H1060.98V248.379C1060.98 250.137 1061.06 251.211 1061.22 251.602C1061.38 251.973 1061.65 252.275 1062.04 252.51C1062.43 252.725 1063.17 252.832 1064.27 252.832H1071C1073.25 252.832 1074.88 252.676 1075.9 252.363C1076.91 252.051 1077.89 251.436 1078.83 250.518C1080.04 249.307 1081.28 247.48 1082.55 245.039H1083.72L1080.29 255H1049.68V253.916H1051.08C1052.02 253.916 1052.91 253.691 1053.75 253.242C1054.37 252.93 1054.79 252.461 1055.01 251.836C1055.24 251.211 1055.36 249.932 1055.36 247.998V222.188C1055.36 219.668 1055.11 218.115 1054.6 217.529C1053.89 216.748 1052.72 216.357 1051.08 216.357H1049.68V215.273H1080.29L1080.73 223.975H1079.59C1079.18 221.885 1078.72 220.449 1078.21 219.668C1077.72 218.887 1076.99 218.291 1076.01 217.881C1075.23 217.588 1073.86 217.441 1071.88 217.441H1060.98Z" fill="#124B8E"/>
<g clip-path="url(#clip0_231_560)">
<path fill-rule="evenodd" clip-rule="evenodd" d="M300.688 123.787C343.125 186.542 325.993 271.962 262.553 313.939C199.107 355.917 112.745 338.974 70.3138 276.218C27.8734 213.456 45.0083 128.034 108.449 86.0592C171.898 44.0811 258.255 61.0303 300.688 123.787Z" fill="white"/>
<path fill-rule="evenodd" clip-rule="evenodd" d="M298.271 126.105C339.708 187.38 322.979 270.786 261.036 311.773C199.086 352.76 114.761 336.216 73.3296 274.939C31.8946 213.657 48.6254 130.253 110.567 89.2683C172.518 48.2796 256.837 64.829 298.271 126.105Z" fill="#004B8B"/>
<path fill-rule="evenodd" clip-rule="evenodd" d="M256.738 305.343C197.935 344.255 118.335 328.64 79.0019 270.467C39.6662 212.291 55.4561 133.564 114.259 94.6524C173.07 55.7443 252.663 71.3628 292 129.534C331.336 187.706 315.547 266.438 256.738 305.343ZM294.967 127.57C254.64 67.9328 172.569 51.8269 112.279 91.7185C51.9844 131.609 35.7024 212.789 76.0378 272.432C116.36 332.068 198.433 348.176 258.725 308.281C319.013 268.388 335.301 187.212 294.967 127.57Z" fill="white"/>
<path fill-rule="evenodd" clip-rule="evenodd" d="M229.678 265.33C193.209 289.46 143.848 279.773 119.453 243.697C95.0625 207.624 104.853 158.802 141.325 134.673C177.796 110.541 227.154 120.227 251.546 156.303C275.939 192.377 266.147 241.197 229.678 265.33ZM254.594 154.287C229.07 116.547 177.437 106.418 139.289 131.658C101.135 156.901 90.8893 207.971 116.411 245.715C141.931 283.45 193.566 293.587 231.714 268.339C269.865 243.098 280.109 192.024 254.594 154.287Z" fill="white"/>
<path fill-rule="evenodd" clip-rule="evenodd" d="M81.7379 192.94C84.5397 192.94 86.8091 195.186 86.8091 197.956C86.8091 200.726 84.5397 202.972 81.7379 202.972C78.9404 202.972 76.6675 200.726 76.6675 197.956C76.6675 195.186 78.9404 192.94 81.7379 192.94Z" fill="white"/>
<path fill-rule="evenodd" clip-rule="evenodd" d="M288.711 192.94C291.509 192.94 293.783 195.186 293.783 197.956C293.783 200.726 291.509 202.972 288.711 202.972C285.909 202.972 283.64 200.726 283.64 197.956C283.64 195.186 285.909 192.94 288.711 192.94Z" fill="white"/>
<path fill-rule="evenodd" clip-rule="evenodd" d="M195.937 196.483L195.697 196.619L195.792 196.884L195.453 196.865L195.361 197.2L195.01 197.049L194.687 197.284L194.426 197.067L194.091 197.219L193.994 196.917L193.641 196.932L193.678 196.65L193.342 196.585L193.418 196.283L193.101 196.085L193.378 195.9L193.244 195.616L193.533 195.449V195.15L193.866 195.118L193.958 194.833L194.311 194.948L194.537 194.699L194.78 194.948L195.118 194.833L195.212 195.118L195.529 195.132L195.546 195.434L195.903 195.531L195.829 195.836L196.111 196.034L195.846 196.236L195.937 196.483ZM204.476 196.646C204.555 197.599 202.18 197.676 202.062 196.073C202.117 194.435 204.453 194.416 204.453 195.331C203.73 195.217 203.348 195.523 203.348 196.073C203.387 196.492 203.747 196.78 204.476 196.646ZM160.596 193.9H185.339L185.4 193.819L185.339 170.979H210.59L210.612 193.857L186.217 193.88L186.225 193.9C187.57 198.588 188.847 202.498 190.097 205.807L198.075 205.809V204.544C197.68 205.094 197.088 204.99 196.775 204.397C196.29 204.868 195.788 204.745 195.576 204.153C195.115 204.622 194.483 204.544 194.294 203.829C194.038 204.622 193.658 205.112 192.652 205.071C191.725 205.337 191.435 205.315 191.198 205.094C190.441 205.356 190.237 205.356 189.956 205.215L191.746 199.36C192.063 198.284 192.777 197.754 194.231 197.999C195.515 198.224 195.472 199.485 195.176 200.336C196.145 200.499 196.775 200.54 197.823 200.578C197.867 200.578 197.909 200.576 197.943 200.57C197.894 200.55 197.84 200.54 197.785 200.54C198.226 200.176 198.308 199.993 198.52 199.585H198.058C198.542 199.195 198.64 199.045 198.832 198.656C198.459 198.903 197.317 199.588 196.886 198.881C196.912 198.775 198.128 198.677 198.216 198.413C198.172 198.371 198.19 198.331 198.172 198.269C197.603 198.088 197.202 198.188 196.762 198.352C196.596 197.682 196.991 197.397 198.287 197.414V197.41C201.022 196.597 200.39 197.552 201.251 198.894C201.066 198.894 200.873 198.852 200.709 198.852C200.938 199.26 200.999 199.402 201.315 199.748C201.083 199.687 200.917 199.645 200.749 199.645C200.917 200.053 200.999 200.176 201.251 200.499C201.201 200.499 201.149 200.516 201.102 200.54C201.136 200.544 201.174 200.551 201.211 200.561C201.965 200.397 202.427 200.316 202.911 200.134C202.531 199.302 202.47 198.284 203.86 197.92C204.868 197.695 205.642 198.143 205.982 198.792L209.219 205.112C209.096 205.356 208.802 205.356 207.792 205.094C207.453 205.275 207.264 205.294 206.466 204.99C205.749 205.112 205.331 204.99 204.743 203.735C204.638 204.362 204.238 204.501 203.625 204.014C203.48 204.684 202.955 204.805 202.493 204.216C202.365 204.85 201.904 204.99 201.355 204.544L201.48 205.815L210.567 205.826V207.656H210.594V212.145C210.51 217.357 202.585 219.64 198.369 221.254C193.817 216.654 189.878 209.644 185.372 194.016C183.877 199.199 182.472 203.429 181.092 206.942L179.982 207.048V205.93H179.268C179.709 204.973 179.601 204.571 179.77 203.795C179.875 203.289 180.36 203.349 180.401 203.673C180.779 203.211 180.211 202.638 179.644 203.147C179.453 202.758 179.415 202.66 179.581 202.294C179.81 202.092 180.294 202.113 180.316 202.515C180.823 202.19 180.106 200.85 179.163 201.947C178.991 201.703 178.907 201.52 178.907 201.295C179.224 200.933 179.52 200.993 179.558 201.337C180.087 200.933 179.224 200.08 178.594 200.771C178.025 199.751 177.584 197.293 179.056 196.968C179.894 196.785 180.379 197.11 180.779 197.68C180.844 197.903 181.073 198.331 180.634 198.494C180.719 198.656 180.844 198.737 181.029 198.798C180.401 199.225 181.348 200.261 181.348 200.771C181.558 200.484 181.638 200.301 181.558 200.017C181.682 200.138 181.665 200.219 181.726 200.384C181.999 200.017 181.749 199.751 181.665 199.507C181.81 199.63 181.85 199.713 181.961 199.855C182.106 199.122 182.022 199.02 181.81 198.775C182.043 198.737 182.06 198.592 182.19 198.413C181.493 198.352 181.136 196.865 180.211 196.523C177.625 195.751 176.954 198.147 177.669 200.261C177.964 201.154 178.615 202.557 178.867 203.429C179.035 203.997 179.012 204.752 178.51 205.93H178.489H177.691V207.048H176.553C174.808 205.525 174.263 204.022 173.186 202.863C173.549 203.085 174.034 203.429 174.681 203.472C174.429 203.085 174.155 202.921 174.155 202.452C174.702 203.046 175.522 203.027 175.986 202.904C175.394 202.436 174.999 202.13 174.977 201.073C175.482 201.479 175.668 201.703 175.986 202.05C176.509 201.095 176.217 200.587 175.734 199.934C176.173 200.238 176.091 200.057 176.553 200.157C176.381 199.732 176.492 199.691 176.068 199.306C176.471 199.47 176.32 199.325 176.658 199.325C176.509 199.02 176.614 198.839 176.091 198.532C176.448 198.532 176.448 198.352 176.614 198.188C175.394 197.822 176.129 197.373 174.787 196.927C175.186 196.317 174.28 195.913 173.967 196.523C173.734 196.419 173.734 196.359 173.505 196.297C173.61 195.445 172.472 195.524 172.623 196.297C171.988 196.481 171.778 196.523 171.32 196.766C171.274 196.906 171.257 197.031 171.274 197.232C170.707 197.518 170.499 197.621 169.866 197.822C169.593 197.822 169.552 198.046 169.844 198.046C169.844 198.188 169.926 198.737 169.993 198.981C170.014 199.164 170.121 199.122 170.138 198.998C170.138 198.939 170.602 198.592 170.768 198.573C170.791 198.371 170.875 198.371 170.896 198.573C171.043 198.615 171.169 198.775 171.13 199.306C169.174 199.122 168.902 199.122 168.75 198.775C168.667 198.331 168.35 198.413 168.583 198.898C168.667 199.122 168.75 199.325 171.043 199.489C170.858 199.672 170.623 199.713 170.161 199.751C170.161 199.547 170.054 199.547 170.032 199.751C170.014 199.751 169.949 199.836 169.949 199.975C169.844 200.08 169.802 200.202 169.802 200.219C169.34 200.138 169.027 199.894 168.27 199.975C167.43 198.881 166.292 199.489 165.178 197.621L165.148 197.633L165.151 197.629L165.481 197.472L165.891 198.188L166.314 197.986L165.896 197.27C167.407 196.644 168.374 196.34 170.205 196.279C170.768 195.707 171.087 195.467 171.632 194.858C169.131 194.693 167.697 195.486 165.661 196.806L165.636 196.819L165.178 196.036L164.777 196.238L165.027 196.674C164.815 196.421 164.433 196.213 164.04 196.419C163.538 196.419 163.306 196.481 163.137 196.845C162.552 196.906 162.53 197.965 162.993 198.147L163.017 198.125L163.023 198.147L162.781 198.269L163.01 198.656L163.578 198.382C163.582 198.639 163.643 198.758 163.851 198.921C163.958 198.816 164.084 198.737 164.231 198.615C164.275 198.998 164.313 199.268 164.508 199.672C164.63 199.547 164.737 199.47 164.842 199.366C164.859 199.855 164.886 200.017 165.01 200.402C165.155 200.261 165.323 200.117 165.45 200.017C165.388 200.523 165.388 200.85 165.661 201.095C165.767 200.912 165.784 200.789 165.829 200.587C166.058 200.81 166.313 201.095 166.733 201.276C166.777 201.356 166.903 201.501 166.966 201.581C166.711 201.824 166.543 201.888 166.187 201.928C166.565 202.213 166.777 202.213 167.256 202.069C167.05 202.294 166.945 202.515 166.666 202.638C167.027 202.702 167.218 202.702 167.556 202.702C166.693 202.719 166.208 202.863 165.323 203.532C165.411 203.167 165.617 202.719 165.261 202.819C165.071 202.881 164.926 202.863 164.754 202.702C164.548 202.702 164.569 202.962 164.569 203.248C164.548 202.819 164.443 202.436 164.124 202.557C164.04 202.758 163.916 202.863 163.538 202.819C163.464 202.897 163.538 203.027 163.626 203.132C163.687 203.183 163.75 203.246 163.811 203.306C163.811 203.317 163.714 203.236 163.626 203.132C163.458 202.998 163.306 202.94 163.181 203.106C163.222 203.387 163.181 203.472 163.032 203.631C163.115 203.874 163.137 203.818 163.643 203.838C163.222 203.838 163.115 203.897 162.993 204.101C163.202 204.282 163.265 204.509 163.244 204.752C163.578 204.956 164.313 204.571 164.609 204.282C164.674 204.425 164.674 204.59 164.609 204.771C165.221 204.63 165.68 204.327 165.808 204.143C165.873 204.327 165.747 204.449 165.784 204.729C166.124 204.63 166.337 204.571 166.565 204.301C166.504 204.509 166.481 204.59 166.42 204.834C166.882 204.713 167.006 204.691 167.283 204.301C167.239 204.571 167.256 204.571 167.283 204.771C167.802 204.528 167.892 204.544 168.205 204.143C168.121 204.486 168.144 204.509 168.165 204.752C168.646 204.509 168.795 204.386 168.963 203.997C169.027 204.143 169.001 204.282 169.068 204.528C169.34 204.363 169.508 204.205 169.72 203.897C169.781 204.038 169.615 204.224 169.615 204.405C169.993 204.327 170.182 204.224 170.373 203.961C170.791 205.398 172.724 205.398 173.02 206.234V207.029H170.646V205.93H168.188V207.048H165.808V205.93H163.265V207.048H160.566L160.596 193.9ZM162.225 189.751V178.355C162.225 176.605 163.632 174.938 165.626 175.342C167.248 175.69 167.983 176.462 167.248 178.006C168.258 178.616 168.972 178.882 170.421 179.126C170.63 178.739 170.966 178.231 171.284 177.846C171.094 177.887 170.994 177.887 170.782 177.925C171.245 177.498 171.791 177.357 171.896 176.93C171.959 176.67 171.671 176.175 171.425 176.024C171.219 176.052 171.007 176.045 170.804 176.045V177.051H170.172V176.082V176.081V175.791C170.01 175.9 169.879 176.037 169.8 176.224C169.317 175.475 169.663 175.048 170.192 174.823C170.172 174.321 170.192 173.977 170.172 173.496C169.939 173.496 169.623 173.537 169.266 173.598C169.266 173.373 169.245 173.111 169.245 172.886C169.667 172.948 169.751 172.969 170.172 172.948C170.172 172.664 170.067 172.276 170.024 171.993C170.341 172.033 170.63 172.014 170.949 171.993C170.905 172.297 170.804 172.601 170.804 172.948C171.223 172.969 171.371 172.928 171.73 172.867C171.73 173.148 171.751 173.335 171.73 173.537C171.474 173.496 171.054 173.496 170.804 173.473C170.804 173.781 170.822 174.391 170.822 174.655C170.94 174.634 171.06 174.621 171.165 174.617L171.169 174.619L171.178 174.612H171.182C171.522 173.881 172.822 173.679 173.62 173.862C174.734 174.106 174.629 175.388 175.62 175.933C175.28 176.015 175.257 176.098 175.045 175.973C175.152 176.524 175.425 176.647 175.574 177.091C175.32 177.03 175.28 177.03 175.091 177.009C175.343 177.357 175.574 177.784 175.66 178.106C175.387 178.087 175.343 178.05 175.135 178.05C175.32 178.374 175.553 178.882 175.597 179.185C177.024 179.105 177.722 178.96 178.564 178.455C178.016 176.972 177.911 176.075 179.907 175.446C181.4 175.182 183.463 175.525 183.463 178.716V189.467C183.48 190.342 183.585 190.745 184.07 191.235C183.335 191.071 182.766 190.787 182.031 189.445C181.59 189.403 181.144 189.141 180.497 187.963C179.17 187.553 179.066 187.518 179.066 183.351C178.937 183.717 178.793 183.717 178.375 183.877C177.89 183.798 177.722 183.553 177.55 183.292C177.426 183.597 177.321 183.736 176.94 183.776C176.751 183.675 176.65 183.615 176.417 183.369C176.816 184.023 177.739 185.463 178.375 186.421C177.943 186.299 177.819 186.279 177.396 186.16C178.131 187.476 178.271 187.746 179.22 189.249C179.302 189.392 179.346 189.351 179.493 189.351C180.06 189.392 180.184 189.064 180.524 189.371C180.524 189.385 180.516 189.396 180.506 189.411C180.51 189.402 180.52 189.402 180.524 189.394C180.842 189.29 181.237 189.454 181.136 190.004C181.012 189.828 180.911 189.726 180.63 189.77C180.63 189.787 180.625 189.809 180.608 189.838C180.146 190 180.211 189.696 179.661 189.819C180.039 190.287 180.484 190.162 180.563 190.65C180.554 190.704 180.533 190.749 180.501 190.774L180.51 190.863C180.749 191.103 180.678 191.422 180.463 191.688C180.342 191.065 180.14 191.199 180.092 191.057L180.06 191.033C180.016 191.057 179.955 191.065 179.873 191.037C179.197 190.527 179.661 190.387 179.346 189.979C179.241 189.938 179.22 189.917 179.159 190C178.947 190.693 179.47 190.772 178.924 191.261C178.854 191.274 178.8 191.269 178.756 191.261V191.263C178.844 191.505 178.401 191.263 178.379 191.873C177.875 191.523 177.999 191.222 178.234 191.141L178.224 191.12C178.201 191.076 178.123 191.108 178.083 191.057C178.129 190.753 178.589 190.487 178.818 190C178.818 189.917 178.818 189.917 178.695 189.879C178.06 190.081 178.401 190.304 177.688 190.387C177.634 190.36 177.611 190.336 177.6 190.313C177.51 190.505 177.224 190.293 177.203 190.774C176.87 190.512 177.028 189.943 177.392 189.961C177.439 189.961 177.307 189.892 177.409 189.798C177.581 189.576 177.894 189.758 178.401 189.494C178.506 189.453 178.462 189.392 178.462 189.371C177.898 188.584 176.931 187.501 176.499 186.664C176.455 187.11 176.351 187.536 176.144 187.698C175.681 186.804 175.492 186.5 174.862 185.526C174.755 185.688 174.795 185.628 174.629 185.748C174.499 185.728 174.377 185.607 174.27 185.567C174.778 187.984 174.984 188.512 176.243 190.502C175.954 190.745 175.028 191.01 174.65 191.235C174.795 191.537 174.967 191.722 175.152 192.007C174.421 192.433 174.02 192.619 172.928 193.002C171.896 192.66 171.539 192.496 170.488 192.007C170.674 191.703 170.842 191.397 170.966 191.112C170.235 190.745 169.856 190.585 169.016 190.219C170.886 187.823 171.071 187.536 171.768 185.584C171.663 185.628 171.579 185.665 171.411 185.748C171.371 185.665 171.223 185.442 171.178 185.361C170.63 186.34 170.508 186.358 169.812 187.131C169.636 186.9 169.573 186.821 169.566 186.557C169.386 186.729 168.538 187.519 166.983 189.064C166.983 189.084 166.939 189.147 167.044 189.187C167.546 189.453 167.882 189.268 168.054 189.471C168.084 189.543 168.08 189.581 168.063 189.604C168.041 189.604 168.02 189.608 167.997 189.611C168.309 189.76 168.538 190.211 168.266 190.429C168.243 189.961 167.949 190.164 167.865 189.981V189.979C167.855 190.004 167.829 190.021 167.781 190.044C167.546 190.021 166.622 189.375 166.622 189.677C166.852 190.144 167.317 190.404 167.359 190.693C167.323 190.744 167.071 190.691 167.212 190.774C167.359 190.857 167.571 191.161 167.067 191.486C167.05 190.97 166.724 191.076 166.679 190.963C166.666 190.933 166.645 190.982 166.622 190.954C166.205 190.874 166.499 190.346 166.287 189.677C166.225 189.594 166.205 189.613 166.098 189.655C165.764 190.044 166.243 190.181 165.552 190.67C165.45 190.7 165.397 190.691 165.34 190.66C165.317 190.85 165.088 190.66 164.966 191.303C164.737 191.019 164.645 190.717 164.939 190.474C165.006 190.412 164.895 190.44 164.859 190.304C164.945 189.838 165.386 189.961 165.764 189.494C165.218 189.392 165.3 189.634 164.842 189.471L164.838 189.474C164.525 189.413 164.42 189.494 164.292 189.677C164.164 189.149 164.586 188.986 164.903 189.088L164.913 189.098C164.903 189.084 164.901 189.079 164.901 189.064C165.239 188.762 165.363 189.084 165.931 189.047C166.098 189.047 166.121 189.064 166.225 188.945C166.645 188.518 168.374 186.49 168.798 186.003C168.472 186.135 168.27 186.092 167.878 185.992C168.279 185.442 168.886 184.202 169.415 183.23C169.415 183.207 169.222 183.597 168.93 183.695C168.592 183.597 168.491 183.493 168.323 183.187C168.09 183.553 167.961 183.534 167.606 183.776C167.248 183.653 167.06 183.553 166.847 183.23C166.657 184.874 166.472 186.4 165.397 187.049C165.148 187.984 164.811 188.471 163.714 188.939C163.502 189.77 162.874 190.604 161.801 190.97C162.013 190.523 162.12 190.238 162.225 189.751ZM164.684 172.461L164.996 172.256V171.912L165.353 171.87L165.458 171.527L165.861 171.668L166.111 171.386L166.367 171.668L166.745 171.527L166.847 171.87L167.185 171.893L167.209 172.237L167.606 172.358L167.521 172.726L167.817 172.948L167.544 173.194L167.649 173.473L167.376 173.637L167.481 173.962L167.104 173.943L166.997 174.329L166.618 174.147L166.26 174.431L165.987 174.166L165.609 174.349L165.502 174.004L165.124 174.022L165.168 173.679L164.788 173.598L164.874 173.252L164.534 173.007L164.834 172.805L164.684 172.461ZM176.499 172.154C176.499 171.386 179.53 171.055 179.611 173.049C179.466 174.978 176.478 174.695 176.478 173.781C177.426 174.289 178.079 173.598 178.096 173.049C178.079 172.501 177.321 171.85 176.499 172.154ZM194.966 221.358C194.206 221.447 192.777 221.559 192 220.767C190.953 221.673 189.675 221.996 188.607 221.706L188.553 221.722V221.724C187.835 222.329 186.954 222.038 187.859 221.447C187.102 221.305 186.07 220.992 186.07 220.182C186.194 219.906 186.512 219.867 186.786 220.163L186.839 220.144C187.24 219.876 187.108 220.026 187.351 219.633C185.944 218.181 189.561 216.861 188.696 216.232C188.28 215.92 187.941 216.344 187.691 216.676C187.294 215.991 187.859 215.351 188.95 215.351C188.572 214.545 187.902 213.131 187.206 212.319C186.597 211.605 186.087 210.186 186.386 208.388C187.076 205.373 186.468 205.908 186.278 205.026C186.026 203.963 186.344 203.522 187.267 203.061C186.66 204.074 189.013 204.693 188.089 206.261C190.821 206.716 189.013 208.938 189.79 210.114C187.795 209.4 188.969 207.909 187.772 207.875C187.076 207.854 189.807 211.632 189.815 211.9C189.922 211.736 190.025 211.692 190.317 211.656C190.485 211.492 190.633 211.422 190.882 211.422C190.801 212.3 190.801 212.432 190.864 213.234C191.637 214.218 192.309 215.126 192.609 215.753C193.092 216.746 193.135 218.457 192.421 219.963C193.2 219.519 193.614 219.481 194.187 219.098C194.294 219.353 194.334 219.616 194.273 219.833C194.607 219.867 194.798 219.833 195.3 220.233C194.88 220.33 194.439 220.459 194.25 220.751C194.525 220.751 194.903 221.045 194.966 221.358ZM183.417 221.447C184.2 221.979 183.44 222.276 182.728 221.724L182.74 221.715L182.665 221.696C181.551 221.985 180.207 221.673 179.109 220.767C178.102 221.724 176.816 221.594 175.83 221.653C175.91 221.266 176.249 220.992 176.711 220.914C176.461 220.477 176.166 220.401 175.724 220.312C176.103 220.018 176.377 220.035 176.836 219.867C176.773 219.65 176.734 219.353 176.836 219.098C177.426 219.481 177.867 219.519 178.668 219.963C177.934 218.457 177.972 216.746 178.479 215.753C178.827 215.047 179.688 213.969 180.615 212.84L180.287 213.236C180.369 212.432 180.369 212.302 180.264 211.422C180.537 211.422 180.686 211.492 180.877 211.656C181.171 211.692 181.278 211.736 181.4 211.894C183.123 209.817 184.702 207.843 183.524 207.875C182.264 207.909 183.507 209.4 181.423 210.114C182.22 208.938 180.352 206.716 183.188 206.261C182.22 204.693 184.66 204.074 184.026 203.061C184.995 203.522 185.312 203.963 185.057 205.026C184.85 205.908 184.221 205.373 184.935 208.388C185.251 210.186 184.723 211.605 184.093 212.319C183.373 213.131 182.682 214.545 182.287 215.351C183.44 215.351 184.009 215.991 183.608 216.676C183.335 216.344 183.001 215.92 182.56 216.232C181.656 216.861 185.397 218.181 183.944 219.633C184.194 220.026 184.058 219.876 184.489 220.146L184.534 220.163C184.828 219.867 185.142 219.886 185.312 220.182C185.312 220.992 184.2 221.305 183.417 221.447ZM172.997 216.249H172.984L172.997 212.432L173.839 211.354L175.333 210.707L176.826 211.29L177.691 212.432L178.008 213.726C177.409 214.847 176.799 215.866 176.188 216.799C175.835 216.67 175.457 216.478 175.267 216.271C174.744 217.024 173.644 216.863 172.997 216.249ZM168.188 216.333H168.182C167.296 216.78 166.287 216.722 165.723 215.904C164.966 216.739 164.08 216.739 163.3 216.271H163.283V212.389L164.336 211.109L165.808 210.724L167.363 211.256L168.188 212.451V216.333ZM164.895 219.767C171.747 221.955 178.554 224.271 185.374 226.557C193.032 224.284 210.726 219.804 211.819 213.604L211.823 213.582C211.886 213.218 211.938 212.409 211.921 212.038L211.888 169.405L159.211 169.41V213.769C159.217 213.865 159.225 213.954 159.229 214.046C159.521 216.97 162.26 218.597 164.895 219.767Z" fill="white"/>
<path fill-rule="evenodd" clip-rule="evenodd" d="M195.153 211.011H195.723V211.823H196.815V210.401H196.29V209.688H196.815V208.572H196.29V209.182H195.723V208.572H195.153V209.182H194.569V208.572H193.975V209.688H194.569V210.401H193.975V211.823H195.153V211.011Z" fill="white"/>
<path fill-rule="evenodd" clip-rule="evenodd" d="M213.251 213.586C213.506 220.157 203.304 221.847 185.383 228.419C168.323 222.664 158.186 221.26 157.881 214.951V168.219L213.251 168.196V213.586ZM172.798 141.171V140C175.02 139.978 177.487 140.795 178.806 141.06L179.52 142.757C177.699 142.065 174.831 141.16 172.798 141.171ZM182.837 135.964C182.842 135.987 182.85 136.013 182.859 136.04C183.092 137.013 182.479 137.988 181.485 138.222C180.484 138.452 179.485 137.856 179.241 136.881C179.237 136.855 179.231 136.831 179.223 136.804L182.837 135.964ZM206.529 229.308C206.558 229.393 206.568 229.441 206.558 229.452L206.503 229.306L206.529 229.308ZM206.618 229.333C206.646 229.429 206.683 229.518 206.715 229.608C206.665 229.51 206.618 229.42 206.568 229.323C206.581 229.325 206.6 229.329 206.618 229.333ZM236.37 188.966C236.612 188.966 237.992 189.791 238.232 189.791C236.589 184.852 236.969 177.936 237.101 170.196C237.612 170.411 238.634 171.238 239.144 171.457C238.749 167.081 238.854 166.084 238.854 163.604C238.854 148.267 230.766 144.158 224.447 142.46C213.151 139.915 205.304 148.747 208.012 158.104C207.368 161.036 205.723 163.254 202.945 164.494C200.677 165.276 197.475 165.473 196.145 162.907C196.738 163.277 197.168 163.473 197.92 163.492C197.239 162.784 196.853 161.757 196.532 160.57H196.528C196.003 158.57 195.653 156.127 194.387 153.98C195.653 155.065 196.095 156.169 196.536 157.171C197.162 154.282 196.273 150.765 194.943 149.181C196.052 149.727 196.074 149.593 196.872 150.418C197.054 148.815 196.805 148.141 196.317 147.122C196.273 144.841 196.03 144.105 194.943 142.757C196.074 143.236 196.872 143.168 197.889 142.606C196.384 142.085 195.364 141.216 194.298 139.611C192.923 137.57 190.75 135.12 188.018 134.274C185.841 133.579 183.934 133.685 180.14 134.361C179.073 134.493 176.495 135.371 174.138 135.252L174.346 136.496L173.104 136.81C173.001 136.836 172.892 136.864 172.768 136.891V135.696L172.787 135.69L172.781 135.505L172.768 135.06V133.011C174.421 133.038 175.873 133.185 177.502 133.378L177.416 130.204C175.764 130.447 174.178 130.572 172.499 130.687C172.673 129.16 172.835 127.727 173.115 126.224C172.01 126.291 170.956 126.3 169.865 126.231C170.151 127.738 170.306 129.116 170.443 130.659C168.859 130.561 167.363 130.461 165.8 130.259L165.895 133.298C166.569 133.213 169.468 133.143 170.464 133.117V137.42C168.807 137.978 167.367 139.164 168.716 142.302C169.174 141.214 169.538 140.527 170.495 140.212C170.495 145.197 170.878 150.671 169.596 155.459C171.363 154.849 171.987 154.828 173.801 155.406C172.592 151.211 172.673 146.699 172.798 142.375C172.974 142.392 173.148 142.415 173.319 142.436C175.905 142.776 178.581 143.759 179.308 146.662C179.995 149.355 177.874 150.801 176.707 152.929C174.478 157.345 175.31 160.991 173.235 163.146C173.922 163.211 174.68 163.099 174.68 163.099C173.033 165.322 169.899 165.322 167.544 164.623C165.626 163.952 163.696 161.644 162.851 159.012C166.406 147.68 154.531 140.501 145.994 142.983C141.432 144.31 132.586 147.182 132.23 164.362C131.983 166.89 132.407 168.389 131.72 170.955C132.516 170.719 132.829 170.585 133.537 170.236C133.537 177.349 133.52 186.898 132.048 190.074C132.85 189.879 133.472 189.488 133.9 189.117C134.516 218.589 134.877 240.208 132.741 245.342C135.987 244.297 137.433 243.861 139.28 241.622C140.173 241.497 141.028 241.374 141.799 241.17V204.99C140.389 199.661 139.018 194.318 137.74 188.958C137.247 186.883 137.16 185.499 137.755 183.422L138.376 181.282L140.103 182.741C140.79 183.321 141.341 183.883 141.799 184.483V162.044C141.799 161.598 142.163 161.232 142.61 161.232C143.053 161.232 143.416 161.598 143.416 162.044V187.682C147.103 198.178 149.897 208.972 152.737 219.736V157.458C152.737 157.009 153.104 156.648 153.549 156.648C153.995 156.648 154.361 157.009 154.361 157.458V225.82C154.541 226.501 154.726 227.181 154.917 227.868C156.471 225.776 157.474 223.524 158.026 220.186C159.043 221.587 160.816 222.725 163.265 223.803C161.265 227.233 160.961 228.255 157.713 229.935C160.05 230.936 162.441 231.111 164.508 229.824C164.472 229.952 164.427 230.069 164.389 230.19C163.74 231.359 163.283 232.414 162.71 233.384C161.996 234.613 161.414 235.093 160.542 236.122C158.78 236.692 157.952 235.814 156.009 236.252C155.974 236.269 155.942 236.282 155.907 236.301C155.783 235.955 155.678 235.641 155.74 235.616C155.986 235.533 156.188 235.419 156.278 235.185C156.52 235.204 156.921 234.963 157.053 234.77C157.409 234.814 157.652 234.64 157.767 234.377L160.522 233.573C160.832 233.724 161.234 233.855 161.37 233.594C162.278 233.224 162.481 232.704 162.568 232.335C162.303 232.095 161.658 231.638 160.724 231.985C160.437 231.806 160.19 232.269 160.146 232.465L157.366 233.288C157.075 233.137 156.722 233.095 156.476 233.288C156.188 233.158 155.789 233.224 155.608 233.441C155.511 233.39 155.15 233.233 154.921 233.288C150.76 218.674 147.045 202.339 141.975 187.94C141.332 186.115 140.618 185.048 139.15 183.806C138.617 185.656 138.709 186.766 139.15 188.637C142.622 203.144 147.353 219.761 151.161 234.334C151.184 234.334 150.594 234.53 150.47 234.791C150.251 234.704 149.804 234.923 149.645 235.14C149.359 235.116 149.046 235.289 148.958 235.552L146.315 236.354C145.958 236.226 145.712 236.162 145.49 236.4C144.779 236.465 144.223 237.227 144.111 237.595C144.399 237.834 145.177 238.253 145.935 237.921C146.245 237.987 146.557 237.772 146.756 237.422L149.359 236.662C149.558 236.902 149.979 236.79 150.228 236.662C150.47 236.813 150.959 236.726 151.117 236.552C151.36 236.749 151.628 236.771 151.936 236.684C152.024 236.662 152.069 236.641 152.157 236.641C152.201 236.757 152.333 237.237 152.447 237.647C150.666 238.421 150.5 239.177 150.878 240.032C150.894 240.171 150.928 240.319 150.981 240.468C150.033 240.729 149.281 241.87 149.795 242.781C149.813 243.16 149.999 243.536 150.413 243.843L150.435 243.836L150.48 243.834C149.844 244.599 149.407 245.948 151.38 246.256C151.096 247.878 152.1 247.837 152.835 248.074C153.264 248.446 153.571 248.557 154.247 248.754C155.272 248.841 155.833 249.039 156.743 249.517C157.507 249.719 158.154 249.673 158.955 249.322C159.383 249.081 159.537 248.841 159.696 248.471C160.812 247.946 161.058 247.748 161.261 246.498C162.366 245.099 163.19 241.478 163.419 240.772C164.45 237.595 166.187 234.915 168.279 232.208C167.909 234.457 168.372 237.098 170.191 238.463C170.455 233.573 172.487 231.104 174.707 227.747C175.337 227.942 175.986 228.14 176.646 228.349C175.054 233.891 173.68 238.194 171.235 242.311L171.344 242.303C169.359 245.592 166.683 248.765 162.656 252.341C164.178 253.693 166.12 254.965 167.773 256.475C167.283 257.221 166.857 257.591 166.252 258.313C167.393 259.009 172.081 261.89 173.434 262.722C172.946 263.653 172.39 264.244 171.724 265.29C176.966 268.619 179.617 269.899 184.951 272.966C185.028 272.932 193.664 268.845 199.136 265.693C198.647 265.012 198.132 264.204 197.573 263.351C200.541 261.598 203.022 259.975 205.298 258.492C204.699 257.812 204.338 257.416 203.691 256.628C206.573 254.593 206.793 254.417 209.008 252.709C199.952 244.312 196.792 237.493 193.341 227.887C194.337 227.545 195.309 227.215 196.225 226.896C198.964 230.703 200.346 232.259 201.501 237.464C203.369 235.638 202.925 233.849 203.079 231.328C203.153 231.4 203.224 231.477 203.295 231.547C203.281 231.54 203.264 231.527 203.245 231.515C203.216 231.487 203.19 231.468 203.163 231.442C203.172 231.453 203.18 231.468 203.19 231.481C203.157 231.457 203.123 231.434 203.087 231.393C205.157 234.83 206.4 236.701 208.025 239.441C208.21 240.972 208.241 241.784 208.601 242.611C208.617 242.611 208.634 242.611 208.651 242.612C208.893 243.224 209.308 243.827 210.088 244.702C210.088 245.778 211.025 246.785 211.833 247.18C211.898 247.504 211.964 247.616 212.119 247.859C212.745 248.488 214.423 248.539 215.339 248.341C216.031 247.791 216.455 247.837 217.146 247.657C217.821 247.551 217.821 247.504 218.623 247.353C219.247 247.023 219.736 246.872 220.116 246.698C220.631 246.256 220.543 245.426 220.116 245.099C221.093 244.449 222.433 243.687 221.135 242.786C221.072 242.733 221.005 242.68 220.931 242.63C221.522 241.604 221.41 240.519 220.652 239.692C220.652 238.114 219.873 237.306 218.688 236.275C218.667 236.269 218.65 236.267 218.631 236.26C220.852 228.801 223.179 219.187 225.486 210.552C226.466 210.62 226.618 210.097 226.777 209.531C227.508 209.332 227.664 208.813 227.152 208.203C228.09 207.813 228.151 207.245 227.887 206.531C230.756 203.289 232.777 201.156 233.11 200.068C233.383 198.915 232.466 196.566 231.558 193.219C231.646 192.847 231.867 192.019 230.931 191.782C230.865 191.699 230.795 191.626 230.733 191.559C231.024 191.397 231.218 191.091 231.218 190.742C231.218 190.221 230.793 189.802 230.254 189.802C229.72 189.802 229.288 190.221 229.288 190.742C229.288 190.884 229.321 191.022 229.382 191.144C229.197 191.197 228.999 191.29 228.777 191.41C227.91 191.216 227.42 191.933 227.217 192.455C224.998 194.826 222.75 196.523 222.307 197.631C222.173 198.654 222.238 201.178 222.95 205.2C222.036 205.594 221.948 206.355 222.482 207.073C221.664 207.309 221.614 207.875 222.086 208.422C221.927 209.095 222.106 209.506 222.553 209.835C220.467 218.139 218.287 225.536 215.081 235.261C214.482 235.11 211.806 235.563 210.082 234.9C208.51 232.674 207.607 231.227 206.652 229.343C209.008 229.988 209.941 229.839 212.798 229.306C209.611 227.521 208.55 226.745 206.436 223.518C209.118 222.283 210.872 221.229 212.1 219.703C212.798 223.416 213.828 225.425 216.176 227.094C216.375 226.454 216.57 225.816 216.766 225.176V157.917C216.766 157.471 217.133 157.109 217.578 157.109C218.024 157.109 218.385 157.471 218.385 157.917V219.71C219.293 216.567 220.156 213.401 220.962 210.216C220.685 209.78 220.561 209.285 220.581 208.745C220.2 207.988 220.27 207.188 220.733 206.578C220.623 205.845 220.837 205.128 221.371 204.577C221.142 203.189 220.962 201.783 220.86 200.385C220.799 199.458 220.746 198.383 220.869 197.454L220.887 197.282L220.952 197.118C221.332 196.175 222.341 195.217 223.076 194.51C224.059 193.572 225.046 192.66 225.984 191.677C226.346 190.923 226.95 190.331 227.708 190.087V162.505C227.708 162.061 228.072 161.695 228.517 161.695C228.959 161.695 229.323 162.061 229.323 162.505V188.567C229.611 188.452 229.928 188.39 230.254 188.39C231.588 188.39 232.669 189.441 232.669 190.742C232.669 190.907 232.652 191.069 232.615 191.229C232.836 191.503 232.995 191.831 233.056 192.209C233.117 192.549 233.1 192.855 233.048 193.172C233.413 194.488 233.827 195.79 234.178 197.11C234.444 198.096 234.76 199.368 234.528 200.38L234.52 200.429L234.501 200.474C234.201 201.456 233.231 202.602 232.571 203.387C231.561 204.588 230.5 205.751 229.456 206.924C229.497 207.303 229.453 207.665 229.323 207.994V239.537C230.451 240.23 231.605 240.625 232.585 240.625C234.566 242.318 235.744 242.773 238.413 243.36C235.188 239.579 236.474 212.021 236.37 188.966Z" fill="white"/>
<path fill-rule="evenodd" clip-rule="evenodd" d="M146.294 234.884L148.073 234.344C148.323 234.096 148.645 233.915 148.989 233.812C149.134 233.711 149.293 233.624 149.457 233.553C147.491 226.048 145.433 218.56 143.416 211.064V236.017C143.809 235.593 144.305 235.257 144.844 235.093C145.284 234.823 145.777 234.779 146.294 234.884Z" fill="white"/>
<path fill-rule="evenodd" clip-rule="evenodd" d="M226.651 211.813C226.002 214.252 225.372 216.693 224.738 219.136C223.618 223.501 222.503 227.887 221.293 232.236C222.765 233.784 224.309 235.176 225.49 235.467C226.069 236.548 226.843 237.511 227.708 238.307V210.969C227.442 211.36 227.094 211.651 226.651 211.813Z" fill="white"/>
<path fill-rule="evenodd" clip-rule="evenodd" d="M203.563 211.011H204.132V211.823H205.224V210.401H204.699V209.688H205.224V208.572H204.699V209.182H204.132V208.572H203.563V209.182H202.977V208.572H202.388V209.688H202.977V210.401H202.388V211.823H203.563V211.011Z" fill="white"/>
<path fill-rule="evenodd" clip-rule="evenodd" d="M200.873 212.633H200.285V213.753H200.873V214.464H200.285V215.887H201.457V215.073H202.029V215.887H203.123V214.464H202.594V213.753H203.123V212.633H202.594V213.245H202.029V212.633H201.457V213.245H200.873V212.633Z" fill="white"/>
<path fill-rule="evenodd" clip-rule="evenodd" d="M196.668 212.633H196.078V213.753H196.668V214.464H196.078V215.887H197.256V215.073H197.822V215.887H198.92V214.464H198.391V213.753H198.92V212.633H198.391V213.245H197.822V212.633H197.256V213.245H196.668V212.633Z" fill="white"/>
<path fill-rule="evenodd" clip-rule="evenodd" d="M199.361 211.011H199.926V211.823H201.015V210.401H200.496V209.688H201.015V208.572H200.496V209.182H199.926V208.572H199.361V209.182H198.771V208.572H198.181V209.688H198.771V210.401H198.181V211.823H199.361V211.011Z" fill="white"/>
<path fill-rule="evenodd" clip-rule="evenodd" d="M205.079 212.633H204.487V213.753H205.079V214.464H204.487V215.887H205.669V215.073H206.232V215.887H207.325V214.464H206.802V213.753H207.325V212.633H206.802V213.245H206.232V212.633H205.669V213.245H205.079V212.633Z" fill="white"/>
<path fill-rule="evenodd" clip-rule="evenodd" d="M207.765 211.011H208.334V211.823H209.428V210.401H208.901V209.688H209.428V208.572H208.901V209.182H208.334V208.572H207.765V209.182H207.179V208.572H206.591V209.688H207.179V210.401H206.591V211.823H207.765V211.011Z" fill="white"/>
<path fill-rule="evenodd" clip-rule="evenodd" d="M191.41 182.862C192.124 182.862 192.441 182.758 193.603 182.394C193.369 182.758 193.473 183.206 193.685 183.47C193.685 183.917 193.788 184.201 194.082 184.548C194.044 184.894 194.105 185.097 194.317 185.3C194.483 186.5 194.801 187.127 195.599 188.611C195.01 188.836 194.483 189.241 194.483 190.011C194.483 191.091 195.643 191.518 196.481 191.518C196.903 192.165 197.304 192.37 197.85 192.37C198.419 192.37 198.836 192.165 199.256 191.518C200.096 191.518 201.272 191.091 201.272 190.011C201.272 189.241 200.726 188.836 200.14 188.611C200.938 187.127 201.272 186.5 201.422 185.3C201.678 185.097 201.718 184.894 201.695 184.548C201.969 184.201 202.073 183.917 202.073 183.47C202.264 183.206 202.388 182.758 202.136 182.394C203.289 182.758 203.631 182.862 204.365 182.862C206.656 182.839 207.158 181.886 207.876 180.829C205.837 181.275 205.335 179.549 203.564 179.549C204.282 179.509 204.972 178.207 204.972 176.357C204.972 174.165 202.999 171.525 200.709 171.525C202.388 172.294 202.978 173.94 202.917 175.382C202.85 177.253 202.073 177.619 201.338 178.106C200.308 177.538 199.785 177.721 198.92 178.677C198.754 178.086 198.33 177.946 197.85 177.946C197.388 177.946 196.987 178.086 196.798 178.677C195.954 177.721 195.431 177.538 194.378 178.106C193.685 177.619 192.906 177.253 192.82 175.382C192.776 173.94 193.369 172.294 195.031 171.525C192.757 171.525 190.801 174.165 190.801 176.357C190.801 178.207 191.471 179.509 192.211 179.549C190.441 179.549 189.939 181.275 187.902 180.829C188.597 181.886 189.145 182.839 191.41 182.862Z" fill="white"/>
<path fill-rule="evenodd" clip-rule="evenodd" d="M196.361 176.832L197.832 176.058L199.432 176.851L199.219 175.207L200.416 173.989L198.756 173.683L197.832 171.997L197.035 173.683L195.229 173.989L196.59 175.144L196.361 176.832Z" fill="white"/>
<path fill-rule="evenodd" clip-rule="evenodd" d="M189.337 189.205C187.764 189.674 187.954 189.755 187.91 190.1C187.992 190.346 188.289 190.404 188.623 190.648C188.896 190.874 188.935 191.197 189.337 191.197C189.797 191.057 190.051 191.077 190.07 189.736C190.07 191.16 190.368 191.014 190.706 191.16C191.125 191.16 191.083 190.976 191.505 190.67C191.921 190.427 192.07 190.467 192.158 190.121C192.112 189.838 192.368 189.613 190.809 189.185C192.255 189.594 192.343 189.411 192.597 189.145C192.784 188.822 192.324 188.6 192.238 188.292C192.158 187.967 192.194 187.744 191.965 187.542C191.61 187.501 191.461 187.257 190.494 188.331C191.524 187.176 191.269 187.153 191.021 186.849C190.641 186.603 190.326 186.83 189.973 186.808C189.444 186.808 189.419 186.787 189.083 186.97C188.978 187.153 188.581 187.318 189.593 188.354C188.52 187.257 188.537 187.601 188.183 187.601C187.865 187.724 187.992 188.031 187.848 188.373C187.744 188.698 187.446 188.801 187.57 189.105C187.825 189.392 187.804 189.634 189.337 189.205Z" fill="white"/>
<path fill-rule="evenodd" clip-rule="evenodd" d="M208 187.935C207.924 186.37 203.563 186.262 203.563 189.359C203.638 192.349 208 192.135 208.073 190.391C206.921 191.137 205.537 190.283 205.537 189.359C205.537 188.397 206.846 187.472 208 187.935Z" fill="white"/>
<path fill-rule="evenodd" clip-rule="evenodd" d="M104.007 156.769C105.06 154.766 105.532 153.064 105.918 150.905L101.019 148.387C100.098 147.913 99.6706 147.926 99.0643 148.724L97.6422 150.631L95.4714 149.513L99.9839 140.916L102.158 142.032L101.67 143.586C101.375 144.592 101.633 144.815 102.553 145.289L108.998 148.6C108.851 150.93 108.624 154.747 106.521 158.753C102.465 166.479 95.9004 167.222 87.4273 162.871C79.6923 158.895 75.3617 152.184 79.7419 143.839C81.0048 141.436 82.4726 138.996 86.3568 136.321L92.0538 139.987L90.6775 142.611L86.2231 141.294C84.4196 142.68 83.3087 143.727 81.9309 146.351C80.4385 149.193 80.6519 150.922 81.1843 152.584C81.8027 154.521 86.2629 157.785 89.0249 159.203C95.1044 162.325 101.022 162.454 104.007 156.769Z" fill="white"/>
<path fill-rule="evenodd" clip-rule="evenodd" d="M124.2 121.75C129.298 126.981 127.078 132.806 123.344 136.37C118.562 140.927 113.636 140.663 109.173 136.083L98.1672 124.793C97.448 124.055 97.0702 123.902 96.2082 124.497L94.3645 125.741L92.665 123.997L100.133 116.871L101.833 118.616L100.509 120.392C99.8774 121.223 100.017 121.603 100.738 122.342L111.281 133.161C115.343 137.327 119.156 135.8 121.965 133.121C123.16 131.98 124.158 130.402 124.246 128.835C124.3 127.528 123.479 125.862 121.059 123.377L110.747 112.798C110.025 112.057 109.647 111.906 108.786 112.501L106.943 113.745L105.244 112L112.594 104.991L114.293 106.733L112.968 108.51C112.336 109.34 112.476 109.72 113.197 110.46L124.2 121.75Z" fill="white"/>
<path fill-rule="evenodd" clip-rule="evenodd" d="M148.545 118.794L145.816 120.098L126.438 101.366C125.357 100.286 124.443 100.494 123.454 100.83L122.074 101.307L121.01 99.1253L131.062 94.3223L132.11 96.4669L130.237 97.6353C129.49 98.0848 129.26 98.3734 129.495 98.8554C129.604 99.0762 129.823 99.3368 130.098 99.6142L145.077 114.617L141.796 94.0277C141.725 93.6957 141.654 93.3633 141.565 93.1784C141.313 92.6606 140.886 92.6385 140.028 92.9556L137.938 93.6825L136.893 91.5374L146.197 87.0898L147.262 89.2703L145.951 90.0798C145.071 90.637 144.75 91.0186 144.934 92.5268L148.545 118.794Z" fill="white"/>
<path fill-rule="evenodd" clip-rule="evenodd" d="M161.52 113.583L161.145 111.147L163.263 110.452C164.263 110.135 164.37 109.745 164.214 108.729L161.002 87.9883C160.844 86.9743 160.606 86.5115 159.559 86.544L157.346 86.6305L156.996 84.3576L178.088 81.1636L178.922 88.1806L176.297 88.5789L175.61 85.7754C175.371 84.7731 174.854 84.6841 173.869 84.8336L164.349 86.276L165.825 95.8158L175.427 94.3596L175.887 97.322L166.285 98.7777L167.957 109.574L177.517 108.125C178.504 107.976 178.97 107.74 178.895 106.712L178.67 103.631L181.419 103.214L182.777 110.362L161.52 113.583Z" fill="white"/>
<path fill-rule="evenodd" clip-rule="evenodd" d="M196.31 95.1623L199.97 95.6629C201.491 95.8699 202.812 96.0101 204.14 95.1967C205.423 94.4187 206.075 93.3482 206.4 91.03C206.909 87.3693 204.532 85.7986 200.829 85.2945L197.747 84.8735L196.31 95.1623ZM194.656 107C194.516 108.016 194.664 108.451 195.676 108.714L198.302 109.403L197.963 111.844L187.148 110.368L187.482 107.968L189.713 107.898C190.764 107.878 190.979 107.534 191.12 106.516L194.006 85.8546C194.147 84.8376 194.035 84.4482 193.028 84.1447L190.901 83.4818L191.234 81.083L202.049 82.5593C207.724 83.3348 211.226 85.5527 210.444 91.1672C209.638 96.9425 204.542 98.0278 201.9 98.0416C202.735 98.3622 203.61 99.601 204.22 100.928L207.767 108.542C208.609 110.315 209.686 111 210.715 111.142C211.167 111.204 211.934 111.1 212.191 111.053L211.675 113.262C211.312 113.462 210.035 113.909 208.308 113.673C206.087 113.369 204.881 111.507 203.974 109.599L199.674 100.182C199.252 99.2951 198.667 98.3868 197.393 98.2132L195.912 98.0111L194.656 107Z" fill="white"/>
<path fill-rule="evenodd" clip-rule="evenodd" d="M224.237 114.421C223.737 115.323 223.704 115.725 224.538 116.36L226.287 117.728L225.112 119.854L216.006 114.936L217.181 112.81L219.292 113.528C220.281 113.875 220.607 113.63 221.102 112.729L231.226 94.3902C231.724 93.4878 231.817 92.9778 230.967 92.3774L229.191 91.1371L230.365 89.0112L236.486 92.3174L238.383 119.63L247.472 103.163C247.97 102.263 248.098 101.772 247.248 101.171L245.474 99.9329L246.648 97.807L255.645 102.667L254.473 104.791L252.459 103.985C251.488 103.601 251.102 103.955 250.605 104.857L238.372 127.015L235.167 125.284L233.306 97.9904L224.237 114.421Z" fill="white"/>
<path fill-rule="evenodd" clip-rule="evenodd" d="M264.701 139.228C259.393 144.252 253.511 142.034 249.922 138.324C245.33 133.58 245.616 128.705 250.266 124.306L261.721 113.462C262.471 112.752 262.625 112.378 262.028 111.523L260.778 109.695L262.548 108.021L269.722 115.437L267.951 117.111L266.16 115.793C265.325 115.167 264.939 115.303 264.189 116.012L253.213 126.402C248.985 130.406 250.516 134.185 253.213 136.972C254.36 138.159 255.953 139.153 257.536 139.245C258.857 139.303 260.547 138.497 263.067 136.113L273.802 125.95C274.552 125.24 274.708 124.866 274.111 124.013L272.86 122.184L274.628 120.509L281.687 127.806L279.918 129.481L278.126 128.165C277.29 127.538 276.905 127.674 276.155 128.384L264.701 139.228Z" fill="white"/>
<path fill-rule="evenodd" clip-rule="evenodd" d="M261.608 151.552L263.792 150.458L265.12 152.232C265.737 153.072 266.145 153.053 267.071 152.589L285.875 143.159C286.799 142.695 287.058 142.381 286.738 141.392L286.075 139.285L288.259 138.188L293.065 147.564L290.879 148.658L289.44 146.665C288.822 145.823 288.413 145.843 287.487 146.308L267.462 156.35L271.197 163.637C271.648 164.517 272.02 164.882 272.984 164.491L275.872 163.318L277.128 165.77L270.691 169.275L261.608 151.552Z" fill="white"/>
<path fill-rule="evenodd" clip-rule="evenodd" d="M90.2063 240.57L91.8495 243.961C92.5308 245.371 93.1608 246.572 94.6218 247.24C96.0247 247.886 97.3251 247.833 99.52 246.793C102.988 245.15 102.999 242.239 101.339 238.809L99.955 235.952L90.2063 240.57ZM78.9955 245.881C78.0335 246.338 77.7396 246.712 78.0851 247.718L78.9767 250.342L76.6651 251.437L71.8115 241.412L74.0849 240.336L75.4095 242.192C76.026 243.072 76.4457 243.06 77.4097 242.604L96.9798 233.33C97.9438 232.873 98.2167 232.558 97.9093 231.531L97.2778 229.346L99.5506 228.27L104.404 238.293C106.95 243.553 107.013 247.788 101.694 250.306C96.2251 252.898 92.3919 249.186 90.8821 246.949C91.0747 247.841 90.4964 249.287 89.691 250.559L85.0951 257.892C84.0339 259.612 84.0492 260.916 84.5112 261.869C84.7133 262.289 85.2382 262.882 85.427 263.074L83.2151 263.888C82.837 263.693 81.7246 262.86 80.9495 261.262C79.952 259.202 80.8846 257.121 82.026 255.269L87.7593 246.274C88.2901 245.413 88.7462 244.4 88.1758 243.219L87.5096 241.846L78.9955 245.881Z" fill="white"/>
<path fill-rule="evenodd" clip-rule="evenodd" d="M113.688 261.76C111.422 261.918 107.237 264.775 104.529 267.474C99.1141 272.876 98.293 278.617 102.843 283.078C104.817 285.014 106.785 286.05 109.048 285.891C111.313 285.732 115.501 282.876 118.208 280.177C123.622 274.775 124.443 269.034 119.893 264.571C117.921 262.638 115.953 261.602 113.688 261.76ZM99.5264 284.228C93.0942 277.92 95.3015 270.861 101.767 264.409C107.481 258.707 115.778 256.132 123.211 263.423C129.641 269.729 127.437 276.791 120.969 283.243C115.255 288.942 106.958 291.518 99.5264 284.228Z" fill="white"/>
<path fill-rule="evenodd" clip-rule="evenodd" d="M123.933 304.071L124.865 301.754L127.109 302.226C128.166 302.46 128.371 302.177 128.844 301.225L138.433 281.35C138.73 280.605 138.54 280.167 137.713 279.704L135.746 278.658L136.675 276.342L144.615 279.461L143.237 305.562L159.504 285.308L167.92 288.616L166.989 290.934L164.672 290.296C163.712 290.053 163.283 290.204 162.937 291.068L156.358 312.034C156.042 313.047 155.995 313.393 156.925 313.938L159.126 315.213L158.196 317.531L148.031 313.538L148.962 311.22L151.201 311.828C152.121 312.052 152.557 311.769 152.856 311.024L159.492 290.26L142.275 311.277L139.456 310.168L140.674 282.869L131.647 302.6C131.356 303.44 131.436 303.927 132.303 304.404L134.312 305.465L133.383 307.782L123.933 304.071Z" fill="white"/>
<path fill-rule="evenodd" clip-rule="evenodd" d="M184.879 292.443L184.425 294.35L180.371 306.296L189.601 306.228L185.364 294.342L184.879 292.443ZM186.801 283.841L191.714 288.557L190.1 289.692L185.194 285.993L180.401 289.753L178.724 288.637L183.594 283.86L186.801 283.841ZM183.27 288.822L187.246 288.792L196.584 314.416C197.107 315.892 197.578 316.144 198.649 316.346L200.318 316.629L200.336 319.123L189.357 319.204L189.339 316.795L191.685 316.397C192.454 316.264 192.792 315.925 192.788 315.375C192.786 315.122 192.742 314.869 192.611 314.531L190.691 309.179L179.367 309.264L177.611 314.516C177.487 314.855 177.447 315.151 177.449 315.406C177.453 316.038 177.84 316.374 178.611 316.495L180.921 316.858L180.938 319.266L170.686 319.341L170.665 316.85L172.285 316.542C173.354 316.323 173.778 316.066 174.28 314.583L183.27 288.822Z" fill="white"/>
<path fill-rule="evenodd" clip-rule="evenodd" d="M221.498 309.436C221.889 310.419 222.187 310.712 223.244 310.484L225.492 310.02L226.413 312.342L216.471 316.199L215.549 313.876L217.517 312.706C218.45 312.164 218.467 311.747 218.078 310.763L210.14 290.738C209.749 289.754 209.403 289.345 208.361 289.613L206.2 290.179L205.28 287.856L211.961 285.264L235.005 301.835L227.876 283.856C227.487 282.875 227.18 282.447 226.138 282.716L223.977 283.282L223.057 280.962L232.881 277.15L233.801 279.47L231.827 280.509C230.878 281.013 230.907 281.547 231.297 282.53L240.891 306.725L237.39 308.083L214.385 291.497L221.498 309.436Z" fill="white"/>
<path fill-rule="evenodd" clip-rule="evenodd" d="M265.006 290.072L256.639 296.638L255.072 294.686L256.608 292.994C257.337 292.207 257.232 291.803 256.568 290.976L243.076 274.16C242.414 273.333 242.04 273.138 241.097 273.663L239.085 274.758L237.519 272.806L245.884 266.238L247.451 268.19L245.916 269.882C245.185 270.671 245.292 271.073 245.955 271.9L259.446 288.716C260.11 289.543 260.483 289.736 261.426 289.211L263.439 288.117L265.006 290.072Z" fill="white"/>
<path fill-rule="evenodd" clip-rule="evenodd" d="M276.147 279.699L274.092 278.187L275.133 276.163C275.632 275.213 275.426 274.851 274.569 274.22L257.051 261.341C256.194 260.712 255.68 260.544 254.94 261.316L253.384 262.963L251.464 261.552L264.561 244.12L270.306 248.658L268.674 250.829L266.122 249.268C265.214 248.705 264.771 249.011 264.16 249.827L258.248 257.693L266.305 263.616L272.268 255.683L274.769 257.522L268.808 265.456L277.926 272.161L283.864 264.259C284.476 263.446 284.644 262.938 283.839 262.24L281.418 260.146L283.127 257.875L289.348 262.132L276.147 279.699Z" fill="white"/>
<path fill-rule="evenodd" clip-rule="evenodd" d="M299.783 239.265L295.825 249.077L293.485 248.153L293.966 245.931C294.203 244.887 293.911 244.589 292.918 244.198L272.764 236.241C271.771 235.848 271.352 235.865 270.797 236.783L269.6 238.722L267.26 237.798L271.218 227.987L273.559 228.91L273.077 231.132C272.841 232.174 273.135 232.473 274.124 232.865L294.28 240.822C295.271 241.215 295.693 241.198 296.246 240.281L297.441 238.34L299.783 239.265Z" fill="white"/>
</g>
<defs>
<clipPath id="clip0_231_560">
<rect width="277" height="274" fill="white" transform="translate(47 63)"/>
</clipPath>
</defs>
</svg>
