<svg width="1270" height="400" viewBox="0 0 1270 400" fill="none" xmlns="http://www.w3.org/2000/svg">
<rect width="1270" height="400" fill="white"/>
<path d="M273.533 295.843C249.773 318.781 217.438 332.892 181.805 332.892C146.172 332.892 113.837 318.781 90.0771 295.843H273.533ZM299.71 260.405C295.648 268.427 290.789 275.979 285.24 282.957H78.3704C72.8212 275.979 67.9631 268.427 63.8998 260.405H299.71ZM311.685 224.967C310.246 232.744 308.128 240.283 305.393 247.519H58.218C55.4817 240.283 53.3635 232.744 51.9257 224.967H311.685ZM313.415 189.53C313.729 193.247 313.892 197.007 313.892 200.805C313.892 204.603 313.729 208.364 313.415 212.081H50.1954C49.8811 208.364 49.7188 204.603 49.7188 200.805C49.7188 197.007 49.8811 193.247 50.1954 189.53H313.415ZM305.393 154.092C308.128 161.327 310.246 168.866 311.685 176.643H51.9257C53.3635 168.866 55.4817 161.327 58.218 154.092H305.393ZM285.24 118.654C290.789 125.631 295.648 133.183 299.71 141.205H63.8998C67.9631 133.183 72.8212 125.631 78.3704 118.654H285.24ZM181.805 68.7188C217.438 68.7188 249.773 82.8303 273.533 105.767H90.0771C113.837 82.8303 146.172 68.7188 181.805 68.7188Z" fill="#FCED00"/>
<path d="M145.677 150.305C145.544 149.813 145.37 149.232 145.15 148.573C144.422 146.389 143.269 143.482 141.828 140.36L141.821 140.348L141.815 140.333C139.611 135.314 138.14 131.385 137.343 128.611C136.948 127.236 136.698 126.07 136.627 125.168C136.592 124.724 136.592 124.249 136.69 123.807C136.781 123.395 137.03 122.704 137.746 122.309C138.491 121.899 139.228 122.086 139.644 122.265C140.071 122.449 140.454 122.742 140.778 123.033C141.441 123.626 142.195 124.525 143.02 125.663C144.687 127.962 146.847 131.514 149.418 136.33L149.421 136.338C150.947 139.23 152.47 141.872 153.663 143.781C154.059 144.415 154.413 144.958 154.714 145.397C154.903 145.02 155.114 144.548 155.334 143.978C156.07 142.066 156.841 139.346 157.542 136.228C158.947 129.987 160.018 122.405 160.018 116.966C160.018 109.11 158.79 102.486 156.02 96.2814C153.245 90.0667 148.881 84.1818 142.484 77.864L142.476 77.8577C138.791 74.1731 131.57 68.8932 124.675 64.5057C121.243 62.3216 117.936 60.3857 115.243 59.0031C113.894 58.3108 112.723 57.7705 111.782 57.4064C111.337 57.2342 110.979 57.1191 110.702 57.0415C110.617 57.2195 110.522 57.4358 110.418 57.6896C110.006 58.7012 109.542 60.1274 109.151 61.6915L109.146 61.7072L109.143 61.7229L108.815 62.9641C102.146 89.054 107.987 115.65 123.711 133.088L123.712 133.086C127.509 137.278 133.216 142.113 138.206 145.701C140.702 147.494 142.968 148.942 144.687 149.831C145.054 150.021 145.385 150.177 145.677 150.305Z" fill="#0C7942"/>
<path d="M145.677 150.305C145.544 149.813 145.37 149.232 145.15 148.573C144.422 146.389 143.269 143.482 141.828 140.36L141.821 140.348L141.815 140.333C139.611 135.314 138.14 131.385 137.343 128.611C136.948 127.236 136.698 126.07 136.627 125.168C136.592 124.724 136.592 124.249 136.69 123.807C136.781 123.395 137.03 122.704 137.746 122.309C138.491 121.899 139.228 122.086 139.644 122.265C140.071 122.449 140.454 122.742 140.778 123.033C141.441 123.626 142.195 124.525 143.02 125.663C144.687 127.962 146.847 131.514 149.418 136.33L149.421 136.338C150.947 139.23 152.47 141.872 153.663 143.781C154.059 144.415 154.413 144.958 154.714 145.397C154.903 145.02 155.114 144.548 155.334 143.978C156.07 142.066 156.841 139.346 157.542 136.228C158.947 129.987 160.018 122.405 160.018 116.966C160.018 109.11 158.79 102.486 156.02 96.2814C153.245 90.0667 148.881 84.1818 142.484 77.864L142.476 77.8577C138.791 74.1731 131.57 68.8932 124.675 64.5057C121.243 62.3216 117.936 60.3857 115.243 59.0031C113.894 58.3108 112.723 57.7705 111.782 57.4064C111.337 57.2342 110.979 57.1191 110.702 57.0415C110.617 57.2195 110.522 57.4358 110.418 57.6896C110.006 58.7012 109.542 60.1274 109.151 61.6915L109.146 61.7072L109.143 61.7229L108.815 62.9641C102.146 89.054 107.987 115.65 123.711 133.088L123.712 133.086C127.509 137.278 133.216 142.113 138.206 145.701C140.702 147.494 142.968 148.942 144.687 149.831C145.054 150.021 145.385 150.177 145.677 150.305Z" fill="url(#paint0_linear_230_384)" fill-opacity="0.2"/>
<path d="M145.677 150.305C145.544 149.813 145.37 149.232 145.15 148.573C144.422 146.389 143.269 143.482 141.828 140.36L141.821 140.348L141.815 140.333C139.611 135.314 138.14 131.385 137.343 128.611C136.948 127.236 136.698 126.07 136.627 125.168C136.592 124.724 136.592 124.249 136.69 123.807C136.781 123.395 137.03 122.704 137.746 122.309C138.491 121.899 139.228 122.086 139.644 122.265C140.071 122.449 140.454 122.742 140.778 123.033C141.441 123.626 142.195 124.525 143.02 125.663C144.687 127.962 146.847 131.514 149.418 136.33L149.421 136.338C150.947 139.23 152.47 141.872 153.663 143.781C154.059 144.415 154.413 144.958 154.714 145.397C154.903 145.02 155.114 144.548 155.334 143.978C156.07 142.066 156.841 139.346 157.542 136.228C158.947 129.987 160.018 122.405 160.018 116.966C160.018 109.11 158.79 102.486 156.02 96.2814C153.245 90.0667 148.881 84.1818 142.484 77.864L142.476 77.8577C138.791 74.1731 131.57 68.8932 124.675 64.5057C121.243 62.3216 117.936 60.3857 115.243 59.0031C113.894 58.3108 112.723 57.7705 111.782 57.4064C111.337 57.2342 110.979 57.1191 110.702 57.0415C110.617 57.2195 110.522 57.4358 110.418 57.6896C110.006 58.7012 109.542 60.1274 109.151 61.6915L109.146 61.7072L109.143 61.7229L108.815 62.9641C102.146 89.054 107.987 115.65 123.711 133.088L123.712 133.086C127.509 137.278 133.216 142.113 138.206 145.701C140.702 147.494 142.968 148.942 144.687 149.831C145.054 150.021 145.385 150.177 145.677 150.305Z" stroke="white" stroke-width="2"/>
<path d="M203.752 198.828C207.076 195.029 211.852 188.018 214.211 182.982L214.223 182.957L214.236 182.933C216.238 179.009 217.293 176.452 217.881 173.251C218.479 169.989 218.604 165.995 218.604 159.16C218.604 152.504 218.438 148.455 217.837 145.101C217.245 141.794 216.217 139.101 214.376 135.178C212.425 131.044 208.417 125.154 204.495 120.266C202.541 117.831 200.644 115.69 199.08 114.173C198.293 113.412 197.623 112.841 197.097 112.472C196.931 112.354 196.787 112.27 196.675 112.206C196.398 112.421 196.025 112.749 195.579 113.186C194.659 114.087 193.525 115.337 192.419 116.679C180.66 132.279 174.174 155.996 177.012 173.344C177.8 178.149 179.547 183.999 181.689 189.422C183.718 194.562 186.051 199.193 188.175 202.144C188.256 201.644 188.344 201.027 188.431 200.27C188.628 198.566 188.828 196.282 189.071 193.286C189.56 186.611 190.299 181.478 191.201 178.386C191.429 177.605 191.68 176.911 191.959 176.336C192.224 175.792 192.584 175.207 193.099 174.797C193.701 174.318 194.56 174.067 195.449 174.445C196.122 174.731 196.57 175.29 196.873 175.774C197.119 176.123 197.263 176.539 197.343 176.798C197.453 177.155 197.559 177.586 197.659 178.065C197.86 179.027 198.065 180.288 198.26 181.747C198.649 184.665 199.018 188.466 199.263 192.463L200.098 202.963L203.752 198.828Z" fill="#0C7942"/>
<path d="M203.752 198.828C207.076 195.029 211.852 188.018 214.211 182.982L214.223 182.957L214.236 182.933C216.238 179.009 217.293 176.452 217.881 173.251C218.479 169.989 218.604 165.995 218.604 159.16C218.604 152.504 218.438 148.455 217.837 145.101C217.245 141.794 216.217 139.101 214.376 135.178C212.425 131.044 208.417 125.154 204.495 120.266C202.541 117.831 200.644 115.69 199.08 114.173C198.293 113.412 197.623 112.841 197.097 112.472C196.931 112.354 196.787 112.27 196.675 112.206C196.398 112.421 196.025 112.749 195.579 113.186C194.659 114.087 193.525 115.337 192.419 116.679C180.66 132.279 174.174 155.996 177.012 173.344C177.8 178.149 179.547 183.999 181.689 189.422C183.718 194.562 186.051 199.193 188.175 202.144C188.256 201.644 188.344 201.027 188.431 200.27C188.628 198.566 188.828 196.282 189.071 193.286C189.56 186.611 190.299 181.478 191.201 178.386C191.429 177.605 191.68 176.911 191.959 176.336C192.224 175.792 192.584 175.207 193.099 174.797C193.701 174.318 194.56 174.067 195.449 174.445C196.122 174.731 196.57 175.29 196.873 175.774C197.119 176.123 197.263 176.539 197.343 176.798C197.453 177.155 197.559 177.586 197.659 178.065C197.86 179.027 198.065 180.288 198.26 181.747C198.649 184.665 199.018 188.466 199.263 192.463L200.098 202.963L203.752 198.828Z" fill="url(#paint1_linear_230_384)" fill-opacity="0.2"/>
<path d="M203.752 198.828C207.076 195.029 211.852 188.018 214.211 182.982L214.223 182.957L214.236 182.933C216.238 179.009 217.293 176.452 217.881 173.251C218.479 169.989 218.604 165.995 218.604 159.16C218.604 152.504 218.438 148.455 217.837 145.101C217.245 141.794 216.217 139.101 214.376 135.178C212.425 131.044 208.417 125.154 204.495 120.266C202.541 117.831 200.644 115.69 199.08 114.173C198.293 113.412 197.623 112.841 197.097 112.472C196.931 112.354 196.787 112.27 196.675 112.206C196.398 112.421 196.025 112.749 195.579 113.186C194.659 114.087 193.525 115.337 192.419 116.679C180.66 132.279 174.174 155.996 177.012 173.344C177.8 178.149 179.547 183.999 181.689 189.422C183.718 194.562 186.051 199.193 188.175 202.144C188.256 201.644 188.344 201.027 188.431 200.27C188.628 198.566 188.828 196.282 189.071 193.286C189.56 186.611 190.299 181.478 191.201 178.386C191.429 177.605 191.68 176.911 191.959 176.336C192.224 175.792 192.584 175.207 193.099 174.797C193.701 174.318 194.56 174.067 195.449 174.445C196.122 174.731 196.57 175.29 196.873 175.774C197.119 176.123 197.263 176.539 197.343 176.798C197.453 177.155 197.559 177.586 197.659 178.065C197.86 179.027 198.065 180.288 198.26 181.747C198.649 184.665 199.018 188.466 199.263 192.463L200.098 202.963L203.752 198.828Z" stroke="white" stroke-width="2"/>
<path d="M162.981 244.892C162.652 244.247 162.038 243.331 161.048 242.155C158.756 239.437 155.936 234.988 153.703 230.89C152.581 228.833 151.587 226.825 150.869 225.128C150.51 224.283 150.209 223.492 149.997 222.798C149.795 222.137 149.632 221.44 149.632 220.828C149.632 220.241 149.71 219.591 150 219.009C150.323 218.36 150.885 217.854 151.65 217.661C152.333 217.487 153.008 217.606 153.562 217.785C154.133 217.968 154.732 218.27 155.344 218.64C157.744 220.093 161.237 223.191 165.852 227.804C168.52 230.473 171.022 232.894 172.893 234.645C173.312 235.037 173.699 235.393 174.046 235.71C174.074 234.539 174.047 233.038 173.958 231.341C173.738 227.176 173.176 222.023 172.383 218.062L172.38 218.041C168.896 199.353 156.37 182.266 140.455 174.23L139.561 173.783C135.068 171.575 129.887 169.589 125.017 168.128C119.789 166.559 115.059 165.639 111.97 165.639C110.831 165.639 110.207 165.668 109.805 165.77C109.541 165.837 109.527 165.888 109.48 165.977C109.354 166.217 109.208 166.74 109.126 167.906C109.047 169.033 109.036 170.547 109.036 172.63C109.036 191.011 117.943 212.194 131.454 225.863L131.459 225.868C135.195 229.682 142.586 234.789 149.59 238.806C153.074 240.803 156.403 242.498 159.066 243.606C160.401 244.162 161.528 244.555 162.401 244.769C162.618 244.822 162.811 244.863 162.981 244.892Z" fill="#0C7942"/>
<path d="M162.981 244.892C162.652 244.247 162.038 243.331 161.048 242.155C158.756 239.437 155.936 234.988 153.703 230.89C152.581 228.833 151.587 226.825 150.869 225.128C150.51 224.283 150.209 223.492 149.997 222.798C149.795 222.137 149.632 221.44 149.632 220.828C149.632 220.241 149.71 219.591 150 219.009C150.323 218.36 150.885 217.854 151.65 217.661C152.333 217.487 153.008 217.606 153.562 217.785C154.133 217.968 154.732 218.27 155.344 218.64C157.744 220.093 161.237 223.191 165.852 227.804C168.52 230.473 171.022 232.894 172.893 234.645C173.312 235.037 173.699 235.393 174.046 235.71C174.074 234.539 174.047 233.038 173.958 231.341C173.738 227.176 173.176 222.023 172.383 218.062L172.38 218.041C168.896 199.353 156.37 182.266 140.455 174.23L139.561 173.783C135.068 171.575 129.887 169.589 125.017 168.128C119.789 166.559 115.059 165.639 111.97 165.639C110.831 165.639 110.207 165.668 109.805 165.77C109.541 165.837 109.527 165.888 109.48 165.977C109.354 166.217 109.208 166.74 109.126 167.906C109.047 169.033 109.036 170.547 109.036 172.63C109.036 191.011 117.943 212.194 131.454 225.863L131.459 225.868C135.195 229.682 142.586 234.789 149.59 238.806C153.074 240.803 156.403 242.498 159.066 243.606C160.401 244.162 161.528 244.555 162.401 244.769C162.618 244.822 162.811 244.863 162.981 244.892Z" fill="url(#paint2_linear_230_384)" fill-opacity="0.2"/>
<path d="M162.981 244.892C162.652 244.247 162.038 243.331 161.048 242.155C158.756 239.437 155.936 234.988 153.703 230.89C152.581 228.833 151.587 226.825 150.869 225.128C150.51 224.283 150.209 223.492 149.997 222.798C149.795 222.137 149.632 221.44 149.632 220.828C149.632 220.241 149.71 219.591 150 219.009C150.323 218.36 150.885 217.854 151.65 217.661C152.333 217.487 153.008 217.606 153.562 217.785C154.133 217.968 154.732 218.27 155.344 218.64C157.744 220.093 161.237 223.191 165.852 227.804C168.52 230.473 171.022 232.894 172.893 234.645C173.312 235.037 173.699 235.393 174.046 235.71C174.074 234.539 174.047 233.038 173.958 231.341C173.738 227.176 173.176 222.023 172.383 218.062L172.38 218.041C168.896 199.353 156.37 182.266 140.455 174.23L139.561 173.783C135.068 171.575 129.887 169.589 125.017 168.128C119.789 166.559 115.059 165.639 111.97 165.639C110.831 165.639 110.207 165.668 109.805 165.77C109.541 165.837 109.527 165.888 109.48 165.977C109.354 166.217 109.208 166.74 109.126 167.906C109.047 169.033 109.036 170.547 109.036 172.63C109.036 191.011 117.943 212.194 131.454 225.863L131.459 225.868C135.195 229.682 142.586 234.789 149.59 238.806C153.074 240.803 156.403 242.498 159.066 243.606C160.401 244.162 161.528 244.555 162.401 244.769C162.618 244.822 162.811 244.863 162.981 244.892Z" stroke="white" stroke-width="2"/>
<path d="M217.24 286.811C217.437 286.718 217.651 286.613 217.881 286.494C219.442 285.684 221.522 284.397 223.809 282.831C228.102 279.894 232.963 276.095 236.283 272.9L236.927 272.27C251.094 257.784 257.937 236.668 255.27 215.567L255.136 214.571C254.418 209.709 253.098 204.065 251.779 199.667C251.117 197.463 250.469 195.617 249.914 194.355C249.772 194.031 249.643 193.764 249.529 193.548C249.004 193.809 248.295 194.173 247.439 194.624C245.605 195.592 243.137 196.927 240.46 198.387L240.453 198.39L239.321 199.022C233.598 202.32 227.068 207.614 221.235 213.466C215.004 219.718 209.706 226.467 207.058 231.918L207.056 231.921L206.448 233.197C200.302 246.349 198.93 258.622 202.148 272.726L202.147 272.728C202.954 276.199 203.758 279.323 204.432 281.566C204.529 281.89 204.624 282.191 204.714 282.472C205.193 281.381 205.711 279.986 206.177 278.459L206.18 278.45C207.752 273.401 210.304 267.316 212.685 262.493C213.875 260.083 215.041 257.947 216.042 256.396C216.538 255.628 217.024 254.953 217.478 254.452C217.702 254.204 217.96 253.954 218.244 253.754C218.493 253.579 218.959 253.297 219.566 253.297C220.513 253.297 221.201 253.83 221.61 254.427C221.984 254.974 222.187 255.64 222.308 256.273C222.552 257.562 222.565 259.299 222.409 261.302C222.095 265.349 221.056 270.927 219.337 277.229C218.535 280.278 217.896 283.16 217.498 285.305C217.395 285.867 217.308 286.371 217.24 286.811Z" fill="#0C7942"/>
<path d="M217.24 286.811C217.437 286.718 217.651 286.613 217.881 286.494C219.442 285.684 221.522 284.397 223.809 282.831C228.102 279.894 232.963 276.095 236.283 272.9L236.927 272.27C251.094 257.784 257.937 236.668 255.27 215.567L255.136 214.571C254.418 209.709 253.098 204.065 251.779 199.667C251.117 197.463 250.469 195.617 249.914 194.355C249.772 194.031 249.643 193.764 249.529 193.548C249.004 193.809 248.295 194.173 247.439 194.624C245.605 195.592 243.137 196.927 240.46 198.387L240.453 198.39L239.321 199.022C233.598 202.32 227.068 207.614 221.235 213.466C215.004 219.718 209.706 226.467 207.058 231.918L207.056 231.921L206.448 233.197C200.302 246.349 198.93 258.622 202.148 272.726L202.147 272.728C202.954 276.199 203.758 279.323 204.432 281.566C204.529 281.89 204.624 282.191 204.714 282.472C205.193 281.381 205.711 279.986 206.177 278.459L206.18 278.45C207.752 273.401 210.304 267.316 212.685 262.493C213.875 260.083 215.041 257.947 216.042 256.396C216.538 255.628 217.024 254.953 217.478 254.452C217.702 254.204 217.96 253.954 218.244 253.754C218.493 253.579 218.959 253.297 219.566 253.297C220.513 253.297 221.201 253.83 221.61 254.427C221.984 254.974 222.187 255.64 222.308 256.273C222.552 257.562 222.565 259.299 222.409 261.302C222.095 265.349 221.056 270.927 219.337 277.229C218.535 280.278 217.896 283.16 217.498 285.305C217.395 285.867 217.308 286.371 217.24 286.811Z" fill="url(#paint3_linear_230_384)" fill-opacity="0.2"/>
<path d="M217.24 286.811C217.437 286.718 217.651 286.613 217.881 286.494C219.442 285.684 221.522 284.397 223.809 282.831C228.102 279.894 232.963 276.095 236.283 272.9L236.927 272.27C251.094 257.784 257.937 236.668 255.27 215.567L255.136 214.571C254.418 209.709 253.098 204.065 251.779 199.667C251.117 197.463 250.469 195.617 249.914 194.355C249.772 194.031 249.643 193.764 249.529 193.548C249.004 193.809 248.295 194.173 247.439 194.624C245.605 195.592 243.137 196.927 240.46 198.387L240.453 198.39L239.321 199.022C233.598 202.32 227.068 207.614 221.235 213.466C215.004 219.718 209.706 226.467 207.058 231.918L207.056 231.921L206.448 233.197C200.302 246.349 198.93 258.622 202.148 272.726L202.147 272.728C202.954 276.199 203.758 279.323 204.432 281.566C204.529 281.89 204.624 282.191 204.714 282.472C205.193 281.381 205.711 279.986 206.177 278.459L206.18 278.45C207.752 273.401 210.304 267.316 212.685 262.493C213.875 260.083 215.041 257.947 216.042 256.396C216.538 255.628 217.024 254.953 217.478 254.452C217.702 254.204 217.96 253.954 218.244 253.754C218.493 253.579 218.959 253.297 219.566 253.297C220.513 253.297 221.201 253.83 221.61 254.427C221.984 254.974 222.187 255.64 222.308 256.273C222.552 257.562 222.565 259.299 222.409 261.302C222.095 265.349 221.056 270.927 219.337 277.229C218.535 280.278 217.896 283.16 217.498 285.305C217.395 285.867 217.308 286.371 217.24 286.811Z" stroke="white" stroke-width="2"/>
<path d="M180.373 341.933C179.815 340.319 178.832 338.034 177.552 335.476C174.173 328.796 172.204 324.474 171.583 321.79C171.285 320.505 171.168 319.097 171.905 317.997C172.711 316.795 174.078 316.59 175.098 316.59C175.845 316.59 176.544 316.919 177.074 317.232C177.651 317.573 178.269 318.04 178.902 318.588C180.172 319.688 181.65 321.23 183.218 323.056C186.361 326.716 189.98 331.653 193.184 336.827L193.182 336.829C193.223 336.895 193.265 336.953 193.302 337.011C193.559 336.225 193.815 335.012 194.052 333.282C194.318 331.334 194.548 328.831 194.75 325.725C196.017 304.803 188.752 286.596 172.685 271.166C168.867 267.503 162.854 263.571 156.461 260.344C150.463 257.317 144.282 254.987 139.447 254.068L138.514 253.907L133.489 253.173L132.555 260.786V260.789L132.401 262.102C129.394 289.621 140.209 315.418 161.775 331.676L161.776 331.674C165.767 334.628 170.2 337.384 174.04 339.393C175.961 340.398 177.711 341.205 179.166 341.756C179.646 341.938 180.077 342.083 180.459 342.199C180.431 342.115 180.404 342.025 180.373 341.933Z" fill="#0C7942"/>
<path d="M180.373 341.933C179.815 340.319 178.832 338.034 177.552 335.476C174.173 328.796 172.204 324.474 171.583 321.79C171.285 320.505 171.168 319.097 171.905 317.997C172.711 316.795 174.078 316.59 175.098 316.59C175.845 316.59 176.544 316.919 177.074 317.232C177.651 317.573 178.269 318.04 178.902 318.588C180.172 319.688 181.65 321.23 183.218 323.056C186.361 326.716 189.98 331.653 193.184 336.827L193.182 336.829C193.223 336.895 193.265 336.953 193.302 337.011C193.559 336.225 193.815 335.012 194.052 333.282C194.318 331.334 194.548 328.831 194.75 325.725C196.017 304.803 188.752 286.596 172.685 271.166C168.867 267.503 162.854 263.571 156.461 260.344C150.463 257.317 144.282 254.987 139.447 254.068L138.514 253.907L133.489 253.173L132.555 260.786V260.789L132.401 262.102C129.394 289.621 140.209 315.418 161.775 331.676L161.776 331.674C165.767 334.628 170.2 337.384 174.04 339.393C175.961 340.398 177.711 341.205 179.166 341.756C179.646 341.938 180.077 342.083 180.459 342.199C180.431 342.115 180.404 342.025 180.373 341.933Z" fill="url(#paint4_linear_230_384)" fill-opacity="0.2"/>
<path d="M180.373 341.933C179.815 340.319 178.832 338.034 177.552 335.476C174.173 328.796 172.204 324.474 171.583 321.79C171.285 320.505 171.168 319.097 171.905 317.997C172.711 316.795 174.078 316.59 175.098 316.59C175.845 316.59 176.544 316.919 177.074 317.232C177.651 317.573 178.269 318.04 178.902 318.588C180.172 319.688 181.65 321.23 183.218 323.056C186.361 326.716 189.98 331.653 193.184 336.827L193.182 336.829C193.223 336.895 193.265 336.953 193.302 337.011C193.559 336.225 193.815 335.012 194.052 333.282C194.318 331.334 194.548 328.831 194.75 325.725C196.017 304.803 188.752 286.596 172.685 271.166C168.867 267.503 162.854 263.571 156.461 260.344C150.463 257.317 144.282 254.987 139.447 254.068L138.514 253.907L133.489 253.173L132.555 260.786V260.789L132.401 262.102C129.394 289.621 140.209 315.418 161.775 331.676L161.776 331.674C165.767 334.628 170.2 337.384 174.04 339.393C175.961 340.398 177.711 341.205 179.166 341.756C179.646 341.938 180.077 342.083 180.459 342.199C180.431 342.115 180.404 342.025 180.373 341.933Z" stroke="white" stroke-width="2"/>
<path d="M374.747 129.016H369.066L379.41 99.5871H385.981L396.339 129.016H390.658L382.81 105.622H382.58L374.747 129.016ZM374.934 117.477H390.428V121.759H374.934V117.477ZM415.703 107.677C415.569 106.422 415.005 105.445 414.01 104.746C413.025 104.046 411.743 103.697 410.165 103.697C409.056 103.697 408.104 103.864 407.31 104.2C406.516 104.535 405.909 104.99 405.488 105.565C405.067 106.14 404.852 106.796 404.843 107.533C404.843 108.146 404.982 108.678 405.259 109.128C405.546 109.579 405.933 109.962 406.421 110.278C406.909 110.584 407.449 110.843 408.042 111.054C408.635 111.265 409.233 111.442 409.835 111.586L412.59 112.275C413.699 112.534 414.766 112.884 415.789 113.324C416.822 113.765 417.745 114.321 418.558 114.991C419.381 115.662 420.031 116.471 420.509 117.42C420.988 118.368 421.227 119.479 421.227 120.753C421.227 122.478 420.787 123.996 419.907 125.308C419.027 126.611 417.755 127.631 416.09 128.369C414.436 129.097 412.432 129.461 410.079 129.461C407.793 129.461 405.809 129.106 404.125 128.398C402.452 127.689 401.141 126.654 400.195 125.294C399.257 123.934 398.75 122.276 398.674 120.322H403.91C403.987 121.347 404.302 122.2 404.857 122.88C405.412 123.56 406.134 124.068 407.024 124.403C407.923 124.738 408.927 124.906 410.036 124.906C411.194 124.906 412.207 124.734 413.078 124.389C413.958 124.034 414.646 123.546 415.144 122.923C415.641 122.291 415.894 121.553 415.904 120.71C415.894 119.944 415.67 119.311 415.23 118.813C414.79 118.306 414.173 117.884 413.379 117.549C412.595 117.204 411.677 116.897 410.624 116.629L407.282 115.767C404.862 115.144 402.949 114.201 401.543 112.936C400.147 111.662 399.449 109.971 399.449 107.864C399.449 106.13 399.917 104.612 400.855 103.309C401.801 102.006 403.088 100.995 404.714 100.277C406.34 99.5487 408.181 99.1847 410.237 99.1847C412.322 99.1847 414.149 99.5487 415.718 100.277C417.295 100.995 418.534 101.996 419.433 103.28C420.332 104.554 420.796 106.02 420.825 107.677H415.703ZM452.226 114.301C452.226 117.472 451.633 120.188 450.447 122.449C449.271 124.7 447.664 126.424 445.627 127.622C443.599 128.819 441.299 129.418 438.726 129.418C436.153 129.418 433.848 128.819 431.811 127.622C429.783 126.415 428.176 124.686 426.99 122.434C425.814 120.174 425.226 117.463 425.226 114.301C425.226 111.13 425.814 108.419 426.99 106.168C428.176 103.907 429.783 102.178 431.811 100.981C433.848 99.7835 436.153 99.1847 438.726 99.1847C441.299 99.1847 443.599 99.7835 445.627 100.981C447.664 102.178 449.271 103.907 450.447 106.168C451.633 108.419 452.226 111.13 452.226 114.301ZM446.875 114.301C446.875 112.069 446.526 110.187 445.827 108.654C445.139 107.112 444.182 105.948 442.958 105.162C441.734 104.367 440.323 103.97 438.726 103.97C437.129 103.97 435.718 104.367 434.494 105.162C433.269 105.948 432.308 107.112 431.61 108.654C430.921 110.187 430.577 112.069 430.577 114.301C430.577 116.533 430.921 118.421 431.61 119.963C432.308 121.496 433.269 122.66 434.494 123.455C435.718 124.24 437.129 124.633 438.726 124.633C440.323 124.633 441.734 124.24 442.958 123.455C444.182 122.66 445.139 121.496 445.827 119.963C446.526 118.421 446.875 116.533 446.875 114.301ZM482.408 109.516H477.042C476.889 108.635 476.607 107.854 476.196 107.174C475.784 106.484 475.272 105.9 474.661 105.421C474.048 104.942 473.35 104.583 472.566 104.343C471.791 104.094 470.954 103.97 470.055 103.97C468.458 103.97 467.043 104.372 465.809 105.177C464.575 105.972 463.609 107.141 462.911 108.683C462.213 110.216 461.863 112.088 461.863 114.301C461.863 116.553 462.213 118.449 462.911 119.992C463.618 121.524 464.584 122.684 465.809 123.469C467.043 124.245 468.453 124.633 470.041 124.633C470.921 124.633 471.743 124.518 472.508 124.288C473.283 124.049 473.977 123.699 474.589 123.239C475.21 122.779 475.731 122.214 476.152 121.544C476.583 120.873 476.879 120.107 477.042 119.244L482.408 119.273C482.207 120.672 481.772 121.984 481.102 123.21C480.442 124.437 479.576 125.519 478.505 126.458C477.434 127.387 476.181 128.115 474.746 128.642C473.312 129.159 471.719 129.418 469.969 129.418C467.387 129.418 465.082 128.819 463.054 127.622C461.026 126.424 459.429 124.695 458.262 122.434C457.095 120.174 456.512 117.463 456.512 114.301C456.512 111.13 457.1 108.419 458.276 106.168C459.453 103.907 461.055 102.178 463.083 100.981C465.11 99.7835 467.406 99.1847 469.969 99.1847C471.605 99.1847 473.125 99.4146 474.531 99.8744C475.937 100.334 477.19 101.01 478.29 101.901C479.39 102.782 480.294 103.864 481.001 105.148C481.719 106.422 482.188 107.878 482.408 109.516ZM492.604 99.5871V129.016H487.282V99.5871H492.604ZM502.141 129.016H496.46L506.804 99.5871H513.375L523.733 129.016H518.052L510.204 105.622H509.975L502.141 129.016ZM502.328 117.477H517.822V121.759H502.328V117.477ZM522.761 104.056V99.5871H546.203V104.056H537.122V129.016H531.842V104.056H522.761ZM530.307 138.557L532.029 131.343H536.964L534.052 138.557H530.307ZM556.045 99.5871V129.016H550.722V99.5871H556.045ZM565.582 129.016H559.901L570.245 99.5871H576.815L587.173 129.016H581.492L573.645 105.622H573.415L565.582 129.016ZM565.768 117.477H581.263V121.759H565.768V117.477ZM620.748 108.985C620.509 108.209 620.179 107.514 619.758 106.901C619.347 106.278 618.85 105.747 618.266 105.306C617.692 104.865 617.032 104.535 616.286 104.315C615.54 104.085 614.727 103.97 613.847 103.97C612.27 103.97 610.863 104.367 609.63 105.162C608.396 105.957 607.425 107.126 606.717 108.669C606.019 110.201 605.67 112.069 605.67 114.273C605.67 116.495 606.019 118.377 606.717 119.92C607.415 121.462 608.386 122.636 609.63 123.44C610.873 124.235 612.317 124.633 613.962 124.633C615.454 124.633 616.745 124.346 617.836 123.771C618.936 123.196 619.782 122.382 620.375 121.328C620.968 120.265 621.265 119.019 621.265 117.592L622.47 117.779H614.493V113.612H626.415V117.146C626.415 119.666 625.88 121.845 624.808 123.685C623.737 125.524 622.264 126.942 620.39 127.938C618.515 128.925 616.363 129.418 613.934 129.418C611.227 129.418 608.85 128.81 606.803 127.593C604.766 126.367 603.174 124.628 602.026 122.377C600.888 120.116 600.319 117.434 600.319 114.33C600.319 111.954 600.653 109.832 601.323 107.964C602.002 106.096 602.949 104.511 604.163 103.208C605.378 101.896 606.803 100.899 608.439 100.219C610.074 99.5296 611.853 99.1847 613.776 99.1847C615.402 99.1847 616.918 99.4242 618.324 99.9032C619.73 100.373 620.978 101.043 622.068 101.915C623.168 102.787 624.072 103.821 624.78 105.019C625.487 106.216 625.951 107.538 626.171 108.985H620.748ZM631.562 129.016V99.5871H642.58C644.837 99.5871 646.731 99.9798 648.262 100.765C649.801 101.551 650.963 102.653 651.748 104.07C652.541 105.479 652.938 107.121 652.938 108.999C652.938 110.886 652.537 112.524 651.733 113.913C650.939 115.293 649.768 116.361 648.218 117.118C646.669 117.865 644.765 118.239 642.509 118.239H634.661V113.813H641.791C643.111 113.813 644.192 113.631 645.034 113.267C645.875 112.893 646.497 112.352 646.899 111.643C647.31 110.925 647.515 110.043 647.515 108.999C647.515 107.955 647.31 107.064 646.899 106.326C646.487 105.579 645.861 105.014 645.019 104.631C644.177 104.238 643.092 104.042 641.762 104.042H636.885V129.016H631.562ZM646.741 115.681L654.014 129.016H648.075L640.93 115.681H646.741ZM676.359 99.5871H681.682V118.813C681.682 120.921 681.185 122.775 680.19 124.374C679.205 125.974 677.818 127.224 676.029 128.125C674.241 129.016 672.151 129.461 669.76 129.461C667.359 129.461 665.264 129.016 663.476 128.125C661.688 127.224 660.301 125.974 659.315 124.374C658.33 122.775 657.838 120.921 657.838 118.813V99.5871H663.16V118.368C663.16 119.594 663.428 120.686 663.964 121.644C664.509 122.602 665.274 123.354 666.259 123.9C667.244 124.437 668.411 124.705 669.76 124.705C671.108 124.705 672.275 124.437 673.26 123.9C674.255 123.354 675.02 122.602 675.556 121.644C676.091 120.686 676.359 119.594 676.359 118.368V99.5871ZM687.467 129.016V99.5871H698.485C700.742 99.5871 702.636 100.009 704.166 100.852C705.706 101.695 706.868 102.854 707.653 104.329C708.447 105.795 708.844 107.461 708.844 109.33C708.844 111.217 708.447 112.893 707.653 114.359C706.859 115.824 705.687 116.979 704.138 117.822C702.589 118.655 700.68 119.072 698.413 119.072H691.111V114.689H697.696C699.016 114.689 700.097 114.459 700.938 114C701.78 113.54 702.402 112.907 702.803 112.103C703.215 111.298 703.42 110.374 703.42 109.33C703.42 108.285 703.215 107.366 702.803 106.571C702.402 105.775 701.775 105.158 700.924 104.717C700.083 104.267 698.997 104.042 697.667 104.042H692.79V129.016H687.467ZM733.443 129.016H723.486V99.5871H733.645C736.561 99.5871 739.07 100.176 741.163 101.354C743.268 102.523 744.884 104.204 746.011 106.398C747.139 108.592 747.704 111.217 747.704 114.273C747.704 117.338 747.135 119.972 745.996 122.176C744.869 124.379 743.238 126.07 741.104 127.248C738.982 128.426 736.429 129.016 733.443 129.016ZM728.812 124.403H733.186C735.232 124.403 736.94 124.029 738.309 123.282C739.676 122.525 740.704 121.4 741.391 119.905C742.081 118.401 742.427 116.524 742.427 114.273C742.427 112.021 742.081 110.153 741.391 108.669C740.704 107.174 739.687 106.058 738.335 105.32C736.998 104.573 735.335 104.2 733.344 104.2H728.812V124.403ZM752.762 129.016V99.5871H771.871V104.056H758.083V112.045H770.883V116.514H758.083V124.547H771.985V129.016H752.762ZM791.098 129.016H785.416L795.758 99.5871H802.329L812.686 129.016H807.008L799.159 105.622H798.928L791.098 129.016ZM791.281 117.477H806.776V121.759H791.281V117.477ZM840.327 109.516H834.961C834.807 108.635 834.524 107.854 834.113 107.174C833.701 106.484 833.191 105.9 832.581 105.421C831.968 104.942 831.27 104.583 830.484 104.343C829.709 104.094 828.872 103.97 827.975 103.97C826.378 103.97 824.96 104.372 823.726 105.177C822.492 105.972 821.526 107.141 820.828 108.683C820.13 110.216 819.782 112.088 819.782 114.301C819.782 116.553 820.13 118.449 820.828 119.992C821.537 121.524 822.503 122.684 823.726 123.469C824.96 124.245 826.37 124.633 827.961 124.633C828.839 124.633 829.661 124.518 830.429 124.288C831.204 124.049 831.894 123.699 832.508 123.239C833.128 122.779 833.65 122.214 834.072 121.544C834.502 120.873 834.799 120.107 834.961 119.244L840.327 119.273C840.125 120.672 839.691 121.984 839.019 123.21C838.362 124.437 837.495 125.519 836.423 126.458C835.354 127.387 834.102 128.115 832.666 128.642C831.229 129.159 829.639 129.418 827.887 129.418C825.305 129.418 822.999 128.819 820.972 127.622C818.944 126.424 817.347 124.695 816.182 122.434C815.014 120.174 814.43 117.463 814.43 114.301C814.43 111.13 815.018 108.419 816.197 106.168C817.372 103.907 818.974 102.178 821.001 100.981C823.028 99.7835 825.324 99.1847 827.887 99.1847C829.522 99.1847 831.046 99.4146 832.449 99.8744C833.855 100.334 835.108 101.01 836.21 101.901C837.308 102.782 838.211 103.864 838.92 105.148C839.636 106.422 840.106 107.878 840.327 109.516ZM843.908 104.056V99.5871H867.351V104.056H858.272V129.016H852.99V104.056H843.908ZM851.455 138.557L853.178 131.343H858.114L855.201 138.557H851.455ZM877.194 99.5871V129.016H871.872V99.5871H877.194ZM901.478 99.5871H906.799V118.813C906.799 120.921 906.304 122.775 905.308 124.374C904.324 125.974 902.936 127.224 901.147 128.125C899.359 129.016 897.269 129.461 894.878 129.461C892.48 129.461 890.382 129.016 888.594 128.125C886.805 127.224 885.421 125.974 884.436 124.374C883.448 122.775 882.956 120.921 882.956 118.813V99.5871H888.282V118.368C888.282 119.594 888.546 120.686 889.082 121.644C889.629 122.602 890.393 123.354 891.378 123.9C892.366 124.437 893.53 124.705 894.878 124.705C896.229 124.705 897.394 124.437 898.382 123.9C899.373 123.354 900.141 122.602 900.677 121.644C901.21 120.686 901.478 119.594 901.478 118.368V99.5871ZM936.732 99.5871V129.016H931.998L918.152 108.97H917.909V129.016H912.588V99.5871H917.351L931.179 119.647H931.44V99.5871H936.732ZM942.531 129.016V99.5871H961.641V104.056H947.853V112.045H960.653V116.514H947.853V124.547H961.755V129.016H942.531ZM977.092 129.016V99.5871H982.414V124.547H995.356V129.016H977.092ZM1025.09 114.301C1025.09 117.472 1024.49 120.188 1023.31 122.449C1022.13 124.7 1020.52 126.424 1018.49 127.622C1016.46 128.819 1014.16 129.418 1011.59 129.418C1009.01 129.418 1006.71 128.819 1004.67 127.622C1002.64 126.415 1001.03 124.686 999.848 122.434C998.673 120.174 998.085 117.463 998.085 114.301C998.085 111.13 998.673 108.419 999.848 106.168C1001.03 103.907 1002.64 102.178 1004.67 100.981C1006.71 99.7835 1009.01 99.1847 1011.59 99.1847C1014.16 99.1847 1016.46 99.7835 1018.49 100.981C1020.52 102.178 1022.13 103.907 1023.31 106.168C1024.49 108.419 1025.09 111.13 1025.09 114.301ZM1019.74 114.301C1019.74 112.069 1019.38 110.187 1018.69 108.654C1018 107.112 1017.04 105.948 1015.82 105.162C1014.59 104.367 1013.18 103.97 1011.59 103.97C1009.99 103.97 1008.58 104.367 1007.35 105.162C1006.13 105.948 1005.17 107.112 1004.47 108.654C1003.78 110.187 1003.44 112.069 1003.44 114.301C1003.44 116.533 1003.78 118.421 1004.47 119.963C1005.17 121.496 1006.13 122.66 1007.35 123.455C1008.58 124.24 1009.99 124.633 1011.59 124.633C1013.18 124.633 1014.59 124.24 1015.82 123.455C1017.04 122.66 1018 121.496 1018.69 119.963C1019.38 118.421 1019.74 116.533 1019.74 114.301ZM1055.27 109.516H1049.9C1049.75 108.635 1049.47 107.854 1049.06 107.174C1048.64 106.484 1048.13 105.9 1047.52 105.421C1046.91 104.942 1046.21 104.583 1045.43 104.343C1044.65 104.094 1043.81 103.97 1042.91 103.97C1041.32 103.97 1039.9 104.372 1038.67 105.177C1037.43 105.972 1036.47 107.141 1035.77 108.683C1035.07 110.216 1034.72 112.088 1034.72 114.301C1034.72 116.553 1035.07 118.449 1035.77 119.992C1036.48 121.524 1037.44 122.684 1038.67 123.469C1039.9 124.245 1041.31 124.633 1042.9 124.633C1043.78 124.633 1044.6 124.518 1045.37 124.288C1046.14 124.049 1046.84 123.699 1047.45 123.239C1048.07 122.779 1048.59 122.214 1049.01 121.544C1049.44 120.873 1049.74 120.107 1049.9 119.244L1055.27 119.273C1055.07 120.672 1054.63 121.984 1053.96 123.21C1053.3 124.437 1052.43 125.519 1051.37 126.458C1050.29 127.387 1049.04 128.115 1047.6 128.642C1046.17 129.159 1044.58 129.418 1042.83 129.418C1040.24 129.418 1037.94 128.819 1035.91 127.622C1033.89 126.424 1032.29 124.695 1031.12 122.434C1029.95 120.174 1029.37 117.463 1029.37 114.301C1029.37 111.13 1029.96 108.419 1031.14 106.168C1032.31 103.907 1033.92 102.178 1035.94 100.981C1037.97 99.7835 1040.27 99.1847 1042.83 99.1847C1044.46 99.1847 1045.98 99.4146 1047.39 99.8744C1048.8 100.334 1050.05 101.01 1051.15 101.901C1052.25 102.782 1053.15 103.864 1053.86 105.148C1054.58 106.422 1055.05 107.878 1055.27 109.516ZM1063.56 129.016H1057.88L1068.22 99.5871H1074.79L1085.15 129.016H1079.47L1071.62 105.622H1071.39L1063.56 129.016ZM1063.75 117.477H1079.24V121.759H1063.75V117.477ZM1089.02 129.016V99.5871H1094.34V124.547H1107.28V129.016H1089.02ZM1116.78 129.016H1111.1L1121.44 99.5871H1128.02L1138.37 129.016H1132.69L1124.85 105.622H1124.61L1116.78 129.016ZM1116.97 117.477H1132.46V121.759H1116.97V117.477ZM1127.57 92H1131.46C1131.46 93.6764 1130.85 95.0367 1129.63 96.0809C1128.43 97.1155 1126.8 97.6328 1124.73 97.6328C1122.68 97.6328 1121.05 97.1155 1119.84 96.0809C1118.63 95.0367 1118.03 93.6764 1118.04 92H1121.9C1121.9 92.6897 1122.11 93.3076 1122.54 93.8537C1122.97 94.3901 1123.7 94.6583 1124.73 94.6583C1125.74 94.6583 1126.47 94.3901 1126.9 93.8537C1127.34 93.3172 1127.56 92.6993 1127.57 92ZM414.479 181.848H404.723C404.445 180.246 403.932 178.826 403.184 177.589C402.436 176.335 401.506 175.273 400.393 174.402C399.28 173.531 398.011 172.878 396.585 172.443C395.176 171.99 393.654 171.763 392.02 171.763C389.116 171.763 386.542 172.495 384.299 173.958C382.056 175.404 380.299 177.529 379.03 180.333C377.76 183.12 377.126 186.525 377.126 190.548C377.126 194.641 377.76 198.09 379.03 200.894C380.317 203.681 382.073 205.789 384.299 207.217C386.542 208.627 389.107 209.333 391.994 209.333C393.594 209.333 395.089 209.124 396.481 208.706C397.889 208.27 399.15 207.635 400.263 206.799C401.393 205.963 402.341 204.935 403.106 203.716C403.889 202.497 404.428 201.103 404.723 199.536L414.479 199.588C414.114 202.131 413.323 204.517 412.105 206.746C410.905 208.976 409.332 210.944 407.384 212.651C405.436 214.34 403.158 215.664 400.55 216.622C397.941 217.563 395.046 218.033 391.864 218.033C387.168 218.033 382.977 216.944 379.291 214.767C375.604 212.59 372.7 209.446 370.578 205.336C368.457 201.225 367.396 196.296 367.396 190.548C367.396 184.783 368.466 179.854 370.604 175.761C372.743 171.65 375.656 168.506 379.343 166.329C383.03 164.152 387.203 163.063 391.864 163.063C394.837 163.063 397.602 163.481 400.159 164.317C402.715 165.154 404.993 166.381 406.993 168.001C408.993 169.604 410.636 171.572 411.923 173.906C413.227 176.222 414.079 178.87 414.479 181.848ZM471.076 190.548C471.076 196.313 469.998 201.251 467.842 205.362C465.703 209.455 462.781 212.59 459.077 214.767C455.391 216.944 451.208 218.033 446.53 218.033C441.853 218.033 437.662 216.944 433.958 214.767C430.271 212.573 427.35 209.428 425.193 205.336C423.054 201.225 421.985 196.296 421.985 190.548C421.985 184.783 423.054 179.854 425.193 175.761C427.35 171.65 430.271 168.506 433.958 166.329C437.662 164.152 441.853 163.063 446.53 163.063C451.208 163.063 455.391 164.152 459.077 166.329C462.781 168.506 465.703 171.65 467.842 175.761C469.998 179.854 471.076 184.783 471.076 190.548ZM461.347 190.548C461.347 186.49 460.712 183.067 459.443 180.281C458.191 177.476 456.452 175.36 454.225 173.932C452 172.486 449.435 171.763 446.53 171.763C443.626 171.763 441.061 172.486 438.836 173.932C436.61 175.36 434.862 177.476 433.592 180.281C432.34 183.067 431.715 186.49 431.715 190.548C431.715 194.606 432.34 198.038 433.592 200.842C434.862 203.628 436.61 205.745 438.836 207.19C441.061 208.619 443.626 209.333 446.53 209.333C449.435 209.333 452 208.619 454.225 207.19C456.452 205.745 458.191 203.628 459.443 200.842C460.712 198.038 461.347 194.606 461.347 190.548ZM524.126 163.795V217.301H515.518L490.346 180.855H489.903V217.301H480.225V163.795H488.886L514.031 200.267H514.501V163.795H524.126ZM563.703 178.504C563.46 176.222 562.434 174.446 560.625 173.174C558.834 171.903 556.504 171.267 553.634 171.267C551.617 171.267 549.887 171.572 548.443 172.181C547 172.791 545.896 173.618 545.131 174.663C544.366 175.708 543.974 176.901 543.957 178.243C543.957 179.357 544.209 180.324 544.713 181.143C545.235 181.961 545.939 182.658 546.826 183.233C547.713 183.79 548.696 184.26 549.774 184.644C550.852 185.027 551.939 185.349 553.034 185.61L558.043 186.864C560.06 187.335 561.999 187.97 563.86 188.771C565.738 189.573 567.416 190.583 568.894 191.802C570.389 193.021 571.572 194.493 572.441 196.218C573.311 197.942 573.746 199.962 573.746 202.279C573.746 205.414 572.946 208.174 571.346 210.561C569.746 212.93 567.433 214.784 564.407 216.126C561.399 217.449 557.756 218.111 553.478 218.111C549.322 218.111 545.713 217.467 542.653 216.178C539.609 214.889 537.227 213.008 535.506 210.535C533.801 208.062 532.88 205.048 532.741 201.495H542.261C542.401 203.359 542.974 204.909 543.983 206.145C544.992 207.382 546.304 208.305 547.922 208.915C549.557 209.524 551.382 209.829 553.4 209.829C555.504 209.829 557.347 209.516 558.929 208.889C560.529 208.244 561.782 207.356 562.686 206.224C563.59 205.074 564.051 203.733 564.068 202.2C564.051 200.807 563.642 199.657 562.842 198.752C562.042 197.828 560.921 197.062 559.477 196.453C558.051 195.825 556.382 195.268 554.469 194.78L548.391 193.213C543.992 192.081 540.514 190.365 537.957 188.066C535.418 185.75 534.149 182.675 534.149 178.844C534.149 175.691 535.001 172.93 536.705 170.561C538.427 168.193 540.766 166.355 543.722 165.049C546.678 163.725 550.026 163.063 553.765 163.063C557.556 163.063 560.877 163.725 563.729 165.049C566.598 166.355 568.851 168.175 570.485 170.509C572.12 172.826 572.963 175.491 573.015 178.504H563.703ZM580.026 171.92V163.795H622.648V171.92H606.136V217.301H596.537V171.92H580.026ZM631.269 217.301H620.939L639.747 163.795H651.693L670.526 217.301H660.197L645.929 174.768H645.511L631.269 217.301ZM631.608 196.322H659.78V204.108H631.608V196.322ZM721.463 163.795V217.301H712.856L687.684 180.855H687.24V217.301H677.563V163.795H686.223L711.369 200.267H711.838V163.795H721.463ZM729.66 171.92V163.795H772.282V171.92H755.77V217.301H746.173V171.92H729.66ZM743.382 234.649L746.511 221.534H755.483L750.191 234.649H743.382ZM780.906 217.301H770.574L789.382 163.795H801.33L820.16 217.301H809.832L795.564 174.768H795.145L780.906 217.301ZM781.244 196.322H809.413V204.108H781.244V196.322ZM891.143 181.848H881.388C881.109 180.246 880.598 178.826 879.849 177.589C879.103 176.335 878.171 175.273 877.058 174.402C875.945 173.531 874.678 172.878 873.249 172.443C871.842 171.99 870.322 171.763 868.684 171.763C865.782 171.763 863.208 172.495 860.964 173.958C858.72 175.404 856.964 177.529 855.693 180.333C854.426 183.12 853.791 186.525 853.791 190.548C853.791 194.641 854.426 198.09 855.693 200.894C856.983 203.681 858.738 205.789 860.964 207.217C863.208 208.627 865.771 209.333 868.658 209.333C870.259 209.333 871.754 209.124 873.146 208.706C874.553 208.27 875.816 207.635 876.929 206.799C878.06 205.963 879.008 204.935 879.772 203.716C880.554 202.497 881.094 201.103 881.388 199.536L891.143 199.588C890.779 202.131 889.989 204.517 888.77 206.746C887.569 208.976 885.997 210.944 884.051 212.651C882.1 214.34 879.823 215.664 877.216 216.622C874.608 217.563 871.71 218.033 868.53 218.033C863.832 218.033 859.642 216.944 855.958 214.767C852.271 212.59 849.365 209.446 847.243 205.336C845.123 201.225 844.062 196.296 844.062 190.548C844.062 184.783 845.131 179.854 847.268 175.761C849.409 171.65 852.322 168.506 856.009 166.329C859.697 164.152 863.869 163.063 868.53 163.063C871.501 163.063 874.266 163.481 876.823 164.317C879.379 165.154 881.66 166.381 883.658 168.001C885.659 169.604 887.301 171.572 888.586 173.906C889.894 176.222 890.746 178.87 891.143 181.848ZM900.005 217.301V163.795H934.753V171.92H909.683V186.446H932.953V194.571H909.683V209.176H934.962V217.301H900.005ZM988.525 163.795V217.301H979.916L954.747 180.855H954.303V217.301H944.625V163.795H953.285L978.429 200.267H978.899V163.795H988.525ZM996.723 171.92V163.795H1039.34V171.92H1022.83V217.301H1013.24V171.92H996.723ZM1047.56 217.301V163.795H1067.6C1071.7 163.795 1075.14 164.509 1077.92 165.937C1080.73 167.365 1082.84 169.368 1084.26 171.946C1085.71 174.507 1086.43 177.494 1086.43 180.907C1086.43 184.339 1085.7 187.317 1084.24 189.843C1082.79 192.351 1080.66 194.293 1077.85 195.669C1075.03 197.027 1071.57 197.707 1067.46 197.707H1053.19V189.66H1066.16C1068.56 189.66 1070.53 189.329 1072.05 188.667C1073.59 187.988 1074.72 187.004 1075.45 185.715C1076.19 184.408 1076.57 182.806 1076.57 180.907C1076.57 179.009 1076.19 177.389 1075.45 176.048C1074.7 174.69 1073.56 173.662 1072.03 172.965C1070.5 172.251 1068.52 171.894 1066.11 171.894H1057.24V217.301H1047.56ZM1075.16 193.056L1088.38 217.301H1077.58L1064.59 193.056H1075.16ZM1129.01 163.795H1138.69V198.752C1138.69 202.584 1137.78 205.954 1135.97 208.863C1134.19 211.771 1131.66 214.044 1128.41 215.682C1125.16 217.301 1121.36 218.111 1117.01 218.111C1112.65 218.111 1108.84 217.301 1105.59 215.682C1102.34 214.044 1099.81 211.771 1098.02 208.863C1096.23 205.954 1095.34 202.584 1095.34 198.752V163.795H1105.01V197.942C1105.01 200.171 1105.5 202.157 1106.47 203.898C1107.47 205.64 1108.85 207.008 1110.65 208C1112.44 208.976 1114.56 209.463 1117.01 209.463C1119.47 209.463 1121.58 208.976 1123.38 208C1125.18 207.008 1126.58 205.64 1127.55 203.898C1128.53 202.157 1129.01 200.171 1129.01 197.942V163.795ZM373.222 254.417C373.039 252.706 372.27 251.374 370.913 250.42C369.57 249.467 367.822 248.99 365.67 248.99C364.157 248.99 362.86 249.218 361.777 249.676C360.695 250.133 359.867 250.753 359.293 251.537C358.719 252.321 358.425 253.216 358.412 254.222C358.412 255.057 358.601 255.783 358.98 256.396C359.371 257.01 359.899 257.533 360.564 257.964C361.229 258.382 361.966 258.735 362.775 259.022C363.584 259.31 364.399 259.551 365.22 259.747L368.977 260.688C370.49 261.041 371.944 261.517 373.339 262.118C374.748 262.719 376.006 263.477 377.115 264.391C378.237 265.306 379.124 266.41 379.776 267.703C380.428 268.996 380.754 270.511 380.754 272.249C380.754 274.6 380.154 276.671 378.954 278.46C377.754 280.237 376.019 281.628 373.75 282.634C371.494 283.627 368.761 284.123 365.553 284.123C362.436 284.123 359.73 283.64 357.434 282.673C355.152 281.707 353.365 280.295 352.074 278.441C350.796 276.586 350.104 274.326 350 271.661H357.141C357.245 273.059 357.675 274.221 358.432 275.149C359.188 276.076 360.173 276.768 361.386 277.226C362.612 277.683 363.981 277.912 365.494 277.912C367.072 277.912 368.455 277.676 369.642 277.206C370.842 276.723 371.781 276.057 372.459 275.208C373.137 274.345 373.483 273.34 373.496 272.19C373.483 271.145 373.176 270.283 372.576 269.603C371.976 268.911 371.135 268.336 370.053 267.879C368.983 267.409 367.731 266.991 366.296 266.625L361.738 265.449C358.438 264.6 355.83 263.314 353.913 261.589C352.009 259.852 351.056 257.546 351.056 254.672C351.056 252.308 351.696 250.237 352.974 248.461C354.265 246.684 356.019 245.306 358.236 244.326C360.453 243.333 362.964 242.837 365.768 242.837C368.611 242.837 371.103 243.333 373.241 244.326C375.393 245.306 377.082 246.671 378.308 248.422C379.534 250.159 380.167 252.158 380.206 254.417H373.222ZM412.481 243.386H419.739V269.603C419.739 272.477 419.061 275.005 417.705 277.187C416.361 279.368 414.47 281.073 412.031 282.301C409.592 283.516 406.742 284.123 403.482 284.123C400.208 284.123 397.352 283.516 394.913 282.301C392.474 281.073 390.583 279.368 389.24 277.187C387.896 275.005 387.225 272.477 387.225 269.603V243.386H394.483V268.996C394.483 270.668 394.848 272.157 395.578 273.464C396.322 274.77 397.365 275.795 398.708 276.54C400.052 277.272 401.643 277.637 403.482 277.637C405.321 277.637 406.912 277.272 408.255 276.54C409.612 275.795 410.655 274.77 411.385 273.464C412.116 272.157 412.481 270.668 412.481 268.996V243.386ZM449.402 254.417C449.22 252.706 448.45 251.374 447.094 250.42C445.75 249.467 444.003 248.99 441.851 248.99C440.338 248.99 439.04 249.218 437.957 249.676C436.875 250.133 436.047 250.753 435.473 251.537C434.899 252.321 434.606 253.216 434.593 254.222C434.593 255.057 434.782 255.783 435.16 256.396C435.551 257.01 436.08 257.533 436.745 257.964C437.41 258.382 438.147 258.735 438.955 259.022C439.764 259.31 440.579 259.551 441.401 259.747L445.157 260.688C446.67 261.041 448.124 261.517 449.52 262.118C450.928 262.719 452.187 263.477 453.296 264.391C454.417 265.306 455.304 266.41 455.956 267.703C456.608 268.996 456.934 270.511 456.934 272.249C456.934 274.6 456.334 276.671 455.134 278.46C453.935 280.237 452.2 281.628 449.931 282.634C447.674 283.627 444.942 284.123 441.733 284.123C438.616 284.123 435.91 283.64 433.614 282.673C431.332 281.707 429.545 280.295 428.254 278.441C426.976 276.586 426.285 274.326 426.181 271.661H433.321C433.425 273.059 433.856 274.221 434.612 275.149C435.369 276.076 436.354 276.768 437.566 277.226C438.792 277.683 440.162 277.912 441.675 277.912C443.253 277.912 444.635 277.676 445.822 277.206C447.022 276.723 447.961 276.057 448.639 275.208C449.318 274.345 449.663 273.34 449.676 272.19C449.663 271.145 449.357 270.283 448.757 269.603C448.157 268.911 447.316 268.336 446.233 267.879C445.163 267.409 443.911 266.991 442.477 266.625L437.919 265.449C434.619 264.6 432.01 263.314 430.093 261.589C428.189 259.852 427.237 257.546 427.237 254.672C427.237 252.308 427.876 250.237 429.154 248.461C430.445 246.684 432.199 245.306 434.417 244.326C436.634 243.333 439.145 242.837 441.949 242.837C444.792 242.837 447.283 243.333 449.422 244.326C451.574 245.306 453.263 246.671 454.489 248.422C455.715 250.159 456.347 252.158 456.387 254.417H449.402ZM461.644 249.48V243.386H493.611V249.48H481.227V283.516H474.028V249.48H461.644ZM471.935 296.526L474.282 286.69H481.012L477.041 296.526H471.935ZM507.032 243.386V283.516H499.774V243.386H507.032ZM547.817 243.386V283.516H541.361L522.482 256.181H522.149V283.516H514.891V243.386H521.386L540.246 270.74H540.598V243.386H547.817ZM555.725 283.516V243.386H581.784V249.48H562.983V260.374H580.434V266.468H562.983V277.422H581.941V283.516H555.725ZM589.189 243.386H598.07L609.965 272.464H610.435L622.329 243.386H631.211V283.516H624.247V255.946H623.875L612.802 283.398H607.598L596.525 255.887H596.153V283.516H589.189V243.386ZM674.554 254.417C674.372 252.706 673.602 251.374 672.246 250.42C670.902 249.467 669.155 248.99 667.003 248.99C665.49 248.99 664.192 249.218 663.11 249.676C662.027 250.133 661.199 250.753 660.625 251.537C660.051 252.321 659.758 253.216 659.745 254.222C659.745 255.057 659.934 255.783 660.312 256.396C660.703 257.01 661.231 257.533 661.897 257.964C662.562 258.382 663.298 258.735 664.107 259.022C664.916 259.31 665.731 259.551 666.553 259.747L670.309 260.688C671.822 261.041 673.276 261.517 674.671 262.118C676.08 262.719 677.339 263.477 678.447 264.391C679.569 265.306 680.456 266.41 681.108 267.703C681.76 268.996 682.086 270.511 682.086 272.249C682.086 274.6 681.486 276.671 680.286 278.46C679.086 280.237 677.352 281.628 675.082 282.634C672.826 283.627 670.094 284.123 666.885 284.123C663.768 284.123 661.062 283.64 658.766 282.673C656.484 281.707 654.697 280.295 653.406 278.441C652.128 276.586 651.437 274.326 651.332 271.661H658.473C658.577 273.059 659.008 274.221 659.764 275.149C660.521 276.076 661.505 276.768 662.718 277.226C663.944 277.683 665.314 277.912 666.826 277.912C668.405 277.912 669.787 277.676 670.974 277.206C672.174 276.723 673.113 276.057 673.791 275.208C674.469 274.345 674.815 273.34 674.828 272.19C674.815 271.145 674.508 270.283 673.909 269.603C673.308 268.911 672.467 268.336 671.385 267.879C670.316 267.409 669.063 266.991 667.629 266.625L663.07 265.449C659.771 264.6 657.162 263.314 655.245 261.589C653.341 259.852 652.389 257.546 652.389 254.672C652.389 252.308 653.028 250.237 654.306 248.461C655.597 246.684 657.351 245.306 659.568 244.326C661.786 243.333 664.296 242.837 667.1 242.837C669.943 242.837 672.435 243.333 674.574 244.326C676.726 245.306 678.415 246.671 679.641 248.422C680.867 250.159 681.499 252.158 681.538 254.417H674.554ZM693.056 283.516H685.309L699.415 243.386H708.375L722.498 283.516H714.752L704.051 251.615H703.738L693.056 283.516ZM693.311 267.781H714.439V273.62H693.311V267.781ZM721.173 249.48V243.386H753.14V249.48H740.755V283.516H733.557V249.48H721.173ZM784.56 243.386H791.817V269.603C791.817 272.477 791.138 275.005 789.783 277.187C788.439 279.368 786.547 281.073 784.108 282.301C781.67 283.516 778.82 284.123 775.562 284.123C772.286 284.123 769.432 283.516 766.993 282.301C764.551 281.073 762.663 279.368 761.319 277.187C759.975 275.005 759.303 272.477 759.303 269.603V243.386H766.56V268.996C766.56 270.668 766.927 272.157 767.658 273.464C768.4 274.77 769.443 275.795 770.787 276.54C772.132 277.272 773.722 277.637 775.562 277.637C777.398 277.637 778.992 277.272 780.333 276.54C781.692 275.795 782.735 274.77 783.466 273.464C784.197 272.157 784.56 270.668 784.56 268.996V243.386ZM799.706 283.516V243.386H806.964V277.422H824.611V283.516H799.706ZM844.576 283.516V243.386H859.601C862.679 243.386 865.261 243.921 867.347 244.993C869.448 246.064 871.031 247.566 872.103 249.499C873.183 251.42 873.727 253.66 873.727 256.22C873.727 258.794 873.179 261.027 872.081 262.922C871.001 264.803 869.404 266.259 867.288 267.291C865.176 268.31 862.58 268.82 859.502 268.82H848.8V262.784H858.525C860.325 262.784 861.798 262.536 862.947 262.04C864.093 261.53 864.941 260.792 865.489 259.826C866.051 258.846 866.33 257.644 866.33 256.22C866.33 254.796 866.051 253.582 865.489 252.576C864.927 251.557 864.075 250.786 862.925 250.264C861.779 249.728 860.299 249.46 858.485 249.46H851.833V283.516H844.576ZM865.276 265.332L875.192 283.516H867.094L857.35 265.332H865.276ZM916.209 263.451C916.209 267.775 915.397 271.478 913.781 274.561C912.176 277.631 909.987 279.982 907.207 281.615C904.445 283.248 901.305 284.064 897.798 284.064C894.29 284.064 891.146 283.248 888.37 281.615C885.604 279.969 883.412 277.611 881.796 274.541C880.191 271.458 879.39 267.761 879.39 263.451C879.39 259.127 880.191 255.43 881.796 252.36C883.412 249.277 885.604 246.919 888.37 245.286C891.146 243.654 894.29 242.837 897.798 242.837C901.305 242.837 904.445 243.654 907.207 245.286C909.987 246.919 912.176 249.277 913.781 252.36C915.397 255.43 916.209 259.127 916.209 263.451ZM908.911 263.451C908.911 260.407 908.434 257.84 907.483 255.75C906.542 253.647 905.239 252.06 903.571 250.989C901.9 249.904 899.976 249.362 897.798 249.362C895.62 249.362 893.695 249.904 892.028 250.989C890.357 252.06 889.046 253.647 888.094 255.75C887.158 257.84 886.688 260.407 886.688 263.451C886.688 266.495 887.158 269.068 888.094 271.171C889.046 273.261 890.357 274.848 892.028 275.933C893.695 277.004 895.62 277.539 897.798 277.539C899.976 277.539 901.9 277.004 903.571 275.933C905.239 274.848 906.542 273.261 907.483 271.171C908.434 269.068 908.911 266.495 908.911 263.451ZM923.07 243.386H931.95L943.846 272.464H944.316L956.209 243.386H965.093V283.516H958.126V255.946H957.755L946.682 283.398H941.477L930.408 255.887H930.033V283.516H923.07V243.386ZM978.142 283.516H970.393L984.5 243.386H993.458L1007.58 283.516H999.837L989.135 251.615H988.822L978.142 283.516ZM978.396 267.781H999.525V273.62H978.396V267.781ZM992.951 239.78L988.98 234.764L985.007 239.78H978.807V239.506L986.222 231.041H991.757L999.154 239.506V239.78H992.951ZM1045.79 243.386V283.516H1039.33L1020.45 256.181H1020.12V283.516H1012.86V243.386H1019.36L1038.22 270.74H1038.57V243.386H1045.79ZM1053.69 283.516V243.386H1079.76V249.48H1060.95V260.374H1078.4V266.468H1060.95V277.422H1079.91V283.516H1053.69ZM1108.93 254.417C1108.75 252.706 1107.98 251.374 1106.63 250.42C1105.28 249.467 1103.53 248.99 1101.38 248.99C1099.87 248.99 1098.57 249.218 1097.49 249.676C1096.4 250.133 1095.58 250.753 1095 251.537C1094.43 252.321 1094.14 253.216 1094.12 254.222C1094.12 255.057 1094.31 255.783 1094.69 256.396C1095.08 257.01 1095.61 257.533 1096.28 257.964C1096.94 258.382 1097.68 258.735 1098.49 259.022C1099.29 259.31 1100.11 259.551 1100.93 259.747L1104.69 260.688C1106.2 261.041 1107.65 261.517 1109.05 262.118C1110.46 262.719 1111.72 263.477 1112.82 264.391C1113.95 265.306 1114.83 266.41 1115.49 267.703C1116.14 268.996 1116.46 270.511 1116.46 272.249C1116.46 274.6 1115.87 276.671 1114.66 278.46C1113.46 280.237 1111.73 281.628 1109.46 282.634C1107.21 283.627 1104.47 284.123 1101.26 284.123C1098.15 284.123 1095.44 283.64 1093.15 282.673C1090.86 281.707 1089.08 280.295 1087.78 278.441C1086.51 276.586 1085.82 274.326 1085.71 271.661H1092.85C1092.96 273.059 1093.39 274.221 1094.14 275.149C1094.9 276.076 1095.88 276.768 1097.1 277.226C1098.32 277.683 1099.69 277.912 1101.2 277.912C1102.78 277.912 1104.16 277.676 1105.35 277.206C1106.55 276.723 1107.49 276.057 1108.17 275.208C1108.85 274.345 1109.19 273.34 1109.21 272.19C1109.19 271.145 1108.89 270.283 1108.29 269.603C1107.69 268.911 1106.85 268.336 1105.76 267.879C1104.69 267.409 1103.44 266.991 1102.01 266.625L1097.45 265.449C1094.15 264.6 1091.54 263.314 1089.62 261.589C1087.72 259.852 1086.77 257.546 1086.77 254.672C1086.77 252.308 1087.41 250.237 1088.68 248.461C1089.98 246.684 1091.73 245.306 1093.95 244.326C1096.17 243.333 1098.67 242.837 1101.48 242.837C1104.32 242.837 1106.81 243.333 1108.95 244.326C1111.11 245.306 1112.79 246.671 1114.02 248.422C1115.25 250.159 1115.88 252.158 1115.92 254.417H1108.93ZM1157.23 256.926H1149.91C1149.71 255.724 1149.32 254.659 1148.76 253.732C1148.2 252.791 1147.5 251.994 1146.67 251.341C1145.83 250.688 1144.88 250.198 1143.81 249.871C1142.75 249.532 1141.61 249.362 1140.38 249.362C1138.21 249.362 1136.28 249.911 1134.6 251.008C1132.91 252.092 1131.6 253.686 1130.64 255.789C1129.69 257.879 1129.22 260.433 1129.22 263.451C1129.22 266.521 1129.69 269.107 1130.64 271.21C1131.61 273.3 1132.93 274.881 1134.6 275.952C1136.28 277.01 1138.2 277.539 1140.37 277.539C1141.57 277.539 1142.69 277.382 1143.73 277.069C1144.79 276.742 1145.73 276.266 1146.57 275.639C1147.41 275.012 1148.13 274.241 1148.7 273.326C1149.29 272.412 1149.69 271.367 1149.91 270.191L1157.23 270.23C1156.96 272.138 1156.36 273.927 1155.45 275.599C1154.55 277.272 1153.37 278.747 1151.91 280.028C1150.45 281.295 1148.74 282.288 1146.78 283.006C1144.83 283.712 1142.65 284.064 1140.27 284.064C1136.75 284.064 1133.61 283.248 1130.84 281.615C1128.07 279.982 1125.9 277.624 1124.31 274.541C1122.72 271.458 1121.92 267.761 1121.92 263.451C1121.92 259.127 1122.72 255.43 1124.32 252.36C1125.93 249.277 1128.11 246.919 1130.88 245.286C1133.64 243.654 1136.77 242.837 1140.27 242.837C1142.5 242.837 1144.57 243.151 1146.49 243.777C1148.41 244.405 1150.12 245.326 1151.62 246.54C1153.11 247.742 1154.35 249.218 1155.31 250.969C1156.29 252.706 1156.93 254.692 1157.23 256.926Z" fill="#575757"/>
<defs>
<linearGradient id="paint0_linear_230_384" x1="105.357" y1="52.5019" x2="144.364" y2="155.047" gradientUnits="userSpaceOnUse">
<stop/>
<stop offset="1" stop-opacity="0"/>
</linearGradient>
<linearGradient id="paint1_linear_230_384" x1="175.432" y1="107.698" x2="220.608" y2="202.848" gradientUnits="userSpaceOnUse">
<stop/>
<stop offset="1" stop-opacity="0"/>
</linearGradient>
<linearGradient id="paint2_linear_230_384" x1="108.465" y1="161.652" x2="133.658" y2="254.658" gradientUnits="userSpaceOnUse">
<stop/>
<stop offset="1" stop-opacity="0"/>
</linearGradient>
<linearGradient id="paint3_linear_230_384" x1="199.745" y1="188.813" x2="238.219" y2="292.222" gradientUnits="userSpaceOnUse">
<stop/>
<stop offset="1" stop-opacity="0"/>
</linearGradient>
<linearGradient id="paint4_linear_230_384" x1="131.305" y1="248.666" x2="163.401" y2="350.869" gradientUnits="userSpaceOnUse">
<stop/>
<stop offset="1" stop-opacity="0"/>
</linearGradient>
</defs>
</svg>
