<svg width="1270" height="400" viewBox="0 0 1270 400" fill="none" xmlns="http://www.w3.org/2000/svg">
<rect width="1270" height="400" fill="white"/>
<path fill-rule="evenodd" clip-rule="evenodd" d="M459.803 156.369C459.803 159.062 459.388 161.429 458.545 163.493C457.714 165.57 456.494 167.306 454.882 168.717C453.283 170.139 451.321 171.208 448.991 171.951C446.663 172.693 443.919 173.059 440.76 173.059H436.77V188.276C436.77 188.528 436.694 188.742 436.531 188.943C436.368 189.133 436.103 189.295 435.738 189.422C435.373 189.548 434.882 189.635 434.265 189.712C433.661 189.787 432.868 189.824 431.924 189.824C430.993 189.824 430.213 189.787 429.583 189.712C428.954 189.635 428.463 189.535 428.098 189.422C427.732 189.295 427.469 189.133 427.33 188.943C427.179 188.742 427.104 188.515 427.104 188.276V145.343C427.104 144.185 427.406 143.317 428.01 142.738C428.614 142.159 429.406 141.869 430.389 141.869H441.641C442.774 141.869 443.857 141.907 444.875 141.995C445.896 142.083 447.116 142.272 448.551 142.549C449.974 142.838 451.421 143.354 452.881 144.122C454.341 144.877 455.6 145.846 456.631 147.017C457.664 148.188 458.457 149.547 458.998 151.121C459.539 152.681 459.803 154.43 459.803 156.369ZM449.684 157.074C449.684 155.4 449.382 154.015 448.79 152.932C448.199 151.851 447.468 151.045 446.601 150.528C445.732 150.013 444.825 149.686 443.882 149.547C442.925 149.408 441.944 149.345 440.924 149.345H436.77V165.582H441.15C442.711 165.582 444.008 165.369 445.065 164.953C446.11 164.538 446.978 163.946 447.645 163.19C448.312 162.448 448.815 161.543 449.168 160.498C449.508 159.452 449.684 158.307 449.684 157.074ZM476.054 188.351C476.054 188.591 475.979 188.805 475.827 188.994C475.689 189.183 475.437 189.334 475.072 189.459C474.72 189.573 474.241 189.673 473.662 189.737C473.071 189.799 472.315 189.824 471.409 189.824C470.503 189.824 469.748 189.801 469.156 189.737C468.577 189.673 468.098 189.573 467.746 189.459C467.381 189.334 467.13 189.183 466.991 188.994C466.84 188.805 466.765 188.591 466.765 188.351V139.83C466.765 139.578 466.84 139.365 466.991 139.164C467.13 138.975 467.381 138.799 467.746 138.672C468.098 138.533 468.577 138.433 469.156 138.357C469.748 138.282 470.503 138.245 471.409 138.245C472.315 138.245 473.071 138.282 473.662 138.357C474.241 138.433 474.72 138.533 475.072 138.672C475.437 138.799 475.689 138.975 475.827 139.164C475.979 139.365 476.054 139.578 476.054 139.83V188.351ZM513.334 188.465C513.334 188.805 513.209 189.069 512.969 189.27C512.718 189.472 512.328 189.61 511.799 189.699C511.27 189.787 510.49 189.824 509.446 189.824C508.338 189.824 507.532 189.787 507.029 189.699C506.526 189.61 506.161 189.472 505.959 189.27C505.745 189.069 505.644 188.805 505.644 188.465V185.847C504.285 187.295 502.75 188.415 501.012 189.22C499.288 190.026 497.363 190.428 495.247 190.428C493.511 190.428 491.899 190.202 490.44 189.749C488.98 189.295 487.721 188.616 486.651 187.723C485.582 186.816 484.75 185.709 484.159 184.387C483.568 183.053 483.278 181.505 483.278 179.743C483.278 177.817 483.655 176.155 484.398 174.745C485.153 173.324 486.273 172.166 487.758 171.234C489.244 170.315 491.082 169.636 493.297 169.195C495.5 168.754 498.067 168.528 500.987 168.528H504.196V166.539C504.196 165.507 504.096 164.601 503.883 163.821C503.681 163.053 503.329 162.398 502.85 161.882C502.372 161.366 501.742 160.989 500.937 160.736C500.144 160.498 499.149 160.371 497.979 160.371C496.431 160.371 495.046 160.548 493.838 160.887C492.617 161.228 491.548 161.618 490.616 162.033C489.685 162.448 488.904 162.838 488.275 163.178C487.646 163.518 487.142 163.694 486.752 163.694C486.475 163.694 486.235 163.607 486.034 163.443C485.821 163.267 485.644 163.014 485.518 162.701C485.379 162.385 485.279 161.983 485.204 161.516C485.128 161.051 485.09 160.535 485.09 159.981C485.09 159.213 485.153 158.61 485.279 158.168C485.393 157.728 485.632 157.338 485.972 156.973C486.324 156.62 486.916 156.23 487.783 155.803C488.64 155.374 489.646 154.972 490.805 154.606C491.963 154.229 493.222 153.927 494.581 153.7C495.953 153.461 497.363 153.348 498.809 153.348C501.39 153.348 503.593 153.6 505.43 154.104C507.256 154.606 508.766 155.388 509.936 156.432C511.119 157.477 511.988 158.823 512.529 160.473C513.071 162.109 513.334 164.072 513.334 166.325V188.465ZM504.196 174.343H500.659C499.162 174.343 497.891 174.456 496.834 174.67C495.776 174.896 494.921 175.224 494.253 175.677C493.586 176.118 493.108 176.647 492.806 177.276C492.492 177.905 492.34 178.622 492.34 179.427C492.34 180.812 492.781 181.895 493.649 182.675C494.517 183.468 495.726 183.858 497.274 183.858C498.57 183.858 499.767 183.531 500.861 182.864C501.956 182.196 503.064 181.228 504.196 179.944V174.343ZM554.015 188.351C554.015 188.591 553.939 188.805 553.788 188.994C553.65 189.183 553.398 189.334 553.058 189.459C552.707 189.573 552.228 189.673 551.624 189.737C551.02 189.799 550.277 189.824 549.396 189.824C548.477 189.824 547.722 189.801 547.118 189.737C546.513 189.673 546.035 189.573 545.683 189.459C545.343 189.334 545.091 189.183 544.953 188.994C544.802 188.805 544.726 188.591 544.726 188.351V169.586C544.726 167.986 544.613 166.727 544.374 165.821C544.148 164.903 543.807 164.122 543.366 163.481C542.926 162.826 542.347 162.323 541.655 161.958C540.951 161.605 540.144 161.429 539.213 161.429C538.03 161.429 536.847 161.857 535.638 162.726C534.443 163.581 533.184 164.84 531.888 166.476V188.351C531.888 188.591 531.813 188.805 531.661 188.994C531.523 189.183 531.271 189.334 530.906 189.459C530.554 189.573 530.075 189.673 529.496 189.737C528.905 189.799 528.149 189.824 527.243 189.824C526.337 189.824 525.582 189.801 524.99 189.737C524.411 189.673 523.933 189.573 523.58 189.459C523.215 189.334 522.964 189.183 522.825 188.994C522.675 188.805 522.599 188.591 522.599 188.351V155.425C522.599 155.185 522.661 154.972 522.787 154.783C522.901 154.594 523.127 154.443 523.443 154.318C523.769 154.204 524.172 154.104 524.675 154.04C525.179 153.978 525.821 153.952 526.576 153.952C527.369 153.952 528.011 153.979 528.527 154.04C529.043 154.104 529.446 154.204 529.735 154.318C530.012 154.443 530.214 154.594 530.34 154.783C530.465 154.972 530.529 155.185 530.529 155.425V159.226C532.34 157.263 534.191 155.803 536.079 154.82C537.954 153.839 539.918 153.348 541.957 153.348C544.198 153.348 546.085 153.714 547.621 154.456C549.157 155.185 550.39 156.193 551.346 157.464C552.29 158.722 552.97 160.208 553.386 161.907C553.801 163.607 554.015 165.646 554.015 168.024V188.351ZM594.317 188.351C594.317 188.591 594.254 188.805 594.128 188.994C594.015 189.183 593.802 189.334 593.486 189.459C593.184 189.573 592.782 189.673 592.265 189.737C591.762 189.799 591.133 189.824 590.377 189.824C589.56 189.824 588.904 189.801 588.402 189.737C587.898 189.673 587.495 189.573 587.205 189.459C586.904 189.334 586.703 189.183 586.576 188.994C586.45 188.805 586.388 188.591 586.388 188.351V184.551C584.575 186.501 582.725 187.974 580.837 188.956C578.949 189.938 576.998 190.428 574.984 190.428C572.719 190.428 570.805 190.063 569.27 189.321C567.734 188.591 566.488 187.571 565.544 186.3C564.6 185.016 563.92 183.544 563.505 181.857C563.102 180.17 562.901 178.068 562.901 175.564V155.425C562.901 155.185 562.964 154.972 563.102 154.783C563.241 154.594 563.492 154.443 563.845 154.318C564.197 154.204 564.688 154.104 565.293 154.04C565.896 153.978 566.639 153.952 567.533 153.952C568.439 153.952 569.195 153.979 569.786 154.04C570.377 154.104 570.856 154.204 571.208 154.318C571.573 154.443 571.825 154.594 571.963 154.783C572.114 154.972 572.19 155.185 572.19 155.425V174.015C572.19 175.74 572.303 177.049 572.517 177.956C572.744 178.874 573.084 179.655 573.537 180.296C573.989 180.951 574.568 181.454 575.273 181.819C575.966 182.171 576.784 182.348 577.727 182.348C578.911 182.348 580.094 181.92 581.291 181.064C582.473 180.209 583.757 178.95 585.104 177.313V155.425C585.104 155.185 585.166 154.972 585.305 154.783C585.444 154.594 585.683 154.443 586.048 154.318C586.4 154.204 586.878 154.104 587.458 154.04C588.049 153.978 588.804 153.952 589.711 153.952C590.617 153.952 591.372 153.979 591.964 154.04C592.543 154.104 593.02 154.204 593.36 154.318C593.7 154.443 593.952 154.594 594.09 154.783C594.242 154.972 594.317 155.185 594.317 155.425V188.351ZM612.945 188.351C612.945 188.591 612.87 188.805 612.719 188.994C612.58 189.183 612.329 189.334 611.964 189.459C611.611 189.573 611.132 189.673 610.554 189.737C609.962 189.799 609.207 189.824 608.301 189.824C607.394 189.824 606.639 189.801 606.048 189.737C605.469 189.673 604.99 189.573 604.638 189.459C604.272 189.334 604.021 189.183 603.882 188.994C603.732 188.805 603.656 188.591 603.656 188.351V139.83C603.656 139.578 603.732 139.365 603.882 139.164C604.021 138.975 604.272 138.799 604.638 138.672C604.99 138.533 605.469 138.433 606.048 138.357C606.639 138.282 607.394 138.245 608.301 138.245C609.207 138.245 609.962 138.282 610.554 138.357C611.132 138.433 611.611 138.533 611.964 138.672C612.329 138.799 612.58 138.975 612.719 139.164C612.87 139.365 612.945 139.578 612.945 139.83V188.351ZM679.151 186.2C679.151 186.766 679.05 187.27 678.861 187.723C678.66 188.163 678.396 188.528 678.056 188.83C677.728 189.119 677.338 189.334 676.886 189.472C676.419 189.61 675.967 189.673 675.5 189.673H671.36C670.492 189.673 669.749 189.585 669.119 189.422C668.503 189.245 667.924 188.93 667.395 188.478C666.854 188.025 666.35 187.408 665.86 186.627C665.369 185.86 664.815 184.853 664.198 183.619L652.354 161.303C651.662 159.969 650.97 158.534 650.252 156.998C649.535 155.463 648.906 153.965 648.339 152.517H648.263C648.364 154.293 648.439 156.054 648.49 157.817C648.541 159.566 648.566 161.391 648.566 163.254V188.239C648.566 188.478 648.503 188.704 648.364 188.905C648.225 189.094 647.987 189.258 647.659 189.397C647.332 189.535 646.879 189.635 646.313 189.712C645.746 189.787 645.016 189.824 644.135 189.824C643.267 189.824 642.549 189.787 641.983 189.712C641.417 189.635 640.975 189.535 640.661 189.397C640.334 189.27 640.108 189.094 639.994 188.905C639.868 188.704 639.805 188.478 639.805 188.239V145.343C639.805 144.185 640.145 143.317 640.824 142.738C641.492 142.159 642.322 141.869 643.317 141.869H648.516C649.447 141.869 650.24 141.944 650.881 142.108C651.523 142.272 652.09 142.537 652.594 142.902C653.096 143.267 653.575 143.782 654.015 144.437C654.457 145.078 654.909 145.897 655.374 146.854L664.651 164.311C665.192 165.369 665.721 166.414 666.25 167.433C666.779 168.453 667.294 169.472 667.773 170.492C668.264 171.511 668.742 172.517 669.208 173.5C669.686 174.494 670.139 175.475 670.579 176.458H670.617C670.542 174.733 670.478 172.933 670.441 171.071C670.403 169.195 670.391 167.408 670.391 165.708V143.304C670.391 143.064 670.466 142.838 670.617 142.637C670.756 142.448 671.007 142.272 671.347 142.121C671.7 141.97 672.152 141.869 672.719 141.806C673.285 141.743 674.015 141.718 674.897 141.718C675.74 141.718 676.444 141.744 677.011 141.806C677.578 141.869 678.006 141.97 678.32 142.121C678.622 142.272 678.849 142.448 678.962 142.637C679.088 142.838 679.151 143.052 679.151 143.304V186.2ZM717.037 188.465C717.037 188.805 716.912 189.069 716.672 189.27C716.421 189.472 716.03 189.61 715.502 189.699C714.973 189.787 714.192 189.824 713.149 189.824C712.041 189.824 711.235 189.787 710.732 189.699C710.228 189.61 709.863 189.472 709.662 189.27C709.448 189.069 709.347 188.805 709.347 188.465V185.847C707.988 187.295 706.452 188.415 704.715 189.22C702.99 190.026 701.065 190.428 698.95 190.428C697.213 190.428 695.602 190.202 694.143 189.749C692.682 189.295 691.423 188.616 690.353 187.723C689.284 186.816 688.453 185.709 687.861 184.387C687.27 183.053 686.98 181.505 686.98 179.743C686.98 177.817 687.358 176.155 688.1 174.745C688.856 173.324 689.976 172.166 691.461 171.234C692.946 170.315 694.784 169.636 696.999 169.195C699.202 168.754 701.769 168.528 704.69 168.528H707.899V166.539C707.899 165.507 707.799 164.601 707.585 163.821C707.384 163.053 707.031 162.398 706.552 161.882C706.075 161.366 705.445 160.989 704.64 160.736C703.847 160.498 702.852 160.371 701.681 160.371C700.134 160.371 698.748 160.548 697.541 160.887C696.319 161.228 695.25 161.618 694.319 162.033C693.387 162.448 692.606 162.838 691.977 163.178C691.348 163.518 690.845 163.694 690.454 163.694C690.177 163.694 689.938 163.607 689.737 163.443C689.523 163.267 689.347 163.014 689.22 162.701C689.082 162.385 688.982 161.983 688.907 161.516C688.831 161.051 688.793 160.535 688.793 159.981C688.793 159.213 688.856 158.61 688.982 158.168C689.095 157.728 689.334 157.338 689.674 156.973C690.027 156.62 690.618 156.23 691.486 155.803C692.342 155.374 693.349 154.972 694.508 154.606C695.665 154.229 696.924 153.927 698.283 153.7C699.655 153.461 701.065 153.348 702.512 153.348C705.092 153.348 707.295 153.6 709.133 154.104C710.958 154.606 712.468 155.388 713.639 156.432C714.821 157.477 715.69 158.823 716.232 160.473C716.773 162.109 717.037 164.072 717.037 166.325V188.465ZM707.899 174.343H704.362C702.864 174.343 701.594 174.456 700.536 174.67C699.479 174.896 698.623 175.224 697.956 175.677C697.288 176.118 696.811 176.647 696.508 177.276C696.194 177.905 696.043 178.622 696.043 179.427C696.043 180.812 696.483 181.895 697.352 182.675C698.22 183.468 699.429 183.858 700.976 183.858C702.273 183.858 703.469 183.531 704.563 182.864C705.658 182.196 706.766 181.228 707.899 179.944V174.343ZM761.77 188.351C761.77 188.591 761.695 188.805 761.544 188.994C761.405 189.183 761.154 189.334 760.788 189.459C760.436 189.573 759.957 189.673 759.378 189.737C758.787 189.799 758.032 189.824 757.125 189.824C756.219 189.824 755.464 189.801 754.873 189.737C754.294 189.673 753.815 189.573 753.462 189.459C753.097 189.334 752.846 189.183 752.707 188.994C752.557 188.805 752.481 188.591 752.481 188.351V155.5C752.481 155.262 752.557 155.048 752.707 154.859C752.846 154.67 753.097 154.506 753.462 154.38C753.815 154.241 754.294 154.141 754.873 154.065C755.464 153.99 756.219 153.952 757.125 153.952C758.032 153.952 758.787 153.99 759.378 154.065C759.957 154.141 760.436 154.241 760.788 154.38C761.154 154.506 761.405 154.67 761.544 154.859C761.695 155.048 761.77 155.262 761.77 155.5V188.351ZM762.525 144.248C762.525 146.124 762.148 147.408 761.38 148.125C760.612 148.842 759.202 149.194 757.125 149.194C755.036 149.194 753.614 148.855 752.896 148.163C752.166 147.47 751.801 146.224 751.801 144.437C751.801 142.562 752.179 141.265 752.935 140.535C753.677 139.818 755.099 139.453 757.2 139.453C759.265 139.453 760.675 139.805 761.417 140.51C762.16 141.202 762.525 142.448 762.525 144.248ZM804.262 171.561C804.262 174.355 803.897 176.91 803.154 179.226C802.411 181.53 801.304 183.518 799.793 185.192C798.296 186.866 796.42 188.15 794.155 189.069C791.889 189.975 789.246 190.428 786.226 190.428C783.293 190.428 780.75 190.025 778.586 189.208C776.42 188.402 774.62 187.219 773.198 185.671C771.776 184.123 770.718 182.222 770.026 179.956C769.334 177.703 768.994 175.123 768.994 172.216C768.994 169.422 769.372 166.854 770.114 164.538C770.87 162.209 771.99 160.22 773.5 158.56C774.998 156.911 776.873 155.627 779.127 154.708C781.367 153.801 784.011 153.348 787.031 153.348C789.989 153.348 792.543 153.751 794.709 154.544C796.874 155.349 798.661 156.52 800.071 158.068C801.492 159.616 802.538 161.516 803.23 163.783C803.922 166.036 804.262 168.629 804.262 171.561ZM794.746 171.926C794.746 170.303 794.621 168.804 794.356 167.445C794.092 166.074 793.664 164.89 793.035 163.883C792.418 162.877 791.6 162.083 790.58 161.516C789.548 160.95 788.265 160.674 786.704 160.674C785.319 160.674 784.111 160.925 783.066 161.429C782.034 161.933 781.179 162.675 780.511 163.644C779.844 164.613 779.341 165.783 779.013 167.144C778.673 168.515 778.509 170.063 778.509 171.813C778.509 173.436 778.648 174.934 778.912 176.294C779.19 177.666 779.63 178.848 780.234 179.856C780.839 180.863 781.656 181.643 782.701 182.196C783.733 182.75 785.017 183.028 786.552 183.028C787.962 183.028 789.183 182.775 790.228 182.273C791.26 181.769 792.116 181.039 792.783 180.082C793.45 179.114 793.941 177.956 794.269 176.596C794.582 175.224 794.746 173.676 794.746 171.926ZM843.055 188.351C843.055 188.591 842.979 188.805 842.827 188.994C842.69 189.183 842.438 189.334 842.097 189.459C841.746 189.573 841.267 189.673 840.663 189.737C840.059 189.799 839.317 189.824 838.435 189.824C837.516 189.824 836.761 189.801 836.157 189.737C835.553 189.673 835.075 189.573 834.722 189.459C834.382 189.334 834.131 189.183 833.992 188.994C833.841 188.805 833.766 188.591 833.766 188.351V169.586C833.766 167.986 833.652 166.727 833.413 165.821C833.187 164.903 832.847 164.122 832.406 163.481C831.966 162.826 831.387 162.323 830.694 161.958C829.99 161.605 829.184 161.429 828.252 161.429C827.07 161.429 825.887 161.857 824.678 162.726C823.483 163.581 822.224 164.84 820.927 166.476V188.351C820.927 188.591 820.852 188.805 820.701 188.994C820.562 189.183 820.311 189.334 819.946 189.459C819.593 189.573 819.114 189.673 818.536 189.737C817.944 189.799 817.189 189.824 816.283 189.824C815.376 189.824 814.621 189.801 814.03 189.737C813.451 189.673 812.972 189.573 812.619 189.459C812.255 189.334 812.003 189.183 811.864 188.994C811.714 188.805 811.638 188.591 811.638 188.351V155.425C811.638 155.185 811.701 154.972 811.827 154.783C811.94 154.594 812.167 154.443 812.482 154.318C812.808 154.204 813.212 154.104 813.715 154.04C814.219 153.978 814.86 153.952 815.615 153.952C816.409 153.952 817.05 153.979 817.567 154.04C818.083 154.104 818.486 154.204 818.774 154.318C819.052 154.443 819.253 154.594 819.379 154.783C819.504 154.972 819.568 155.185 819.568 155.425V159.226C821.38 157.263 823.23 155.803 825.118 154.82C826.993 153.839 828.957 153.348 830.996 153.348C833.237 153.348 835.125 153.714 836.66 154.456C838.197 155.185 839.429 156.193 840.386 157.464C841.33 158.722 842.01 160.208 842.425 161.907C842.84 163.607 843.055 165.646 843.055 168.024V188.351ZM880.184 188.465C880.184 188.805 880.059 189.069 879.819 189.27C879.568 189.472 879.178 189.61 878.649 189.699C878.12 189.787 877.34 189.824 876.296 189.824C875.188 189.824 874.382 189.787 873.879 189.699C873.376 189.61 873.011 189.472 872.809 189.27C872.595 189.069 872.494 188.805 872.494 188.465V185.847C871.135 187.295 869.6 188.415 867.862 189.22C866.138 190.026 864.213 190.428 862.097 190.428C860.361 190.428 858.749 190.202 857.29 189.749C855.83 189.295 854.571 188.616 853.501 187.723C852.432 186.816 851.601 185.709 851.009 184.387C850.418 183.053 850.128 181.505 850.128 179.743C850.128 177.817 850.505 176.155 851.248 174.745C852.003 173.324 853.123 172.166 854.608 171.234C856.094 170.315 857.932 169.636 860.147 169.195C862.35 168.754 864.917 168.528 867.837 168.528H871.046V166.539C871.046 165.507 870.946 164.601 870.733 163.821C870.531 163.053 870.179 162.398 869.7 161.882C869.222 161.366 868.592 160.989 867.787 160.736C866.994 160.498 865.999 160.371 864.829 160.371C863.281 160.371 861.896 160.548 860.688 160.887C859.467 161.228 858.398 161.618 857.466 162.033C856.535 162.448 855.754 162.838 855.125 163.178C854.496 163.518 853.992 163.694 853.602 163.694C853.325 163.694 853.086 163.607 852.884 163.443C852.671 163.267 852.494 163.014 852.368 162.701C852.229 162.385 852.129 161.983 852.054 161.516C851.978 161.051 851.94 160.535 851.94 159.981C851.94 159.213 852.003 158.61 852.129 158.168C852.243 157.728 852.482 157.338 852.822 156.973C853.174 156.62 853.766 156.23 854.633 155.803C855.49 155.374 856.496 154.972 857.655 154.606C858.813 154.229 860.072 153.927 861.431 153.7C862.803 153.461 864.213 153.348 865.659 153.348C868.24 153.348 870.443 153.6 872.281 154.104C874.106 154.606 875.616 155.388 876.786 156.432C877.969 157.477 878.838 158.823 879.379 160.473C879.921 162.109 880.184 164.072 880.184 166.325V188.465ZM871.046 174.343H867.51C866.012 174.343 864.741 174.456 863.684 174.67C862.626 174.896 861.771 175.224 861.104 175.677C860.436 176.118 859.958 176.647 859.656 177.276C859.342 177.905 859.19 178.622 859.19 179.427C859.19 180.812 859.631 181.895 860.5 182.675C861.367 183.468 862.576 183.858 864.124 183.858C865.421 183.858 866.617 183.531 867.711 182.864C868.806 182.196 869.914 181.228 871.046 179.944V174.343ZM898.738 188.351C898.738 188.591 898.663 188.805 898.511 188.994C898.373 189.183 898.121 189.334 897.756 189.459C897.404 189.573 896.925 189.673 896.346 189.737C895.755 189.799 895 189.824 894.093 189.824C893.187 189.824 892.432 189.801 891.84 189.737C891.261 189.673 890.783 189.573 890.43 189.459C890.065 189.334 889.814 189.183 889.675 188.994C889.525 188.805 889.449 188.591 889.449 188.351V139.83C889.449 139.578 889.525 139.365 889.675 139.164C889.814 138.975 890.065 138.799 890.43 138.672C890.783 138.533 891.261 138.433 891.84 138.357C892.432 138.282 893.187 138.245 894.093 138.245C895 138.245 895.755 138.282 896.346 138.357C896.925 138.433 897.404 138.533 897.756 138.672C898.121 138.799 898.373 138.975 898.511 139.164C898.663 139.365 898.738 139.578 898.738 139.83V188.351ZM745.786 185.117C745.786 186.2 745.722 187.03 745.584 187.609C745.446 188.188 745.269 188.591 745.043 188.818C744.828 189.056 744.502 189.27 744.073 189.447C743.633 189.635 743.129 189.799 742.55 189.925C741.984 190.063 741.355 190.164 740.675 190.239C739.996 190.316 739.316 190.353 738.623 190.353C736.786 190.353 735.188 190.114 733.827 189.648C732.481 189.183 731.361 188.465 730.467 187.496C729.587 186.527 728.931 185.306 728.516 183.82C728.101 182.348 727.887 180.599 727.887 178.585V161.731H723.897C723.432 161.731 723.066 161.441 722.827 160.863C722.575 160.284 722.449 159.315 722.449 157.955C722.449 157.237 722.475 156.633 722.538 156.143C722.6 155.652 722.702 155.262 722.827 154.972C722.94 154.695 723.104 154.494 723.293 154.368C723.469 154.241 723.695 154.179 723.935 154.179H727.887V146.816C727.887 146.576 727.95 146.35 728.089 146.149C728.226 145.96 728.479 145.796 728.831 145.657C729.184 145.52 729.674 145.418 730.278 145.356C730.883 145.292 731.626 145.267 732.518 145.267C733.425 145.267 734.18 145.294 734.785 145.356C735.389 145.418 735.867 145.52 736.219 145.657C736.559 145.796 736.81 145.96 736.949 146.149C737.101 146.35 737.176 146.576 737.176 146.816V154.179H744.313C744.565 154.179 744.778 154.241 744.954 154.368C745.143 154.494 745.294 154.695 745.421 154.972C745.546 155.262 745.635 155.652 745.697 156.143C745.76 156.633 745.786 157.237 745.786 157.955C745.786 159.315 745.66 160.284 745.421 160.863C745.168 161.441 744.816 161.731 744.35 161.731H737.176V177.187C737.176 178.987 737.453 180.334 738.019 181.228C738.586 182.121 739.592 182.574 741.04 182.574C741.531 182.574 741.971 182.537 742.361 182.449C742.751 182.36 743.104 182.26 743.407 182.146C743.721 182.045 743.973 181.945 744.187 181.857C744.388 181.769 744.589 181.731 744.753 181.731C744.904 181.731 745.043 181.769 745.181 181.857C745.307 181.945 745.421 182.109 745.496 182.373C745.558 182.625 745.635 182.977 745.697 183.418C745.76 183.871 745.786 184.424 745.786 185.117ZM731.89 194.154C731.965 193.89 732.103 193.651 732.292 193.45C732.494 193.236 732.783 193.072 733.161 192.946C733.538 192.82 734.042 192.745 734.671 192.694C735.3 192.644 736.094 192.618 737.076 192.618C738.057 192.618 738.837 192.669 739.404 192.77C739.97 192.857 740.373 193.009 740.637 193.185C740.889 193.374 741.015 193.6 741.002 193.865C740.991 194.129 740.901 194.444 740.725 194.784L737.101 201.756C736.974 201.995 736.836 202.197 736.66 202.36C736.484 202.524 736.244 202.65 735.943 202.764C735.628 202.877 735.225 202.953 734.721 202.99C734.219 203.028 733.576 203.04 732.796 203.04C732.003 203.04 731.386 203.014 730.933 202.953C730.48 202.889 730.153 202.776 729.939 202.613C729.738 202.462 729.624 202.26 729.624 202.009C729.624 201.769 729.674 201.48 729.775 201.127L731.89 194.154Z" fill="#002B7F"/>
<path fill-rule="evenodd" clip-rule="evenodd" d="M460.558 260.151C460.558 260.416 460.495 260.642 460.369 260.831C460.256 261.02 460.043 261.171 459.753 261.296C459.45 261.41 459.048 261.498 458.545 261.548C458.041 261.598 457.425 261.623 456.695 261.623C455.901 261.623 455.26 261.6 454.768 261.548C454.278 261.498 453.888 261.41 453.573 261.296C453.27 261.171 453.044 261.007 452.918 260.831C452.78 260.642 452.704 260.416 452.704 260.138V256.476C451.017 258.3 449.231 259.71 447.38 260.717C445.517 261.724 443.466 262.227 441.2 262.227C438.695 262.227 436.568 261.737 434.843 260.768C433.107 259.798 431.697 258.489 430.602 256.841C429.507 255.205 428.715 253.278 428.223 251.076C427.732 248.873 427.48 246.557 427.48 244.128C427.48 241.208 427.796 238.578 428.425 236.236C429.053 233.908 429.96 231.919 431.169 230.27C432.376 228.621 433.874 227.362 435.675 226.469C437.462 225.588 439.526 225.148 441.867 225.148C443.705 225.148 445.379 225.525 446.877 226.268C448.387 227.023 449.872 228.118 451.345 229.565V211.78C451.345 211.529 451.407 211.314 451.546 211.113C451.685 210.924 451.924 210.748 452.289 210.623C452.642 210.484 453.119 210.383 453.699 210.308C454.29 210.232 455.045 210.194 455.952 210.194C456.858 210.194 457.613 210.232 458.205 210.308C458.784 210.383 459.262 210.484 459.602 210.623C459.941 210.748 460.193 210.924 460.332 211.113C460.483 211.314 460.558 211.529 460.558 211.78V260.151ZM451.345 238.162C450.024 236.487 448.739 235.217 447.532 234.323C446.31 233.442 445.039 233.002 443.705 233.002C442.51 233.002 441.464 233.303 440.596 233.908C439.715 234.512 439.023 235.305 438.494 236.311C437.965 237.331 437.562 238.451 437.311 239.686C437.046 240.931 436.921 242.202 436.921 243.499C436.921 244.883 437.034 246.218 437.247 247.514C437.475 248.823 437.84 249.981 438.343 251C438.847 252.02 439.514 252.838 440.357 253.454C441.187 254.072 442.245 254.373 443.528 254.373C444.157 254.373 444.787 254.286 445.391 254.097C445.995 253.908 446.6 253.618 447.229 253.191C447.858 252.775 448.501 252.234 449.167 251.554C449.835 250.875 450.565 250.056 451.345 249.075V238.162ZM500.256 242.743C500.256 243.876 500.005 244.707 499.501 245.248C498.998 245.789 498.305 246.067 497.412 246.067H477.374C477.374 247.463 477.537 248.722 477.877 249.868C478.205 251 478.733 251.969 479.45 252.763C480.18 253.556 481.112 254.16 482.257 254.575C483.403 254.991 484.762 255.205 486.36 255.205C487.984 255.205 489.407 255.091 490.64 254.852C491.861 254.613 492.931 254.361 493.824 254.072C494.718 253.782 495.461 253.531 496.052 253.292C496.645 253.052 497.122 252.939 497.487 252.939C497.714 252.939 497.902 252.977 498.041 253.064C498.192 253.153 498.319 253.304 498.419 253.531C498.507 253.744 498.582 254.059 498.62 254.462C498.658 254.864 498.67 255.381 498.67 255.985C498.67 256.526 498.658 256.991 498.633 257.369C498.609 257.746 498.57 258.074 498.52 258.339C498.469 258.615 498.406 258.842 498.305 259.018C498.205 259.207 498.079 259.383 497.915 259.559C497.751 259.723 497.324 259.962 496.606 260.264C495.888 260.567 494.983 260.856 493.875 261.146C492.768 261.435 491.509 261.687 490.086 261.901C488.664 262.115 487.142 262.227 485.517 262.227C482.585 262.227 480.029 261.862 477.827 261.121C475.637 260.391 473.799 259.27 472.314 257.773C470.841 256.275 469.746 254.373 469.016 252.095C468.299 249.805 467.934 247.123 467.934 244.053C467.934 241.132 468.312 238.502 469.08 236.149C469.835 233.807 470.942 231.818 472.403 230.182C473.849 228.546 475.612 227.299 477.689 226.444C479.778 225.575 482.119 225.148 484.725 225.148C487.481 225.148 489.835 225.55 491.785 226.368C493.749 227.173 495.348 228.307 496.606 229.741C497.852 231.177 498.784 232.888 499.375 234.852C499.966 236.815 500.256 238.955 500.256 241.271V242.743ZM491.27 240.101C491.345 237.495 490.816 235.444 489.696 233.958C488.576 232.46 486.852 231.718 484.51 231.718C483.327 231.718 482.296 231.944 481.427 232.384C480.545 232.826 479.815 233.417 479.236 234.172C478.657 234.927 478.217 235.808 477.915 236.828C477.6 237.86 477.424 238.943 477.374 240.101H491.27ZM597.867 242.743C597.867 243.876 597.615 244.707 597.112 245.248C596.608 245.789 595.915 246.067 595.022 246.067H574.984C574.984 247.463 575.148 248.722 575.488 249.868C575.815 251 576.343 251.969 577.061 252.763C577.791 253.556 578.722 254.16 579.867 254.575C581.014 254.991 582.373 255.205 583.971 255.205C585.595 255.205 587.017 255.091 588.25 254.852C589.471 254.613 590.542 254.361 591.434 254.072C592.328 253.782 593.071 253.531 593.662 253.292C594.255 253.052 594.732 252.939 595.097 252.939C595.324 252.939 595.513 252.977 595.651 253.064C595.803 253.153 595.929 253.304 596.029 253.531C596.118 253.744 596.193 254.059 596.23 254.462C596.268 254.864 596.28 255.381 596.28 255.985C596.28 256.526 596.269 256.991 596.243 257.369C596.219 257.746 596.18 258.074 596.13 258.339C596.079 258.615 596.017 258.842 595.915 259.018C595.815 259.207 595.689 259.383 595.525 259.559C595.361 259.723 594.934 259.962 594.216 260.264C593.499 260.567 592.593 260.856 591.485 261.146C590.378 261.435 589.119 261.687 587.696 261.901C586.275 262.115 584.752 262.227 583.128 262.227C580.195 262.227 577.639 261.862 575.437 261.121C573.247 260.391 571.409 259.27 569.924 257.773C568.451 256.275 567.356 254.373 566.626 252.095C565.909 249.805 565.545 247.123 565.545 244.053C565.545 241.132 565.922 238.502 566.69 236.149C567.445 233.807 568.553 231.818 570.013 230.182C571.459 228.546 573.222 227.299 575.299 226.444C577.388 225.575 579.729 225.148 582.335 225.148C585.091 225.148 587.445 225.55 589.395 226.368C591.359 227.173 592.958 228.307 594.216 229.741C595.463 231.177 596.394 232.888 596.985 234.852C597.577 236.815 597.867 238.955 597.867 241.271V242.743ZM588.88 240.101C588.955 237.495 588.426 235.444 587.306 233.958C586.186 232.46 584.462 231.718 582.12 231.718C580.937 231.718 579.906 231.944 579.037 232.384C578.156 232.826 577.426 233.417 576.847 234.172C576.268 234.927 575.828 235.808 575.525 236.828C575.21 237.86 575.034 238.943 574.984 240.101H588.88ZM636.721 260.151C636.721 260.416 636.659 260.642 636.533 260.831C636.42 261.02 636.206 261.171 635.916 261.296C635.614 261.41 635.211 261.498 634.708 261.548C634.205 261.598 633.588 261.623 632.858 261.623C632.064 261.623 631.423 261.6 630.932 261.548C630.442 261.498 630.051 261.41 629.736 261.296C629.434 261.171 629.207 261.007 629.081 260.831C628.944 260.642 628.868 260.416 628.868 260.138V256.476C627.181 258.3 625.394 259.71 623.544 260.717C621.681 261.724 619.629 262.227 617.364 262.227C614.859 262.227 612.732 261.737 611.007 260.768C609.27 259.798 607.861 258.489 606.766 256.841C605.671 255.205 604.878 253.278 604.387 251.076C603.895 248.873 603.644 246.557 603.644 244.128C603.644 241.208 603.959 238.578 604.588 236.236C605.217 233.908 606.123 231.919 607.332 230.27C608.54 228.621 610.038 227.362 611.838 226.469C613.626 225.588 615.69 225.148 618.03 225.148C619.868 225.148 621.542 225.525 623.04 226.268C624.55 227.023 626.036 228.118 627.508 229.565V211.78C627.508 211.529 627.571 211.314 627.71 211.113C627.849 210.924 628.087 210.748 628.452 210.623C628.805 210.484 629.283 210.383 629.863 210.308C630.454 210.232 631.209 210.194 632.115 210.194C633.022 210.194 633.777 210.232 634.368 210.308C634.947 210.383 635.425 210.484 635.765 210.623C636.105 210.748 636.356 210.924 636.495 211.113C636.646 211.314 636.721 211.529 636.721 211.78V260.151ZM627.508 238.162C626.187 236.487 624.903 235.217 623.695 234.323C622.474 233.442 621.202 233.002 619.868 233.002C618.673 233.002 617.628 233.303 616.759 233.908C615.879 234.512 615.186 235.305 614.657 236.311C614.129 237.331 613.726 238.451 613.475 239.686C613.21 240.931 613.084 242.202 613.084 243.499C613.084 244.883 613.197 246.218 613.411 247.514C613.638 248.823 614.003 249.981 614.506 251C615.01 252.02 615.677 252.838 616.52 253.454C617.35 254.072 618.408 254.373 619.692 254.373C620.321 254.373 620.951 254.286 621.555 254.097C622.159 253.908 622.764 253.618 623.393 253.191C624.022 252.775 624.664 252.234 625.331 251.554C625.998 250.875 626.728 250.056 627.508 249.075V238.162ZM667.207 230.295C667.207 231.177 667.18 231.907 667.131 232.473C667.081 233.039 667.005 233.48 666.917 233.794C666.816 234.109 666.678 234.336 666.527 234.462C666.363 234.587 666.162 234.637 665.91 234.637C665.722 234.637 665.494 234.6 665.243 234.512C665.004 234.423 664.727 234.336 664.413 234.234C664.11 234.134 663.77 234.046 663.405 233.958C663.028 233.869 662.625 233.832 662.185 233.832C661.668 233.832 661.152 233.933 660.636 234.147C660.121 234.361 659.579 234.676 659.025 235.129C658.472 235.569 657.893 236.161 657.288 236.891C656.684 237.634 656.043 238.539 655.35 239.622V260.151C655.35 260.391 655.275 260.604 655.123 260.793C654.985 260.982 654.733 261.133 654.368 261.258C654.016 261.372 653.537 261.472 652.958 261.536C652.367 261.598 651.612 261.623 650.705 261.623C649.799 261.623 649.044 261.6 648.452 261.536C647.873 261.472 647.395 261.372 647.042 261.258C646.677 261.133 646.426 260.982 646.287 260.793C646.137 260.604 646.061 260.391 646.061 260.151V227.224C646.061 226.984 646.123 226.771 646.249 226.582C646.363 226.393 646.59 226.242 646.905 226.117C647.231 226.003 647.635 225.903 648.138 225.839C648.641 225.777 649.283 225.752 650.038 225.752C650.831 225.752 651.473 225.778 651.989 225.839C652.505 225.903 652.908 226.003 653.197 226.117C653.475 226.242 653.676 226.393 653.802 226.582C653.927 226.771 653.991 226.984 653.991 227.224V231.328C654.846 230.094 655.665 229.087 656.42 228.294C657.188 227.501 657.918 226.859 658.597 226.393C659.289 225.928 659.982 225.6 660.673 225.424C661.354 225.235 662.046 225.148 662.739 225.148C663.053 225.148 663.405 225.16 663.77 225.198C664.135 225.235 664.525 225.298 664.915 225.387C665.306 225.474 665.658 225.575 665.948 225.676C666.25 225.789 666.464 225.903 666.602 226.028C666.728 226.154 666.828 226.293 666.892 226.431C666.954 226.582 667.005 226.783 667.056 227.048C667.106 227.299 667.143 227.69 667.168 228.206C667.195 228.722 667.207 229.414 667.207 230.295ZM702.411 242.743C702.411 243.876 702.16 244.707 701.656 245.248C701.152 245.789 700.46 246.067 699.567 246.067H679.528C679.528 247.463 679.692 248.722 680.032 249.868C680.359 251 680.887 251.969 681.605 252.763C682.335 253.556 683.266 254.16 684.412 254.575C685.558 254.991 686.917 255.205 688.515 255.205C690.139 255.205 691.562 255.091 692.794 254.852C694.016 254.613 695.086 254.361 695.979 254.072C696.872 253.782 697.615 253.531 698.207 253.292C698.799 253.052 699.277 252.939 699.642 252.939C699.868 252.939 700.057 252.977 700.196 253.064C700.347 253.153 700.473 253.304 700.573 253.531C700.662 253.744 700.737 254.059 700.775 254.462C700.812 254.864 700.825 255.381 700.825 255.985C700.825 256.526 700.813 256.991 700.787 257.369C700.763 257.746 700.725 258.074 700.674 258.339C700.623 258.615 700.561 258.842 700.46 259.018C700.359 259.207 700.233 259.383 700.069 259.559C699.906 259.723 699.478 259.962 698.761 260.264C698.043 260.567 697.137 260.856 696.03 261.146C694.922 261.435 693.663 261.687 692.241 261.901C690.819 262.115 689.296 262.227 687.672 262.227C684.739 262.227 682.184 261.862 679.982 261.121C677.792 260.391 675.954 259.27 674.468 257.773C672.996 256.275 671.901 254.373 671.171 252.095C670.454 249.805 670.089 247.123 670.089 244.053C670.089 241.132 670.466 238.502 671.234 236.149C671.989 233.807 673.097 231.818 674.557 230.182C676.004 228.546 677.767 227.299 679.843 226.444C681.932 225.575 684.274 225.148 686.88 225.148C689.635 225.148 691.989 225.55 693.94 226.368C695.904 227.173 697.503 228.307 698.761 229.741C700.007 231.177 700.938 232.888 701.53 234.852C702.121 236.815 702.411 238.955 702.411 241.271V242.743ZM693.424 240.101C693.499 237.495 692.971 235.444 691.851 233.958C690.73 232.46 689.006 231.718 686.665 231.718C685.482 231.718 684.45 231.944 683.581 232.384C682.7 232.826 681.97 233.417 681.391 234.172C680.812 234.927 680.372 235.808 680.07 236.828C679.755 237.86 679.578 238.943 679.528 240.101H693.424ZM733.261 250.836C733.261 252.699 732.909 254.348 732.204 255.783C731.512 257.206 730.517 258.389 729.233 259.358C727.95 260.314 726.439 261.032 724.689 261.511C722.94 261.988 721.052 262.227 719.013 262.227C717.779 262.227 716.596 262.14 715.476 261.951C714.356 261.762 713.362 261.523 712.468 261.233C711.586 260.957 710.844 260.667 710.253 260.364C709.661 260.063 709.234 259.785 708.968 259.522C708.692 259.258 708.478 258.854 708.34 258.3C708.188 257.759 708.113 256.941 708.113 255.859C708.113 255.155 708.137 254.587 708.188 254.16C708.239 253.732 708.315 253.379 708.402 253.128C708.503 252.875 708.628 252.699 708.78 252.612C708.918 252.523 709.107 252.486 709.334 252.486C709.599 252.486 710.001 252.637 710.53 252.952C711.058 253.266 711.713 253.606 712.506 253.971C713.286 254.348 714.204 254.701 715.25 255.016C716.294 255.343 717.49 255.506 718.812 255.506C719.642 255.506 720.397 255.418 721.039 255.242C721.693 255.078 722.26 254.827 722.738 254.499C723.217 254.185 723.582 253.782 723.834 253.278C724.073 252.788 724.199 252.221 724.199 251.579C724.199 250.836 723.973 250.207 723.519 249.678C723.054 249.15 722.448 248.685 721.706 248.295C720.951 247.904 720.095 247.539 719.152 247.187C718.208 246.847 717.225 246.469 716.231 246.042C715.237 245.626 714.256 245.148 713.311 244.606C712.367 244.065 711.511 243.411 710.756 242.617C710.013 241.837 709.41 240.881 708.943 239.786C708.491 238.678 708.264 237.344 708.264 235.796C708.264 234.222 708.578 232.788 709.195 231.465C709.812 230.156 710.693 229.023 711.852 228.092C713.022 227.161 714.431 226.431 716.092 225.916C717.767 225.399 719.629 225.148 721.706 225.148C722.751 225.148 723.745 225.223 724.728 225.362C725.697 225.513 726.59 225.702 727.371 225.916C728.163 226.142 728.831 226.368 729.372 226.633C729.912 226.884 730.304 227.111 730.542 227.287C730.781 227.476 730.945 227.652 731.046 227.841C731.134 228.03 731.209 228.244 731.26 228.509C731.31 228.76 731.36 229.087 731.398 229.465C731.436 229.842 731.449 230.32 731.449 230.887C731.449 231.554 731.437 232.095 731.398 232.511C731.36 232.926 731.297 233.266 731.209 233.505C731.121 233.757 731.008 233.921 730.858 234.008C730.706 234.097 730.53 234.134 730.341 234.134C730.115 234.134 729.762 234.008 729.296 233.744C728.831 233.492 728.24 233.216 727.534 232.926C726.829 232.637 726.012 232.359 725.093 232.108C724.161 231.844 723.104 231.718 721.921 231.718C721.077 231.718 720.347 231.806 719.73 231.969C719.114 232.145 718.61 232.397 718.208 232.712C717.818 233.027 717.515 233.404 717.326 233.832C717.125 234.26 717.024 234.726 717.024 235.205C717.024 235.972 717.264 236.614 717.729 237.13C718.195 237.646 718.812 238.099 719.579 238.489C720.334 238.879 721.216 239.257 722.185 239.597C723.154 239.937 724.149 240.314 725.143 240.717C726.137 241.12 727.132 241.598 728.101 242.14C729.07 242.681 729.951 243.347 730.706 244.128C731.474 244.922 732.09 245.853 732.557 246.948C733.022 248.042 733.261 249.339 733.261 250.836ZM768.227 260.264C768.227 260.604 768.102 260.868 767.862 261.07C767.611 261.271 767.22 261.41 766.692 261.498C766.163 261.586 765.383 261.623 764.339 261.623C763.231 261.623 762.425 261.586 761.922 261.498C761.418 261.41 761.053 261.271 760.852 261.07C760.638 260.868 760.537 260.604 760.537 260.264V257.646C759.178 259.094 757.642 260.214 755.905 261.02C754.181 261.825 752.255 262.227 750.14 262.227C748.403 262.227 746.792 262.001 745.332 261.548C743.872 261.095 742.613 260.416 741.543 259.522C740.474 258.615 739.643 257.508 739.051 256.186C738.46 254.852 738.17 253.304 738.17 251.542C738.17 249.616 738.548 247.954 739.29 246.544C740.045 245.123 741.166 243.965 742.651 243.034C744.136 242.115 745.974 241.435 748.189 240.994C750.392 240.553 752.959 240.327 755.88 240.327H759.089V238.338C759.089 237.306 758.989 236.4 758.775 235.62C758.574 234.852 758.221 234.197 757.742 233.681C757.265 233.166 756.635 232.788 755.83 232.535C755.037 232.297 754.042 232.17 752.871 232.17C751.323 232.17 749.938 232.347 748.731 232.687C747.509 233.027 746.44 233.417 745.509 233.832C744.577 234.247 743.796 234.637 743.167 234.977C742.538 235.317 742.035 235.494 741.644 235.494C741.367 235.494 741.128 235.406 740.927 235.242C740.713 235.066 740.537 234.813 740.411 234.5C740.272 234.185 740.171 233.782 740.096 233.316C740.02 232.851 739.983 232.334 739.983 231.78C739.983 231.013 740.045 230.409 740.172 229.968C740.285 229.527 740.524 229.138 740.864 228.772C741.217 228.42 741.808 228.03 742.676 227.602C743.532 227.173 744.539 226.771 745.698 226.406C746.855 226.028 748.114 225.727 749.473 225.499C750.845 225.26 752.255 225.148 753.702 225.148C756.282 225.148 758.485 225.399 760.323 225.903C762.148 226.406 763.658 227.187 764.829 228.231C766.012 229.276 766.88 230.623 767.422 232.272C767.963 233.908 768.227 235.871 768.227 238.124V260.264ZM759.089 246.142H755.552C754.054 246.142 752.784 246.255 751.726 246.469C750.669 246.696 749.813 247.023 749.146 247.476C748.478 247.917 748.001 248.446 747.698 249.075C747.384 249.704 747.233 250.421 747.233 251.226C747.233 252.612 747.673 253.694 748.542 254.474C749.41 255.267 750.619 255.657 752.167 255.657C753.463 255.657 754.659 255.33 755.753 254.663C756.848 253.996 757.956 253.027 759.089 251.743V246.142ZM798.637 230.295C798.637 231.177 798.611 231.907 798.561 232.473C798.511 233.039 798.435 233.48 798.347 233.794C798.246 234.109 798.108 234.336 797.957 234.462C797.794 234.587 797.592 234.637 797.341 234.637C797.152 234.637 796.925 234.6 796.673 234.512C796.434 234.423 796.157 234.336 795.843 234.234C795.541 234.134 795.201 234.046 794.835 233.958C794.458 233.869 794.055 233.832 793.615 233.832C793.099 233.832 792.583 233.933 792.066 234.147C791.551 234.361 791.01 234.676 790.456 235.129C789.902 235.569 789.323 236.161 788.718 236.891C788.114 237.634 787.473 238.539 786.78 239.622V260.151C786.78 260.391 786.705 260.604 786.554 260.793C786.415 260.982 786.164 261.133 785.799 261.258C785.446 261.372 784.967 261.472 784.388 261.536C783.797 261.598 783.042 261.623 782.136 261.623C781.229 261.623 780.474 261.6 779.883 261.536C779.304 261.472 778.825 261.372 778.472 261.258C778.107 261.133 777.856 260.982 777.717 260.793C777.567 260.604 777.491 260.391 777.491 260.151V227.224C777.491 226.984 777.553 226.771 777.68 226.582C777.793 226.393 778.02 226.242 778.335 226.117C778.661 226.003 779.065 225.903 779.568 225.839C780.071 225.777 780.713 225.752 781.468 225.752C782.262 225.752 782.903 225.778 783.42 225.839C783.936 225.903 784.338 226.003 784.627 226.117C784.905 226.242 785.106 226.393 785.232 226.582C785.357 226.771 785.421 226.984 785.421 227.224V231.328C786.276 230.094 787.095 229.087 787.85 228.294C788.618 227.501 789.348 226.859 790.027 226.393C790.72 225.928 791.412 225.6 792.104 225.424C792.784 225.235 793.477 225.148 794.169 225.148C794.483 225.148 794.835 225.16 795.201 225.198C795.566 225.235 795.956 225.298 796.346 225.387C796.736 225.474 797.088 225.575 797.378 225.676C797.68 225.789 797.895 225.903 798.032 226.028C798.158 226.154 798.259 226.293 798.322 226.431C798.385 226.582 798.435 226.783 798.486 227.048C798.536 227.299 798.574 227.69 798.599 228.206C798.625 228.722 798.637 229.414 798.637 230.295ZM833.841 242.743C833.841 243.876 833.59 244.707 833.086 245.248C832.582 245.789 831.89 246.067 830.997 246.067H810.958C810.958 247.463 811.122 248.722 811.462 249.868C811.79 251 812.318 251.969 813.035 252.763C813.765 253.556 814.697 254.16 815.842 254.575C816.988 254.991 818.347 255.205 819.945 255.205C821.569 255.205 822.992 255.091 824.225 254.852C825.446 254.613 826.516 254.361 827.409 254.072C828.303 253.782 829.045 253.531 829.637 253.292C830.229 253.052 830.707 252.939 831.072 252.939C831.298 252.939 831.487 252.977 831.626 253.064C831.777 253.153 831.903 253.304 832.004 253.531C832.092 253.744 832.167 254.059 832.205 254.462C832.242 254.864 832.255 255.381 832.255 255.985C832.255 256.526 832.243 256.991 832.217 257.369C832.191 257.746 832.155 258.074 832.105 258.339C832.054 258.615 831.991 258.842 831.89 259.018C831.79 259.207 831.663 259.383 831.5 259.559C831.336 259.723 830.908 259.962 830.191 260.264C829.473 260.567 828.568 260.856 827.46 261.146C826.352 261.435 825.094 261.687 823.671 261.901C822.249 262.115 820.726 262.227 819.103 262.227C816.169 262.227 813.614 261.862 811.412 261.121C809.222 260.391 807.384 259.27 805.899 257.773C804.426 256.275 803.331 254.373 802.601 252.095C801.884 249.805 801.519 247.123 801.519 244.053C801.519 241.132 801.897 238.502 802.664 236.149C803.419 233.807 804.527 231.818 805.987 230.182C807.434 228.546 809.197 227.299 811.273 226.444C813.363 225.575 815.704 225.148 818.31 225.148C821.065 225.148 823.42 225.55 825.37 226.368C827.334 227.173 828.933 228.307 830.191 229.741C831.437 231.177 832.369 232.888 832.96 234.852C833.551 236.815 833.841 238.955 833.841 241.271V242.743ZM824.855 240.101C824.93 237.495 824.401 235.444 823.281 233.958C822.16 232.46 820.436 231.718 818.095 231.718C816.912 231.718 815.881 231.944 815.012 232.384C814.13 232.826 813.4 233.417 812.821 234.172C812.243 234.927 811.802 235.808 811.5 236.828C811.185 237.86 811.008 238.943 810.958 240.101H824.855ZM560.938 260.151C560.938 260.416 560.887 260.642 560.786 260.831C560.686 261.02 560.459 261.171 560.094 261.296C559.716 261.41 559.188 261.498 558.471 261.548C557.753 261.598 556.784 261.623 555.563 261.623C554.531 261.623 553.712 261.6 553.096 261.548C552.48 261.498 551.988 261.41 551.636 261.271C551.283 261.133 551.032 260.969 550.881 260.756C550.742 260.541 550.617 260.289 550.516 260L546.211 249.314C545.695 248.106 545.191 247.023 544.701 246.092C544.209 245.148 543.656 244.368 543.052 243.738C542.448 243.109 541.743 242.642 540.95 242.316C540.17 242.001 539.251 241.837 538.218 241.837H535.185V260.076C535.185 260.314 535.109 260.541 534.946 260.73C534.783 260.932 534.518 261.095 534.153 261.221C533.788 261.334 533.297 261.435 532.68 261.511C532.076 261.586 531.283 261.623 530.339 261.623C529.408 261.623 528.628 261.586 527.998 261.511C527.369 261.435 526.877 261.334 526.513 261.221C526.147 261.095 525.884 260.932 525.745 260.742C525.594 260.541 525.519 260.314 525.519 260.076V216.726C525.519 215.645 525.795 214.864 526.349 214.386C526.903 213.907 527.583 213.668 528.388 213.668H540.749C541.994 213.668 543.039 213.695 543.844 213.743C544.65 213.795 545.393 213.857 546.06 213.92C547.973 214.197 549.698 214.662 551.233 215.33C552.768 215.984 554.078 216.853 555.148 217.923C556.218 218.993 557.035 220.251 557.602 221.711C558.168 223.171 558.446 224.845 558.446 226.746C558.446 228.332 558.243 229.792 557.841 231.101C557.426 232.423 556.834 233.593 556.042 234.625C555.26 235.657 554.291 236.551 553.134 237.306C551.976 238.074 550.654 238.678 549.182 239.157C549.899 239.497 550.566 239.912 551.196 240.402C551.825 240.893 552.416 241.497 552.97 242.202C553.524 242.907 554.053 243.7 554.544 244.606C555.034 245.5 555.513 246.519 555.978 247.652L560.019 257.08C560.384 258.011 560.635 258.69 560.749 259.131C560.875 259.559 560.938 259.899 560.938 260.151ZM548.401 227.741C548.401 226.167 548.049 224.833 547.331 223.763C546.614 222.68 545.443 221.912 543.819 221.472C543.328 221.346 542.774 221.258 542.145 221.182C541.516 221.107 540.648 221.07 539.54 221.07H535.185V234.587H540.131C541.516 234.587 542.712 234.423 543.744 234.084C544.788 233.757 545.645 233.291 546.337 232.687C547.029 232.095 547.545 231.365 547.885 230.534C548.225 229.704 548.401 228.772 548.401 227.741Z" fill="#002B7F"/>
<path fill-rule="evenodd" clip-rule="evenodd" d="M881.759 250.836C881.759 252.699 881.407 254.348 880.703 255.783C880.01 257.206 879.016 258.389 877.732 259.358C876.448 260.314 874.938 261.032 873.187 261.511C871.438 261.988 869.551 262.227 867.511 262.227C866.277 262.227 865.095 262.14 863.974 261.951C862.854 261.762 861.86 261.523 860.966 261.233C860.085 260.957 859.342 260.667 858.751 260.364C858.16 260.063 857.732 259.785 857.467 259.522C857.191 259.258 856.977 258.854 856.838 258.3C856.687 257.759 856.612 256.941 856.612 255.859C856.612 255.154 856.638 254.587 856.687 254.159C856.737 253.732 856.813 253.379 856.901 253.128C857.002 252.875 857.127 252.699 857.278 252.612C857.417 252.523 857.606 252.485 857.832 252.485C858.097 252.485 858.5 252.637 859.028 252.952C859.556 253.265 860.211 253.606 861.004 253.971C861.784 254.348 862.703 254.701 863.748 255.016C864.792 255.343 865.988 255.506 867.31 255.506C868.14 255.506 868.895 255.418 869.538 255.242C870.192 255.078 870.758 254.827 871.237 254.499C871.716 254.184 872.081 253.782 872.332 253.278C872.571 252.788 872.697 252.221 872.697 251.579C872.697 250.836 872.471 250.207 872.017 249.678C871.552 249.15 870.947 248.685 870.204 248.294C869.449 247.904 868.594 247.539 867.65 247.187C866.706 246.847 865.723 246.469 864.73 246.042C863.736 245.626 862.754 245.148 861.809 244.606C860.865 244.065 860.01 243.411 859.255 242.617C858.512 241.837 857.908 240.881 857.442 239.786C856.989 238.678 856.762 237.344 856.762 235.796C856.762 234.222 857.077 232.788 857.693 231.465C858.311 230.156 859.191 229.023 860.35 228.092C861.52 227.161 862.929 226.431 864.591 225.915C866.265 225.399 868.128 225.148 870.204 225.148C871.25 225.148 872.244 225.223 873.226 225.362C874.195 225.513 875.089 225.702 875.869 225.915C876.662 226.142 877.329 226.368 877.871 226.633C878.411 226.884 878.802 227.111 879.041 227.287C879.28 227.476 879.443 227.652 879.545 227.841C879.632 228.03 879.707 228.243 879.758 228.508C879.808 228.76 879.859 229.087 879.896 229.465C879.935 229.842 879.947 230.32 879.947 230.886C879.947 231.554 879.935 232.095 879.896 232.51C879.859 232.926 879.796 233.266 879.708 233.504C879.62 233.757 879.506 233.921 879.356 234.008C879.205 234.097 879.029 234.134 878.84 234.134C878.613 234.134 878.261 234.008 877.794 233.744C877.329 233.492 876.738 233.216 876.033 232.926C875.328 232.637 874.51 232.359 873.591 232.108C872.66 231.844 871.602 231.718 870.419 231.718C869.576 231.718 868.845 231.805 868.229 231.969C867.612 232.145 867.109 232.397 866.706 232.712C866.316 233.027 866.013 233.404 865.825 233.832C865.623 234.259 865.522 234.726 865.522 235.205C865.522 235.972 865.762 236.614 866.227 237.13C866.694 237.646 867.31 238.099 868.078 238.489C868.833 238.879 869.714 239.257 870.683 239.597C871.652 239.937 872.647 240.314 873.641 240.717C874.635 241.119 875.63 241.598 876.599 242.14C877.568 242.681 878.45 243.347 879.205 244.128C879.972 244.921 880.589 245.853 881.055 246.948C881.52 248.042 881.759 249.339 881.759 250.836ZM864.238 265.953C864.315 265.689 864.453 265.45 864.642 265.249C864.843 265.035 865.132 264.871 865.51 264.745C865.887 264.619 866.391 264.544 867.02 264.494C867.65 264.442 868.443 264.418 869.424 264.418C870.407 264.418 871.187 264.468 871.753 264.569C872.32 264.656 872.722 264.808 872.986 264.984C873.239 265.173 873.364 265.399 873.351 265.664C873.34 265.928 873.251 266.243 873.075 266.583L869.449 273.555C869.324 273.794 869.185 273.997 869.009 274.159C868.833 274.323 868.594 274.449 868.291 274.563C867.978 274.676 867.574 274.752 867.071 274.789C866.567 274.827 865.926 274.84 865.145 274.84C864.352 274.84 863.736 274.813 863.282 274.752C862.829 274.688 862.502 274.576 862.288 274.412C862.087 274.261 861.973 274.059 861.973 273.808C861.973 273.568 862.024 273.279 862.124 272.926L864.238 265.953ZM897.997 260.15C897.997 260.39 897.922 260.604 897.77 260.793C897.632 260.982 897.381 261.133 897.015 261.258C896.663 261.372 896.184 261.472 895.605 261.536C895.014 261.598 894.259 261.623 893.352 261.623C892.446 261.623 891.691 261.6 891.099 261.536C890.521 261.472 890.042 261.372 889.689 261.258C889.324 261.133 889.073 260.982 888.934 260.793C888.784 260.604 888.708 260.39 888.708 260.15V227.299C888.708 227.061 888.784 226.847 888.934 226.658C889.073 226.469 889.324 226.306 889.689 226.179C890.042 226.041 890.521 225.94 891.099 225.864C891.691 225.789 892.446 225.752 893.352 225.752C894.259 225.752 895.014 225.789 895.605 225.864C896.184 225.94 896.663 226.041 897.015 226.179C897.381 226.306 897.632 226.469 897.77 226.658C897.922 226.847 897.997 227.061 897.997 227.299V260.15ZM898.752 216.047C898.752 217.923 898.374 219.207 897.607 219.924C896.839 220.641 895.429 220.993 893.352 220.993C891.263 220.993 889.84 220.654 889.123 219.962C888.393 219.269 888.028 218.023 888.028 216.236C888.028 214.361 888.405 213.064 889.161 212.334C889.904 211.617 891.326 211.252 893.427 211.252C895.492 211.252 896.902 211.604 897.644 212.309C898.387 213.001 898.752 214.247 898.752 216.047ZM960.276 260.15C960.276 260.415 960.226 260.642 960.125 260.831C960.024 261.019 959.797 261.17 959.432 261.296C959.054 261.41 958.527 261.498 957.809 261.548C957.091 261.598 956.122 261.623 954.901 261.623C953.869 261.623 953.051 261.6 952.434 261.548C951.818 261.498 951.327 261.41 950.974 261.271C950.622 261.133 950.37 260.969 950.219 260.756C950.08 260.541 949.955 260.289 949.854 260L945.549 249.314C945.033 248.106 944.529 247.023 944.039 246.092C943.548 245.148 942.994 244.368 942.39 243.737C941.786 243.109 941.081 242.642 940.288 242.316C939.508 242.001 938.589 241.837 937.557 241.837H934.523V260.075C934.523 260.314 934.447 260.541 934.285 260.729C934.121 260.932 933.856 261.094 933.491 261.221C933.126 261.334 932.636 261.435 932.018 261.511C931.414 261.586 930.622 261.623 929.677 261.623C928.746 261.623 927.966 261.586 927.336 261.511C926.707 261.435 926.216 261.334 925.851 261.221C925.486 261.094 925.222 260.932 925.083 260.742C924.932 260.541 924.857 260.314 924.857 260.075V216.726C924.857 215.645 925.133 214.864 925.687 214.386C926.241 213.907 926.921 213.668 927.726 213.668H940.087C941.332 213.668 942.377 213.695 943.183 213.743C943.989 213.794 944.732 213.857 945.398 213.92C947.311 214.197 949.036 214.662 950.572 215.33C952.107 215.984 953.416 216.853 954.486 217.923C955.556 218.993 956.374 220.251 956.94 221.711C957.507 223.171 957.784 224.845 957.784 226.746C957.784 228.332 957.582 229.792 957.179 231.101C956.764 232.423 956.172 233.593 955.38 234.625C954.599 235.657 953.629 236.551 952.472 237.306C951.314 238.074 949.993 238.678 948.52 239.157C949.237 239.497 949.904 239.912 950.534 240.402C951.163 240.893 951.754 241.497 952.308 242.202C952.862 242.907 953.391 243.7 953.882 244.606C954.372 245.5 954.851 246.519 955.316 247.652L959.357 257.08C959.722 258.011 959.973 258.69 960.087 259.131C960.213 259.559 960.276 259.899 960.276 260.15ZM947.74 227.741C947.74 226.167 947.387 224.833 946.669 223.763C945.952 222.68 944.782 221.912 943.158 221.472C942.666 221.346 942.112 221.258 941.484 221.182C940.855 221.107 939.986 221.07 938.878 221.07H934.523V234.587H939.47C940.855 234.587 942.05 234.423 943.083 234.084C944.126 233.757 944.983 233.291 945.676 232.687C946.367 232.095 946.883 231.365 947.223 230.534C947.563 229.704 947.74 228.772 947.74 227.741ZM996.097 242.743C996.097 243.876 995.846 244.706 995.342 245.248C994.838 245.789 994.146 246.067 993.253 246.067H973.214C973.214 247.463 973.378 248.722 973.718 249.867C974.046 251 974.574 251.969 975.291 252.763C976.021 253.556 976.953 254.159 978.098 254.575C979.244 254.991 980.603 255.204 982.201 255.204C983.825 255.204 985.248 255.091 986.481 254.852C987.702 254.613 988.772 254.361 989.665 254.072C990.559 253.782 991.301 253.531 991.893 253.292C992.485 253.052 992.963 252.939 993.328 252.939C993.554 252.939 993.743 252.977 993.882 253.064C994.033 253.153 994.16 253.304 994.26 253.53C994.348 253.744 994.423 254.059 994.461 254.462C994.498 254.864 994.511 255.381 994.511 255.985C994.511 256.526 994.499 256.991 994.473 257.369C994.45 257.746 994.411 258.074 994.361 258.339C994.31 258.615 994.247 258.842 994.146 259.018C994.046 259.206 993.919 259.383 993.756 259.559C993.592 259.723 993.164 259.962 992.447 260.264C991.729 260.567 990.824 260.856 989.716 261.145C988.608 261.435 987.35 261.687 985.927 261.901C984.505 262.115 982.982 262.227 981.358 262.227C978.425 262.227 975.87 261.862 973.668 261.12C971.478 260.39 969.64 259.27 968.155 257.772C966.682 256.275 965.587 254.373 964.857 252.095C964.14 249.805 963.775 247.123 963.775 244.053C963.775 241.132 964.153 238.501 964.92 236.148C965.675 233.807 966.783 231.818 968.243 230.182C969.69 228.546 971.453 227.299 973.53 226.444C975.619 225.575 977.96 225.148 980.566 225.148C983.321 225.148 985.676 225.55 987.626 226.368C989.59 227.173 991.189 228.307 992.447 229.741C993.693 231.177 994.625 232.888 995.216 234.852C995.807 236.815 996.097 238.955 996.097 241.271V242.743ZM987.111 240.101C987.186 237.495 986.657 235.443 985.537 233.958C984.416 232.46 982.692 231.718 980.351 231.718C979.168 231.718 978.137 231.944 977.268 232.384C976.386 232.825 975.656 233.417 975.077 234.172C974.498 234.927 974.058 235.808 973.756 236.827C973.441 237.86 973.264 238.943 973.214 240.101H987.111ZM1026.05 257.584C1026.05 258.3 1026.02 258.905 1025.94 259.421C1025.87 259.924 1025.76 260.327 1025.65 260.617C1025.53 260.918 1025.36 261.12 1025.17 261.233C1024.97 261.347 1024.74 261.397 1024.5 261.397H1002.97C1002.31 261.397 1001.8 261.171 1001.45 260.729C1001.08 260.289 1000.91 259.559 1000.91 258.552V256.841C1000.91 256.4 1000.92 255.997 1000.96 255.645C1000.99 255.292 1001.07 254.939 1001.18 254.613C1001.3 254.273 1001.45 253.933 1001.62 253.593C1001.81 253.24 1002.05 252.863 1002.35 252.448L1014.73 233.454H1002.99C1002.53 233.454 1002.15 233.153 1001.86 232.56C1001.57 231.969 1001.43 231.025 1001.43 229.716C1001.43 228.998 1001.46 228.407 1001.52 227.916C1001.58 227.438 1001.69 227.061 1001.8 226.771C1001.92 226.494 1002.09 226.293 1002.29 226.167C1002.48 226.041 1002.72 225.978 1002.98 225.978H1023.15C1023.5 225.978 1023.79 226.016 1024.04 226.092C1024.28 226.167 1024.49 226.293 1024.64 226.494C1024.81 226.696 1024.93 226.959 1025.02 227.312C1025.11 227.652 1025.15 228.08 1025.15 228.609V230.421C1025.15 230.912 1025.12 231.353 1025.07 231.73C1025.02 232.108 1024.95 232.473 1024.85 232.825C1024.76 233.166 1024.61 233.517 1024.43 233.857C1024.24 234.197 1024.03 234.575 1023.78 234.965L1011.48 253.921H1024.5C1024.72 253.921 1024.93 253.971 1025.14 254.072C1025.32 254.172 1025.49 254.348 1025.63 254.626C1025.76 254.889 1025.87 255.267 1025.94 255.758C1026.02 256.236 1026.05 256.841 1026.05 257.584ZM1042.33 260.15C1042.33 260.39 1042.25 260.604 1042.1 260.793C1041.96 260.982 1041.71 261.133 1041.35 261.258C1040.99 261.372 1040.52 261.472 1039.94 261.536C1039.35 261.598 1038.59 261.623 1037.68 261.623C1036.78 261.623 1036.02 261.6 1035.43 261.536C1034.85 261.472 1034.37 261.372 1034.02 261.258C1033.66 261.133 1033.4 260.982 1033.27 260.793C1033.12 260.604 1033.04 260.39 1033.04 260.15V227.299C1033.04 227.061 1033.12 226.847 1033.27 226.658C1033.4 226.469 1033.66 226.306 1034.02 226.179C1034.37 226.041 1034.85 225.94 1035.43 225.864C1036.02 225.789 1036.78 225.752 1037.68 225.752C1038.59 225.752 1039.35 225.789 1039.94 225.864C1040.52 225.94 1040.99 226.041 1041.35 226.179C1041.71 226.306 1041.96 226.469 1042.1 226.658C1042.25 226.847 1042.33 227.061 1042.33 227.299V260.15ZM1043.08 216.047C1043.08 217.923 1042.71 219.207 1041.94 219.924C1041.17 220.641 1039.76 220.993 1037.68 220.993C1035.59 220.993 1034.17 220.654 1033.45 219.962C1032.72 219.269 1032.36 218.023 1032.36 216.236C1032.36 214.361 1032.74 213.064 1033.49 212.334C1034.24 211.617 1035.66 211.252 1037.76 211.252C1039.82 211.252 1041.23 211.604 1041.98 212.309C1042.72 213.001 1043.08 214.247 1043.08 216.047ZM1060.88 260.15C1060.88 260.39 1060.81 260.604 1060.65 260.793C1060.52 260.982 1060.26 261.133 1059.9 261.258C1059.55 261.372 1059.07 261.472 1058.49 261.536C1057.9 261.598 1057.14 261.623 1056.24 261.623C1055.33 261.623 1054.57 261.6 1053.98 261.536C1053.4 261.472 1052.93 261.372 1052.57 261.258C1052.21 261.133 1051.96 260.982 1051.82 260.793C1051.67 260.604 1051.59 260.39 1051.59 260.15V211.629C1051.59 211.378 1051.67 211.164 1051.82 210.963C1051.96 210.774 1052.21 210.597 1052.57 210.471C1052.93 210.332 1053.4 210.232 1053.98 210.156C1054.57 210.081 1055.33 210.044 1056.24 210.044C1057.14 210.044 1057.9 210.081 1058.49 210.156C1059.07 210.232 1059.55 210.332 1059.9 210.471C1060.26 210.597 1060.52 210.774 1060.65 210.963C1060.81 211.164 1060.88 211.378 1060.88 211.629V260.15ZM1079.43 260.15C1079.43 260.39 1079.36 260.604 1079.21 260.793C1079.07 260.982 1078.82 261.133 1078.45 261.258C1078.1 261.372 1077.62 261.472 1077.04 261.536C1076.45 261.598 1075.69 261.623 1074.79 261.623C1073.88 261.623 1073.13 261.6 1072.54 261.536C1071.96 261.472 1071.48 261.372 1071.13 261.258C1070.76 261.133 1070.51 260.982 1070.37 260.793C1070.22 260.604 1070.14 260.39 1070.14 260.15V227.299C1070.14 227.061 1070.22 226.847 1070.37 226.658C1070.51 226.469 1070.76 226.306 1071.13 226.179C1071.48 226.041 1071.96 225.94 1072.54 225.864C1073.13 225.789 1073.88 225.752 1074.79 225.752C1075.69 225.752 1076.45 225.789 1077.04 225.864C1077.62 225.94 1078.1 226.041 1078.45 226.179C1078.82 226.306 1079.07 226.469 1079.21 226.658C1079.36 226.847 1079.43 227.061 1079.43 227.299V260.15ZM1080.19 216.047C1080.19 217.923 1079.81 219.207 1079.04 219.924C1078.27 220.641 1076.86 220.993 1074.79 220.993C1072.7 220.993 1071.28 220.654 1070.56 219.962C1069.83 219.269 1069.46 218.023 1069.46 216.236C1069.46 214.361 1069.84 213.064 1070.6 212.334C1071.34 211.617 1072.76 211.252 1074.86 211.252C1076.93 211.252 1078.34 211.604 1079.08 212.309C1079.82 213.001 1080.19 214.247 1080.19 216.047ZM1119.06 242.743C1119.06 243.876 1118.8 244.706 1118.3 245.248C1117.8 245.789 1117.1 246.067 1116.21 246.067H1096.17C1096.17 247.463 1096.34 248.722 1096.68 249.867C1097 251 1097.53 251.969 1098.25 252.763C1098.98 253.556 1099.91 254.159 1101.06 254.575C1102.2 254.991 1103.56 255.204 1105.16 255.204C1106.78 255.204 1108.21 255.091 1109.44 254.852C1110.66 254.613 1111.73 254.361 1112.62 254.072C1113.52 253.782 1114.26 253.531 1114.85 253.292C1115.44 253.052 1115.92 252.939 1116.29 252.939C1116.51 252.939 1116.7 252.977 1116.84 253.064C1116.99 253.153 1117.12 253.304 1117.22 253.53C1117.31 253.744 1117.38 254.059 1117.42 254.462C1117.46 254.864 1117.47 255.381 1117.47 255.985C1117.47 256.526 1117.46 256.991 1117.43 257.369C1117.41 257.746 1117.37 258.074 1117.32 258.339C1117.27 258.615 1117.2 258.842 1117.1 259.018C1117 259.206 1116.88 259.383 1116.71 259.559C1116.55 259.723 1116.12 259.962 1115.4 260.264C1114.69 260.567 1113.78 260.856 1112.67 261.145C1111.57 261.435 1110.31 261.687 1108.88 261.901C1107.46 262.115 1105.94 262.227 1104.32 262.227C1101.38 262.227 1098.83 261.862 1096.63 261.12C1094.44 260.39 1092.6 259.27 1091.11 257.772C1089.64 256.275 1088.54 254.373 1087.81 252.095C1087.1 249.805 1086.73 247.123 1086.73 244.053C1086.73 241.132 1087.11 238.501 1087.88 236.148C1088.63 233.807 1089.74 231.818 1091.2 230.182C1092.65 228.546 1094.41 227.299 1096.49 226.444C1098.58 225.575 1100.92 225.148 1103.52 225.148C1106.28 225.148 1108.63 225.55 1110.58 226.368C1112.55 227.173 1114.15 228.307 1115.4 229.741C1116.65 231.177 1117.58 232.888 1118.17 234.852C1118.77 236.815 1119.06 238.955 1119.06 241.271V242.743ZM1110.07 240.101C1110.14 237.495 1109.61 235.443 1108.49 233.958C1107.37 232.46 1105.65 231.718 1103.31 231.718C1102.13 231.718 1101.09 231.944 1100.23 232.384C1099.34 232.825 1098.61 233.417 1098.04 234.172C1097.46 234.927 1097.02 235.808 1096.71 236.827C1096.4 237.86 1096.22 238.943 1096.17 240.101H1110.07ZM1158.14 260.15C1158.14 260.39 1158.06 260.604 1157.91 260.793C1157.77 260.982 1157.52 261.133 1157.18 261.258C1156.83 261.372 1156.35 261.472 1155.75 261.536C1155.14 261.598 1154.4 261.623 1153.52 261.623C1152.6 261.623 1151.84 261.6 1151.24 261.536C1150.63 261.472 1150.16 261.372 1149.8 261.258C1149.46 261.133 1149.21 260.982 1149.07 260.793C1148.92 260.604 1148.85 260.39 1148.85 260.15V241.384C1148.85 239.786 1148.73 238.526 1148.5 237.62C1148.27 236.702 1147.93 235.921 1147.49 235.28C1147.05 234.625 1146.47 234.122 1145.78 233.757C1145.07 233.404 1144.27 233.228 1143.33 233.228C1142.15 233.228 1140.97 233.656 1139.76 234.524C1138.57 235.38 1137.31 236.639 1136.01 238.275V260.15C1136.01 260.39 1135.93 260.604 1135.78 260.793C1135.64 260.982 1135.39 261.133 1135.03 261.258C1134.68 261.372 1134.2 261.472 1133.62 261.536C1133.03 261.598 1132.27 261.623 1131.36 261.623C1130.46 261.623 1129.7 261.6 1129.11 261.536C1128.53 261.472 1128.05 261.372 1127.7 261.258C1127.34 261.133 1127.09 260.982 1126.95 260.793C1126.8 260.604 1126.72 260.39 1126.72 260.15V227.224C1126.72 226.984 1126.78 226.771 1126.91 226.582C1127.02 226.393 1127.25 226.242 1127.56 226.117C1127.89 226.003 1128.29 225.903 1128.8 225.839C1129.3 225.777 1129.94 225.752 1130.7 225.752C1131.49 225.752 1132.13 225.778 1132.65 225.839C1133.17 225.903 1133.57 226.003 1133.86 226.117C1134.13 226.242 1134.34 226.393 1134.46 226.582C1134.59 226.771 1134.65 226.984 1134.65 227.224V231.025C1136.46 229.062 1138.31 227.602 1140.2 226.619C1142.08 225.638 1144.04 225.148 1146.08 225.148C1148.32 225.148 1150.21 225.513 1151.74 226.256C1153.28 226.984 1154.51 227.992 1155.47 229.263C1156.41 230.521 1157.09 232.007 1157.51 233.706C1157.92 235.406 1158.14 237.445 1158.14 239.823V260.15ZM1186.03 256.916C1186.03 257.999 1185.97 258.829 1185.83 259.408C1185.69 259.987 1185.51 260.391 1185.29 260.617C1185.07 260.856 1184.75 261.07 1184.32 261.246C1183.88 261.435 1183.37 261.598 1182.79 261.724C1182.23 261.862 1181.6 261.963 1180.92 262.038C1180.24 262.115 1179.56 262.152 1178.87 262.152C1177.03 262.152 1175.43 261.913 1174.07 261.447C1172.72 260.982 1171.6 260.264 1170.71 259.295C1169.83 258.326 1169.18 257.105 1168.76 255.62C1168.35 254.147 1168.13 252.398 1168.13 250.384V233.53H1164.14C1163.68 233.53 1163.31 233.241 1163.07 232.662C1162.82 232.083 1162.69 231.114 1162.69 229.754C1162.69 229.036 1162.72 228.432 1162.78 227.942C1162.84 227.451 1162.95 227.061 1163.07 226.771C1163.18 226.494 1163.35 226.293 1163.54 226.167C1163.71 226.041 1163.94 225.978 1164.18 225.978H1168.13V218.615C1168.13 218.375 1168.19 218.149 1168.33 217.948C1168.47 217.759 1168.72 217.595 1169.08 217.457C1169.43 217.319 1169.92 217.217 1170.52 217.155C1171.13 217.091 1171.87 217.066 1172.76 217.066C1173.67 217.066 1174.42 217.09 1175.03 217.155C1175.63 217.217 1176.11 217.319 1176.46 217.457C1176.8 217.595 1177.05 217.759 1177.19 217.948C1177.34 218.149 1177.42 218.375 1177.42 218.615V225.978H1184.56C1184.81 225.978 1185.02 226.041 1185.2 226.167C1185.39 226.293 1185.54 226.494 1185.66 226.771C1185.79 227.061 1185.88 227.451 1185.94 227.942C1186 228.432 1186.03 229.036 1186.03 229.754C1186.03 231.114 1185.9 232.083 1185.66 232.662C1185.41 233.241 1185.06 233.53 1184.59 233.53H1177.42V248.986C1177.42 250.786 1177.7 252.133 1178.26 253.027C1178.83 253.921 1179.84 254.373 1181.28 254.373C1181.78 254.373 1182.22 254.336 1182.61 254.248C1183 254.159 1183.35 254.059 1183.65 253.946C1183.97 253.844 1184.22 253.744 1184.43 253.656C1184.63 253.568 1184.83 253.53 1185 253.53C1185.15 253.53 1185.29 253.568 1185.42 253.656C1185.55 253.744 1185.66 253.908 1185.74 254.172C1185.8 254.424 1185.88 254.776 1185.94 255.217C1186 255.67 1186.03 256.224 1186.03 256.916ZM1172.13 265.953C1172.21 265.689 1172.35 265.45 1172.54 265.249C1172.74 265.035 1173.03 264.871 1173.4 264.745C1173.78 264.619 1174.29 264.544 1174.92 264.494C1175.54 264.442 1176.34 264.418 1177.32 264.418C1178.3 264.418 1179.08 264.468 1179.65 264.569C1180.21 264.656 1180.62 264.808 1180.88 264.984C1181.13 265.173 1181.26 265.399 1181.25 265.664C1181.23 265.928 1181.15 266.243 1180.97 266.583L1177.34 273.555C1177.22 273.794 1177.08 273.997 1176.9 274.159C1176.73 274.323 1176.49 274.449 1176.19 274.563C1175.87 274.676 1175.47 274.752 1174.97 274.789C1174.46 274.827 1173.82 274.84 1173.04 274.84C1172.25 274.84 1171.63 274.813 1171.18 274.752C1170.72 274.688 1170.4 274.576 1170.18 274.412C1169.98 274.261 1169.87 274.059 1169.87 273.808C1169.87 273.568 1169.92 273.279 1170.02 272.926L1172.13 265.953ZM1220 260.264C1220 260.604 1219.87 260.868 1219.63 261.069C1219.38 261.271 1218.99 261.41 1218.46 261.498C1217.94 261.586 1217.16 261.623 1216.11 261.623C1215 261.623 1214.2 261.586 1213.69 261.498C1213.19 261.41 1212.83 261.271 1212.62 261.069C1212.41 260.868 1212.31 260.604 1212.31 260.264V257.646C1210.95 259.094 1209.42 260.214 1207.68 261.019C1205.95 261.824 1204.03 262.227 1201.91 262.227C1200.18 262.227 1198.56 262.001 1197.11 261.548C1195.65 261.094 1194.39 260.415 1193.32 259.522C1192.25 258.615 1191.42 257.507 1190.82 256.186C1190.23 254.852 1189.94 253.304 1189.94 251.541C1189.94 249.616 1190.32 247.954 1191.06 246.544C1191.82 245.123 1192.94 243.965 1194.42 243.033C1195.91 242.115 1197.75 241.435 1199.96 240.994C1202.17 240.553 1204.73 240.327 1207.65 240.327H1210.86V238.338C1210.86 237.306 1210.76 236.4 1210.55 235.62C1210.35 234.852 1209.99 234.197 1209.52 233.681C1209.04 233.166 1208.41 232.788 1207.6 232.535C1206.81 232.297 1205.81 232.17 1204.64 232.17C1203.1 232.17 1201.71 232.347 1200.5 232.687C1199.28 233.027 1198.21 233.417 1197.28 233.832C1196.35 234.247 1195.57 234.637 1194.94 234.977C1194.31 235.317 1193.81 235.494 1193.42 235.494C1193.14 235.494 1192.9 235.406 1192.7 235.242C1192.49 235.066 1192.31 234.813 1192.18 234.499C1192.04 234.184 1191.94 233.782 1191.87 233.316C1191.79 232.851 1191.76 232.334 1191.76 231.78C1191.76 231.012 1191.82 230.409 1191.94 229.967C1192.06 229.527 1192.3 229.137 1192.64 228.772C1192.99 228.42 1193.58 228.03 1194.45 227.602C1195.31 227.173 1196.31 226.771 1197.47 226.406C1198.63 226.028 1199.89 225.727 1201.25 225.499C1202.62 225.26 1204.03 225.148 1205.47 225.148C1208.06 225.148 1210.26 225.399 1212.1 225.903C1213.92 226.406 1215.43 227.187 1216.6 228.231C1217.78 229.276 1218.65 230.623 1219.19 232.272C1219.74 233.908 1220 235.871 1220 238.124V260.264ZM1210.86 246.142H1207.33C1205.83 246.142 1204.56 246.255 1203.5 246.469C1202.44 246.696 1201.59 247.023 1200.92 247.476C1200.25 247.917 1199.77 248.446 1199.47 249.075C1199.16 249.703 1199.01 250.421 1199.01 251.226C1199.01 252.611 1199.45 253.694 1200.32 254.474C1201.18 255.267 1202.39 255.657 1203.94 255.657C1205.24 255.657 1206.43 255.33 1207.53 254.663C1208.62 253.996 1209.73 253.027 1210.86 251.743V246.142ZM1210.71 211.176C1210.76 210.71 1211 210.357 1211.43 210.106C1211.87 209.868 1212.62 209.741 1213.72 209.741C1214.36 209.741 1214.89 209.768 1215.31 209.816C1215.73 209.868 1216.06 209.943 1216.29 210.031C1216.53 210.131 1216.69 210.27 1216.78 210.446C1216.87 210.61 1216.9 210.811 1216.9 211.025C1216.9 212.674 1216.69 214.135 1216.26 215.405C1215.82 216.689 1215.18 217.759 1214.3 218.628C1213.43 219.496 1212.31 220.163 1210.94 220.616C1209.58 221.07 1207.97 221.296 1206.13 221.296C1204.2 221.296 1202.57 221.07 1201.21 220.616C1199.86 220.163 1198.75 219.496 1197.89 218.628C1197.03 217.759 1196.4 216.689 1195.99 215.43C1195.58 214.159 1195.38 212.724 1195.38 211.1C1195.38 210.61 1195.59 210.257 1196.01 210.056C1196.44 209.842 1197.23 209.741 1198.43 209.741C1199.04 209.741 1199.55 209.768 1199.96 209.816C1200.37 209.868 1200.69 209.955 1200.94 210.069C1201.2 210.194 1201.36 210.345 1201.46 210.534C1201.56 210.71 1201.62 210.924 1201.65 211.176C1201.72 211.843 1201.85 212.434 1202.01 212.963C1202.19 213.492 1202.45 213.946 1202.81 214.323C1203.16 214.701 1203.6 214.99 1204.14 215.191C1204.68 215.38 1205.34 215.481 1206.13 215.481C1206.83 215.481 1207.46 215.392 1207.99 215.228C1208.53 215.052 1209 214.788 1209.39 214.436C1209.78 214.071 1210.08 213.631 1210.31 213.102C1210.52 212.586 1210.66 211.932 1210.71 211.176Z" fill="#002B7F"/>
<path fill-rule="evenodd" clip-rule="evenodd" d="M315.117 165.251L380.95 199.476L315.117 233.967V165.251Z" fill="#DD3031"/>
<path fill-rule="evenodd" clip-rule="evenodd" d="M254.789 133.606L315.118 165.252V233.967L254.789 262.419V133.606Z" fill="#FFCE00"/>
<path fill-rule="evenodd" clip-rule="evenodd" d="M203.976 109L254.789 133.606V262.418L203.976 288.397V109Z" fill="#002B7F"/>
<path fill-rule="evenodd" clip-rule="evenodd" d="M50 109.517L223.285 199.602L50 290.39V109.517Z" fill="#003399"/>
<path fill-rule="evenodd" clip-rule="evenodd" d="M105.586 159.323H110.638L106.568 162.375L108.15 167.216L104.096 164.235L100.046 167.216L101.642 162.375L97.5386 159.323H102.572L104.096 154.604L105.586 159.323Z" fill="#FFEA00"/>
<path fill-rule="evenodd" clip-rule="evenodd" d="M105.807 237.409H110.859L106.789 240.465L108.366 245.301L104.316 242.32L100.266 245.301L101.862 240.465L97.7583 237.409H102.792L104.316 232.69L105.807 237.409Z" fill="#FFEA00"/>
<path fill-rule="evenodd" clip-rule="evenodd" d="M125.142 232.228H130.19L126.124 235.283L127.702 240.12L123.652 237.143L119.596 240.12L121.195 235.283L117.091 232.228H122.123L123.652 227.513L125.142 232.228Z" fill="#FFEA00"/>
<path fill-rule="evenodd" clip-rule="evenodd" d="M125.142 164.464H130.19L126.124 167.516L127.702 172.357L123.652 169.375L119.596 172.357L121.195 167.516L117.091 164.464H122.123L123.652 159.746L125.142 164.464Z" fill="#FFEA00"/>
<path fill-rule="evenodd" clip-rule="evenodd" d="M139.49 178.813H144.543L140.473 181.865L142.051 186.707L138 183.729L133.95 186.707L135.546 181.865L131.442 178.813H136.476L138 174.098L139.49 178.813Z" fill="#FFEA00"/>
<path fill-rule="evenodd" clip-rule="evenodd" d="M139.49 218.079H144.543L140.473 221.131L142.051 225.971L138 222.99L133.95 225.971L135.546 221.131L131.442 218.079H136.476L138 213.359L139.49 218.079Z" fill="#FFEA00"/>
<path fill-rule="evenodd" clip-rule="evenodd" d="M144.873 198.147H149.925L145.855 201.2L147.433 206.04L143.381 203.059L139.33 206.04L140.928 201.2L136.82 198.147H141.856L143.381 193.428L144.873 198.147Z" fill="#FFEA00"/>
<path fill-rule="evenodd" clip-rule="evenodd" d="M85.8747 164.513H90.9271L86.8583 167.565L88.4359 172.405L84.3857 169.424L80.3337 172.405L81.932 167.565L77.8281 164.513H82.8598L84.3857 159.794L85.8747 164.513Z" fill="#FFEA00"/>
<path fill-rule="evenodd" clip-rule="evenodd" d="M71.9257 178.865H76.9779L72.9077 181.914L74.4857 186.759L70.4354 183.776L66.3813 186.759L67.9779 181.914L63.874 178.865H68.9072L70.4354 174.147L71.9257 178.865Z" fill="#FFEA00"/>
<path fill-rule="evenodd" clip-rule="evenodd" d="M66.7406 198.196H71.7926L67.7241 201.247L69.3053 206.088L65.2515 203.107L61.1998 206.088L62.7957 201.247L58.6919 198.196H63.7256L65.2515 193.477L66.7406 198.196Z" fill="#FFEA00"/>
<path fill-rule="evenodd" clip-rule="evenodd" d="M71.9257 218.126H76.9779L72.9077 221.182L74.4857 226.02L70.4354 223.037L66.3813 226.02L67.9779 221.182L63.874 218.126H68.9072L70.4354 213.408L71.9257 218.126Z" fill="#FFEA00"/>
<path fill-rule="evenodd" clip-rule="evenodd" d="M86.0765 232.279H91.1287L87.0599 235.332L88.6359 240.172L84.5859 237.191L80.5354 240.172L82.1278 235.332L78.0239 232.279H83.058L84.5859 227.56L86.0765 232.279Z" fill="#FFEA00"/>
<path d="M396.011 117.09V281.842" stroke="#00509E" stroke-width="0.944933"/>
</svg>
